<svg width="71" height="24" viewBox="0 0 71 24" fill="none" xmlns="http://www.w3.org/2000/svg">
<g clip-path="url(#clip0_473_12059)">
<path d="M1.76199 12.3427C1.76199 12.9795 1.8847 13.6261 2.12519 14.2726C2.36568 14.924 2.66508 15.5414 3.02337 16.1345C3.38165 16.7276 3.76448 17.2866 4.18167 17.8116C4.59394 18.3366 4.97677 18.779 5.32034 19.1436C5.71298 19.5763 6.14489 19.9846 6.61607 20.3735C7.08724 20.7624 7.55841 21.1027 8.02959 21.3992C8.50076 21.6958 8.96703 21.934 9.42838 22.1187C9.88974 22.3034 10.302 22.3909 10.6701 22.3909C11.1315 22.3909 11.4996 22.2354 11.7744 21.9291C12.0493 21.6228 12.1867 21.127 12.1867 20.4416C12.2113 18.7304 12.01 17.1602 11.583 15.7213C11.156 14.2872 10.5671 13.033 9.8063 11.9587C9.04555 10.8892 8.14247 9.9996 7.09705 9.28985C6.05164 8.58497 4.90315 8.10371 3.66141 7.85578C3.2246 8.44886 2.82704 9.03707 2.46875 9.61556C2.11047 10.1989 1.87488 10.8503 1.76199 11.5795V12.333V12.3427ZM0.0343564 3.38343C0.0343564 2.35771 0.343564 1.53616 0.966888 0.923638C1.59021 0.306259 2.41477 0 3.45037 0C4.00498 0 4.49578 0.0923638 4.9326 0.27223C5.36942 0.456958 5.7228 0.70002 5.98783 1.00628C6.25287 1.31254 6.42465 1.66741 6.50318 2.06603C6.58171 2.46465 6.55717 2.89244 6.41483 3.3494C6.2087 3.98623 5.91912 4.59874 5.55102 5.17723C5.18291 5.76058 4.79027 6.32449 4.37799 6.86895C5.2958 6.86895 6.2725 6.87867 7.29338 6.90298C8.31916 6.92728 9.33022 7.01479 10.3315 7.17521C11.3327 7.33563 12.2849 7.58355 13.1978 7.9287C14.1058 8.26899 14.9058 8.75998 15.5978 9.3968C16.2899 10.0336 16.8396 10.8455 17.2567 11.8226C17.669 12.8045 17.8801 14.0004 17.8801 15.415C17.8801 16.8297 17.7279 18.0207 17.4334 18.9881C17.134 19.9554 16.7414 20.7624 16.2604 21.3992C15.7794 22.0361 15.2248 22.5222 14.6015 22.8527C13.9782 23.1833 13.3597 23.4312 12.7364 23.5868C12.1131 23.7472 11.5094 23.8444 10.9253 23.8785C10.3364 23.9125 9.82594 23.9319 9.38912 23.9319H5.31543C3.72522 23.9319 2.44421 23.4458 1.46751 22.4784C0.490806 21.511 0 20.2374 0 18.6672L0.0343564 3.38343ZM19.539 3.45149C19.539 2.42576 19.8531 1.60421 20.4862 0.991695C21.1194 0.374316 21.9636 0.0680575 23.0237 0.0680575C23.5734 0.0680575 24.0642 0.15556 24.4912 0.325704C24.9182 0.495848 25.2618 0.734049 25.5268 1.04517C25.7919 1.35143 25.9636 1.71116 26.0471 2.12437C26.1256 2.53271 26.1011 2.96536 25.9587 3.42232C25.7526 4.10776 25.4826 4.74458 25.1489 5.33765C24.8152 5.93073 24.4274 6.50922 23.9906 7.08284C23.7845 7.35507 23.5538 7.64675 23.2986 7.95301C23.0433 8.25927 22.8028 8.57525 22.5722 8.89123C22.3415 9.21207 22.1304 9.52805 21.9341 9.8489C21.7378 10.1697 21.5955 10.4857 21.5022 10.8066C21.3648 11.2149 21.2961 11.6378 21.2961 12.0705C21.2961 12.4594 21.3402 12.7997 21.4335 13.0962C21.6151 13.7816 21.9685 14.4574 22.4887 15.1282C23.0041 15.7991 23.4851 16.4213 23.9219 16.9901C24.3342 17.5588 24.7219 18.1422 25.0802 18.7353C25.4385 19.3283 25.7281 19.9652 25.9587 20.6506C26.1207 21.1076 26.16 21.5353 26.0814 21.934C25.998 22.3326 25.8213 22.6875 25.5465 22.9937C25.2716 23.3 24.9133 23.5479 24.4765 23.7278C24.0397 23.9125 23.544 24 22.9943 24C21.9587 24 21.1292 23.6937 20.5108 23.0764C19.8875 22.459 19.5783 21.6423 19.5783 20.6166L19.5439 3.45149H19.539ZM28.4667 3.68969C28.4667 3.05287 28.6631 2.53757 29.0557 2.14867C29.4484 1.75977 29.9637 1.57018 30.6067 1.57018H31.8484C32.4914 1.57018 33.0116 1.7695 33.3993 2.16812C33.792 2.56674 33.9883 3.09662 33.9883 3.75775C33.9883 4.41888 33.792 4.90986 33.3993 5.29876C33.0067 5.68766 32.4914 5.87725 31.8484 5.87725H30.6067C29.9637 5.87725 29.4435 5.6828 29.0557 5.29876C28.6631 4.90986 28.4667 4.39943 28.4667 3.75775V3.68969ZM27.7747 10.2864C27.7747 9.26068 28.0888 8.43913 28.722 7.82662C29.3551 7.20924 30.1993 6.90298 31.2594 6.90298C31.8091 6.90298 32.2999 6.99048 32.7269 7.16062C33.1539 7.33077 33.4975 7.56897 33.7625 7.88009C34.0276 8.18635 34.1994 8.54608 34.2779 8.95443C34.3564 9.36277 34.3319 9.80028 34.1895 10.2524C33.9589 11.0059 33.5908 11.6476 33.0852 12.1823C32.5797 12.717 32.0594 13.2032 31.5343 13.6358C31.0042 14.0685 30.538 14.4768 30.1355 14.8657C29.733 15.2546 29.5318 15.6727 29.5318 16.1296C29.5318 16.606 29.7428 17.063 30.1698 17.4956C30.5968 17.9283 31.0729 18.3658 31.603 18.813C32.1331 19.2554 32.6582 19.727 33.1736 20.2131C33.6889 20.7041 34.0325 21.2437 34.1895 21.8367C34.3711 22.4736 34.2092 22.9937 33.6889 23.3923C33.1736 23.791 32.349 23.9903 31.2202 23.9903C30.1846 23.9903 29.3551 23.7861 28.7367 23.3729C28.1134 22.9646 27.8042 22.4152 27.8042 21.7298L27.7698 10.2767L27.7747 10.2864ZM42.2191 21.9437C42.2878 22.1965 42.494 22.318 42.8425 22.318C43.2351 22.318 43.7357 22.1868 44.3443 21.9242C44.9529 21.6617 45.5713 21.3506 46.1898 20.986C46.8131 20.6214 47.3726 20.252 47.883 19.8728C48.3886 19.4985 48.7223 19.1971 48.8843 18.9686C49.0659 18.7401 49.0659 18.5943 48.8843 18.5262C48.6978 18.4582 48.4033 18.4241 47.9861 18.4241C47.5689 18.4241 47.0634 18.4436 46.4646 18.4776C45.8658 18.5116 45.2229 18.5311 44.5308 18.5311C43.5885 18.5311 42.6069 18.4582 41.5958 18.3075C40.5848 18.1616 39.662 17.8505 38.8326 17.3838C38.0031 16.9172 37.3209 16.2366 36.781 15.3518C36.2411 14.4622 35.9712 13.2761 35.9712 11.7983V10.8746C35.9712 8.2301 37.6743 6.90784 41.0805 6.90784H44.5308C46.0033 6.93215 47.2057 7.13632 48.1383 7.52522C49.0708 7.91412 49.7432 8.54122 50.1555 9.40652C50.2929 9.72737 50.3322 10.0531 50.2782 10.3788C50.2193 10.7093 50.0818 11.0107 49.8659 11.283C49.645 11.5552 49.3407 11.7837 48.953 11.9684C48.5603 12.1531 48.1137 12.2406 47.6082 12.2406C46.71 12.2406 45.964 11.9538 45.3652 11.3851C44.7664 10.8163 44.467 10.1406 44.467 9.36763C44.467 8.89123 44.202 8.64817 43.6719 8.64817C43.2793 8.64817 42.7934 8.77456 42.2044 9.02248C41.6154 9.27527 41.0314 9.57667 40.4424 9.92668C39.8535 10.2815 39.3185 10.6461 38.8375 11.0205C38.3565 11.3948 38.0227 11.7108 37.8362 11.9587C37.5614 12.3233 37.7332 12.5031 38.3516 12.5031C38.8129 12.5031 39.4755 12.4448 40.3344 12.333C41.1983 12.2212 42.121 12.1629 43.1124 12.1629C44.0106 12.1629 44.8989 12.2504 45.7873 12.4205C46.6707 12.5906 47.4708 12.9261 48.1873 13.4268C48.899 13.9275 49.4831 14.6275 49.9297 15.5317C50.3763 16.431 50.6021 17.6123 50.6021 19.0707V19.9943C50.6021 20.7478 50.5138 21.3749 50.342 21.8756C50.1702 22.3763 49.8855 22.7798 49.4978 23.0909C49.1051 23.3972 48.5849 23.6208 47.9272 23.7569C47.2695 23.8931 46.4695 23.9611 45.5272 23.9611H42.0768C39.1761 23.9174 37.3111 23.0618 36.4865 21.3992C36.3491 21.0784 36.3098 20.7624 36.3638 20.4416C36.4227 20.1207 36.5601 19.8242 36.7761 19.552C36.997 19.2797 37.2963 19.0561 37.6743 18.886C38.0522 18.7158 38.4841 18.6283 38.97 18.6283C39.8436 18.6283 40.5651 18.92 41.1295 19.4985C41.694 20.0818 42.0326 20.7673 42.1455 21.5645C42.1455 21.6812 42.1701 21.8027 42.2142 21.9388M58.3421 21.9388C58.4108 22.1916 58.617 22.3131 58.9654 22.3131C59.3581 22.3131 59.8587 22.1819 60.4673 21.9194C61.0759 21.6569 61.6943 21.3458 62.3127 20.9812C62.9361 20.6166 63.4956 20.2471 64.006 19.8679C64.5115 19.4936 64.8453 19.1922 65.0073 18.9637C65.1889 18.7353 65.1889 18.5894 65.0073 18.5214C64.8207 18.4533 64.5263 18.4193 64.1091 18.4193C63.6919 18.4193 63.1864 18.4387 62.5876 18.4728C61.9888 18.5068 61.3458 18.5262 60.6538 18.5262C59.7115 18.5262 58.7298 18.4533 57.7188 18.3026C56.7077 18.1568 55.785 17.8457 54.9556 17.379C54.1261 16.9123 53.4439 16.2317 52.904 15.347C52.3641 14.4574 52.0942 13.2712 52.0942 11.7934V10.8698C52.0942 8.22524 53.7972 6.90298 57.2034 6.90298H60.6538C62.1262 6.92728 63.3287 7.13146 64.2612 7.52036C65.1938 7.90926 65.8662 8.53636 66.2784 9.40166C66.4159 9.7225 66.4551 10.0482 66.4011 10.3739C66.3422 10.7045 66.2048 11.0059 65.9889 11.2781C65.768 11.5503 65.4637 11.7788 65.076 11.9635C64.6833 12.1483 64.2367 12.2358 63.7312 12.2358C62.833 12.2358 62.087 11.949 61.4882 11.3802C60.8894 10.8114 60.59 10.1357 60.59 9.36277C60.59 8.88637 60.325 8.64331 59.7949 8.64331C59.4023 8.64331 58.9164 8.7697 58.3274 9.01762C57.7384 9.27041 57.1544 9.57181 56.5654 9.92181C55.9764 10.2767 55.4414 10.6413 54.9605 11.0156C54.4795 11.3899 54.1457 11.7059 53.9592 11.9538C53.6844 12.3184 53.8561 12.4983 54.4746 12.4983C54.9359 12.4983 55.5985 12.4399 56.4574 12.3281C57.3212 12.2163 58.2439 12.158 59.2354 12.158C60.1336 12.158 61.0219 12.2455 61.9103 12.4156C62.7937 12.5858 63.5937 12.9212 64.3103 13.4219C65.022 13.9226 65.606 14.6226 66.0527 15.5268C66.4993 16.4262 66.7251 17.6075 66.7251 19.0658V19.9895C66.7251 20.743 66.6367 21.3701 66.465 21.8708C66.2932 22.3715 66.0085 22.775 65.6208 23.0861C65.2281 23.3923 64.7079 23.616 64.0502 23.7521C63.3925 23.8882 62.5925 23.9562 61.6501 23.9562H58.1998C55.2991 23.9125 53.4341 23.0569 52.6095 21.3944C52.4721 21.0735 52.4328 20.7575 52.4868 20.4367C52.5457 20.1159 52.6831 19.8193 52.8991 19.5471C53.115 19.2749 53.4193 19.0512 53.7972 18.8811C54.1752 18.711 54.6071 18.6235 55.093 18.6235C55.9666 18.6235 56.6881 18.9151 57.2525 19.4936C57.8169 20.077 58.1556 20.7624 58.2685 21.5597C58.2685 21.6763 58.293 21.7979 58.3372 21.934M69.076 8.90581H69.4147C69.4736 8.90581 69.5276 8.89123 69.5668 8.8572C69.6061 8.82317 69.6306 8.77942 69.6306 8.71622C69.6306 8.65303 69.611 8.60928 69.5668 8.58011C69.5276 8.55094 69.4736 8.53636 69.4147 8.53636H69.076V8.90581ZM69.9595 9.03221C69.8908 9.12457 69.7926 9.18777 69.6748 9.22666L70.1362 9.90723L69.6159 9.91695L69.2184 9.26068H69.076V9.91695H68.6441V8.15232H69.4392C69.6257 8.15232 69.7779 8.20093 69.8908 8.29816C70.0037 8.39538 70.0626 8.5315 70.0626 8.70164C70.0626 8.83289 70.0282 8.9447 69.9595 9.03221ZM70.2834 10.019C70.5288 9.76626 70.6515 9.44055 70.6515 9.04193C70.6515 8.64331 70.5288 8.3176 70.2834 8.06482C70.038 7.81203 69.7141 7.68564 69.3165 7.68564C68.919 7.68564 68.5901 7.81203 68.3496 8.06482C68.1091 8.3176 67.9914 8.64331 67.9914 9.04193C67.9914 9.44055 68.1091 9.76626 68.3496 10.019C68.5901 10.2718 68.9141 10.3982 69.3165 10.3982C69.719 10.3982 70.038 10.2718 70.2834 10.019ZM70.1804 7.58841C70.4356 7.73425 70.6319 7.93356 70.7791 8.18635C70.9215 8.43913 70.9951 8.72595 70.9951 9.04193C70.9951 9.35791 70.9215 9.64472 70.7791 9.90237C70.6368 10.16 70.4356 10.3593 70.1804 10.5052C69.9251 10.651 69.6405 10.7239 69.3165 10.7239C68.9926 10.7239 68.6981 10.651 68.4478 10.5052C68.1926 10.3593 67.9963 10.16 67.849 9.90237C67.7067 9.64472 67.6331 9.35791 67.6331 9.04193C67.6331 8.72595 67.7067 8.43913 67.849 8.18635C67.9914 7.93356 68.1926 7.73425 68.4478 7.58841C68.703 7.44258 68.9926 7.36966 69.3165 7.36966C69.6405 7.36966 69.9251 7.44258 70.1804 7.58841Z" fill="black"/>
</g>
<defs>
<clipPath id="clip0_473_12059">
<rect width="71" height="24" fill="white"/>
</clipPath>
</defs>
</svg>
