<svg width="68" height="22" viewBox="0 0 68 22" fill="none" xmlns="http://www.w3.org/2000/svg">
<g clip-path="url(#clip0_473_12023)">
<path d="M20.0504 5.89609C15.7544 5.89609 13.5767 7.52353 13.5767 10.7338C13.5767 13.9441 15.7544 15.5715 20.0504 15.5715C24.3464 15.5715 26.5241 13.9441 26.5241 10.7338C26.5241 7.52353 24.3464 5.89609 20.0504 5.89609ZM20.0504 13.1487C18.2033 13.1487 16.4926 12.8554 16.4926 10.7226C16.4926 8.5899 18.2017 8.29661 20.0504 8.29661C21.8991 8.29661 23.6243 8.5899 23.6243 10.7226C23.6243 12.8554 21.9055 13.1487 20.0504 13.1487Z" fill="#81CCE4"/>
<path d="M9.73308 11.6758C9.303 12.9462 7.94213 13.1487 6.4914 13.1487C4.74378 13.1487 3.12454 12.8554 3.12454 10.7226C3.12454 8.58991 4.74217 8.29662 6.4914 8.29662C7.95176 8.29662 9.32226 8.50064 9.74111 9.79495H12.9475C12.5463 7.20634 10.3798 5.8945 6.50584 5.8945C2.18894 5.89609 0 7.52354 0 10.7322C0 13.9409 2.18894 15.5699 6.50584 15.5699C10.3798 15.5699 12.5447 14.2581 12.9475 11.6695H9.73629C9.73629 11.6695 9.73469 11.6742 9.73308 11.6758Z" fill="#81CCE4"/>
<path d="M65.7885 7.86466C65.7532 7.84713 65.7324 7.81206 65.7324 7.77381C65.7324 7.73555 65.7548 7.70048 65.7885 7.68295C67.2569 6.96566 68 5.88336 68 4.4695C68 1.33576 65.4804 -0.00158691 59.578 -0.00158691C54.295 -0.00158691 50.7628 0.989863 50.7163 5.81322H55.3606C55.4184 3.96262 57.0954 3.86698 59.7995 3.86698C62.5035 3.86698 63.3589 4.04391 63.3589 5.21389C63.3589 6.61658 62.1569 6.62774 57.6988 6.62774V8.91987C62.3671 8.91987 63.3589 8.97726 63.3589 10.3337C63.3589 11.6902 62.2676 11.6806 59.7995 11.6806C57.0954 11.6806 55.4184 11.585 55.3606 9.73439H50.7163C50.7645 14.5578 54.295 15.5492 59.578 15.5492C65.482 15.5492 68 14.2119 68 11.0781C68 9.66426 67.2553 8.58195 65.7885 7.86466Z" fill="#D0CFCD"/>
<path d="M27.7068 18.0836L25.3687 21.9984H26.1181L26.675 21.0707H29.5026L30.0611 21.9984H30.8105L28.4739 18.0836H27.7084H27.7068ZM27.0088 20.5112L28.0904 18.6989L29.172 20.5112H27.0104H27.0088Z" fill="#424448"/>
<path d="M6.67425 19.7621H2.78744V18.0836H2.11182V22H2.78744V20.3216H6.67425V22H7.34987V18.0836H6.67425V19.7621Z" fill="#424448"/>
<path d="M14.3262 22H18.4938V21.4405H15.0018V20.3216H18.4938V19.7621H15.0018V18.6431H18.4938V18.0836H14.3262V22Z" fill="#424448"/>
<path d="M65.1995 18.0836V19.7621H61.3143V18.0836H60.6387V22H61.3143V20.3216H65.1995V22H65.8751V18.0836H65.1995Z" fill="#424448"/>
<path d="M48.8179 18.6431H50.9009V22H51.5781V18.6431H53.6611V18.0836H48.8179V18.6431Z" fill="#424448"/>
<path d="M38.4622 18.0836H37.7866V22H41.8419V21.4405H38.4622V18.0836Z" fill="#424448"/>
<path d="M34.7214 5.88654C34.1052 5.86263 33.505 5.89611 32.932 5.97581C31.0015 6.25316 30.289 7.35778 30.289 7.35778V6.75845V5.88654H27.1548V15.5508H30.289V11.2582C30.289 10.101 31.454 9.12231 32.9176 8.77801C32.924 8.77641 32.9272 8.77641 32.932 8.77323C34.0602 8.53094 35.0985 8.55963 35.8768 8.65208V6.06666C35.5527 5.99812 35.1772 5.93436 34.723 5.88814" fill="#81CCE4"/>
<path d="M48.8837 11.1929H49.4421C49.4518 11.0478 49.4582 10.8996 49.4582 10.7466C49.4582 7.28444 46.9435 5.8945 42.9652 5.8945C38.9869 5.8945 36.4722 7.28604 36.4722 10.7466C36.4722 14.2071 39.0029 15.5986 42.9652 15.5986C46.3304 15.5986 48.6477 14.6024 49.2816 12.2003H45.6837C45.1621 12.7135 44.2506 12.8952 42.9652 12.8952C41.0683 12.8952 39.9786 12.492 39.7845 11.1913H48.8821L48.8837 11.1929ZM45.91 9.57658H39.9738C40.42 8.4863 41.5658 8.26474 42.9973 8.26474C44.3501 8.26474 45.512 8.4863 45.9726 9.57658H45.91Z" fill="#81CCE4"/>
</g>
<defs>
<clipPath id="clip0_473_12023">
<rect width="68" height="22" fill="white"/>
</clipPath>
</defs>
</svg>
