<svg width="12" height="12" viewBox="0 0 12 12" fill="none" xmlns="http://www.w3.org/2000/svg">
<g clip-path="url(#clip0_385_2373)">
<path d="M5.99995 11.8002C9.2032 11.8002 11.8 9.20345 11.8 6.0002C11.8 2.79694 9.2032 0.200195 5.99995 0.200195C2.7967 0.200195 0.199951 2.79694 0.199951 6.0002C0.199951 9.20345 2.7967 11.8002 5.99995 11.8002Z" fill="#09A79D"/>
<path d="M8.92405 7.0362C8.92405 5.6842 7.67205 5.43619 6.49605 5.28019V3.7362C6.71556 3.76666 6.91976 3.86593 7.07931 4.01973C7.23886 4.17353 7.34555 4.37395 7.38405 4.5922H8.70805C8.58405 3.2402 7.41605 2.8522 6.48005 2.7442V1.7002H5.50405V2.7122C4.21205 2.8002 3.20005 3.3242 3.20005 4.5482C3.20005 5.77219 4.36005 6.0922 5.52005 6.2402V8.0002C5.23624 7.9818 4.96918 7.85944 4.76993 7.6565C4.57068 7.45356 4.45323 7.18429 4.44005 6.9002H3.07605C3.07605 8.02419 3.79605 8.82019 5.50405 8.96019V10.2202H6.49605V8.94819C7.66405 8.8602 8.92405 8.4002 8.92405 7.0362ZM4.52405 4.4442C4.52405 3.9802 4.92405 3.7282 5.51205 3.6722V5.1482C4.92405 5.0482 4.50805 4.88019 4.50805 4.4442H4.52405ZM6.52405 8.0122V6.4002C7.14805 6.51619 7.60405 6.7082 7.60405 7.17219C7.60405 7.6362 7.09205 7.93219 6.49605 8.0002L6.52405 8.0122Z" fill="white"/>
</g>
<defs>
<clipPath id="clip0_385_2373">
<rect width="12" height="12" fill="white"/>
</clipPath>
</defs>
</svg>
