<svg width="12" height="12" viewBox="0 0 12 12" fill="none" xmlns="http://www.w3.org/2000/svg">
<g clip-path="url(#clip0_463_5345)">
<path d="M5.99995 11.8C9.2032 11.8 11.8 9.2032 11.8 5.99995C11.8 2.7967 9.2032 0.199951 5.99995 0.199951C2.7967 0.199951 0.199951 2.7967 0.199951 5.99995C0.199951 9.2032 2.7967 11.8 5.99995 11.8Z" fill="#09A79D"/>
<path d="M8.92405 7.03595C8.92405 5.68395 7.67205 5.43595 6.49605 5.27995V3.73595C6.71556 3.76642 6.91976 3.86568 7.07931 4.01948C7.23886 4.17329 7.34555 4.37371 7.38405 4.59195H8.70805C8.58405 3.23995 7.41605 2.85195 6.48005 2.74395V1.69995H5.50405V2.71195C4.21205 2.79995 3.20005 3.32395 3.20005 4.54795C3.20005 5.77195 4.36005 6.09195 5.52005 6.23995V7.99995C5.23624 7.98156 4.96918 7.85919 4.76993 7.65625C4.57068 7.45331 4.45323 7.18405 4.44005 6.89995H3.07605C3.07605 8.02395 3.79605 8.81995 5.50405 8.95995V10.22H6.49605V8.94795C7.66405 8.85995 8.92405 8.39995 8.92405 7.03595ZM4.52405 4.44395C4.52405 3.97995 4.92405 3.72795 5.51205 3.67195V5.14795C4.92405 5.04795 4.50805 4.87995 4.50805 4.44395H4.52405ZM6.52405 8.01195V6.39995C7.14805 6.51595 7.60405 6.70795 7.60405 7.17195C7.60405 7.63595 7.09205 7.93195 6.49605 7.99995L6.52405 8.01195Z" fill="white"/>
</g>
<defs>
<clipPath id="clip0_463_5345">
<rect width="12" height="12" fill="white"/>
</clipPath>
</defs>
</svg>
