<svg width="12" height="12" viewBox="0 0 12 12" fill="none" xmlns="http://www.w3.org/2000/svg">
<g clip-path="url(#clip0_463_5157)">
<path d="M6.00001 11.8C9.20326 11.8 11.8 9.2032 11.8 5.99995C11.8 2.7967 9.20326 0.199951 6.00001 0.199951C2.79676 0.199951 0.200012 2.7967 0.200012 5.99995C0.200012 9.2032 2.79676 11.8 6.00001 11.8Z" fill="#09A79D"/>
<path d="M8.92399 7.03595C8.92399 5.68395 7.67199 5.43595 6.49599 5.27995V3.73595C6.7155 3.76642 6.9197 3.86568 7.07925 4.01948C7.2388 4.17329 7.34549 4.37371 7.38399 4.59195H8.70799C8.58399 3.23995 7.41599 2.85195 6.47999 2.74395V1.69995H5.50399V2.71195C4.21199 2.79995 3.19999 3.32395 3.19999 4.54795C3.19999 5.77195 4.35999 6.09195 5.51999 6.23995V7.99995C5.23618 7.98156 4.96912 7.85919 4.76987 7.65625C4.57062 7.45331 4.45317 7.18405 4.43999 6.89995H3.07599C3.07599 8.02395 3.79599 8.81995 5.50399 8.95995V10.22H6.49599V8.94795C7.66399 8.85995 8.92399 8.39995 8.92399 7.03595ZM4.52399 4.44395C4.52399 3.97995 4.92399 3.72795 5.51199 3.67195V5.14795C4.92399 5.04795 4.50799 4.87995 4.50799 4.44395H4.52399ZM6.52399 8.01195V6.39995C7.14799 6.51595 7.60399 6.70795 7.60399 7.17195C7.60399 7.63595 7.09199 7.93195 6.49599 7.99995L6.52399 8.01195Z" fill="white"/>
</g>
<defs>
<clipPath id="clip0_463_5157">
<rect width="12" height="12" fill="white"/>
</clipPath>
</defs>
</svg>
