<svg width="16" height="16" viewBox="0 0 16 16" fill="none" xmlns="http://www.w3.org/2000/svg">
<g clip-path="url(#clip0_385_2672)">
<path d="M7.99993 15.7333C12.2709 15.7333 15.7333 12.2709 15.7333 7.99993C15.7333 3.72893 12.2709 0.266602 7.99993 0.266602C3.72893 0.266602 0.266602 3.72893 0.266602 7.99993C0.266602 12.2709 3.72893 15.7333 7.99993 15.7333Z" fill="#09A79D"/>
<path d="M11.8987 9.38127C11.8987 7.5786 10.2293 7.24793 8.66132 7.03994V4.98127C8.954 5.02189 9.22626 5.15424 9.439 5.35931C9.65174 5.56438 9.79399 5.83161 9.84532 6.1226H11.6107C11.4453 4.31993 9.88799 3.8026 8.63999 3.6586V2.2666H7.33865V3.61594C5.61599 3.73327 4.26665 4.43194 4.26665 6.06394C4.26665 7.69594 5.81332 8.1226 7.35999 8.31994V10.6666C6.98158 10.6421 6.62549 10.4789 6.35982 10.2083C6.09416 9.93775 5.93756 9.57873 5.91999 9.19994H4.10132C4.10132 10.6986 5.06132 11.7599 7.33865 11.9466V13.6266H8.66132V11.9306C10.2187 11.8133 11.8987 11.1999 11.8987 9.38127ZM6.03199 5.92527C6.03199 5.3066 6.56532 4.9706 7.34932 4.89594V6.86393C6.56532 6.7306 6.01065 6.5066 6.01065 5.92527H6.03199ZM8.69865 10.6826V8.53327C9.53065 8.68794 10.1387 8.94394 10.1387 9.5626C10.1387 10.1813 9.45599 10.5759 8.66132 10.6666L8.69865 10.6826Z" fill="white"/>
</g>
<defs>
<clipPath id="clip0_385_2672">
<rect width="16" height="16" fill="white"/>
</clipPath>
</defs>
</svg>
