<svg width="74" height="28" viewBox="0 0 74 28" fill="none" xmlns="http://www.w3.org/2000/svg">
<path d="M15.576 3.50778C15.5763 3.22837 15.6819 2.95954 15.8715 2.75592C14.9542 1.89259 13.1736 2.21926 12.3899 3.11111C11.6962 3.88889 11.6653 4.92592 11.6653 5.92926C11.6653 6.48666 12.5646 6.31815 12.9244 6.31815H14.3633C15.057 6.31815 15.3653 6.83666 15.3396 7.49259C15.3461 7.62446 15.3249 7.75623 15.2772 7.87918C15.2295 8.00213 15.1565 8.11348 15.063 8.20586C14.9695 8.29823 14.8576 8.36955 14.7348 8.41508C14.6119 8.46061 14.4809 8.47933 14.3504 8.47C13.6258 8.48814 12.8961 8.47 12.1664 8.47C11.5883 8.47 11.6525 9.06629 11.6525 9.47592V17.3704C11.6525 18.1093 11.6525 18.537 11.6833 18.6667C11.7424 18.9933 11.8837 19.3485 12.228 19.4444C12.521 19.53 12.8807 19.3926 13.1633 19.3226C13.6001 19.2604 14.1603 19.167 14.5123 19.5093C14.6478 19.6765 14.7351 19.8783 14.7645 20.0923C14.794 20.3063 14.7645 20.5244 14.6793 20.7226C14.2939 21.6352 12.7445 21.2618 12.0122 21.1737C10.9721 21.0403 9.92004 21.0299 8.87749 21.1426C8.22228 21.2281 7.41291 21.4278 6.77055 21.21C6.61142 21.1553 6.46911 21.0598 6.35752 20.9329C6.24593 20.8061 6.16888 20.6521 6.13392 20.4862C6.09896 20.3203 6.10728 20.1481 6.15807 19.9864C6.20886 19.8246 6.30038 19.679 6.42367 19.5637C6.81936 19.1878 7.34867 19.2318 7.83173 19.3667C8.47409 19.5481 9.06506 19.5093 9.21923 18.7522C9.322 18.2717 9.38367 17.1154 9.40423 15.2833V9.00926C9.40423 8.45185 8.92374 8.47 8.5152 8.47H7.41805C7.28714 8.48153 7.15529 8.4654 7.0309 8.42264C6.90651 8.37989 6.79233 8.31144 6.69562 8.22167C6.59892 8.1319 6.52182 8.02278 6.46924 7.90126C6.41667 7.77975 6.38977 7.64851 6.39027 7.51592C6.34659 6.94037 6.57013 6.44 7.1611 6.33629C7.75207 6.23259 8.49721 6.31555 9.13443 6.31555C9.62777 6.31555 9.51985 5.72963 9.51985 5.3874C9.51985 3.8137 9.93096 2.60555 10.766 1.77074C11.6011 0.935923 12.6931 0.604071 13.8108 0.526294C14.9876 0.456294 16.2852 0.596294 17.2873 1.27296C18.1994 1.89518 18.9523 3.45592 17.9964 4.38407C17.7207 4.63949 17.3616 4.78379 16.9874 4.78953C16.6131 4.79526 16.2499 4.66204 15.9666 4.41518C15.8412 4.29962 15.7415 4.15851 15.6742 4.00119C15.6069 3.84388 15.5734 3.67393 15.576 3.50259V3.50778ZM23.5773 12.5067V16.3956C23.5773 17.3911 23.5773 17.977 23.603 18.1585C23.6492 18.5578 23.7212 19.1359 24.0758 19.3952C24.3789 19.6207 24.826 19.447 25.1498 19.3796C25.5609 19.2448 26.211 19.3018 26.5116 19.6389C26.5904 19.739 26.6487 19.8538 26.6832 19.9769C26.7176 20.0999 26.7274 20.2286 26.7121 20.3555C26.6968 20.4823 26.6567 20.6049 26.594 20.716C26.5314 20.8271 26.4474 20.9245 26.3471 21.0026C25.7151 21.5056 24.695 21.2619 23.9678 21.1581C22.9168 21.016 21.8519 21.0116 20.7997 21.1452C20.0905 21.2385 18.5514 21.6456 18.1532 20.7667C18.0646 20.5711 18.0331 20.3541 18.0622 20.1411C18.0913 19.9281 18.1799 19.7278 18.3176 19.5637C18.6928 19.2007 19.3197 19.3226 19.7822 19.3952C20.201 19.4678 20.6635 19.5922 20.9462 19.1981C21.2648 18.7522 21.311 18.0833 21.3521 17.5648V9.9037C21.311 9.38518 21.2622 8.71889 20.9308 8.28592C20.6378 7.90222 20.1908 8.02666 19.7822 8.13037C18.9728 8.32481 17.9219 8.20037 18.0684 7.10629C18.1969 6.13407 19.4353 6.19889 20.1625 6.28963C20.8046 6.39815 21.4587 6.413 22.105 6.3337C22.5161 6.27148 23.0711 6.13926 23.4051 6.47111C23.7392 6.80296 23.7135 7.36296 23.6621 7.78815C23.6467 7.9437 23.6364 8.06296 23.6364 8.14333C23.6235 8.30666 23.6107 8.92111 23.585 9.99963C23.5799 10.8163 23.5747 11.6511 23.5747 12.5093L23.5773 12.5067ZM22.0356 4.66666C21.8173 4.66996 21.6006 4.62794 21.3991 4.5432C21.1975 4.45846 21.0154 4.33282 20.8639 4.17407C20.712 4.02093 20.5914 3.83907 20.5092 3.63888C20.4269 3.4387 20.3846 3.22411 20.3846 3.0074C20.3846 2.7907 20.4269 2.57611 20.5092 2.37593C20.5914 2.17574 20.712 1.99388 20.8639 1.84074C21.1783 1.53621 21.5972 1.36615 22.033 1.36615C22.4688 1.36615 22.8878 1.53621 23.2021 1.84074C23.3541 1.99388 23.4747 2.17574 23.5569 2.37593C23.6392 2.57611 23.6815 2.7907 23.6815 3.0074C23.6815 3.22411 23.6392 3.4387 23.5569 3.63888C23.4747 3.83907 23.3541 4.02093 23.2021 4.17407C23.0513 4.33217 22.87 4.45744 22.6694 4.54216C22.4688 4.62688 22.2531 4.66925 22.0356 4.66666ZM31.5477 18.1844L35.6588 13.4037L31.5477 8.47778C31.3838 8.28347 31.1699 8.13855 30.9297 8.05896C30.6894 7.97937 30.432 7.96819 30.1859 8.02666L29.672 8.16926C28.968 8.36889 28.2794 8.02407 28.2845 7.24889C28.2896 6.4737 28.9114 6.22481 29.5949 6.22481L31.0723 6.34407C31.969 6.44903 32.8749 6.4438 33.7703 6.32852C34.4794 6.25074 35.9697 5.90852 36.3397 6.79518C36.7508 7.81407 35.7333 8.42852 34.8494 8.12778L34.4023 7.99037H34.2225C34.1454 7.99037 34.1043 8.01629 34.1043 8.05C34.1642 8.2068 34.2512 8.35164 34.3612 8.47778L37.0592 11.8144L39.8855 8.47778C40.0654 8.27037 40.1425 8.13037 40.1425 8.05C40.0474 7.89444 39.6286 8.05 39.513 8.09666C38.8578 8.30407 38.0484 8.19259 37.9533 7.3837C37.8583 6.57481 38.4672 6.23 39.1867 6.23C39.1455 6.23 39.6697 6.28185 40.7592 6.38037C41.7453 6.47547 42.739 6.45982 43.7217 6.3337C44.4412 6.24296 45.8929 5.93703 46.1704 6.91444C46.2332 7.10281 46.2425 7.30517 46.197 7.49856C46.1516 7.69195 46.0534 7.86862 45.9135 8.00852C45.5332 8.31444 44.9628 8.20555 44.526 8.10185C44.317 8.0274 44.095 7.99727 43.874 8.01333C43.6529 8.02939 43.4375 8.0913 43.2412 8.19518C42.7231 8.53024 42.2631 8.9489 41.8794 9.43444L38.4235 13.3933L43.0485 18.9104C43.4648 19.4289 43.9992 19.4496 44.6056 19.377C45.3764 19.2889 46.2809 19.3615 46.2192 20.3622C46.1678 21.1919 45.4227 21.3059 44.7418 21.3059L43.5855 21.1556C42.5793 21.0553 41.5653 21.0658 40.5613 21.1867L39.4976 21.3085H39.1712C38.385 21.3085 37.6039 20.987 37.8094 20.0511C38.015 19.1152 39.2637 19.3381 39.9678 19.4289C40.2247 19.5456 40.6821 19.3304 40.384 19.04L40.2967 18.9181L37.0001 15.0293L33.6598 18.9181C33.5416 19.0478 33.3335 19.2811 33.557 19.4004C33.7805 19.5196 34.166 19.4004 34.3689 19.3744C35.1783 19.2967 36.3474 19.3226 36.2626 20.4478C36.1933 21.3293 35.2348 21.3033 34.5745 21.3033L33.3926 21.1841C32.4461 21.0845 31.492 21.0845 30.5456 21.1841C29.8339 21.2696 28.3359 21.63 27.9171 20.79C27.8276 20.6037 27.7911 20.3961 27.8115 20.1902C27.8319 19.9842 27.9085 19.788 28.0327 19.6233C28.3719 19.2474 28.9654 19.3278 29.4151 19.3641C29.8082 19.4004 30.1088 19.4289 30.4428 19.2189C30.861 18.9357 31.2336 18.5894 31.5477 18.1922V18.1844ZM51.3119 18.1844L55.423 13.4037L51.3119 8.47778C51.147 8.28507 50.9326 8.14198 50.6924 8.06422C50.4521 7.98647 50.1953 7.97706 49.9501 8.03703L49.4362 8.17963C48.7296 8.37148 48.041 8.03703 48.0435 7.25666C48.0461 6.47629 48.6756 6.21963 49.3539 6.21963L50.8391 6.33889C51.7357 6.44371 52.6416 6.43849 53.537 6.32333C54.2462 6.24555 55.7364 5.90333 56.1064 6.79C56.5176 7.80889 55.5026 8.42852 54.6162 8.12259L54.1717 7.98518H53.9918C53.9147 7.98518 53.8736 8.01111 53.8736 8.04481C53.9319 8.20238 54.0191 8.34749 54.1305 8.47259L56.8285 11.8093L59.6549 8.47259C59.8296 8.26518 59.9118 8.12518 59.9118 8.04481C59.8347 7.88926 59.3722 8.06037 59.2823 8.09148C58.6322 8.29889 57.8254 8.18481 57.7406 7.37852C57.6558 6.57222 58.2545 6.22481 58.9739 6.22481C58.9346 6.22481 59.4596 6.27494 60.549 6.37518C61.5343 6.47078 62.5271 6.45513 63.509 6.32852C64.2285 6.23777 65.6802 5.93185 65.9603 6.90926C66.0231 7.09762 66.0323 7.29999 65.9869 7.49338C65.9415 7.68677 65.8432 7.86344 65.7033 8.00333C65.323 8.30926 64.7526 8.20037 64.3158 8.09666C64.1068 8.02222 63.8849 7.99208 63.6638 8.00814C63.4428 8.0242 63.2274 8.08611 63.0311 8.19C62.5129 8.52494 62.0528 8.94362 61.6693 9.42926L58.1903 13.3881L62.8153 18.9052C63.2264 19.4237 63.766 19.4444 64.3698 19.3719C65.1406 19.2837 66.0476 19.3537 65.9885 20.357C65.9371 21.1867 65.1843 21.3007 64.506 21.3007L63.3497 21.1504C62.3452 21.0506 61.3329 21.061 60.3306 21.1815L59.2643 21.3033H58.938C58.1543 21.3033 57.3706 20.9793 57.5762 20.0459C57.7817 19.1126 59.0305 19.333 59.7345 19.4237C59.9914 19.5533 60.4385 19.3252 60.1508 19.0348L60.0608 18.913L56.7719 15.0241L53.4317 18.913C53.3109 19.0426 53.1028 19.2759 53.3289 19.3952C53.555 19.5144 53.9378 19.3952 54.1408 19.3693C54.9476 19.2915 56.1193 19.3174 56.0319 20.4426C55.9651 21.3241 55.0042 21.2981 54.3464 21.2981L53.1644 21.1789C52.2163 21.0789 51.2605 21.0789 50.3124 21.1789C49.5903 21.2593 48.0487 21.63 47.6633 20.7407C47.5795 20.5522 47.5495 20.3439 47.5768 20.1391C47.604 19.9344 47.6874 19.7414 47.8174 19.5819C48.1669 19.2344 48.7424 19.3226 49.1792 19.3433C49.5281 19.4162 49.8913 19.3649 50.207 19.1981C50.6244 18.9202 50.9971 18.5792 51.3119 18.187V18.1844ZM6.96325 24.3963C7.15411 24.3888 7.34177 24.4473 7.49513 24.5622V24.5441C7.49513 24.4248 7.54652 24.3678 7.64929 24.3678C7.75207 24.3678 7.80346 24.4144 7.80346 24.5181V24.6633C7.79326 24.7276 7.7881 24.7927 7.78804 24.8578C7.78477 24.913 7.78477 24.9684 7.78804 25.0237V25.1922C7.78804 25.3115 7.73666 25.3737 7.63388 25.3737C7.61304 25.3762 7.5919 25.3739 7.57207 25.367C7.55224 25.36 7.53422 25.3487 7.51938 25.3337C7.50454 25.3187 7.49326 25.3005 7.48639 25.2805C7.47951 25.2605 7.47723 25.2392 7.47971 25.2181V25.0626C7.4772 25.009 7.46097 24.9569 7.4326 24.9115C7.40423 24.866 7.3647 24.8288 7.31784 24.8033C7.20441 24.7329 7.07329 24.6969 6.94013 24.6996C6.80798 24.6946 6.67816 24.7358 6.5727 24.8163C6.52695 24.847 6.48942 24.8886 6.46342 24.9375C6.43743 24.9863 6.42377 25.0409 6.42367 25.0963C6.42367 25.2985 6.56242 25.423 6.84249 25.4593L7.11999 25.4981C7.66471 25.5759 7.9345 25.7963 7.9345 26.1774C7.93772 26.2845 7.91617 26.3908 7.87157 26.488C7.82697 26.5852 7.76055 26.6706 7.67756 26.7374C7.48158 26.8871 7.23959 26.9624 6.99409 26.95C6.74828 26.9553 6.50806 26.8757 6.31318 26.7244V26.8178C6.31318 26.9344 6.26179 26.9889 6.14874 26.9889C6.03568 26.9889 5.97659 26.9241 5.97659 26.7944C5.97659 26.8152 5.97659 26.7348 6.00228 26.5352C6.00559 26.4903 6.00559 26.4452 6.00228 26.4004C6.00189 26.3283 5.99588 26.2563 5.9843 26.1852C5.97391 26.1339 5.96789 26.0819 5.96631 26.0296C5.96631 25.9156 6.01256 25.8585 6.11534 25.8585C6.21811 25.8585 6.22325 25.8767 6.24381 25.9104C6.26726 25.9946 6.27596 26.0824 6.2695 26.1696C6.27385 26.2391 6.29635 26.3061 6.33471 26.364C6.37308 26.4218 6.42593 26.4683 6.48791 26.4989C6.64995 26.5908 6.83403 26.6357 7.01978 26.6285C7.15795 26.6341 7.29387 26.592 7.4052 26.5093C7.45287 26.4752 7.49175 26.4302 7.51858 26.3778C7.54541 26.3255 7.55939 26.2674 7.55936 26.2085C7.55936 25.9933 7.38978 25.8637 7.04548 25.8326C6.78701 25.8168 6.534 25.7507 6.30034 25.6381C6.21553 25.5892 6.14631 25.5168 6.1008 25.4296C6.05529 25.3423 6.03538 25.2438 6.04339 25.1456C6.04139 25.0409 6.06356 24.9372 6.10816 24.8427C6.15276 24.7482 6.21856 24.6655 6.30034 24.6011C6.49113 24.4533 6.72825 24.3797 6.96839 24.3937L6.96325 24.3963ZM9.40423 26.963C9.25282 26.9706 9.10168 26.9432 8.96232 26.883C8.82296 26.8228 8.69904 26.7313 8.59999 26.6156C8.38656 26.3479 8.27941 26.0096 8.29936 25.6667C8.28396 25.3277 8.39384 24.9951 8.6077 24.7333C8.70876 24.6178 8.83407 24.5264 8.97452 24.4659C9.11498 24.4053 9.26703 24.3771 9.41964 24.3833C9.5725 24.3754 9.72518 24.402 9.86654 24.4612C10.0079 24.5204 10.1344 24.6107 10.2367 24.7256C10.451 24.9896 10.5576 25.3261 10.5348 25.6667C10.5526 26.0083 10.4426 26.3442 10.2264 26.6078C10.1248 26.7257 9.99802 26.8188 9.85564 26.8803C9.71326 26.9419 9.55894 26.9701 9.40423 26.963ZM9.42992 24.7126C9.32976 24.7071 9.22972 24.7253 9.13781 24.7658C9.04589 24.8064 8.96466 24.868 8.90061 24.9459C8.76028 25.1419 8.68639 25.3783 8.68992 25.62V25.6667C8.67551 25.9183 8.7432 26.1678 8.88263 26.377C8.941 26.4591 9.01829 26.5256 9.10782 26.5707C9.19735 26.6159 9.29644 26.6384 9.39652 26.6363C9.50167 26.6406 9.60631 26.6193 9.70157 26.5742C9.79684 26.529 9.87993 26.4614 9.94381 26.377C10.0908 26.1707 10.165 25.9206 10.1545 25.6667C10.1545 25.0315 9.91041 24.7074 9.42735 24.7074L9.42992 24.7126ZM11.6525 24.8707V26.3641C11.6525 26.5248 11.6987 26.6078 11.781 26.6078C11.8225 26.6038 11.8637 26.5968 11.9043 26.587H11.9814C12.0031 26.5835 12.0254 26.5851 12.0463 26.592C12.0673 26.5988 12.0863 26.6105 12.1019 26.6262C12.1174 26.6419 12.1291 26.6611 12.1358 26.6823C12.1426 26.7034 12.1442 26.7259 12.1407 26.7478C12.1407 26.8515 12.0764 26.9033 11.9454 26.9033C11.894 26.9033 11.8118 26.9033 11.7013 26.8852C11.616 26.8754 11.5302 26.8702 11.4444 26.8696C11.367 26.8711 11.2898 26.8772 11.2131 26.8878C11.1103 26.8878 11.0384 26.9085 10.9921 26.9085H10.9664C10.8328 26.9085 10.766 26.8567 10.766 26.7348C10.766 26.613 10.8174 26.5948 10.9279 26.5948H11.0101L11.1489 26.6207C11.1731 26.6227 11.1972 26.616 11.2169 26.6018C11.2367 26.5875 11.2508 26.5667 11.2568 26.543C11.2777 26.4145 11.2863 26.2842 11.2825 26.1541V24.2096V24.0178C11.277 23.9855 11.2602 23.9563 11.2353 23.9354C11.2103 23.9145 11.1788 23.9032 11.1463 23.9037L11.0178 23.9244H10.933C10.9117 23.9277 10.8899 23.926 10.8693 23.9195C10.8487 23.913 10.8299 23.9018 10.8143 23.8867C10.7987 23.8717 10.7866 23.8533 10.7792 23.8329C10.7717 23.8124 10.769 23.7905 10.7712 23.7689C10.7712 23.66 10.8328 23.6056 10.9587 23.6056H11.0512L11.1669 23.6237C11.2096 23.6268 11.2526 23.6268 11.2953 23.6237C11.3437 23.6211 11.3917 23.615 11.4392 23.6056C11.4867 23.5965 11.5348 23.5913 11.5831 23.59C11.6551 23.59 11.691 23.6367 11.691 23.73C11.6939 23.7558 11.6939 23.7819 11.691 23.8078C11.6602 24.0748 11.6474 24.4248 11.6474 24.8785L11.6525 24.8707ZM14.3273 26.7556V26.6078C14.2416 26.7255 14.1281 26.8198 13.997 26.8818C13.8659 26.9439 13.7215 26.9718 13.577 26.963C13.4294 26.9777 13.2805 26.9532 13.1453 26.8918C13.01 26.8304 12.8931 26.7342 12.8062 26.613C12.7419 26.5028 12.7065 26.3778 12.7034 26.25V25.4256C12.7034 24.99 12.652 24.7696 12.5595 24.7696C12.5296 24.7674 12.4995 24.7674 12.4696 24.7696H12.3719C12.2589 24.7696 12.2049 24.7178 12.2049 24.6141C12.2049 24.5104 12.2743 24.4585 12.4105 24.4585H12.5492C12.5954 24.4614 12.6418 24.4614 12.688 24.4585C12.737 24.4578 12.786 24.4535 12.8344 24.4456H12.9167C13.0143 24.4456 13.0657 24.5026 13.0657 24.627V25.0678L13.0528 25.423V25.7393C13.043 25.9402 13.0647 26.1414 13.1171 26.3356C13.1583 26.4357 13.2308 26.5195 13.3236 26.5743C13.4163 26.629 13.5243 26.6517 13.631 26.6389C13.7571 26.6417 13.8816 26.6094 13.9907 26.5456C14.0924 26.4882 14.1707 26.3963 14.2117 26.2863C14.2767 26.0556 14.3028 25.8154 14.2887 25.5759V25.0107C14.2759 24.8552 14.2374 24.7826 14.168 24.7826H14.0241C13.911 24.7826 13.8571 24.7307 13.8571 24.6374C13.8571 24.5441 13.9162 24.4741 14.0421 24.4741H14.299C14.3384 24.4769 14.3779 24.4769 14.4172 24.4741H14.5303C14.6279 24.4741 14.6742 24.5259 14.6742 24.6296C14.6787 24.664 14.6787 24.6989 14.6742 24.7333C14.6547 24.9141 14.6461 25.0959 14.6485 25.2778V26.3433C14.6664 26.5144 14.7101 26.6026 14.7846 26.6026H14.9774C15.0801 26.6026 15.1367 26.6544 15.1367 26.7581C15.1367 26.8618 15.0699 26.9215 14.9362 26.9215H14.8129L14.6664 26.9085H14.5637C14.53 26.9167 14.4955 26.921 14.4609 26.9215C14.4406 26.9239 14.42 26.9211 14.401 26.9133C14.3821 26.9056 14.3654 26.893 14.3526 26.877C14.3397 26.8609 14.3311 26.8418 14.3276 26.8215C14.3241 26.8012 14.3257 26.7803 14.3324 26.7607L14.3273 26.7556ZM16.6501 26.2111V25.9078C16.6501 25.7781 16.7092 25.7107 16.8222 25.7107C16.9353 25.7107 16.9918 25.7833 16.9918 25.9337C17.0117 26.1853 16.9647 26.4377 16.8556 26.6648C16.7902 26.7596 16.7011 26.8353 16.5972 26.884C16.4934 26.9327 16.3787 26.9528 16.2646 26.9422C16.16 26.9508 16.0551 26.9313 15.9603 26.8857C15.8656 26.8402 15.7844 26.7703 15.7251 26.683C15.6322 26.4962 15.5922 26.2871 15.6094 26.0789V24.933C15.6116 24.9198 15.6106 24.9062 15.6066 24.8935C15.6026 24.8807 15.5957 24.8691 15.5865 24.8595C15.5773 24.85 15.5659 24.8427 15.5534 24.8383C15.5409 24.834 15.5275 24.8326 15.5144 24.8344H15.3602C15.3365 24.8348 15.3129 24.8304 15.2908 24.8215C15.2688 24.8126 15.2487 24.7994 15.2317 24.7826C15.2153 24.7664 15.2022 24.7471 15.1934 24.7257C15.1845 24.7043 15.1801 24.6813 15.1803 24.6581C15.1799 24.6357 15.1842 24.6134 15.1931 24.5928C15.202 24.5723 15.2151 24.5538 15.2317 24.5389C15.2451 24.5225 15.262 24.5093 15.2811 24.5003C15.3003 24.4914 15.3211 24.4868 15.3422 24.487H15.5298C15.5812 24.487 15.612 24.4611 15.612 24.3937V23.9011C15.6089 23.8761 15.6117 23.8507 15.62 23.8269C15.6283 23.8031 15.6419 23.7816 15.6598 23.764C15.6777 23.7464 15.6994 23.7333 15.7233 23.7256C15.7471 23.7179 15.7723 23.7158 15.797 23.7196C15.9101 23.7196 15.9666 23.7793 15.9666 23.9011V24.4196C15.9666 24.4715 15.9923 24.4922 16.0539 24.4922H16.5678C16.6886 24.4922 16.7477 24.5441 16.7477 24.6607C16.7477 24.7774 16.686 24.8422 16.555 24.8422H16.0411C15.9974 24.8422 15.9743 24.8733 15.9743 24.9381V26.1204C15.9743 26.4574 16.0848 26.6259 16.3083 26.6259C16.5319 26.6259 16.6423 26.4885 16.6526 26.2111H16.6501ZM18.0042 25.4852V26.3926C18.0221 26.5378 18.0633 26.6104 18.1326 26.6104C18.148 26.6104 18.184 26.6104 18.2534 26.5896C18.2764 26.5859 18.2998 26.5859 18.3228 26.5896C18.4461 26.5896 18.5078 26.6415 18.5078 26.7452C18.5075 26.7675 18.502 26.7895 18.4917 26.8093C18.4814 26.8291 18.4667 26.8462 18.4487 26.8593C18.4055 26.8954 18.3505 26.914 18.2945 26.9111C18.217 26.9068 18.1398 26.8982 18.0633 26.8852C17.9868 26.8714 17.9096 26.8627 17.832 26.8593C17.739 26.8616 17.6463 26.8702 17.5545 26.8852C17.4694 26.8986 17.3836 26.9072 17.2976 26.9111C17.1691 26.9111 17.11 26.8593 17.11 26.7478C17.11 26.6363 17.1614 26.5922 17.2719 26.5922C17.3087 26.5898 17.3456 26.5898 17.3824 26.5922C17.42 26.5943 17.4577 26.5943 17.4954 26.5922C17.5725 26.5922 17.6239 26.4885 17.6367 26.2811V25.0626C17.6213 24.863 17.5725 24.7619 17.4903 24.7619C17.4536 24.7644 17.4174 24.7714 17.3824 24.7826C17.3489 24.7921 17.3143 24.7973 17.2796 24.7981C17.1648 24.7981 17.1074 24.7463 17.1074 24.6426C17.1074 24.5337 17.1742 24.487 17.313 24.487H17.4414C17.5442 24.487 17.611 24.5026 17.6393 24.5026H17.7549C17.7943 24.4995 17.8338 24.4995 17.8731 24.5026C17.963 24.5026 18.0093 24.5648 18.0093 24.6893C18.0106 24.7065 18.0106 24.7239 18.0093 24.7411V25.1041C18.0042 25.213 18.0016 25.3478 18.0016 25.4878L18.0042 25.4852ZM17.7472 24.2252C17.7073 24.2212 17.6689 24.2079 17.635 24.1863C17.6011 24.1647 17.5727 24.1353 17.5521 24.1006C17.5314 24.066 17.5191 24.0269 17.5161 23.9865C17.5131 23.9462 17.5195 23.9057 17.5348 23.8683C17.5501 23.8309 17.5738 23.7976 17.6041 23.7712C17.6345 23.7447 17.6705 23.7257 17.7094 23.7158C17.7482 23.7059 17.7889 23.7053 17.828 23.7141C17.8672 23.7228 17.9037 23.7407 17.9348 23.7663C17.9775 23.8015 18.0079 23.8496 18.0214 23.9036C18.035 23.9576 18.0309 24.0145 18.0099 24.066C17.9888 24.1175 17.9519 24.1608 17.9046 24.1894C17.8573 24.2181 17.8021 24.2306 17.7472 24.2252ZM19.8053 26.963C19.6556 26.9681 19.5067 26.9391 19.3696 26.8781C19.2326 26.817 19.111 26.7255 19.0139 26.6104C18.8184 26.3392 18.7131 26.0124 18.7131 25.677C18.7131 25.3417 18.8184 25.0149 19.0139 24.7437C19.1147 24.6285 19.2396 24.5373 19.3796 24.4768C19.5196 24.4163 19.6711 24.3879 19.8233 24.3937C19.9765 24.3852 20.1297 24.4111 20.2718 24.4693C20.414 24.5276 20.5416 24.6169 20.6455 24.7307C20.8543 24.9944 20.9578 25.3273 20.9359 25.6641C20.9527 26.0056 20.8428 26.3411 20.6276 26.6052C20.5259 26.7231 20.3991 26.8162 20.2567 26.8778C20.1144 26.9393 19.9601 26.9675 19.8053 26.9604V26.963ZM19.831 24.7126C19.7314 24.7081 19.632 24.7268 19.5407 24.7673C19.4493 24.8077 19.3685 24.8689 19.3043 24.9459C19.1651 25.1424 19.0913 25.3785 19.0936 25.62V25.6667C19.0801 25.9182 19.1477 26.1674 19.2863 26.377C19.3447 26.4591 19.422 26.5256 19.5115 26.5707C19.601 26.6159 19.7001 26.6384 19.8002 26.6363C19.9057 26.6406 20.0107 26.6193 20.1064 26.5742C20.2021 26.5291 20.2856 26.4615 20.3501 26.377C20.4949 26.1699 20.5672 25.9199 20.5556 25.6667C20.5556 25.0315 20.3141 24.7074 19.831 24.7074V24.7126ZM22.0382 24.6296V24.767C22.1285 24.6487 22.2457 24.554 22.3798 24.4908C22.5139 24.4277 22.6611 24.3979 22.809 24.4041C22.9803 24.4025 23.1489 24.4472 23.2972 24.5337C23.4345 24.6056 23.5433 24.7227 23.6055 24.8656C23.6538 25.0036 23.6756 25.1497 23.6698 25.2959V26.4315C23.6852 26.5404 23.7289 26.5948 23.7983 26.5948C23.835 26.5972 23.872 26.5972 23.9087 26.5948H24.0064C24.0446 26.5948 24.0814 26.6097 24.1092 26.6363C24.1248 26.6486 24.1376 26.6643 24.1465 26.6823C24.1554 26.7002 24.1602 26.7199 24.1605 26.74C24.1605 26.7635 24.1551 26.7867 24.1449 26.8078C24.1346 26.8289 24.1198 26.8474 24.1014 26.8618C24.0634 26.8964 24.0138 26.9149 23.9627 26.9137C23.8887 26.9105 23.815 26.9036 23.7417 26.893C23.648 26.881 23.5536 26.875 23.4591 26.8748H23.2535L22.9966 26.9007C22.8681 26.9007 22.8039 26.8489 22.8039 26.7322C22.8039 26.6156 22.8604 26.587 22.9709 26.587H23.0583C23.0963 26.5965 23.1349 26.6034 23.1739 26.6078C23.251 26.6078 23.2921 26.5196 23.2972 26.3485V25.4411C23.3014 25.3249 23.2945 25.2086 23.2767 25.0937C23.2528 24.9785 23.1868 24.8766 23.0917 24.8085C22.9857 24.7364 22.8597 24.7001 22.7319 24.7048C22.6273 24.6957 22.5221 24.715 22.4273 24.7605C22.3324 24.8061 22.2513 24.8764 22.1924 24.9641C22.0998 25.1621 22.0591 25.3808 22.0742 25.5993V26.2396C22.0678 26.3355 22.0765 26.4317 22.0999 26.5248C22.1058 26.5485 22.12 26.5694 22.1397 26.5836C22.1595 26.5978 22.1836 26.6046 22.2078 26.6026C22.2425 26.6016 22.277 26.5963 22.3105 26.587C22.3469 26.5793 22.3839 26.5749 22.421 26.5741C22.5238 26.5741 22.5675 26.6259 22.5675 26.7296C22.5675 26.8333 22.5058 26.8852 22.3799 26.8852C22.3542 26.8852 22.2771 26.8852 22.123 26.8593C22.0463 26.8492 21.9691 26.844 21.8917 26.8437C21.8057 26.8475 21.7199 26.8562 21.6348 26.8696L21.3984 26.8904C21.2648 26.8904 21.2005 26.8385 21.2005 26.7244C21.2005 26.6104 21.2519 26.5741 21.3547 26.5741C21.386 26.5745 21.417 26.5789 21.4472 26.587C21.4894 26.5964 21.5325 26.6016 21.5757 26.6026C21.6733 26.6026 21.7247 26.5118 21.7298 26.3226V25.0522C21.7293 24.9749 21.7145 24.8985 21.6862 24.8267C21.6763 24.8061 21.6604 24.7891 21.6406 24.778C21.6209 24.7669 21.5982 24.7621 21.5757 24.7644C21.5408 24.7661 21.5063 24.7722 21.4729 24.7826C21.4408 24.7901 21.4081 24.7944 21.3753 24.7956C21.2571 24.7956 21.2005 24.7437 21.2005 24.64C21.2005 24.5363 21.2699 24.4767 21.4138 24.4767H21.4652L21.6374 24.4922C21.6818 24.4967 21.7265 24.4967 21.771 24.4922H21.8994C21.9894 24.4793 22.0356 24.5259 22.0356 24.6322L22.0382 24.6296ZM24.3327 25.5967C24.3327 25.4852 24.3969 25.4256 24.528 25.4256H25.268C25.3964 25.4256 25.4581 25.4826 25.4581 25.5889C25.4581 25.6952 25.3939 25.7626 25.268 25.7626H24.528C24.4098 25.7626 24.3327 25.7107 24.3327 25.5967ZM26.9099 26.963C26.7598 26.969 26.6103 26.9409 26.4724 26.8808C26.3345 26.8206 26.2118 26.73 26.1133 26.6156C25.9182 26.3442 25.8131 26.0175 25.8131 25.6822C25.8131 25.3469 25.9182 25.0203 26.1133 24.7489C26.2141 24.6337 26.339 24.5425 26.479 24.482C26.619 24.4215 26.7705 24.3931 26.9227 24.3989C27.0764 24.3919 27.2298 24.4192 27.3719 24.4788C27.514 24.5384 27.6414 24.6289 27.7449 24.7437C27.942 25.0143 28.0482 25.3413 28.0482 25.677C28.0482 26.0128 27.942 26.3398 27.7449 26.6104C27.6412 26.7291 27.5122 26.8227 27.3676 26.8842C27.223 26.9457 27.0666 26.9735 26.9099 26.9656V26.963ZM26.9355 24.7126C26.8379 24.7095 26.7409 24.7289 26.6519 24.7694C26.5628 24.8098 26.4841 24.8702 26.4217 24.9459C26.2805 25.1396 26.2056 25.3744 26.2084 25.6148V25.6667C26.1942 25.9179 26.2609 26.1671 26.3985 26.377C26.4569 26.4591 26.5342 26.5256 26.6237 26.5707C26.7133 26.6159 26.8123 26.6384 26.9124 26.6363C27.0178 26.64 27.1226 26.6184 27.2182 26.5733C27.3138 26.5282 27.3974 26.461 27.4623 26.377C27.6039 26.1677 27.6734 25.9172 27.6601 25.6641C27.6601 25.0289 27.4212 24.7048 26.9407 24.7048L26.9355 24.7126ZM29.1376 24.6115V24.7411C29.2103 24.6305 29.3098 24.5405 29.4268 24.4797C29.5437 24.4189 29.6741 24.3893 29.8056 24.3937C30.0025 24.384 30.1956 24.4508 30.3452 24.5804C30.4125 24.6417 30.4657 24.717 30.5012 24.8012C30.5367 24.8854 30.5536 24.9763 30.5508 25.0678C30.5571 25.1913 30.5208 25.3131 30.448 25.4126C30.4153 25.4543 30.3734 25.4877 30.3257 25.5102C30.278 25.5327 30.2257 25.5436 30.173 25.5422C30.1393 25.5438 30.1056 25.5387 30.0739 25.5271C30.0422 25.5155 30.013 25.4978 29.988 25.4748C29.9638 25.4552 29.9443 25.4304 29.9309 25.4021C29.9176 25.3738 29.9107 25.3428 29.911 25.3115C29.912 25.2596 29.9332 25.2102 29.9701 25.1741C29.9872 25.1557 30.0079 25.1412 30.0309 25.1314C30.0539 25.1215 30.0787 25.1167 30.1037 25.117L30.1653 25.1326C30.1825 25.1008 30.1914 25.0651 30.191 25.0289C30.191 24.9831 30.1799 24.9379 30.1589 24.8973C30.1379 24.8567 30.1075 24.8218 30.0703 24.7956C29.9846 24.7281 29.8782 24.6932 29.7696 24.697C29.6612 24.6875 29.5529 24.7157 29.4626 24.777C29.3723 24.8384 29.3057 24.9291 29.2737 25.0341C29.2133 25.2356 29.1872 25.446 29.1967 25.6563V26.3381C29.2121 26.5196 29.2609 26.6078 29.3457 26.6078C29.3908 26.608 29.4358 26.6019 29.4793 26.5896C29.5092 26.5868 29.5393 26.5868 29.5692 26.5896C29.672 26.5896 29.7234 26.6415 29.7234 26.74C29.7234 26.8385 29.6592 26.9059 29.5281 26.9059H29.5127C29.4396 26.9038 29.3667 26.8977 29.2943 26.8878C29.1967 26.8878 29.1221 26.8722 29.0759 26.8722H28.7753L28.5183 26.8981C28.3899 26.8981 28.3256 26.8411 28.3256 26.7244C28.3256 26.6078 28.3847 26.5793 28.5055 26.5793H28.5826L28.6519 26.5922H28.7213C28.7984 26.5922 28.8421 26.5144 28.8498 26.3667V26.123L28.8344 25.0341C28.8344 24.8422 28.783 24.7489 28.693 24.7489C28.6588 24.7461 28.6245 24.7461 28.5903 24.7489C28.5561 24.7517 28.5217 24.7517 28.4875 24.7489C28.3796 24.7489 28.3282 24.697 28.3282 24.5933C28.3282 24.4896 28.395 24.4274 28.5337 24.4274H28.6776C28.7247 24.4301 28.7719 24.4301 28.8189 24.4274H28.9474C28.9772 24.423 29.0075 24.423 29.0374 24.4274C29.0964 24.4663 29.1401 24.5052 29.1401 24.6011L29.1376 24.6115ZM31.5271 25.4852V26.3926C31.5426 26.5378 31.5862 26.6104 31.6556 26.6104C31.6953 26.6055 31.7348 26.5986 31.7738 26.5896C31.7977 26.586 31.8219 26.586 31.8458 26.5896C31.9639 26.5896 32.0256 26.6415 32.0256 26.7452C32.0255 26.7679 32.0197 26.7901 32.009 26.81C31.9982 26.8299 31.9828 26.8469 31.9639 26.8593C31.9223 26.8944 31.8692 26.9129 31.8149 26.9111C31.7374 26.9067 31.6602 26.8981 31.5837 26.8852C31.5072 26.8715 31.43 26.8628 31.3524 26.8593C31.2595 26.8617 31.1668 26.8704 31.0749 26.8852C30.9898 26.8986 30.904 26.9073 30.818 26.9111C30.6895 26.9111 30.6253 26.8593 30.6253 26.7478C30.6253 26.6363 30.6767 26.5922 30.7871 26.5922C30.8248 26.5898 30.8626 26.5898 30.9002 26.5922C30.9387 26.5945 30.9773 26.5945 31.0158 26.5922C31.0929 26.5922 31.1366 26.4885 31.152 26.2811V25.0626C31.1366 24.863 31.0852 24.7619 31.0081 24.7619C30.9706 24.764 30.9334 24.771 30.8976 24.7826C30.8641 24.7921 30.8296 24.7973 30.7948 24.7981C30.6792 24.7981 30.6201 24.7463 30.6201 24.6426C30.6201 24.5389 30.6895 24.487 30.8257 24.487H30.9593C31.0621 24.487 31.1237 24.5026 31.152 24.5026H31.2702C31.3087 24.4995 31.3473 24.4995 31.3858 24.5026C31.4783 24.5026 31.5246 24.5648 31.5246 24.6893C31.5265 24.7065 31.5265 24.7239 31.5246 24.7411V25.1041C31.5194 25.213 31.5194 25.3478 31.5194 25.4878L31.5271 25.4852ZM31.2702 24.2252C31.2353 24.2257 31.2007 24.2191 31.1685 24.2058C31.1362 24.1924 31.107 24.1725 31.0826 24.1474C31.0565 24.1231 31.0357 24.0937 31.0215 24.0609C31.0073 24.0281 30.9999 23.9927 30.9999 23.9569C30.9999 23.921 31.0073 23.8856 31.0215 23.8528C31.0357 23.82 31.0565 23.7906 31.0826 23.7663C31.1137 23.7407 31.1503 23.7228 31.1894 23.7141C31.2285 23.7053 31.2692 23.7059 31.308 23.7158C31.3469 23.7257 31.3829 23.7447 31.4133 23.7712C31.4436 23.7976 31.4673 23.8309 31.4826 23.8683C31.4979 23.9057 31.5043 23.9462 31.5013 23.9865C31.4983 24.0269 31.486 24.066 31.4653 24.1006C31.4447 24.1353 31.4163 24.1647 31.3824 24.1863C31.3485 24.2079 31.3101 24.2212 31.2702 24.2252ZM34.3946 25.4593C34.4015 25.5346 34.3928 25.6105 34.3689 25.6822C34.3535 25.7081 34.3098 25.7237 34.2328 25.7237H32.7117C32.6851 25.7224 32.6586 25.7278 32.6346 25.7393C32.628 25.7471 32.623 25.7562 32.6199 25.766C32.6168 25.7757 32.6157 25.7861 32.6166 25.7963C32.609 26.0177 32.6852 26.2337 32.8298 26.4004C32.8964 26.4772 32.9786 26.5385 33.0708 26.5801C33.1631 26.6217 33.2632 26.6427 33.3643 26.6415C33.5015 26.6425 33.6358 26.6018 33.7497 26.5248C33.8554 26.4589 33.9352 26.3581 33.9758 26.2396L34.0195 26.0944C34.0274 26.0599 34.0473 26.0295 34.0756 26.0085C34.1039 25.9876 34.1387 25.9776 34.1737 25.9804C34.1977 25.9778 34.222 25.9808 34.2447 25.989C34.2674 25.9973 34.288 26.0107 34.3048 26.0282C34.3216 26.0457 34.3343 26.0668 34.3419 26.09C34.3494 26.1131 34.3516 26.1377 34.3484 26.1618C34.3436 26.2735 34.3124 26.3823 34.2575 26.4793C34.2025 26.5763 34.1253 26.6585 34.0323 26.7193C33.8297 26.8798 33.5783 26.965 33.3206 26.9604C33.1713 26.9677 33.0223 26.9412 32.8845 26.8829C32.7467 26.8246 32.6235 26.7359 32.5241 26.6233C32.3176 26.3682 32.2123 26.0449 32.2286 25.7159C32.2124 25.3693 32.3251 25.029 32.5446 24.7619C32.645 24.6432 32.7706 24.549 32.9121 24.4862C33.0536 24.4233 33.2072 24.3935 33.3617 24.3989C33.4992 24.3946 33.6361 24.4194 33.7635 24.4716C33.8909 24.5239 34.0061 24.6024 34.1017 24.7022C34.198 24.8035 34.2734 24.923 34.3237 25.0538C34.374 25.1846 34.3981 25.3242 34.3946 25.4644V25.4593ZM32.6654 25.3374C32.6654 25.3841 32.7014 25.4048 32.7682 25.4048H33.9167C33.9835 25.4048 34.0195 25.3789 34.0195 25.3348C34.0189 25.2517 34.0012 25.1697 33.9676 25.0938C33.934 25.018 33.8852 24.9499 33.8242 24.8941C33.7659 24.8334 33.696 24.7853 33.6187 24.7527C33.5414 24.7202 33.4583 24.7039 33.3746 24.7048C33.1933 24.7072 33.0193 24.7775 32.8864 24.9018C32.8197 24.9528 32.765 25.0181 32.7264 25.093C32.6877 25.1679 32.666 25.2505 32.6628 25.3348L32.6654 25.3374ZM35.4764 24.6296V24.767C35.5663 24.6482 35.6833 24.5532 35.8176 24.4899C35.9518 24.4267 36.0992 24.3973 36.2472 24.4041C36.4185 24.4024 36.5871 24.4471 36.7354 24.5337C36.8732 24.6049 36.9822 24.7222 37.0437 24.8656C37.0932 25.0033 37.1159 25.1495 37.1105 25.2959V26.1852C37.1063 26.2664 37.1063 26.3477 37.1105 26.4289C37.126 26.5378 37.1671 26.5922 37.239 26.5922C37.2758 26.5949 37.3127 26.5949 37.3495 26.5922H37.4523C37.4904 26.5927 37.5271 26.6075 37.5551 26.6337C37.5706 26.6462 37.5832 26.6619 37.5921 26.6798C37.601 26.6977 37.6059 26.7174 37.6064 26.7374C37.6064 26.7609 37.601 26.7841 37.5908 26.8052C37.5805 26.8263 37.5657 26.8448 37.5474 26.8593C37.5084 26.8939 37.4579 26.9125 37.406 26.9111C37.3624 26.9111 37.2904 26.9111 37.1876 26.8904C37.0922 26.8784 36.9961 26.8723 36.8999 26.8722H36.6994L36.4425 26.8981C36.314 26.8981 36.2498 26.8463 36.2498 26.7296C36.2498 26.613 36.3012 26.5844 36.4142 26.5844C36.445 26.5816 36.476 26.5816 36.5067 26.5844L36.6224 26.6052C36.7046 26.6052 36.7457 26.517 36.7508 26.3459V25.4385C36.7563 25.3223 36.7494 25.2058 36.7303 25.0911C36.7074 24.9755 36.6411 24.8733 36.5453 24.8059C36.4028 24.7128 36.2306 24.6779 36.0636 24.7082C35.8966 24.7385 35.7473 24.8319 35.646 24.9693C35.5541 25.1693 35.5143 25.3897 35.5303 25.6096V26.25C35.5256 26.3458 35.5342 26.4418 35.556 26.5352C35.562 26.5589 35.5761 26.5797 35.5959 26.594C35.6156 26.6082 35.6398 26.6149 35.6639 26.613C35.6987 26.6122 35.7333 26.607 35.7667 26.5974C35.8031 26.5898 35.8401 26.5854 35.8772 26.5844C35.9749 26.5844 36.0237 26.6363 36.0237 26.7452C36.0237 26.8541 35.962 26.9007 35.8335 26.9007C35.8078 26.9007 35.7308 26.9007 35.5766 26.8748C35.5 26.864 35.4227 26.8579 35.3453 26.8567C35.2593 26.8604 35.1735 26.869 35.0884 26.8826L34.8469 26.9033C34.7107 26.9033 34.6413 26.8515 34.6413 26.7374C34.6386 26.7166 34.6408 26.6954 34.6477 26.6755C34.6546 26.6557 34.666 26.6377 34.6809 26.6231C34.6959 26.6085 34.7141 26.5977 34.734 26.5914C34.7539 26.5851 34.7749 26.5836 34.7955 26.587C34.8267 26.5877 34.8577 26.5921 34.888 26.6C34.9303 26.6085 34.9733 26.6129 35.0164 26.613C35.1115 26.613 35.1655 26.5196 35.1706 26.3278V25.047C35.1681 24.9717 35.1533 24.8972 35.1269 24.8267C35.1168 24.8064 35.1008 24.7896 35.0811 24.7785C35.0614 24.7674 35.0389 24.7625 35.0164 24.7644C34.9816 24.7663 34.9471 24.7724 34.9137 24.7826C34.8816 24.7901 34.8489 24.7944 34.816 24.7956C34.6978 24.7956 34.6362 24.7437 34.6362 24.64C34.6362 24.5363 34.7133 24.4767 34.8546 24.4767H34.9008L35.0807 24.4922C35.1234 24.4966 35.1664 24.4966 35.2092 24.4922H35.3376C35.4301 24.4793 35.4764 24.5259 35.4764 24.6322V24.6296ZM39.107 26.2111V25.9078C39.107 25.7781 39.1661 25.7107 39.2766 25.7107C39.3871 25.7107 39.4436 25.7833 39.4436 25.9337C39.4634 26.1845 39.4191 26.4362 39.3151 26.6648C39.249 26.7589 39.1597 26.8339 39.0561 26.8826C38.9525 26.9312 38.8381 26.9518 38.7242 26.9422C38.6196 26.9508 38.5146 26.9313 38.4198 26.8857C38.3251 26.8402 38.2439 26.7703 38.1846 26.683C38.0902 26.4966 38.0484 26.2876 38.0638 26.0789V24.933C38.0638 24.8681 38.033 24.8344 37.9713 24.8344H37.8171C37.7934 24.8348 37.7698 24.8304 37.7478 24.8215C37.7257 24.8126 37.7056 24.7994 37.6887 24.7826C37.6559 24.7496 37.6374 24.7049 37.6373 24.6581C37.6374 24.6358 37.6421 24.6137 37.6509 24.5932C37.6597 24.5727 37.6726 24.5542 37.6887 24.5389C37.7024 24.5229 37.7194 24.51 37.7384 24.501C37.7575 24.4921 37.7782 24.4873 37.7992 24.487H37.9842C38.0355 24.487 38.0612 24.4611 38.0612 24.3937V23.9011C38.0581 23.8758 38.0608 23.8502 38.0693 23.8261C38.0777 23.8021 38.0916 23.7804 38.1098 23.7628C38.128 23.7452 38.1501 23.7321 38.1742 23.7246C38.1984 23.7171 38.2239 23.7154 38.2488 23.7196C38.3644 23.7196 38.421 23.7793 38.421 23.9011V24.4196C38.421 24.4715 38.4467 24.4922 38.5083 24.4922H39.0222C39.143 24.4922 39.2021 24.5441 39.2021 24.6607C39.2021 24.7774 39.1378 24.8422 39.0068 24.8422H38.4929C38.4467 24.8422 38.4261 24.8733 38.4261 24.9381V26.1204C38.4261 26.4574 38.5366 26.6259 38.7601 26.6259C38.9837 26.6259 39.0993 26.4885 39.107 26.2111ZM41.8512 25.4593C41.8576 25.5346 41.8489 25.6104 41.8255 25.6822C41.8126 25.7081 41.7664 25.7237 41.6893 25.7237H40.1733C40.145 25.7211 40.1166 25.7265 40.0911 25.7393C40.0845 25.7471 40.0795 25.7562 40.0765 25.766C40.0734 25.7757 40.0722 25.7861 40.0731 25.7963C40.066 26.0176 40.1422 26.2334 40.2864 26.4004C40.353 26.477 40.4352 26.5383 40.5275 26.5799C40.6197 26.6215 40.7198 26.6425 40.8208 26.6415C40.9581 26.6431 41.0926 26.6024 41.2062 26.5248C41.3134 26.4606 41.3938 26.3592 41.4324 26.2396L41.476 26.0944C41.4839 26.0599 41.5038 26.0295 41.5321 26.0085C41.5604 25.9876 41.5952 25.9776 41.6302 25.9804C41.6546 25.9769 41.6795 25.9792 41.7029 25.9871C41.7263 25.995 41.7475 26.0083 41.7649 26.0259C41.7824 26.0435 41.7955 26.0649 41.8034 26.0885C41.8112 26.1121 41.8135 26.1372 41.8101 26.1618C41.8056 26.2732 41.7748 26.3819 41.7203 26.4789C41.6657 26.5758 41.5891 26.6582 41.4966 26.7193C41.2926 26.8793 41.0406 26.9643 40.7823 26.9604C40.6331 26.9671 40.4842 26.9404 40.3465 26.8821C40.2088 26.8238 40.0856 26.7355 39.9858 26.6233C39.7809 26.3675 39.6766 26.0444 39.6928 25.7159C39.6767 25.3697 39.7884 25.0298 40.0063 24.7619C40.1072 24.6425 40.2337 24.5479 40.3761 24.485C40.5185 24.4222 40.6732 24.3927 40.8285 24.3989C40.9652 24.395 41.1012 24.42 41.2277 24.4722C41.3543 24.5245 41.4686 24.6028 41.5634 24.7022C41.6591 24.8036 41.7338 24.9233 41.7832 25.0541C41.8326 25.185 41.8557 25.3245 41.8512 25.4644V25.4593ZM40.1219 25.3374C40.1219 25.3841 40.1579 25.4048 40.2247 25.4048H41.3681C41.4324 25.4048 41.4709 25.3789 41.4709 25.3348C41.4709 25.2519 41.4538 25.1698 41.4206 25.0939C41.3874 25.018 41.3389 24.95 41.2782 24.8941C41.2199 24.8334 41.15 24.7853 41.0727 24.7527C40.9954 24.7202 40.9123 24.7039 40.8285 24.7048C40.647 24.706 40.4726 24.7764 40.3403 24.9018C40.2741 24.9531 40.22 25.0185 40.1818 25.0933C40.1435 25.1682 40.1222 25.2507 40.1194 25.3348L40.1219 25.3374ZM43.2695 24.3963C43.4085 24.388 43.5471 24.4179 43.6706 24.4827C43.7941 24.5475 43.8979 24.6449 43.971 24.7644V24.277C43.976 24.1993 43.976 24.1214 43.971 24.0437C43.953 23.94 43.9093 23.8933 43.8373 23.8933C43.8025 23.8954 43.768 23.9014 43.7346 23.9115C43.6983 23.9203 43.6613 23.9255 43.6241 23.927C43.5085 23.927 43.4494 23.87 43.4494 23.7663C43.4494 23.6626 43.5264 23.6056 43.6858 23.6056H43.8245L43.9787 23.6185C44.0215 23.621 44.0644 23.621 44.1071 23.6185C44.1482 23.6159 44.1894 23.6159 44.2305 23.6185C44.3195 23.6185 44.3641 23.6842 44.3641 23.8156V24.1111C44.3641 24.1293 44.3641 24.2563 44.3512 24.4844V26.123C44.3483 26.2559 44.3587 26.3888 44.3821 26.5196C44.3892 26.5447 44.4051 26.5664 44.4268 26.5807C44.4485 26.595 44.4746 26.6009 44.5003 26.5974C44.5327 26.6008 44.5654 26.6008 44.5979 26.5974H44.7058C44.824 26.5974 44.8857 26.6441 44.8857 26.753C44.8857 26.8619 44.8086 26.9085 44.6673 26.9085H44.2664C44.2328 26.9174 44.1984 26.9226 44.1637 26.9241C44.0789 26.9241 44.0352 26.867 44.0352 26.7478V26.6441C43.9509 26.7563 43.8404 26.8458 43.7135 26.9046C43.5867 26.9634 43.4474 26.9897 43.308 26.9811C43.1614 26.986 43.0155 26.9567 42.8818 26.8956C42.7482 26.8344 42.6302 26.7431 42.5372 26.6285C42.3465 26.3563 42.2441 26.0311 42.2441 25.6978C42.2441 25.3644 42.3465 25.0393 42.5372 24.767C42.624 24.6541 42.7344 24.5619 42.8605 24.4969C42.9866 24.4319 43.1254 24.3958 43.2669 24.3911L43.2695 24.3963ZM43.953 26.0893C43.9674 25.9541 43.9734 25.8181 43.971 25.6822C43.976 25.5365 43.9674 25.3907 43.9453 25.2467C43.9267 25.1007 43.8553 24.9668 43.7449 24.8707C43.6202 24.7658 43.4627 24.7088 43.3003 24.71C43.1983 24.7071 43.0971 24.7292 43.0054 24.7743C42.9137 24.8195 42.8341 24.8863 42.7736 24.9693C42.6467 25.1841 42.5796 25.4295 42.5796 25.6796C42.5796 25.9297 42.6467 26.1752 42.7736 26.39C42.8306 26.4619 42.901 26.5218 42.9809 26.5662C43.0609 26.6107 43.1487 26.6387 43.2394 26.6488C43.3301 26.659 43.4219 26.6509 43.5095 26.6252C43.5971 26.5995 43.6788 26.5565 43.75 26.4989C43.8091 26.448 43.8577 26.3859 43.8929 26.316C43.9282 26.2462 43.9495 26.17 43.9555 26.0919L43.953 26.0893ZM46.9798 24.6141V24.7696C47.0597 24.6504 47.1684 24.5536 47.2956 24.4883C47.4228 24.423 47.5643 24.3913 47.7069 24.3963C47.8493 24.39 47.9913 24.4164 48.1221 24.4734C48.253 24.5304 48.3693 24.6166 48.4623 24.7256C48.662 24.9807 48.7625 25.3006 48.745 25.6252C48.7636 25.9743 48.6589 26.3188 48.4495 26.5974C48.3538 26.7162 48.232 26.8108 48.0937 26.8738C47.9555 26.9368 47.8046 26.9665 47.653 26.9604C47.5259 26.9657 47.3993 26.9419 47.2827 26.8907C47.1661 26.8395 47.0625 26.7623 46.9798 26.6648V27.0667C46.9755 27.1461 46.9755 27.2257 46.9798 27.3052C46.9978 27.4037 47.044 27.453 47.116 27.453C47.1508 27.4506 47.1852 27.4445 47.2187 27.4348C47.2524 27.4261 47.2868 27.4209 47.3215 27.4193C47.4243 27.4193 47.4705 27.4711 47.4705 27.58C47.4705 27.6889 47.4063 27.7356 47.2701 27.7356C47.1987 27.7331 47.1275 27.7261 47.0569 27.7148C46.9527 27.7048 46.848 27.7004 46.7434 27.7018C46.6809 27.6979 46.6183 27.6979 46.5558 27.7018C46.4274 27.7148 46.3451 27.7278 46.2989 27.7278C46.2489 27.7269 46.2008 27.7086 46.1627 27.6759C46.1448 27.6622 46.1301 27.6446 46.1199 27.6244C46.1097 27.6042 46.1041 27.5819 46.1036 27.5593C46.1036 27.4556 46.1601 27.4037 46.268 27.4037C46.2986 27.4065 46.3287 27.4126 46.358 27.4218C46.396 27.4297 46.4347 27.434 46.4736 27.4348C46.5005 27.437 46.5271 27.4284 46.5478 27.411C46.5684 27.3935 46.5815 27.3685 46.5841 27.3415C46.6076 27.1697 46.6179 26.9963 46.6149 26.823V24.9693C46.6149 24.8241 46.5687 24.7489 46.4916 24.7489C46.4568 24.751 46.4223 24.7571 46.3888 24.767C46.3552 24.7764 46.3208 24.7824 46.286 24.7852C46.1678 24.7852 46.1062 24.7333 46.1062 24.6296C46.1062 24.5259 46.1781 24.4741 46.3169 24.4741H46.6021C46.6423 24.4765 46.6826 24.4765 46.7228 24.4741H46.841C46.9438 24.4741 46.9798 24.513 46.9798 24.6037V24.6141ZM47.0517 25.2026C47.018 25.3532 47.0008 25.5071 47.0003 25.6615V25.8041C46.9929 25.9614 47.0103 26.1189 47.0517 26.2707C47.0941 26.3768 47.1676 26.4673 47.2624 26.53C47.3746 26.6107 47.5101 26.6518 47.6478 26.6467C47.751 26.65 47.8535 26.6281 47.9465 26.583C48.0395 26.5379 48.1204 26.4708 48.1823 26.3874C48.3198 26.1746 48.3856 25.9228 48.3699 25.6693C48.3699 25.0263 48.1437 24.7048 47.6915 24.7048C47.5444 24.704 47.4014 24.7533 47.2855 24.8448C47.167 24.9308 47.0845 25.0584 47.0543 25.2026H47.0517ZM49.8293 24.6115V24.7411C49.896 24.6484 49.9808 24.5704 50.0784 24.5119C50.1761 24.4535 50.2846 24.4158 50.3972 24.4012C50.5099 24.3867 50.6243 24.3955 50.7334 24.4272C50.8425 24.4589 50.9441 24.5128 51.0318 24.5856C51.0997 24.6461 51.1537 24.7208 51.1901 24.8045C51.2264 24.8883 51.2443 24.979 51.2425 25.0704C51.2461 25.1923 51.207 25.3117 51.132 25.4074C51.1 25.4499 51.0583 25.4838 51.0104 25.5064C50.9625 25.529 50.9099 25.5395 50.8571 25.537C50.8234 25.5386 50.7897 25.5335 50.7579 25.5219C50.7262 25.5103 50.697 25.4926 50.6721 25.4696C50.6488 25.4495 50.6302 25.4244 50.6178 25.3962C50.6053 25.3679 50.5993 25.3372 50.6001 25.3063C50.6011 25.2557 50.6214 25.2074 50.6567 25.1715C50.6733 25.1524 50.6939 25.1372 50.717 25.1269C50.7401 25.1166 50.765 25.1115 50.7903 25.1119C50.8114 25.1142 50.8322 25.1194 50.8519 25.1274C50.87 25.0957 50.8805 25.0602 50.8828 25.0237C50.8827 24.9779 50.8717 24.9328 50.8507 24.8921C50.8296 24.8515 50.7992 24.8166 50.762 24.7904C50.6748 24.7242 50.5678 24.6904 50.4588 24.6944C50.3506 24.6858 50.2426 24.7144 50.1526 24.7757C50.0625 24.8369 49.9957 24.927 49.9629 25.0315C49.9039 25.2333 49.8779 25.4434 49.8858 25.6537V26.3356C49.9038 26.517 49.9526 26.6078 50.04 26.6078C50.0833 26.6084 50.1265 26.6031 50.1685 26.5922C50.1984 26.5894 50.2285 26.5894 50.2584 26.5922C50.2786 26.5897 50.299 26.5919 50.3182 26.5985C50.3375 26.6052 50.3549 26.6162 50.3693 26.6307C50.3837 26.6452 50.3946 26.6628 50.4012 26.6822C50.4078 26.7016 50.4099 26.7222 50.4074 26.7426C50.4074 26.8541 50.3458 26.9085 50.2173 26.9085H50.1967C50.1246 26.9073 50.0525 26.9021 49.9809 26.893C49.8833 26.893 49.8113 26.8774 49.7625 26.8774H49.4593L49.2024 26.9033C49.0687 26.9033 49.0019 26.8463 49.0019 26.7296C49.0019 26.613 49.0636 26.5844 49.1869 26.5844H49.2563L49.3334 26.6H49.3976C49.4747 26.6 49.521 26.5274 49.5261 26.377V26.1333L49.5133 25.0444C49.5133 24.8552 49.4567 24.7593 49.3694 24.7593C49.3352 24.7566 49.3008 24.7566 49.2666 24.7593C49.2307 24.7627 49.1946 24.7627 49.1587 24.7593C49.1377 24.7623 49.1164 24.7604 49.0963 24.7536C49.0762 24.7469 49.058 24.7355 49.043 24.7204C49.028 24.7053 49.0168 24.6869 49.0101 24.6666C49.0034 24.6464 49.0015 24.6248 49.0045 24.6037C49.0045 24.4948 49.0713 24.4404 49.2101 24.4404H49.3514C49.3984 24.4432 49.4456 24.4432 49.4927 24.4404C49.5338 24.4429 49.575 24.4429 49.616 24.4404C49.6459 24.4361 49.6761 24.4361 49.706 24.4404C49.783 24.487 49.8293 24.5285 49.8293 24.6218V24.6115ZM52.5452 26.963C52.3938 26.9702 52.2428 26.9427 52.1035 26.8825C51.9642 26.8223 51.8403 26.731 51.741 26.6156C51.5469 26.3437 51.4425 26.0172 51.4425 25.6822C51.4425 25.3472 51.5469 25.0207 51.741 24.7489C51.8423 24.633 51.968 24.5414 52.109 24.4809C52.2499 24.4203 52.4024 24.3923 52.5555 24.3989C52.7093 24.3914 52.8628 24.4185 53.005 24.4781C53.1472 24.5377 53.2745 24.6284 53.3777 24.7437C53.5872 25.0033 53.6934 25.3323 53.6758 25.6667C53.6939 26.0083 53.5838 26.3443 53.3674 26.6078C53.2657 26.7257 53.139 26.8188 52.9966 26.8803C52.8542 26.9419 52.6999 26.9701 52.5452 26.963ZM52.5709 24.7126C52.4733 24.7095 52.3763 24.7289 52.2872 24.7694C52.1982 24.8098 52.1194 24.8702 52.057 24.9459C51.9153 25.1413 51.8404 25.3779 51.8437 25.62V25.6667C51.8299 25.9176 51.8956 26.1664 52.0313 26.377C52.0916 26.4608 52.1715 26.5283 52.2638 26.5735C52.3561 26.6187 52.4581 26.6403 52.5606 26.6363C52.6654 26.6406 52.7697 26.6193 52.8645 26.5742C52.9594 26.529 53.042 26.4614 53.1053 26.377C53.2498 26.1689 53.3205 25.9177 53.3058 25.6641C53.2955 25.0289 53.0539 24.7048 52.5683 24.7048L52.5709 24.7126ZM55.1146 24.3963C55.2545 24.3871 55.3941 24.4165 55.5186 24.4813C55.6431 24.5462 55.7477 24.6441 55.8212 24.7644V24.277C55.8254 24.1993 55.8254 24.1214 55.8212 24.0437C55.8058 23.94 55.7621 23.8933 55.6851 23.8933C55.6502 23.8953 55.6157 23.9014 55.5823 23.9115C55.546 23.92 55.509 23.9252 55.4718 23.927C55.351 23.927 55.2919 23.87 55.2919 23.7663C55.2919 23.6626 55.369 23.6056 55.5283 23.6056H55.6671L55.8212 23.6185C55.864 23.6211 55.9069 23.6211 55.9497 23.6185C55.9908 23.616 56.032 23.616 56.073 23.6185C56.163 23.6185 56.2015 23.6859 56.2015 23.8156V24.1111C56.2015 24.1293 56.2015 24.2563 56.1887 24.4844V26.123C56.1842 26.2557 56.1929 26.3886 56.2144 26.5196C56.222 26.5445 56.238 26.5658 56.2596 26.58C56.2811 26.5942 56.307 26.6004 56.3326 26.5974C56.3642 26.6007 56.396 26.6007 56.4276 26.5974H56.5355C56.6563 26.5974 56.7154 26.6441 56.7154 26.753C56.7154 26.8619 56.646 26.9085 56.5021 26.9085H56.1039C56.0703 26.9176 56.0358 26.9228 56.0011 26.9241C55.9189 26.9241 55.8726 26.867 55.8726 26.7478V26.6441C55.7883 26.7563 55.6778 26.8458 55.5509 26.9046C55.4241 26.9634 55.2848 26.9897 55.1455 26.9811C54.9988 26.9856 54.8531 26.9562 54.7195 26.895C54.5859 26.8339 54.4679 26.7428 54.3746 26.6285C54.1843 26.3561 54.0821 26.031 54.0821 25.6978C54.0821 25.3645 54.1843 25.0394 54.3746 24.767C54.4626 24.6529 54.5747 24.56 54.7027 24.495C54.8307 24.43 54.9714 24.3945 55.1146 24.3911V24.3963ZM55.8033 26.0893C55.8033 25.9856 55.8187 25.8456 55.8187 25.6822C55.8221 25.5366 55.8135 25.3909 55.793 25.2467C55.7722 25.1003 55.6991 24.9666 55.5874 24.8707C55.4634 24.7663 55.3069 24.7094 55.1455 24.71C55.0435 24.7071 54.9423 24.7292 54.8505 24.7743C54.7588 24.8195 54.6793 24.8863 54.6187 24.9693C54.4819 25.1756 54.4151 25.4213 54.4286 25.6693C54.4148 25.9249 54.4843 26.178 54.6264 26.39C54.6893 26.4736 54.7711 26.5408 54.865 26.5859C54.9589 26.631 55.0621 26.6527 55.166 26.6493C55.324 26.6527 55.4777 26.5974 55.5977 26.4937C55.7137 26.3905 55.7871 26.2471 55.8033 26.0919V26.0893ZM58.8558 26.7556V26.6078C58.7702 26.724 58.6572 26.8169 58.5271 26.878C58.397 26.9391 58.2539 26.9665 58.1106 26.9578C57.963 26.9726 57.8142 26.948 57.6789 26.8866C57.5436 26.8252 57.4267 26.729 57.3398 26.6078C57.2737 26.4981 57.2365 26.3731 57.2319 26.2448V25.4256C57.2319 24.99 57.1856 24.7696 57.0905 24.7696C57.0598 24.7672 57.0288 24.7672 56.998 24.7696H56.9004C56.7899 24.7696 56.7334 24.7178 56.7334 24.6141C56.7334 24.5104 56.8028 24.4585 56.9389 24.4585H57.0828C57.129 24.4614 57.1754 24.4614 57.2216 24.4585C57.2715 24.4577 57.3213 24.4533 57.3706 24.4456H57.4528C57.5505 24.4456 57.6019 24.5026 57.6019 24.627V25.0678L57.5556 25.423V25.7393C57.5468 25.9405 57.5703 26.1418 57.625 26.3356C57.6655 26.4362 57.7379 26.5205 57.8308 26.5754C57.9237 26.6303 58.0321 26.6526 58.1389 26.6389C58.2649 26.6407 58.3891 26.6085 58.4986 26.5456C58.5992 26.4868 58.6771 26.3954 58.7196 26.2863C58.7858 26.0558 58.8119 25.8154 58.7967 25.5759V25.0107C58.7812 24.8552 58.7376 24.7826 58.6733 24.7826H58.5294C58.4138 24.7826 58.3599 24.7307 58.3599 24.6374C58.3599 24.5441 58.4189 24.4741 58.5397 24.4741H58.6759C58.7187 24.4766 58.7616 24.4766 58.8044 24.4741C58.8429 24.4767 58.8815 24.4767 58.92 24.4741H59.0356C59.1307 24.4741 59.1769 24.5259 59.1769 24.6296C59.1815 24.664 59.1815 24.6989 59.1769 24.7333C59.1577 24.9141 59.1491 25.0959 59.1512 25.2778V26.3433C59.1692 26.5144 59.218 26.6026 59.29 26.6026H59.4801C59.5906 26.6026 59.642 26.6544 59.642 26.7581C59.642 26.8618 59.5752 26.9215 59.4442 26.9215H59.3157L59.1692 26.9085H59.0664C59.0327 26.9164 58.9983 26.9208 58.9637 26.9215C58.9446 26.9213 58.9259 26.9165 58.909 26.9076C58.8921 26.8987 58.8776 26.8858 58.8666 26.8702C58.8556 26.8545 58.8484 26.8364 58.8456 26.8174C58.8428 26.7984 58.8445 26.779 58.8506 26.7607L58.8558 26.7556ZM61.2428 25.2933C61.2428 25.1637 61.3199 25.0911 61.4792 25.0704C61.4722 25.0183 61.4544 24.9683 61.4269 24.9236C61.3995 24.8789 61.363 24.8406 61.3199 24.8111C61.2155 24.7421 61.0925 24.7076 60.9678 24.7126C60.8655 24.7101 60.7641 24.7324 60.672 24.7775C60.58 24.8226 60.4999 24.8892 60.4385 24.9718C60.2977 25.1768 60.2273 25.4227 60.2381 25.6718C60.2244 25.9235 60.2901 26.1731 60.4257 26.3848C60.4841 26.4669 60.5613 26.5333 60.6509 26.5785C60.7404 26.6237 60.8395 26.6462 60.9396 26.6441C61.0714 26.6468 61.2002 26.6038 61.3044 26.5222C61.4094 26.4396 61.4837 26.3235 61.5151 26.193C61.546 26.0789 61.5665 26.0167 61.5717 26.0011C61.5904 25.9651 61.6206 25.9364 61.6574 25.9198C61.6942 25.9031 61.7355 25.8994 61.7746 25.9093C61.8137 25.9192 61.8484 25.942 61.8731 25.9742C61.8978 26.0064 61.9111 26.046 61.9108 26.0867C61.9054 26.1862 61.8791 26.2833 61.8337 26.3718C61.7905 26.4767 61.7297 26.5731 61.6539 26.657C61.5604 26.7564 61.4469 26.8345 61.321 26.8859C61.1952 26.9373 61.0598 26.961 60.9242 26.9552C60.7762 26.9609 60.629 26.9328 60.4933 26.8731C60.3576 26.8134 60.237 26.7236 60.1405 26.6104C59.9351 26.3547 59.83 26.0317 59.845 25.703C59.8276 25.3559 59.9373 25.0144 60.1533 24.7437C60.2547 24.627 60.3807 24.5347 60.5221 24.4737C60.6636 24.4127 60.8167 24.3844 60.9704 24.3911C61.1996 24.3825 61.4244 24.4559 61.6051 24.5985C61.6844 24.6593 61.7488 24.7377 61.7934 24.8276C61.8379 24.9175 61.8614 25.0165 61.862 25.117C61.8661 25.2227 61.8314 25.3261 61.7644 25.4074C61.7338 25.4461 61.6946 25.4768 61.6499 25.4971C61.6052 25.5174 61.5564 25.5266 61.5074 25.5241C61.4351 25.5267 61.3645 25.5017 61.3096 25.4541C61.287 25.4328 61.269 25.4072 61.2566 25.3786C61.2442 25.3501 61.2378 25.3193 61.2376 25.2881L61.2428 25.2933ZM63.6092 26.2111V25.9078C63.6092 25.7781 63.6683 25.7107 63.7814 25.7107C63.8944 25.7107 63.9458 25.7833 63.9458 25.9337C63.9665 26.1845 63.9223 26.4365 63.8173 26.6648C63.7508 26.7597 63.6607 26.8352 63.556 26.8839C63.4514 26.9326 63.336 26.9527 63.2212 26.9422C63.1166 26.9513 63.0114 26.9321 62.9166 26.8865C62.8217 26.8409 62.7406 26.7707 62.6817 26.683C62.5877 26.4965 62.5477 26.2872 62.566 26.0789V24.933C62.566 24.8681 62.5352 24.8344 62.4735 24.8344H62.3194C62.2956 24.8348 62.272 24.8304 62.25 24.8215C62.2279 24.8126 62.2079 24.7994 62.1909 24.7826C62.1586 24.7493 62.1402 24.7047 62.1395 24.6581C62.1398 24.6358 62.1445 24.6138 62.1533 24.5933C62.1622 24.5728 62.1749 24.5543 62.1909 24.5389C62.2048 24.5224 62.2222 24.5092 62.2417 24.5003C62.2612 24.4913 62.2825 24.4868 62.3039 24.487H62.4838C62.5429 24.487 62.5686 24.4611 62.5686 24.3937V23.9011C62.5654 23.8758 62.5682 23.8502 62.5766 23.8261C62.5851 23.8021 62.5989 23.7804 62.6172 23.7628C62.6354 23.7452 62.6575 23.7321 62.6816 23.7246C62.7057 23.7171 62.7313 23.7154 62.7562 23.7196C62.8692 23.7196 62.9258 23.7793 62.9258 23.9011V24.4196C62.9258 24.4715 62.9514 24.4922 63.0105 24.4922H63.5244C63.6452 24.4922 63.7043 24.5441 63.7043 24.6607C63.7043 24.7774 63.6401 24.8422 63.5116 24.8422H62.9977C62.954 24.8422 62.9309 24.8733 62.9309 24.9381V26.1204C62.9309 26.4574 63.0414 26.6259 63.2649 26.6259C63.4885 26.6259 63.5989 26.4885 63.6092 26.2111ZM65.1946 24.3963C65.3846 24.3894 65.5712 24.4479 65.7239 24.5622V24.5441C65.7239 24.4248 65.7753 24.3678 65.8729 24.3678C65.9705 24.3678 66.0322 24.4144 66.0322 24.5181V24.6633C66.0216 24.7276 66.0164 24.7926 66.0168 24.8578C66.0132 24.913 66.0132 24.9685 66.0168 25.0237C66.0168 25.1015 66.0296 25.1533 66.0296 25.1922C66.0296 25.3115 65.9731 25.3737 65.8703 25.3737C65.8495 25.3762 65.8284 25.3739 65.8085 25.367C65.7887 25.36 65.7707 25.3487 65.7558 25.3337C65.741 25.3187 65.7297 25.3005 65.7228 25.2805C65.716 25.2605 65.7137 25.2392 65.7162 25.2181V25.0626C65.7134 25.0087 65.6968 24.9565 65.668 24.911C65.6391 24.8655 65.5991 24.8284 65.5517 24.8033C65.4392 24.733 65.3089 24.697 65.1766 24.6996C65.0444 24.6944 64.9145 24.7356 64.8092 24.8163C64.7631 24.8467 64.7253 24.8882 64.6993 24.9371C64.6732 24.986 64.6598 25.0408 64.6601 25.0963C64.6601 25.2985 64.7989 25.423 65.0789 25.4593L65.3564 25.4981C65.896 25.5759 66.1684 25.7963 66.1684 26.1774C66.1718 26.2845 66.1504 26.3909 66.1057 26.4882C66.0611 26.5854 65.9946 26.6707 65.9114 26.7374C65.7152 26.8865 65.4734 26.9617 65.228 26.95C64.9814 26.955 64.7405 26.8755 64.5445 26.7244V26.8178C64.5445 26.9344 64.4931 26.9889 64.3826 26.9889C64.2721 26.9889 64.2028 26.9241 64.2028 26.7944C64.2179 26.7087 64.2282 26.6221 64.2336 26.5352C64.2363 26.4903 64.2363 26.4453 64.2336 26.4004C64.235 26.3282 64.229 26.2561 64.2156 26.1852C64.2051 26.134 64.1991 26.0819 64.1976 26.0296C64.1976 25.9156 64.249 25.8585 64.3518 25.8585C64.4546 25.8585 64.4623 25.8767 64.4803 25.9104C64.5041 25.9945 64.5129 26.0824 64.506 26.1696C64.5098 26.2392 64.5321 26.3065 64.5705 26.3644C64.6089 26.4223 64.6621 26.4688 64.7244 26.4989C64.8863 26.591 65.0705 26.6359 65.2562 26.6285C65.3944 26.6339 65.5302 26.5918 65.6417 26.5093C65.6896 26.4755 65.7288 26.4305 65.7556 26.3781C65.7825 26.3257 65.7963 26.2675 65.7958 26.2085C65.7958 25.9933 65.6237 25.8637 65.2819 25.8326C65.0218 25.8172 64.767 25.7512 64.5317 25.6381C64.4468 25.5892 64.3776 25.5168 64.3321 25.4296C64.2866 25.3423 64.2667 25.2438 64.2747 25.1456C64.2719 25.0408 64.2937 24.9368 64.3384 24.8422C64.383 24.7476 64.4493 24.6649 64.5317 24.6011C64.7188 24.4559 64.951 24.3824 65.1869 24.3937L65.1946 24.3963ZM68.4963 8.42592H68.0595V6.61111H67.3812V6.22222H69.1541V6.60592H68.4963V8.42592ZM69.8247 8.42592H69.4136V6.22222H70.1022L70.4953 7.73629L70.891 6.22222H71.5848V8.42592H71.1737V6.67333L70.7035 8.42592H70.3052L69.8376 6.67333L69.8247 8.42592Z" fill="#231F20"/>
</svg>
