<svg width="22" height="22" viewBox="0 0 22 22" fill="none" xmlns="http://www.w3.org/2000/svg">
<path d="M11.0004 12.5766C13.1772 12.5766 14.9418 10.8119 14.9418 8.6352C14.9418 6.45844 13.1772 4.69383 11.0004 4.69383C8.82366 4.69383 7.05905 6.45844 7.05905 8.6352C7.05905 10.8119 8.82366 12.5766 11.0004 12.5766Z" stroke="#141414" stroke-width="1.5" stroke-linecap="round" stroke-linejoin="round"/>
<path d="M4.26776 18.7251C4.97128 17.5703 5.96004 16.6159 7.13899 15.9537C8.31793 15.2914 9.6474 14.9435 10.9996 14.9435C12.3518 14.9435 13.6813 15.2914 14.8603 15.9537C16.0392 16.6159 17.0279 17.5703 17.7315 18.7251" stroke="#141414" stroke-width="1.5" stroke-linecap="round" stroke-linejoin="round"/>
<path d="M11 21.2476C16.6596 21.2476 21.2476 16.6596 21.2476 11C21.2476 5.34043 16.6596 0.752443 11 0.752443C5.34043 0.752443 0.752443 5.34043 0.752443 11C0.752443 16.6596 5.34043 21.2476 11 21.2476Z" stroke="#141414" stroke-width="1.5" stroke-linecap="round" stroke-linejoin="round"/>
</svg>
