<svg width="82" height="26" viewBox="0 0 82 26" fill="none" xmlns="http://www.w3.org/2000/svg">
<path d="M9.46395 16.1652H7.71575L7.57909 15.5011C7.55239 15.7083 7.45129 15.8989 7.29437 16.038C7.04028 16.1487 6.76204 16.1934 6.48575 16.168H2.89826C2.24719 16.168 1.79353 16.0418 1.53728 15.7893C1.28103 15.5369 1.14816 15.1139 1.13867 14.5204V9.1C1.13867 8.4971 1.27154 8.07319 1.53728 7.82826C1.80302 7.58333 2.25573 7.45804 2.89541 7.45239H8.95999L9.11089 8.52631C8.89146 8.4547 8.66682 8.3999 8.43895 8.36239L7.58478 8.32H3.65562C3.57705 8.31116 3.49748 8.31865 3.42199 8.342C3.3465 8.36536 3.27674 8.40406 3.21714 8.45565C3.12516 8.59825 3.08498 8.76774 3.10326 8.93609V14.6448C3.08275 14.8123 3.12534 14.9814 3.22284 15.1196C3.28738 15.2138 3.42974 15.2609 3.64992 15.2609H6.91853C7.05942 15.2763 7.20072 15.2357 7.31145 15.1478C7.39128 15.0174 7.42346 14.8638 7.40256 14.7126V11.8696H5.17319C4.72222 11.8421 4.27009 11.8996 3.84069 12.0391V10.9652H9.4611C9.42606 11.1709 9.40418 11.3785 9.39562 11.587C9.37663 11.8187 9.36714 12.0391 9.36714 12.2483V15.6509L9.46395 16.1652ZM12.7781 16.1652H10.7623L10.8591 15.5717L10.9018 14.7663V8.05435L10.7594 7.45239H12.6585V15.5802C12.6601 15.6886 12.6774 15.7961 12.7098 15.8996C12.7362 15.9879 12.7581 16.0775 12.7753 16.168L12.7781 16.1652ZM21.576 16.1652H19.8221L19.7538 15.6C19.6961 15.747 19.6175 15.885 19.5203 16.0098C19.3735 16.1155 19.1947 16.1683 19.0135 16.1596H15.7449C15.1755 16.1596 14.7607 16.0352 14.5007 15.7865C14.2406 15.5378 14.1144 15.0988 14.122 14.4696V10.3435C14.1221 10.2285 14.1049 10.1142 14.0708 10.0043L14.0024 9.76978H15.8674V14.7607C15.8489 14.9239 15.8849 15.0887 15.9699 15.2298C16.0254 15.274 16.0892 15.3068 16.1577 15.3262C16.2261 15.3456 16.2978 15.3512 16.3685 15.3428H19.2015C19.2706 15.3522 19.341 15.3461 19.4074 15.3251C19.4739 15.3041 19.5349 15.2686 19.5858 15.2213C19.665 15.0802 19.6988 14.9185 19.6826 14.7578V10.3435L19.5687 9.77826H21.4479V15.583C21.4508 15.6917 21.47 15.7993 21.5049 15.9024C21.5323 15.9897 21.5552 16.0784 21.5732 16.168L21.576 16.1652ZM29.2977 15.2411L29.1468 16.1652H24.3065C23.7371 16.1652 23.3233 16.0362 23.0651 15.778C22.807 15.5199 22.6836 15.0866 22.695 14.478V11.4541C22.695 10.8475 22.8184 10.4141 23.0651 10.1541C23.3119 9.89413 23.7266 9.76602 24.3094 9.76978H29.1098L29.2322 10.6741C29.1489 10.6435 29.0632 10.6199 28.976 10.6035C28.902 10.5983 28.8278 10.5983 28.7539 10.6035H24.9386C24.8666 10.5953 24.7937 10.6026 24.7249 10.6251C24.6561 10.6475 24.593 10.6845 24.54 10.7335C24.4524 10.8674 24.4123 11.0266 24.4261 11.1857V14.7607C24.4083 14.9243 24.4454 15.0891 24.5315 15.2298C24.5877 15.2747 24.6525 15.3079 24.722 15.3273C24.7914 15.3467 24.8642 15.352 24.9358 15.3428H28.2585C28.6086 15.3462 28.9581 15.3112 29.3005 15.2383L29.2977 15.2411ZM35.8463 16.1652H31.7064C31.4839 16.1875 31.2591 16.1647 31.0457 16.0981C30.8323 16.0316 30.6348 15.9227 30.4651 15.778C30.2145 15.5199 30.0892 15.0866 30.0892 14.478V11.4541C30.0892 10.8475 30.2126 10.4141 30.4594 10.1541C30.7061 9.89413 31.1171 9.76602 31.6922 9.76978H35.8492C36.4338 9.76978 36.8514 9.89696 37.1019 10.1513C37.3525 10.4057 37.4787 10.8409 37.4806 11.457V14.4809C37.4806 15.0781 37.3572 15.5086 37.1105 15.7724C36.8637 16.0362 36.4433 16.168 35.8492 16.168L35.8463 16.1652ZM35.7324 14.7522V11.1772C35.7517 11.0142 35.7167 10.8494 35.6328 10.708C35.5766 10.663 35.5118 10.6297 35.4423 10.6103C35.3728 10.5908 35.3001 10.5856 35.2285 10.595H32.3385C32.2692 10.5865 32.1988 10.5921 32.1317 10.6115C32.0646 10.6309 32.0023 10.6638 31.9485 10.708C31.8643 10.8494 31.8293 11.0142 31.8488 11.1772V14.7663C31.8308 14.9287 31.8668 15.0924 31.9513 15.2326C32.0055 15.2772 32.0683 15.3103 32.1359 15.3297C32.2035 15.3492 32.2744 15.3546 32.3442 15.3457H35.2342C35.3061 15.3539 35.379 15.3465 35.4478 15.3241C35.5166 15.3016 35.5797 15.2646 35.6328 15.2157C35.7184 15.081 35.7564 14.9219 35.741 14.7635L35.7324 14.7522ZM43.847 16.1652H38.5967L38.4601 15.2609C38.5534 15.2918 38.6484 15.3173 38.7448 15.3372C38.8384 15.3575 38.9337 15.3688 39.0295 15.3711H43.2035C43.3568 15.3863 43.51 15.3417 43.6306 15.2467C43.7271 15.1167 43.7699 14.9549 43.7502 14.7946V14.2576C43.7631 14.0974 43.7198 13.9377 43.6278 13.8054C43.5036 13.7178 43.3526 13.6758 43.2007 13.6867H40.0033C39.4338 13.6867 39.0314 13.5549 38.796 13.2911C38.5607 13.0273 38.4411 12.593 38.4373 11.9883V11.4739C38.4373 10.8635 38.5588 10.4273 38.8017 10.1654C39.0447 9.90355 39.4452 9.77167 40.0033 9.76978H45.2991L45.45 10.6685C45.3855 10.6496 45.2905 10.627 45.1653 10.6007C45.0662 10.5776 44.9651 10.5644 44.8635 10.5611H40.678C40.5356 10.5477 40.3933 10.5881 40.2794 10.6741C40.1893 10.7995 40.1488 10.9534 40.1655 11.1065V11.4739C40.1546 11.6204 40.1948 11.7661 40.2794 11.8865C40.3325 11.9355 40.3956 11.9725 40.4644 11.9949C40.5332 12.0174 40.6061 12.0247 40.678 12.0165H43.81C44.2561 11.9786 44.7011 12.1021 45.0628 12.3641C45.3171 12.5996 45.4443 13 45.4443 13.5652V14.9133C45.4601 15.0923 45.4333 15.2726 45.366 15.4395C45.2988 15.6064 45.1929 15.7553 45.0571 15.8741C44.6973 16.1016 44.2717 16.2039 43.847 16.1652ZM53.7952 16.1652H52.1438L52.0356 15.6198C51.9938 15.7049 51.9463 15.787 51.8932 15.8657C51.8493 15.9317 51.7966 15.9916 51.7367 16.0437C51.5542 16.1432 51.3461 16.1865 51.1387 16.168H47.984C47.4013 16.168 46.9894 16.0286 46.7483 15.7498C46.5073 15.4709 46.3867 14.9622 46.3867 14.2237V13.325C46.3867 12.7711 46.513 12.3783 46.7654 12.1465C47.1081 11.8857 47.5367 11.7617 47.9669 11.7989H51.4519C51.5831 11.8138 51.7151 11.7795 51.8221 11.7028C51.9008 11.5824 51.9341 11.4383 51.916 11.2959V11.05C51.9331 10.9108 51.8987 10.7703 51.8192 10.6543C51.7125 10.5769 51.5806 10.5417 51.4491 10.5554H47.1099C47.0312 10.5548 46.9527 10.5643 46.8764 10.5837C46.811 10.5978 46.6971 10.6346 46.5348 10.6911L46.6487 9.76696H52.0385C52.6269 9.76696 53.0445 9.89602 53.2912 10.1541C53.538 10.4122 53.6652 10.8456 53.6728 11.4541V15.5802C53.6754 15.6898 53.6946 15.7984 53.7297 15.9024C53.7573 15.9897 53.7801 16.0783 53.798 16.168L53.7952 16.1652ZM51.916 14.7522V12.6185H48.5962C48.5268 12.6099 48.4564 12.6155 48.3894 12.635C48.3223 12.6544 48.2599 12.6873 48.2061 12.7315C48.1214 12.8736 48.0863 13.0396 48.1064 13.2035V14.7635C48.0878 14.9268 48.1238 15.0916 48.209 15.2326C48.2631 15.2772 48.3259 15.3103 48.3935 15.3297C48.4611 15.3492 48.5321 15.3546 48.6019 15.3457H51.4263C51.4957 15.3542 51.566 15.3486 51.6331 15.3291C51.7002 15.3097 51.7626 15.2769 51.8164 15.2326C51.9017 15.0917 51.9377 14.9268 51.9189 14.7635L51.916 14.7522ZM60.5033 15.2185L60.3609 16.168H57.172C56.9538 16.1865 56.7342 16.161 56.5262 16.093C56.3183 16.025 56.1263 15.916 55.9619 15.7724C55.6962 15.503 55.5633 15.0555 55.5633 14.43V10.5583H54.4529V9.77261H55.5633V8.47826L57.3229 8.21826V9.78109H60.0762V10.5724H57.3371V14.6702C57.3166 14.8577 57.3597 15.0467 57.4596 15.2072C57.5207 15.262 57.5931 15.3031 57.6717 15.3275C57.7504 15.3519 57.8334 15.359 57.9151 15.3485H59.1764C59.6235 15.3673 60.0709 15.3245 60.5061 15.2213L60.5033 15.2185ZM65.8219 10.9087L65.1385 10.8154H63.5583C63.4184 10.8014 63.2785 10.8419 63.1683 10.9285C63.0775 11.0482 63.0367 11.198 63.0544 11.3467V14.7663C63.0351 15.2411 63.0801 15.7164 63.1882 16.1793H61.1951L61.272 15.8572C61.2963 15.7715 61.3106 15.6833 61.3147 15.5943V10.3435C61.3148 10.2285 61.2976 10.1142 61.2635 10.0043L61.1951 9.76978H62.8807L62.9661 10.4198C63.006 10.2269 63.114 10.0545 63.2708 9.9337C63.479 9.80999 63.7205 9.75277 63.9626 9.76978H65.6083L66.1778 10.4763C66.1143 10.5402 66.0614 10.6136 66.0212 10.6939C65.9908 10.7618 65.9461 10.8225 65.8902 10.872L65.8219 10.9087ZM68.9481 16.1652H66.9323L67.0376 15.5717V10.3576L66.9323 9.75848H68.7972V14.7607L68.8542 15.5802C68.8559 15.687 68.8702 15.7933 68.8969 15.8967C68.9215 16.0098 68.9386 16.0993 68.9481 16.1652ZM68.7944 9.04348H67.086V7.82826H68.7944V9.04348ZM77.746 16.1652H75.753L75.8669 15.583V11.1743C75.883 11.0137 75.8492 10.8519 75.7701 10.7109C75.7191 10.6636 75.6582 10.6281 75.5917 10.6071C75.5252 10.5861 75.4548 10.58 75.3857 10.5893H72.547C72.475 10.5811 72.4021 10.5885 72.3333 10.6109C72.2645 10.6334 72.2014 10.6704 72.1484 10.7193C72.0608 10.8533 72.0207 11.0124 72.0345 11.1715V14.7663C72.0179 15.2415 72.0658 15.7168 72.1769 16.1793H70.1838C70.2028 16.0795 70.2275 15.973 70.2578 15.86C70.2823 15.7734 70.2967 15.6842 70.3005 15.5943V10.3378C70.3008 10.2259 70.2844 10.1145 70.2521 10.0072L70.1838 9.77261H72.006L72.0459 10.3378C72.1349 10.1655 72.2613 10.0149 72.416 9.89696C72.5299 9.82198 72.6638 9.7826 72.8004 9.78391H76.0007C76.5853 9.78391 77.0029 9.91109 77.2535 10.1654C77.504 10.4198 77.6293 10.855 77.6293 11.4711V15.5887C77.6304 15.6971 77.6477 15.8047 77.6805 15.908C77.7061 15.9954 77.727 16.0841 77.7432 16.1737L77.746 16.1652ZM79.8701 11.8696C79.5379 11.8731 79.2174 11.7485 78.976 11.522C78.8557 11.4053 78.76 11.266 78.6947 11.1122C78.6294 10.9583 78.5958 10.793 78.5958 10.6261C78.5958 10.4591 78.6294 10.2939 78.6947 10.14C78.76 9.98617 78.8557 9.84684 78.976 9.73022C79.2205 9.50679 79.5406 9.38276 79.8729 9.38276C80.2052 9.38276 80.5253 9.50679 80.7698 9.73022C80.8898 9.84704 80.9851 9.98643 81.0502 10.1403C81.1153 10.2941 81.1488 10.4592 81.1488 10.6261C81.1488 10.7929 81.1153 10.9581 81.0502 11.1119C80.9851 11.2657 80.8898 11.4051 80.7698 11.522C80.527 11.7498 80.2042 11.8746 79.8701 11.8696ZM79.8701 9.63696C79.7453 9.6353 79.6215 9.6596 79.5068 9.70827C79.3921 9.75694 79.2888 9.82892 79.2038 9.91957C79.1105 10.0131 79.0372 10.1244 78.9883 10.2468C78.9393 10.3692 78.9158 10.5001 78.9191 10.6317C78.9107 10.8931 79.0069 11.1471 79.1867 11.3383C79.2741 11.4263 79.3783 11.4962 79.4932 11.5439C79.608 11.5916 79.7313 11.6161 79.8558 11.6161C79.9803 11.6161 80.1036 11.5916 80.2185 11.5439C80.3333 11.4962 80.4375 11.4263 80.5249 11.3383C80.6983 11.1431 80.7939 10.8919 80.7939 10.6317C80.7939 10.3716 80.6983 10.1204 80.5249 9.92522C80.4409 9.83697 80.3392 9.76703 80.2265 9.71984C80.1138 9.67265 79.9924 9.64924 79.8701 9.65109V9.63696ZM80.5078 11.2648H80.1747L79.9299 10.6996H79.5512V11.1885L79.574 11.2676H79.2437L79.2636 11.1828V10.0807L79.2408 9.99587H80.1804C80.2553 9.98824 80.3303 10.0084 80.3911 10.0524C80.4128 10.0786 80.4291 10.1088 80.4389 10.1414C80.4486 10.1739 80.4518 10.208 80.448 10.2417V10.4735C80.4547 10.5372 80.4363 10.6009 80.3968 10.6515C80.3525 10.6888 80.2952 10.707 80.2374 10.7024L80.3512 10.985L80.4253 11.1404L80.4651 11.2139L80.5078 11.2648ZM80.1719 10.465V10.222C80.1733 10.1964 80.1674 10.1709 80.1548 10.1485C80.1467 10.1404 80.1368 10.1344 80.1259 10.131C80.115 10.1275 80.1034 10.1268 80.0921 10.1287H79.5512V10.5667H80.0921C80.1206 10.5667 80.1434 10.5667 80.1491 10.5441C80.1638 10.5256 80.1719 10.5027 80.1719 10.4791V10.465Z" fill="#00A0C6"/>
<path d="M26.123 17.8269C25.6219 18.5163 25.3655 19.3513 25.3941 20.2009C25.3772 21.0397 25.6317 21.8618 26.1202 22.5465H25.7216C25.2078 21.8725 24.9389 21.0458 24.9585 20.2009C24.9414 19.3467 25.212 18.5113 25.7273 17.8269H26.123ZM26.6726 17.7337H27.1851V19.5C27.283 19.3357 27.4246 19.2013 27.5943 19.1116C27.7641 19.0219 27.9554 18.9802 28.1474 18.9913C28.8478 18.9913 29.3376 19.5706 29.3376 20.4043C29.3376 21.4132 28.6969 21.9106 28.0648 21.9106C27.8733 21.9208 27.6828 21.8767 27.5155 21.7837C27.3482 21.6907 27.2109 21.5524 27.1196 21.385L27.0911 21.8485H26.6498C26.664 21.6591 26.6697 21.3765 26.6697 21.1278L26.6726 17.7337ZM27.1851 20.7237C27.1845 20.7863 27.1902 20.8487 27.2021 20.9102C27.2462 21.0795 27.3455 21.2296 27.4846 21.337C27.6237 21.4444 27.7947 21.503 27.9709 21.5037C28.5175 21.5037 28.825 21.0685 28.825 20.4298C28.825 19.8645 28.5403 19.3785 27.9709 19.3785C27.7533 19.3914 27.549 19.4865 27.3998 19.6441C27.2505 19.8017 27.1676 20.01 27.168 20.2263L27.1851 20.7237ZM31.1484 21.9106C30.391 21.9106 29.7931 21.3454 29.7931 20.4693C29.7931 19.5311 30.4195 18.98 31.1939 18.98C31.9684 18.98 32.5549 19.565 32.5549 20.4156C32.5549 21.4613 31.826 21.9135 31.1541 21.9135L31.1484 21.9106ZM31.1655 21.5291C31.6552 21.5291 32.0196 21.0713 32.0196 20.4354C32.0196 19.9635 31.7805 19.3672 31.1655 19.3672C30.5505 19.3672 30.3113 19.9324 30.3113 20.4552C30.3113 21.0685 30.6615 21.5291 31.1655 21.5291ZM33.2041 19.8024C33.2041 19.5198 33.2041 19.2739 33.1813 19.0393H33.6369L33.6653 19.5C33.7589 19.3372 33.8951 19.2027 34.0596 19.1106C34.224 19.0186 34.4105 18.9724 34.5992 18.9772C34.9893 18.9772 35.5957 19.2089 35.5957 20.1698V21.8428H35.0832V20.2319C35.0832 19.7798 34.9124 19.3841 34.4284 19.3841C34.2731 19.3881 34.123 19.4404 33.9993 19.5337C33.8757 19.6271 33.7847 19.7566 33.7394 19.9041C33.7153 19.9809 33.7038 20.0611 33.7052 20.1415V21.8372H33.1927L33.2041 19.8024ZM36.7289 20.5315C36.717 20.6607 36.7336 20.7909 36.7775 20.9131C36.8214 21.0352 36.8915 21.1464 36.9831 21.239C37.0747 21.3315 37.1855 21.4031 37.3078 21.4488C37.4301 21.4945 37.561 21.5133 37.6913 21.5037C37.9593 21.5105 38.2259 21.4624 38.4743 21.3624L38.5682 21.7213C38.2695 21.8471 37.9474 21.9087 37.623 21.9022C37.4347 21.9129 37.2464 21.8834 37.0706 21.8157C36.8948 21.748 36.7357 21.6437 36.604 21.5098C36.4723 21.3758 36.3711 21.2154 36.3072 21.0393C36.2433 20.8633 36.2181 20.6756 36.2335 20.4891C36.2335 19.6413 36.7403 18.9743 37.5632 18.9743C38.4857 18.9743 38.7248 19.7798 38.7248 20.2941C38.728 20.3763 38.7233 20.4587 38.7106 20.54L36.7289 20.5315ZM38.2294 20.1641C38.2294 19.8476 38.0956 19.3389 37.5233 19.3389C36.9966 19.3389 36.7745 19.8137 36.7318 20.1669L38.2294 20.1641ZM43.0839 21.8456C42.9701 21.7382 42.8676 21.628 42.7138 21.4726C42.4066 21.7613 41.9979 21.9195 41.5749 21.9135C41.4221 21.9263 41.2683 21.9077 41.1231 21.8586C40.9779 21.8096 40.8445 21.7312 40.7314 21.6284C40.6183 21.5257 40.5278 21.4008 40.4657 21.2616C40.4036 21.1224 40.3712 20.972 40.3705 20.8198C40.3793 20.5788 40.456 20.3452 40.5919 20.1453C40.7278 19.9455 40.9174 19.7875 41.1393 19.6893V19.6724C40.9422 19.4441 40.8253 19.1585 40.8062 18.8585C40.8049 18.7288 40.8302 18.6002 40.8808 18.4806C40.9313 18.361 41.0059 18.2529 41.1 18.163C41.1941 18.073 41.3057 18.003 41.428 17.9574C41.5503 17.9118 41.6807 17.8914 41.8112 17.8976C41.9243 17.8901 42.0378 17.9061 42.1443 17.9446C42.2508 17.9831 42.348 18.0432 42.4298 18.1212C42.5115 18.1991 42.5759 18.2931 42.619 18.3972C42.662 18.5013 42.6827 18.6132 42.6796 18.7256C42.6796 19.1382 42.4433 19.4604 41.8255 19.7713V19.7826C42.1614 20.1698 42.5373 20.5937 42.785 20.8706C42.9897 20.5243 43.1187 20.1392 43.1637 19.7402H43.6306C43.5726 20.2622 43.3761 20.7595 43.0612 21.1815L43.7103 21.8711L43.0839 21.8456ZM41.6603 21.5291C41.812 21.5293 41.9621 21.4979 42.1009 21.4371C42.2396 21.3762 42.364 21.2873 42.4661 21.1759C42.2326 20.9272 41.7941 20.4467 41.3614 19.9465C41.2149 20.0234 41.0912 20.1368 41.0023 20.2755C40.9135 20.4143 40.8625 20.5736 40.8546 20.7378C40.8506 20.8428 40.8685 20.9475 40.9071 21.0453C40.9458 21.1431 41.0043 21.2319 41.0792 21.3062C41.154 21.3805 41.2435 21.4386 41.342 21.477C41.4406 21.5153 41.546 21.5331 41.6518 21.5291H41.6603ZM41.7657 18.2226C41.695 18.2249 41.6256 18.2417 41.5617 18.2719C41.4979 18.3021 41.4411 18.3451 41.3948 18.3982C41.3485 18.4513 41.3138 18.5133 41.2929 18.5804C41.2719 18.6474 41.2652 18.7181 41.2731 18.7878C41.2848 19.0523 41.3895 19.3043 41.5692 19.5C41.9678 19.2739 42.2241 19.0648 42.2241 18.7369C42.2308 18.6732 42.2241 18.6089 42.2043 18.5479C42.1846 18.4869 42.1523 18.4307 42.1094 18.3828C42.0665 18.3349 42.0141 18.2965 41.9554 18.2699C41.8967 18.2432 41.833 18.2291 41.7685 18.2282L41.7657 18.2226ZM44.6784 22.6709C44.8889 22.6745 45.0928 22.5976 45.2478 22.4561C45.3902 22.3006 45.4471 22.0746 45.4471 21.4019V19.0422H45.9596V21.5856C45.9596 22.1311 45.8742 22.4843 45.618 22.7387C45.3761 22.9483 45.0649 23.062 44.7439 23.058L44.6784 22.6709ZM45.6835 18.5278C45.5959 18.5278 45.5119 18.4933 45.4499 18.4318C45.388 18.3703 45.3532 18.2869 45.3532 18.2C45.3532 18.113 45.388 18.0297 45.4499 17.9682C45.5119 17.9067 45.5959 17.8722 45.6835 17.8722C45.771 17.8722 45.8551 17.9067 45.917 17.9682C45.9789 18.0297 46.0137 18.113 46.0137 18.2C46.0137 18.2869 45.9789 18.3703 45.917 18.4318C45.8551 18.4933 45.771 18.5278 45.6835 18.5278ZM47.9413 21.9106C47.1839 21.9106 46.586 21.3454 46.586 20.4693C46.586 19.5311 47.2124 18.98 47.9869 18.98C48.7613 18.98 49.3478 19.565 49.3478 20.4156C49.3478 21.4613 48.6189 21.9135 47.947 21.9135L47.9413 21.9106ZM47.9584 21.5291C48.4481 21.5291 48.8126 21.0713 48.8126 20.4354C48.8126 19.9635 48.5734 19.3672 47.9584 19.3672C47.3434 19.3672 47.1042 19.9324 47.1042 20.4552C47.1042 21.0685 47.4544 21.5291 47.9584 21.5291ZM50.2419 18.5278C50.1543 18.5278 50.0703 18.4933 50.0083 18.4318C49.9464 18.3703 49.9116 18.2869 49.9116 18.2C49.9116 18.113 49.9464 18.0297 50.0083 17.9682C50.0703 17.9067 50.1543 17.8722 50.2419 17.8722C50.2854 17.8701 50.3289 17.8772 50.3695 17.8928C50.4102 17.9084 50.4471 17.9323 50.4779 17.9629C50.5087 17.9935 50.5328 18.0301 50.5485 18.0704C50.5642 18.1108 50.5713 18.1539 50.5693 18.1972C50.5705 18.2405 50.5627 18.2837 50.5465 18.324C50.5304 18.3643 50.5061 18.4009 50.4752 18.4316C50.4443 18.4622 50.4074 18.4863 50.3668 18.5024C50.3262 18.5185 50.2827 18.5262 50.239 18.525L50.2419 18.5278ZM49.997 21.8485V19.0478H50.5095V21.8513L49.997 21.8485ZM51.3637 19.8024C51.3637 19.5198 51.3637 19.2739 51.3352 19.0393H51.7907L51.8192 19.5C51.9128 19.3372 52.049 19.2027 52.2135 19.1106C52.3779 19.0186 52.5644 18.9724 52.7531 18.9772C53.1432 18.9772 53.7496 19.2089 53.7496 20.1698V21.8428H53.2428V20.2319C53.2428 19.7798 53.072 19.3841 52.588 19.3841C52.4327 19.3881 52.2826 19.4404 52.1589 19.5337C52.0352 19.6271 51.9443 19.7566 51.8989 19.9041C51.8749 19.9809 51.8634 20.0611 51.8648 20.1415V21.8372H51.3523L51.3637 19.8024ZM55.196 18.3695V19.0422H55.9306V19.4293H55.196V20.9413C55.196 21.2889 55.2957 21.4867 55.5804 21.4867C55.6765 21.4896 55.7725 21.4782 55.8651 21.4528L55.8936 21.8428C55.7467 21.8911 55.5928 21.915 55.438 21.9135C55.335 21.9187 55.232 21.9023 55.1359 21.8653C55.0397 21.8283 54.9525 21.7715 54.88 21.6987C54.7273 21.4852 54.6566 21.2246 54.6807 20.9639V19.4378H54.2422V19.0422H54.6807V18.5335L55.196 18.3695ZM57.7984 21.8456V19.4322H57.4083V19.0422H57.7984V18.9093C57.7857 18.733 57.8087 18.5559 57.8659 18.3885C57.9231 18.2211 58.0134 18.0667 58.1315 17.9343C58.3169 17.7633 58.5618 17.6701 58.8148 17.6743C58.9652 17.6742 59.1141 17.703 59.2533 17.7591L59.1907 18.1491C59.0854 18.1049 58.9718 18.0837 58.8576 18.0869C58.4305 18.0869 58.3109 18.4685 58.3109 18.898V19.0478H58.9942V19.435H58.3166V21.8513L57.7984 21.8456ZM60.5317 21.9106C59.7744 21.9106 59.1764 21.3454 59.1764 20.4693C59.1764 19.5311 59.8028 18.98 60.5773 18.98C61.3517 18.98 61.9382 19.565 61.9382 20.4156C61.9382 21.4613 61.2094 21.9135 60.5374 21.9135L60.5317 21.9106ZM60.5488 21.5291C61.0385 21.5291 61.403 21.0713 61.403 20.4354C61.403 19.9635 61.1638 19.3672 60.5488 19.3672C59.9338 19.3672 59.6946 19.9324 59.6946 20.4552C59.6946 21.0685 60.0448 21.5291 60.5488 21.5291ZM62.5931 19.9182C62.5931 19.5876 62.5931 19.305 62.5703 19.0422H63.0202L63.043 19.5932H63.0601C63.1097 19.4216 63.2127 19.2699 63.3543 19.1598C63.4959 19.0497 63.669 18.9867 63.8487 18.98C63.8967 18.9793 63.9446 18.985 63.9911 18.9969V19.4717C63.9295 19.4683 63.8677 19.4683 63.806 19.4717C63.6312 19.4786 63.4649 19.5483 63.3382 19.6679C63.2114 19.7875 63.1328 19.9488 63.117 20.1217C63.105 20.2022 63.0993 20.2834 63.0999 20.3648V21.8626H62.5874L62.5931 19.9182ZM64.5178 19.8024C64.5178 19.5198 64.5178 19.2739 64.4951 19.0393H64.9449L64.9677 19.4915H64.9848C65.0712 19.3324 65.2007 19.2005 65.3587 19.1106C65.5167 19.0207 65.6968 18.9764 65.8788 18.9828C66.0548 18.9815 66.2266 19.0355 66.3698 19.137C66.513 19.2385 66.6202 19.3824 66.676 19.548C66.7535 19.4036 66.8625 19.2781 66.9949 19.1806C67.171 19.0446 67.3898 18.9745 67.6128 18.9828C67.9914 18.9828 68.5466 19.2259 68.5466 20.198V21.8513H68.0484V20.263C68.0484 19.7148 67.8434 19.3982 67.4362 19.3982C67.2995 19.4039 67.1676 19.4507 67.0583 19.5325C66.949 19.6143 66.8673 19.7271 66.8241 19.8561C66.7986 19.9385 66.7852 20.0242 66.7842 20.1104V21.8485H66.2831V20.1698C66.2831 19.7176 66.0838 19.3982 65.6937 19.3982C65.506 19.4205 65.3331 19.5106 65.2081 19.6513C65.0831 19.7921 65.0148 19.9737 65.0161 20.1613V21.8569H64.5178V19.8024ZM71.7498 21.0826C71.7498 21.3652 71.7498 21.628 71.7726 21.8456H71.317L71.2885 21.3935C71.1935 21.5546 71.0568 21.6875 70.8926 21.7784C70.7284 21.8694 70.5426 21.915 70.3546 21.9106C69.9105 21.9106 69.3809 21.6619 69.3809 20.6813V19.0422H69.8934V20.588C69.8934 21.125 70.0642 21.4867 70.5198 21.4867C70.664 21.4809 70.8033 21.4335 70.9207 21.3501C71.038 21.2668 71.1283 21.1512 71.1803 21.0176C71.212 20.9346 71.2274 20.8463 71.2259 20.7576V19.0422H71.7498V21.0826ZM72.6039 17.7337H73.1164V21.8456H72.6039V17.7337ZM75.958 21.1759C75.9551 21.4007 75.9684 21.6255 75.9978 21.8485H75.5366L75.491 21.498H75.4739C75.3751 21.6299 75.2462 21.7367 75.0977 21.8094C74.9492 21.8821 74.7854 21.9187 74.6198 21.9163C74.5095 21.9229 74.399 21.9069 74.2952 21.8693C74.1914 21.8317 74.0965 21.7733 74.0164 21.6978C73.9363 21.6223 73.8727 21.5312 73.8295 21.4302C73.7864 21.3292 73.7646 21.2205 73.7656 21.1109C73.7656 20.4326 74.3721 20.0595 75.4739 20.0652V20.0087C75.4882 19.9214 75.4815 19.832 75.4546 19.7476C75.4277 19.6633 75.3812 19.5865 75.3188 19.5233C75.2565 19.46 75.1801 19.4122 75.0958 19.3836C75.0115 19.355 74.9216 19.3465 74.8333 19.3587C74.5717 19.3554 74.3147 19.427 74.093 19.565L73.9421 19.2174C74.2275 19.0538 74.5522 18.9698 74.8817 18.9743C75.7473 18.9743 75.958 19.5593 75.958 20.1217V21.1759ZM75.4512 20.4128C74.8817 20.4128 74.2553 20.5032 74.2553 21.0459C74.2494 21.1102 74.2576 21.175 74.2794 21.2359C74.3012 21.2968 74.336 21.3522 74.3815 21.3984C74.427 21.4446 74.482 21.4805 74.5428 21.5036C74.6036 21.5266 74.6687 21.5363 74.7337 21.5319C74.885 21.5368 75.0339 21.4937 75.1589 21.4088C75.2838 21.324 75.3782 21.2018 75.4284 21.06C75.443 21.0123 75.4506 20.9628 75.4512 20.913V20.4128ZM76.4705 22.5522C76.963 21.8618 77.2186 21.0324 77.1994 20.1867C77.2196 19.3435 76.9638 18.5165 76.4705 17.8298H76.8748C77.3928 18.5051 77.6639 19.3353 77.6435 20.1839C77.6583 21.0343 77.3879 21.8654 76.8748 22.5465L76.4705 22.5522Z" fill="#050505"/>
</svg>
