<svg width="82" height="26" viewBox="0 0 82 26" fill="none" xmlns="http://www.w3.org/2000/svg">
<path d="M9.46419 16.1652H7.716L7.57933 15.5011C7.55263 15.7083 7.45154 15.8989 7.29461 16.038C7.04053 16.1487 6.76228 16.1934 6.486 16.168H2.8985C2.24743 16.168 1.79378 16.0418 1.53753 15.7893C1.28128 15.5369 1.14841 15.1139 1.13892 14.5204V9.1C1.13892 8.4971 1.27179 8.07319 1.53753 7.82826C1.80327 7.58333 2.25598 7.45804 2.89565 7.45239H8.96024L9.11114 8.52631C8.89171 8.4547 8.66707 8.3999 8.43919 8.36239L7.58503 8.32H3.65586C3.57729 8.31116 3.49773 8.31865 3.42223 8.342C3.34674 8.36536 3.27698 8.40406 3.21739 8.45565C3.1254 8.59825 3.08522 8.76774 3.1035 8.93609V14.6448C3.083 14.8123 3.12559 14.9814 3.22308 15.1196C3.28762 15.2138 3.42998 15.2609 3.65017 15.2609H6.91878C7.05966 15.2763 7.20097 15.2357 7.31169 15.1478C7.39153 15.0174 7.4237 14.8638 7.4028 14.7126V11.8696H5.17343C4.72246 11.8421 4.27033 11.8996 3.84093 12.0391V10.9652H9.46135C9.4263 11.1709 9.40443 11.3785 9.39586 11.587C9.37688 11.8187 9.36739 12.0391 9.36739 12.2483V15.6509L9.46419 16.1652ZM12.7784 16.1652H10.7625L10.8593 15.5717L10.902 14.7663V8.05435L10.7597 7.45239H12.6588V15.5802C12.6604 15.6886 12.6776 15.7961 12.71 15.8996C12.7365 15.9879 12.7583 16.0775 12.7755 16.168L12.7784 16.1652ZM21.5763 16.1652H19.8224L19.7541 15.6C19.6964 15.747 19.6178 15.885 19.5206 16.0098C19.3737 16.1155 19.195 16.1683 19.0138 16.1596H15.7452C15.1757 16.1596 14.761 16.0352 14.5009 15.7865C14.2409 15.5378 14.1147 15.0988 14.1222 14.4696V10.3435C14.1224 10.2285 14.1051 10.1142 14.071 10.0043L14.0027 9.76978H15.8676V14.7607C15.8492 14.9239 15.8852 15.0887 15.9701 15.2298C16.0256 15.274 16.0895 15.3068 16.1579 15.3262C16.2264 15.3456 16.298 15.3512 16.3687 15.3428H19.2017C19.2708 15.3522 19.3412 15.3461 19.4077 15.3251C19.4742 15.3041 19.5351 15.2686 19.5861 15.2213C19.6652 15.0802 19.699 14.9185 19.6829 14.7578V10.3435L19.569 9.77826H21.4482V15.583C21.4511 15.6917 21.4703 15.7993 21.5051 15.9024C21.5326 15.9897 21.5554 16.0784 21.5734 16.168L21.5763 16.1652ZM29.2979 15.2411L29.147 16.1652H24.3068C23.7373 16.1652 23.3235 16.0362 23.0654 15.778C22.8072 15.5199 22.6838 15.0866 22.6952 14.478V11.4541C22.6952 10.8475 22.8186 10.4141 23.0654 10.1541C23.3121 9.89413 23.7269 9.76602 24.3096 9.76978H29.11L29.2325 10.6741C29.1492 10.6435 29.0635 10.6199 28.9762 10.6035C28.9023 10.5983 28.8281 10.5983 28.7541 10.6035H24.9388C24.8669 10.5953 24.794 10.6026 24.7252 10.6251C24.6564 10.6475 24.5933 10.6845 24.5402 10.7335C24.4527 10.8674 24.4126 11.0266 24.4263 11.1857V14.7607C24.4086 14.9243 24.4456 15.0891 24.5317 15.2298C24.5879 15.2747 24.6527 15.3079 24.7222 15.3273C24.7917 15.3467 24.8644 15.352 24.936 15.3428H28.2587C28.6089 15.3462 28.9584 15.3112 29.3008 15.2383L29.2979 15.2411ZM35.8466 16.1652H31.7067C31.4841 16.1875 31.2594 16.1647 31.046 16.0981C30.8326 16.0316 30.635 15.9227 30.4653 15.778C30.2147 15.5199 30.0895 15.0866 30.0895 14.478V11.4541C30.0895 10.8475 30.2129 10.4141 30.4596 10.1541C30.7064 9.89413 31.1173 9.76602 31.6925 9.76978H35.8494C36.434 9.76978 36.8516 9.89696 37.1022 10.1513C37.3527 10.4057 37.479 10.8409 37.4809 11.457V14.4809C37.4809 15.0781 37.3575 15.5086 37.1107 15.7724C36.864 16.0362 36.4435 16.168 35.8494 16.168L35.8466 16.1652ZM35.7327 14.7522V11.1772C35.7519 11.0142 35.7169 10.8494 35.633 10.708C35.5769 10.663 35.5121 10.6297 35.4426 10.6103C35.3731 10.5908 35.3003 10.5856 35.2287 10.595H32.3388C32.2694 10.5865 32.1991 10.5921 32.132 10.6115C32.0649 10.6309 32.0025 10.6638 31.9487 10.708C31.8646 10.8494 31.8296 11.0142 31.8491 11.1772V14.7663C31.8311 14.9287 31.8671 15.0924 31.9516 15.2326C32.0057 15.2772 32.0686 15.3103 32.1362 15.3297C32.2038 15.3492 32.2747 15.3546 32.3445 15.3457H35.2344C35.3064 15.3539 35.3793 15.3465 35.4481 15.3241C35.5169 15.3016 35.58 15.2646 35.633 15.2157C35.7186 15.081 35.7567 14.9219 35.7412 14.7635L35.7327 14.7522ZM43.8472 16.1652H38.597L38.4603 15.2609C38.5536 15.2918 38.6487 15.3173 38.745 15.3372C38.8386 15.3575 38.934 15.3688 39.0297 15.3711H43.2038C43.357 15.3863 43.5102 15.3417 43.6309 15.2467C43.7274 15.1167 43.7702 14.9549 43.7504 14.7946V14.2576C43.7633 14.0974 43.7201 13.9377 43.628 13.8054C43.5039 13.7178 43.3529 13.6758 43.2009 13.6867H40.0035C39.4341 13.6867 39.0316 13.5549 38.7963 13.2911C38.5609 13.0273 38.4413 12.593 38.4375 11.9883V11.4739C38.4375 10.8635 38.559 10.4273 38.802 10.1654C39.0449 9.90355 39.4454 9.77167 40.0035 9.76978H45.2993L45.4502 10.6685C45.3857 10.6496 45.2908 10.627 45.1655 10.6007C45.0665 10.5776 44.9654 10.5644 44.8637 10.5611H40.6783C40.5358 10.5477 40.3935 10.5881 40.2797 10.6741C40.1895 10.7995 40.149 10.9534 40.1658 11.1065V11.4739C40.1548 11.6204 40.1951 11.7661 40.2797 11.8865C40.3327 11.9355 40.3958 11.9725 40.4646 11.9949C40.5334 12.0174 40.6063 12.0247 40.6783 12.0165H43.8102C44.2564 11.9786 44.7013 12.1021 45.063 12.3641C45.3174 12.5996 45.4445 13 45.4445 13.5652V14.9133C45.4603 15.0923 45.4335 15.2726 45.3663 15.4395C45.299 15.6064 45.1932 15.7553 45.0573 15.8741C44.6976 16.1016 44.272 16.2039 43.8472 16.1652ZM53.7954 16.1652H52.1441L52.0359 15.6198C51.9941 15.7049 51.9465 15.787 51.8935 15.8657C51.8496 15.9317 51.7969 15.9916 51.7369 16.0437C51.5545 16.1432 51.3463 16.1865 51.139 16.168H47.9843C47.4015 16.168 46.9896 16.0286 46.7486 15.7498C46.5075 15.4709 46.387 14.9622 46.387 14.2237V13.325C46.387 12.7711 46.5132 12.3783 46.7657 12.1465C47.1083 11.8857 47.537 11.7617 47.9672 11.7989H51.4522C51.5833 11.8138 51.7153 11.7795 51.8223 11.7028C51.9011 11.5824 51.9344 11.4383 51.9163 11.2959V11.05C51.9333 10.9108 51.8989 10.7703 51.8195 10.6543C51.7127 10.5769 51.5808 10.5417 51.4493 10.5554H47.1102C47.0314 10.5548 46.953 10.5643 46.8767 10.5837C46.8112 10.5978 46.6973 10.6346 46.535 10.6911L46.6489 9.76696H52.0387C52.6271 9.76696 53.0447 9.89602 53.2915 10.1541C53.5382 10.4122 53.6654 10.8456 53.673 11.4541V15.5802C53.6757 15.6898 53.6949 15.7984 53.73 15.9024C53.7575 15.9897 53.7803 16.0783 53.7983 16.168L53.7954 16.1652ZM51.9163 14.7522V12.6185H48.5964C48.5271 12.6099 48.4567 12.6155 48.3896 12.635C48.3225 12.6544 48.2602 12.6873 48.2063 12.7315C48.1216 12.8736 48.0866 13.0396 48.1067 13.2035V14.7635C48.0881 14.9268 48.1241 15.0916 48.2092 15.2326C48.2634 15.2772 48.3262 15.3103 48.3938 15.3297C48.4614 15.3492 48.5323 15.3546 48.6021 15.3457H51.4266C51.4959 15.3542 51.5663 15.3486 51.6334 15.3291C51.7004 15.3097 51.7628 15.2769 51.8166 15.2326C51.9019 15.0917 51.938 14.9268 51.9191 14.7635L51.9163 14.7522ZM60.5035 15.2185L60.3611 16.168H57.1722C56.9541 16.1865 56.7344 16.161 56.5265 16.093C56.3185 16.025 56.1266 15.916 55.9622 15.7724C55.6964 15.503 55.5636 15.0555 55.5636 14.43V10.5583H54.4531V9.77261H55.5636V8.47826L57.3232 8.21826V9.78109H60.0764V10.5724H57.3374V14.6702C57.3169 14.8577 57.36 15.0467 57.4598 15.2072C57.5209 15.262 57.5933 15.3031 57.672 15.3275C57.7506 15.3519 57.8337 15.359 57.9154 15.3485H59.1767C59.6237 15.3673 60.0712 15.3245 60.5063 15.2213L60.5035 15.2185ZM65.8221 10.9087L65.1388 10.8154H63.5586C63.4187 10.8014 63.2788 10.8419 63.1685 10.9285C63.0777 11.0482 63.0369 11.198 63.0546 11.3467V14.7663C63.0353 15.2411 63.0804 15.7164 63.1884 16.1793H61.1954L61.2722 15.8572C61.2965 15.7715 61.3109 15.6833 61.315 15.5943V10.3435C61.3151 10.2285 61.2978 10.1142 61.2637 10.0043L61.1954 9.76978H62.8809L62.9663 10.4198C63.0062 10.2269 63.1143 10.0545 63.271 9.9337C63.4793 9.80999 63.7208 9.75277 63.9629 9.76978H65.6086L66.178 10.4763C66.1145 10.5402 66.0617 10.6136 66.0214 10.6939C65.991 10.7618 65.9464 10.8225 65.8904 10.872L65.8221 10.9087ZM68.9484 16.1652H66.9325L67.0379 15.5717V10.3576L66.9325 9.75848H68.7975V14.7607L68.8544 15.5802C68.8561 15.687 68.8705 15.7933 68.8971 15.8967C68.9218 16.0098 68.9389 16.0993 68.9484 16.1652ZM68.7946 9.04348H67.0863V7.82826H68.7946V9.04348ZM77.7463 16.1652H75.7532L75.8671 15.583V11.1743C75.8832 11.0137 75.8495 10.8519 75.7703 10.7109C75.7193 10.6636 75.6584 10.6281 75.5919 10.6071C75.5254 10.5861 75.4551 10.58 75.3859 10.5893H72.5472C72.4753 10.5811 72.4024 10.5885 72.3336 10.6109C72.2648 10.6334 72.2017 10.6704 72.1486 10.7193C72.0611 10.8533 72.021 11.0124 72.0347 11.1715V14.7663C72.0182 15.2415 72.0661 15.7168 72.1771 16.1793H70.1841C70.203 16.0795 70.2277 15.973 70.2581 15.86C70.2826 15.7734 70.2969 15.6842 70.3008 15.5943V10.3378C70.301 10.2259 70.2847 10.1145 70.2524 10.0072L70.1841 9.77261H72.0063L72.0461 10.3378C72.1351 10.1655 72.2615 10.0149 72.4163 9.89696C72.5301 9.82198 72.664 9.7826 72.8007 9.78391H76.0009C76.5856 9.78391 77.0031 9.91109 77.2537 10.1654C77.5043 10.4198 77.6295 10.855 77.6295 11.4711V15.5887C77.6306 15.6971 77.6479 15.8047 77.6808 15.908C77.7063 15.9954 77.7273 16.0841 77.7434 16.1737L77.7463 16.1652ZM79.8703 11.8696C79.5382 11.8731 79.2176 11.7485 78.9763 11.522C78.8559 11.4053 78.7603 11.266 78.695 11.1122C78.6297 10.9583 78.596 10.793 78.596 10.6261C78.596 10.4591 78.6297 10.2939 78.695 10.14C78.7603 9.98617 78.8559 9.84684 78.9763 9.73022C79.2207 9.50679 79.5409 9.38276 79.8731 9.38276C80.2054 9.38276 80.5256 9.50679 80.77 9.73022C80.89 9.84704 80.9854 9.98643 81.0504 10.1403C81.1155 10.2941 81.149 10.4592 81.149 10.6261C81.149 10.7929 81.1155 10.9581 81.0504 11.1119C80.9854 11.2657 80.89 11.4051 80.77 11.522C80.5273 11.7498 80.2044 11.8746 79.8703 11.8696ZM79.8703 9.63696C79.7455 9.6353 79.6218 9.6596 79.507 9.70827C79.3923 9.75694 79.2891 9.82892 79.204 9.91957C79.1107 10.0131 79.0374 10.1244 78.9885 10.2468C78.9396 10.3692 78.916 10.5001 78.9193 10.6317C78.9109 10.8931 79.0072 11.1471 79.187 11.3383C79.2744 11.4263 79.3785 11.4962 79.4934 11.5439C79.6083 11.5916 79.7316 11.6161 79.8561 11.6161C79.9806 11.6161 80.1038 11.5916 80.2187 11.5439C80.3336 11.4962 80.4378 11.4263 80.5252 11.3383C80.6985 11.1431 80.7942 10.8919 80.7942 10.6317C80.7942 10.3716 80.6985 10.1204 80.5252 9.92522C80.4411 9.83697 80.3395 9.76703 80.2268 9.71984C80.114 9.67265 79.9926 9.64924 79.8703 9.65109V9.63696ZM80.5081 11.2648H80.1749L79.9301 10.6996H79.5514V11.1885L79.5742 11.2676H79.2439L79.2638 11.1828V10.0807L79.2411 9.99587H80.1806C80.2555 9.98824 80.3306 10.0084 80.3913 10.0524C80.4131 10.0786 80.4293 10.1088 80.4391 10.1414C80.4489 10.1739 80.452 10.208 80.4483 10.2417V10.4735C80.4549 10.5372 80.4366 10.6009 80.397 10.6515C80.3528 10.6888 80.2954 10.707 80.2376 10.7024L80.3515 10.985L80.4255 11.1404L80.4654 11.2139L80.5081 11.2648ZM80.1721 10.465V10.222C80.1735 10.1964 80.1676 10.1709 80.155 10.1485C80.1469 10.1404 80.1371 10.1344 80.1261 10.131C80.1152 10.1275 80.1037 10.1268 80.0924 10.1287H79.5514V10.5667H80.0924C80.1208 10.5667 80.1436 10.5667 80.1493 10.5441C80.1641 10.5256 80.1721 10.5027 80.1721 10.4791V10.465Z" fill="#00A0C6"/>
<path d="M26.1233 17.8269C25.6221 18.5163 25.3658 19.3513 25.3944 20.2009C25.3774 21.0397 25.6319 21.8618 26.1204 22.5465H25.7218C25.2081 21.8725 24.9391 21.0458 24.9588 20.2009C24.9417 19.3467 25.2122 18.5113 25.7275 17.8269H26.1233ZM26.6728 17.7337H27.1853V19.5C27.2832 19.3357 27.4248 19.2013 27.5946 19.1116C27.7643 19.0219 27.9557 18.9802 28.1477 18.9913C28.8481 18.9913 29.3378 19.5706 29.3378 20.4043C29.3378 21.4132 28.6972 21.9106 28.0651 21.9106C27.8736 21.9208 27.6831 21.8767 27.5157 21.7837C27.3484 21.6907 27.2111 21.5524 27.1198 21.385L27.0913 21.8485H26.65C26.6643 21.6591 26.6699 21.3765 26.6699 21.1278L26.6728 17.7337ZM27.1853 20.7237C27.1847 20.7863 27.1905 20.8487 27.2024 20.9102C27.2464 21.0795 27.3458 21.2296 27.4848 21.337C27.6239 21.4444 27.7949 21.503 27.9711 21.5037C28.5178 21.5037 28.8253 21.0685 28.8253 20.4298C28.8253 19.8645 28.5406 19.3785 27.9711 19.3785C27.7536 19.3914 27.5493 19.4865 27.4 19.6441C27.2507 19.8017 27.1678 20.01 27.1682 20.2263L27.1853 20.7237ZM31.1486 21.9106C30.3913 21.9106 29.7933 21.3454 29.7933 20.4693C29.7933 19.5311 30.4197 18.98 31.1942 18.98C31.9686 18.98 32.5552 19.565 32.5552 20.4156C32.5552 21.4613 31.8263 21.9135 31.1543 21.9135L31.1486 21.9106ZM31.1657 21.5291C31.6554 21.5291 32.0199 21.0713 32.0199 20.4354C32.0199 19.9635 31.7807 19.3672 31.1657 19.3672C30.5507 19.3672 30.3115 19.9324 30.3115 20.4552C30.3115 21.0685 30.6618 21.5291 31.1657 21.5291ZM33.2043 19.8024C33.2043 19.5198 33.2043 19.2739 33.1815 19.0393H33.6371L33.6656 19.5C33.7591 19.3372 33.8954 19.2027 34.0598 19.1106C34.2242 19.0186 34.4107 18.9724 34.5995 18.9772C34.9895 18.9772 35.596 19.2089 35.596 20.1698V21.8428H35.0835V20.2319C35.0835 19.7798 34.9127 19.3841 34.4286 19.3841C34.2733 19.3881 34.1232 19.4404 33.9996 19.5337C33.8759 19.6271 33.785 19.7566 33.7396 19.9041C33.7156 19.9809 33.704 20.0611 33.7054 20.1415V21.8372H33.1929L33.2043 19.8024ZM36.7292 20.5315C36.7172 20.6607 36.7338 20.7909 36.7777 20.9131C36.8216 21.0352 36.8918 21.1464 36.9834 21.239C37.075 21.3315 37.1858 21.4031 37.3081 21.4488C37.4304 21.4945 37.5612 21.5133 37.6915 21.5037C37.9596 21.5105 38.2261 21.4624 38.4745 21.3624L38.5685 21.7213C38.2698 21.8471 37.9476 21.9087 37.6232 21.9022C37.435 21.9129 37.2466 21.8834 37.0708 21.8157C36.895 21.748 36.7359 21.6437 36.6042 21.5098C36.4725 21.3758 36.3713 21.2154 36.3074 21.0393C36.2435 20.8633 36.2184 20.6756 36.2338 20.4891C36.2338 19.6413 36.7406 18.9743 37.5634 18.9743C38.4859 18.9743 38.7251 19.7798 38.7251 20.2941C38.7283 20.3763 38.7235 20.4587 38.7109 20.54L36.7292 20.5315ZM38.2297 20.1641C38.2297 19.8476 38.0958 19.3389 37.5236 19.3389C36.9968 19.3389 36.7747 19.8137 36.732 20.1669L38.2297 20.1641ZM43.0842 21.8456C42.9703 21.7382 42.8678 21.628 42.714 21.4726C42.4068 21.7613 41.9982 21.9195 41.5752 21.9135C41.4223 21.9263 41.2685 21.9077 41.1233 21.8586C40.9782 21.8096 40.8448 21.7312 40.7316 21.6284C40.6185 21.5257 40.528 21.4008 40.4659 21.2616C40.4038 21.1224 40.3714 20.972 40.3708 20.8198C40.3796 20.5788 40.4563 20.3452 40.5921 20.1453C40.728 19.9455 40.9177 19.7875 41.1395 19.6893V19.6724C40.9424 19.4441 40.8255 19.1585 40.8064 18.8585C40.8051 18.7288 40.8305 18.6002 40.881 18.4806C40.9315 18.361 41.0061 18.2529 41.1002 18.163C41.1943 18.073 41.306 18.003 41.4283 17.9574C41.5506 17.9118 41.681 17.8914 41.8115 17.8976C41.9246 17.8901 42.038 17.9061 42.1445 17.9446C42.251 17.9831 42.3483 18.0432 42.43 18.1212C42.5117 18.1991 42.5762 18.2931 42.6192 18.3972C42.6622 18.5013 42.6829 18.6132 42.6799 18.7256C42.6799 19.1382 42.4436 19.4604 41.8257 19.7713V19.7826C42.1617 20.1698 42.5375 20.5937 42.7852 20.8706C42.9899 20.5243 43.1189 20.1392 43.1639 19.7402H43.6309C43.5729 20.2622 43.3764 20.7595 43.0614 21.1815L43.7106 21.8711L43.0842 21.8456ZM41.6606 21.5291C41.8123 21.5293 41.9623 21.4979 42.1011 21.4371C42.2399 21.3762 42.3643 21.2873 42.4663 21.1759C42.2329 20.9272 41.7944 20.4467 41.3616 19.9465C41.2152 20.0234 41.0914 20.1368 41.0026 20.2755C40.9137 20.4143 40.8628 20.5736 40.8548 20.7378C40.8508 20.8428 40.8687 20.9475 40.9074 21.0453C40.946 21.1431 41.0046 21.2319 41.0794 21.3062C41.1543 21.3805 41.2438 21.4386 41.3423 21.477C41.4408 21.5153 41.5463 21.5331 41.652 21.5291H41.6606ZM41.7659 18.2226C41.6952 18.2249 41.6258 18.2417 41.562 18.2719C41.4981 18.3021 41.4413 18.3451 41.395 18.3982C41.3488 18.4513 41.3141 18.5133 41.2931 18.5804C41.2722 18.6474 41.2655 18.7181 41.2734 18.7878C41.285 19.0523 41.3898 19.3043 41.5695 19.5C41.9681 19.2739 42.2243 19.0648 42.2243 18.7369C42.2311 18.6732 42.2243 18.6089 42.2046 18.5479C42.1848 18.4869 42.1525 18.4307 42.1096 18.3828C42.0668 18.3349 42.0143 18.2965 41.9556 18.2699C41.8969 18.2432 41.8333 18.2291 41.7688 18.2282L41.7659 18.2226ZM44.6786 22.6709C44.8892 22.6745 45.0931 22.5976 45.2481 22.4561C45.3904 22.3006 45.4474 22.0746 45.4474 21.4019V19.0422H45.9599V21.5856C45.9599 22.1311 45.8745 22.4843 45.6182 22.7387C45.3764 22.9483 45.0652 23.062 44.7441 23.058L44.6786 22.6709ZM45.6837 18.5278C45.5961 18.5278 45.5121 18.4933 45.4502 18.4318C45.3882 18.3703 45.3534 18.2869 45.3534 18.2C45.3534 18.113 45.3882 18.0297 45.4502 17.9682C45.5121 17.9067 45.5961 17.8722 45.6837 17.8722C45.7713 17.8722 45.8553 17.9067 45.9172 17.9682C45.9792 18.0297 46.014 18.113 46.014 18.2C46.014 18.2869 45.9792 18.3703 45.9172 18.4318C45.8553 18.4933 45.7713 18.5278 45.6837 18.5278ZM47.9415 21.9106C47.1842 21.9106 46.5863 21.3454 46.5863 20.4693C46.5863 19.5311 47.2127 18.98 47.9871 18.98C48.7615 18.98 49.3481 19.565 49.3481 20.4156C49.3481 21.4613 48.6192 21.9135 47.9472 21.9135L47.9415 21.9106ZM47.9586 21.5291C48.4484 21.5291 48.8128 21.0713 48.8128 20.4354C48.8128 19.9635 48.5736 19.3672 47.9586 19.3672C47.3436 19.3672 47.1045 19.9324 47.1045 20.4552C47.1045 21.0685 47.4547 21.5291 47.9586 21.5291ZM50.2421 18.5278C50.1545 18.5278 50.0705 18.4933 50.0086 18.4318C49.9466 18.3703 49.9118 18.2869 49.9118 18.2C49.9118 18.113 49.9466 18.0297 50.0086 17.9682C50.0705 17.9067 50.1545 17.8722 50.2421 17.8722C50.2856 17.8701 50.3291 17.8772 50.3698 17.8928C50.4104 17.9084 50.4473 17.9323 50.4781 17.9629C50.509 17.9935 50.533 18.0301 50.5487 18.0704C50.5645 18.1108 50.5716 18.1539 50.5695 18.1972C50.5707 18.2405 50.563 18.2837 50.5468 18.324C50.5306 18.3643 50.5063 18.4009 50.4754 18.4316C50.4445 18.4622 50.4076 18.4863 50.367 18.5024C50.3264 18.5185 50.2829 18.5262 50.2393 18.525L50.2421 18.5278ZM49.9972 21.8485V19.0478H50.5097V21.8513L49.9972 21.8485ZM51.3639 19.8024C51.3639 19.5198 51.3639 19.2739 51.3354 19.0393H51.791L51.8195 19.5C51.913 19.3372 52.0493 19.2027 52.2137 19.1106C52.3781 19.0186 52.5646 18.9724 52.7534 18.9772C53.1434 18.9772 53.7499 19.2089 53.7499 20.1698V21.8428H53.2431V20.2319C53.2431 19.7798 53.0722 19.3841 52.5882 19.3841C52.4329 19.3881 52.2828 19.4404 52.1592 19.5337C52.0355 19.6271 51.9445 19.7566 51.8992 19.9041C51.8752 19.9809 51.8636 20.0611 51.865 20.1415V21.8372H51.3525L51.3639 19.8024ZM55.1963 18.3695V19.0422H55.9309V19.4293H55.1963V20.9413C55.1963 21.2889 55.2959 21.4867 55.5806 21.4867C55.6767 21.4896 55.7727 21.4782 55.8654 21.4528L55.8938 21.8428C55.7469 21.8911 55.593 21.915 55.4383 21.9135C55.3353 21.9187 55.2323 21.9023 55.1361 21.8653C55.0399 21.8283 54.9527 21.7715 54.8802 21.6987C54.7276 21.4852 54.6569 21.2246 54.6809 20.9639V19.4378H54.2424V19.0422H54.6809V18.5335L55.1963 18.3695ZM57.7986 21.8456V19.4322H57.4086V19.0422H57.7986V18.9093C57.786 18.733 57.8089 18.5559 57.8661 18.3885C57.9234 18.2211 58.0137 18.0667 58.1318 17.9343C58.3171 17.7633 58.562 17.6701 58.8151 17.6743C58.9654 17.6742 59.1143 17.703 59.2536 17.7591L59.1909 18.1491C59.0857 18.1049 58.972 18.0837 58.8578 18.0869C58.4307 18.0869 58.3111 18.4685 58.3111 18.898V19.0478H58.9945V19.435H58.3168V21.8513L57.7986 21.8456ZM60.532 21.9106C59.7746 21.9106 59.1767 21.3454 59.1767 20.4693C59.1767 19.5311 59.8031 18.98 60.5775 18.98C61.352 18.98 61.9385 19.565 61.9385 20.4156C61.9385 21.4613 61.2096 21.9135 60.5377 21.9135L60.532 21.9106ZM60.549 21.5291C61.0388 21.5291 61.4032 21.0713 61.4032 20.4354C61.4032 19.9635 61.164 19.3672 60.549 19.3672C59.934 19.3672 59.6949 19.9324 59.6949 20.4552C59.6949 21.0685 60.0451 21.5291 60.549 21.5291ZM62.5933 19.9182C62.5933 19.5876 62.5933 19.305 62.5706 19.0422H63.0204L63.0432 19.5932H63.0603C63.1099 19.4216 63.2129 19.2699 63.3545 19.1598C63.4962 19.0497 63.6692 18.9867 63.849 18.98C63.897 18.9793 63.9449 18.985 63.9913 18.9969V19.4717C63.9297 19.4683 63.8679 19.4683 63.8063 19.4717C63.6315 19.4786 63.4652 19.5483 63.3384 19.6679C63.2116 19.7875 63.133 19.9488 63.1172 20.1217C63.1052 20.2022 63.0995 20.2834 63.1002 20.3648V21.8626H62.5877L62.5933 19.9182ZM64.5181 19.8024C64.5181 19.5198 64.5181 19.2739 64.4953 19.0393H64.9452L64.9679 19.4915H64.985C65.0714 19.3324 65.201 19.2005 65.3589 19.1106C65.5169 19.0207 65.6971 18.9764 65.879 18.9828C66.055 18.9815 66.2269 19.0355 66.3701 19.137C66.5132 19.2385 66.6204 19.3824 66.6763 19.548C66.7538 19.4036 66.8627 19.2781 66.9952 19.1806C67.1712 19.0446 67.39 18.9745 67.613 18.9828C67.9917 18.9828 68.5469 19.2259 68.5469 20.198V21.8513H68.0486V20.263C68.0486 19.7148 67.8436 19.3982 67.4365 19.3982C67.2997 19.4039 67.1679 19.4507 67.0586 19.5325C66.9492 19.6143 66.8675 19.7271 66.8243 19.8561C66.7989 19.9385 66.7855 20.0242 66.7845 20.1104V21.8485H66.2834V20.1698C66.2834 19.7176 66.084 19.3982 65.694 19.3982C65.5063 19.4205 65.3334 19.5106 65.2084 19.6513C65.0834 19.7921 65.015 19.9737 65.0163 20.1613V21.8569H64.5181V19.8024ZM71.75 21.0826C71.75 21.3652 71.75 21.628 71.7728 21.8456H71.3172L71.2888 21.3935C71.1938 21.5546 71.0571 21.6875 70.8929 21.7784C70.7286 21.8694 70.5429 21.915 70.3549 21.9106C69.9107 21.9106 69.3811 21.6619 69.3811 20.6813V19.0422H69.8936V20.588C69.8936 21.125 70.0645 21.4867 70.52 21.4867C70.6642 21.4809 70.8036 21.4335 70.9209 21.3501C71.0383 21.2668 71.1285 21.1512 71.1806 21.0176C71.2122 20.9346 71.2277 20.8463 71.2261 20.7576V19.0422H71.75V21.0826ZM72.6042 17.7337H73.1167V21.8456H72.6042V17.7337ZM75.9582 21.1759C75.9553 21.4007 75.9686 21.6255 75.9981 21.8485H75.5368L75.4913 21.498H75.4742C75.3754 21.6299 75.2464 21.7367 75.0979 21.8094C74.9494 21.8821 74.7856 21.9187 74.62 21.9163C74.5097 21.9229 74.3992 21.9069 74.2954 21.8693C74.1916 21.8317 74.0967 21.7733 74.0166 21.6978C73.9365 21.6223 73.8729 21.5312 73.8298 21.4302C73.7866 21.3292 73.7649 21.2205 73.7659 21.1109C73.7659 20.4326 74.3723 20.0595 75.4742 20.0652V20.0087C75.4884 19.9214 75.4818 19.832 75.4548 19.7476C75.4279 19.6633 75.3814 19.5865 75.3191 19.5233C75.2568 19.46 75.1804 19.4122 75.0961 19.3836C75.0117 19.355 74.9218 19.3465 74.8336 19.3587C74.5719 19.3554 74.3149 19.427 74.0933 19.565L73.9424 19.2174C74.2278 19.0538 74.5524 18.9698 74.882 18.9743C75.7475 18.9743 75.9582 19.5593 75.9582 20.1217V21.1759ZM75.4514 20.4128C74.882 20.4128 74.2556 20.5032 74.2556 21.0459C74.2497 21.1102 74.2579 21.175 74.2797 21.2359C74.3014 21.2968 74.3363 21.3522 74.3818 21.3984C74.4272 21.4446 74.4823 21.4805 74.5431 21.5036C74.6039 21.5266 74.669 21.5363 74.7339 21.5319C74.8852 21.5368 75.0342 21.4937 75.1591 21.4088C75.284 21.324 75.3785 21.2018 75.4286 21.06C75.4432 21.0123 75.4509 20.9628 75.4514 20.913V20.4128ZM76.4707 22.5522C76.9632 21.8618 77.2188 21.0324 77.1996 20.1867C77.2198 19.3435 76.9641 18.5165 76.4707 17.8298H76.875C77.3931 18.5051 77.6642 19.3353 77.6438 20.1839C77.6585 21.0343 77.3881 21.8654 76.875 22.5465L76.4707 22.5522Z" fill="#050505"/>
</svg>
