<svg width="56" height="42" viewBox="0 0 56 42" fill="none" xmlns="http://www.w3.org/2000/svg">
<g clip-path="url(#clip0_473_6074)">
<path d="M2.9226 40.8245V41.0733C2.92344 41.1934 2.89901 41.3124 2.85092 41.4223C2.80533 41.532 2.7406 41.6325 2.6598 41.7192C2.57784 41.8067 2.4789 41.8764 2.36913 41.9238C2.25838 41.9763 2.13712 42.0024 2.01475 42C1.90452 41.9989 1.79485 41.9841 1.68824 41.9559C1.57736 41.9263 1.47413 41.8729 1.38562 41.7994C1.29155 41.7188 1.21555 41.619 1.16264 41.5065C1.10214 41.3648 1.07358 41.2114 1.07902 41.0572V38.8507C1.07709 38.726 1.09871 38.6021 1.14273 38.4856C1.18746 38.3767 1.25232 38.2773 1.33386 38.1928C1.41794 38.1079 1.51816 38.0411 1.62851 37.9962C1.74797 37.9502 1.87491 37.927 2.0028 37.928C2.12463 37.9232 2.24609 37.9442 2.35929 37.9899C2.47249 38.0355 2.57489 38.1046 2.6598 38.1928C2.74155 38.2817 2.80634 38.3851 2.85092 38.4977C2.90118 38.6252 2.92555 38.7616 2.9226 38.8988V39.1235H2.34922V38.935C2.35124 38.8299 2.31907 38.727 2.25764 38.6421C2.22782 38.6017 2.18866 38.5692 2.14355 38.5475C2.09844 38.5259 2.04875 38.5156 1.99882 38.5177C1.94412 38.5109 1.88864 38.5198 1.83867 38.5432C1.78869 38.5666 1.74623 38.6036 1.71611 38.6501C1.66842 38.7544 1.64526 38.8683 1.64842 38.9831V41.0171C1.64436 41.1201 1.67068 41.222 1.72407 41.31C1.75539 41.3513 1.79679 41.3837 1.84424 41.4041C1.89169 41.4245 1.94357 41.4321 1.99484 41.4263C2.03435 41.4334 2.07478 41.4334 2.11429 41.4263C2.15857 41.4147 2.1995 41.3927 2.23375 41.3621C2.2697 41.3268 2.29815 41.2845 2.31736 41.2378C2.34182 41.1753 2.35268 41.1082 2.34922 41.0412V40.8446L2.9226 40.8245Z" fill="#CE202F"/>
<path d="M4.42773 41.9679V41.675C4.36696 41.767 4.29164 41.8483 4.20475 41.9157C4.10839 41.9765 3.99577 42.006 3.88223 42C3.81355 42.0005 3.74515 41.9911 3.67916 41.9719C3.60558 41.9473 3.53781 41.9077 3.48007 41.8556C3.40977 41.794 3.35631 41.7152 3.32478 41.6269C3.28065 41.498 3.26172 41.3618 3.26903 41.2257C3.26046 41.0892 3.26446 40.9522 3.28098 40.8165C3.30366 40.7039 3.35435 40.599 3.4283 40.5116C3.50192 40.4274 3.59689 40.365 3.70305 40.3311C3.84551 40.2908 3.9931 40.2718 4.14105 40.2749H4.33217H4.41579V39.978C4.41924 39.8924 4.39853 39.8075 4.35606 39.7333C4.33026 39.6993 4.29618 39.6725 4.25712 39.6557C4.21806 39.6388 4.17533 39.6324 4.13308 39.637C4.05755 39.6384 3.98467 39.6653 3.92603 39.7132C3.8629 39.768 3.82066 39.8432 3.80657 39.9259H3.28098C3.2869 39.6944 3.37934 39.4738 3.53979 39.308C3.61533 39.2309 3.70626 39.1707 3.80657 39.1315C3.91898 39.0851 4.03949 39.0619 4.16095 39.0633C4.27478 39.063 4.38785 39.082 4.49543 39.1195C4.59957 39.1558 4.69417 39.2155 4.77211 39.2941C4.85004 39.3726 4.90928 39.4679 4.94537 39.5728C4.99546 39.7003 5.01852 39.837 5.01306 39.974V41.9799L4.42773 41.9679ZM4.42773 40.7403C4.37608 40.7355 4.3241 40.7355 4.27244 40.7403C4.16107 40.7364 4.05122 40.7672 3.95788 40.8285C3.91041 40.8652 3.87331 40.9138 3.85025 40.9694C3.8272 41.025 3.81901 41.0857 3.82648 41.1455C3.82153 41.2398 3.84817 41.333 3.90214 41.4103C3.92808 41.4433 3.96149 41.4697 3.99958 41.4871C4.03767 41.5046 4.07934 41.5126 4.12114 41.5105C4.16369 41.5125 4.20614 41.5049 4.2454 41.4882C4.28466 41.4716 4.31974 41.4463 4.3481 41.4143C4.40588 41.3372 4.43415 41.2418 4.42773 41.1455V40.7403Z" fill="#CE202F"/>
<path d="M5.41528 41.9679V39.1155H5.98468V39.4123C6.08766 39.3148 6.20277 39.2312 6.32712 39.1636C6.45072 39.1015 6.58719 39.0699 6.72529 39.0713V39.6811C6.66991 39.6573 6.61032 39.645 6.55009 39.645C6.4852 39.6465 6.42085 39.6574 6.35897 39.6771C6.28997 39.6982 6.22618 39.7337 6.17183 39.7814C6.10935 39.834 6.05906 39.8997 6.0245 39.974C5.98507 40.0664 5.96605 40.1663 5.96875 40.2669V41.9599L5.41528 41.9679Z" fill="#CE202F"/>
<path d="M8.10293 41.9679V41.7071C8.06911 41.7478 8.03322 41.7866 7.99542 41.8235C7.96298 41.8596 7.92541 41.8907 7.88393 41.9158C7.84104 41.9443 7.79403 41.9659 7.74457 41.98C7.68372 41.9871 7.62226 41.9871 7.56141 41.98C7.46138 41.9896 7.36078 41.9692 7.27222 41.9214C7.18366 41.8735 7.11111 41.8004 7.06368 41.7112C7.02867 41.6361 7.00454 41.5564 6.99201 41.4745C6.97395 41.3496 6.96596 41.2235 6.96812 41.0973V40.0101C6.96812 39.8055 6.96812 39.6531 6.96812 39.5568C6.9813 39.4138 7.04951 39.2817 7.15816 39.1887C7.26681 39.0957 7.40726 39.0493 7.54946 39.0593C7.6538 39.0589 7.75655 39.0851 7.8481 39.1356C7.93842 39.1904 8.01585 39.2643 8.07506 39.3522V37.9601H8.64446V41.9719L8.10293 41.9679ZM7.53752 41.0372C7.53389 41.1366 7.5573 41.2351 7.60521 41.322C7.62819 41.3565 7.6598 41.3844 7.69684 41.4027C7.73389 41.421 7.77507 41.4291 7.81624 41.4263C7.85585 41.4279 7.89526 41.42 7.93125 41.4033C7.96724 41.3865 7.99879 41.3614 8.0233 41.33C8.07838 41.2562 8.1065 41.1655 8.10293 41.0733V39.966C8.10522 39.8837 8.07681 39.8036 8.0233 39.7413C7.99661 39.7131 7.96446 39.6908 7.92885 39.6756C7.89323 39.6604 7.85491 39.6527 7.81624 39.6531C7.77373 39.6483 7.73075 39.6556 7.69208 39.674C7.65341 39.6924 7.62058 39.7213 7.59724 39.7574C7.55563 39.8291 7.53493 39.9111 7.53752 39.9941V41.0372Z" fill="#CE202F"/>
<path d="M9.14221 38.5338V37.9601H9.71161V38.5338H9.14221ZM9.14221 41.9679V39.1155H9.71161V41.9679H9.14221Z" fill="#CE202F"/>
<path d="M10.1297 40.0703C10.1291 39.9629 10.1371 39.8555 10.1536 39.7494C10.1632 39.6588 10.1917 39.5713 10.2372 39.4926C10.3022 39.3668 10.4017 39.2623 10.5239 39.1917C10.664 39.1179 10.8197 39.0793 10.9778 39.0793C11.1359 39.0793 11.2916 39.1179 11.4317 39.1917C11.5534 39.2642 11.6537 39.3681 11.7224 39.4926C11.7645 39.5728 11.7928 39.6596 11.806 39.7494C11.8125 39.8562 11.8125 39.9634 11.806 40.0703V41.0171C11.8126 41.124 11.8126 41.2312 11.806 41.3381C11.7927 41.429 11.7644 41.5172 11.7224 41.5988C11.6544 41.7228 11.5539 41.8256 11.4317 41.8957C11.2916 41.9695 11.1359 42.0081 10.9778 42.0081C10.8197 42.0081 10.664 41.9695 10.5239 41.8957C10.402 41.8265 10.3025 41.7235 10.2372 41.5988C10.1917 41.5187 10.1632 41.4299 10.1536 41.3381C10.137 41.2319 10.129 41.1246 10.1297 41.0171V40.0703ZM10.6991 41.1014C10.6922 41.1897 10.7193 41.2773 10.7747 41.3461C10.8014 41.3727 10.8331 41.3936 10.868 41.4074C10.903 41.4212 10.9403 41.4276 10.9778 41.4263C11.0154 41.4284 11.053 41.4223 11.088 41.4084C11.123 41.3946 11.1547 41.3733 11.1809 41.3461C11.2364 41.2773 11.2634 41.1897 11.2565 41.1014V39.982C11.2643 39.8936 11.2371 39.8057 11.1809 39.7373C11.1554 39.7089 11.1239 39.6866 11.0888 39.672C11.0537 39.6575 11.0157 39.651 10.9778 39.6531C10.9399 39.6515 10.9022 39.6583 10.8671 39.6728C10.8321 39.6873 10.8006 39.7094 10.7747 39.7373C10.7185 39.8057 10.6913 39.8936 10.6991 39.982V41.1014Z" fill="#CE202F"/>
<path d="M13.9482 39.1155L13.2116 41.9679H12.7099L11.9733 39.1155H12.5745L12.9727 40.9369L13.3709 39.1155H13.9482Z" fill="#CE202F"/>
<path d="M15.2264 41.9679V41.675C15.1632 41.7663 15.0867 41.8475 14.9994 41.9157C14.9049 41.9772 14.7933 42.0067 14.6809 42C14.6122 42.0005 14.5438 41.9911 14.4778 41.9719C14.4043 41.9473 14.3365 41.9077 14.2787 41.8556C14.2084 41.794 14.155 41.7152 14.1235 41.6269C14.0778 41.4984 14.0575 41.3621 14.0637 41.2257C14.0632 41.083 14.0766 40.9406 14.1035 40.8005C14.1262 40.6879 14.1769 40.583 14.2509 40.4956C14.3221 40.4105 14.4161 40.3479 14.5216 40.315C14.6654 40.2744 14.8143 40.2555 14.9636 40.2589H15.1547H15.2384V39.962C15.2439 39.8756 15.2215 39.7898 15.1746 39.7173C15.1491 39.6829 15.1151 39.656 15.0759 39.6391C15.0368 39.6222 14.9939 39.6159 14.9517 39.621C14.8775 39.6233 14.8062 39.6501 14.7486 39.6972C14.6855 39.7519 14.6432 39.8271 14.6291 39.9098H14.0757C14.08 39.678 14.1727 39.4568 14.3345 39.292C14.4093 39.2139 14.5004 39.1536 14.6013 39.1155C14.7124 39.0694 14.8315 39.0462 14.9517 39.0473C15.0668 39.0473 15.1811 39.0663 15.2901 39.1034C15.3943 39.1398 15.4889 39.1995 15.5668 39.278C15.6447 39.3565 15.704 39.4519 15.7401 39.5568C15.7881 39.6848 15.8111 39.8211 15.8078 39.958V41.9639L15.2264 41.9679ZM15.2264 40.7403C15.1748 40.7355 15.1228 40.7355 15.0711 40.7403C14.9585 40.7363 14.8474 40.7671 14.7526 40.8285C14.7051 40.8652 14.668 40.9138 14.6449 40.9694C14.6219 41.025 14.6137 41.0857 14.6212 41.1455C14.6177 41.2402 14.6457 41.3334 14.7008 41.4103C14.7263 41.4438 14.7596 41.4706 14.7978 41.4881C14.836 41.5056 14.8779 41.5133 14.9198 41.5106C14.9624 41.5125 15.0048 41.5049 15.0441 41.4882C15.0833 41.4716 15.1184 41.4463 15.1468 41.4143C15.2046 41.3372 15.2328 41.2418 15.2264 41.1455V40.7403Z" fill="#CE202F"/>
<path d="M17.2452 39.9138C17.2462 39.8723 17.2382 39.831 17.2217 39.7928C17.2051 39.7547 17.1806 39.7207 17.1496 39.6932C17.0954 39.646 17.0261 39.6204 16.9545 39.621C16.9155 39.6181 16.8764 39.6246 16.8404 39.64C16.8044 39.6553 16.7726 39.6791 16.7474 39.7092C16.7 39.7651 16.6746 39.8364 16.6758 39.9098C16.6762 39.9627 16.6885 40.0148 16.7116 40.0623C16.7618 40.1298 16.8335 40.1779 16.9147 40.1987L17.2491 40.3351C17.4289 40.394 17.5834 40.5129 17.6871 40.6721C17.7665 40.8155 17.8077 40.9772 17.8066 41.1415C17.8082 41.2557 17.7865 41.369 17.7429 41.4745C17.7017 41.5755 17.6423 41.668 17.5677 41.7473C17.4922 41.8265 17.4014 41.8893 17.3009 41.9318C17.1483 41.9952 16.9813 42.0149 16.8183 41.9887C16.6553 41.9625 16.5026 41.8915 16.3771 41.7834C16.2975 41.7064 16.2327 41.6153 16.186 41.5146C16.1368 41.3964 16.1111 41.2696 16.1104 41.1415H16.6479C16.6571 41.219 16.6843 41.2933 16.7275 41.3581C16.753 41.3939 16.7874 41.4224 16.8272 41.4407C16.867 41.459 16.9109 41.4665 16.9545 41.4624C17.0353 41.4626 17.1134 41.4326 17.1735 41.3782C17.2065 41.3504 17.2326 41.3153 17.2499 41.2756C17.2671 41.2359 17.2751 41.1928 17.273 41.1495C17.2733 41.0775 17.251 41.0073 17.2093 40.9489C17.1503 40.8802 17.0729 40.8301 16.9863 40.8045L16.7116 40.7002C16.546 40.6412 16.3998 40.5371 16.2895 40.3993C16.1865 40.2591 16.1333 40.0882 16.1382 39.9138C16.1364 39.7979 16.1594 39.6829 16.2059 39.5769C16.2485 39.477 16.3109 39.3869 16.3891 39.3121C16.464 39.237 16.5534 39.1782 16.6519 39.1396C16.7546 39.0988 16.8641 39.0784 16.9744 39.0794C17.0852 39.0779 17.195 39.0998 17.2969 39.1436C17.3927 39.1829 17.4794 39.2416 17.5518 39.3161C17.622 39.3957 17.6785 39.4865 17.719 39.5849C17.7591 39.6898 17.7793 39.8014 17.7787 39.9138H17.2452Z" fill="#CE202F"/>
<path d="M18.7782 41.1455C18.7756 41.1836 18.781 41.2219 18.794 41.2579C18.807 41.2938 18.8274 41.3266 18.8539 41.3541C18.9097 41.4038 18.9825 41.4297 19.0569 41.4263C19.0981 41.432 19.1401 41.4261 19.1781 41.4091C19.2161 41.392 19.2486 41.3647 19.2719 41.33C19.3072 41.2729 19.329 41.2084 19.3357 41.1415H19.905C19.9099 41.2526 19.8922 41.3637 19.8532 41.4678C19.8142 41.5719 19.7546 41.667 19.6781 41.7472C19.6026 41.8265 19.5118 41.8893 19.4113 41.9318C19.283 41.9816 19.1457 42.0035 19.0084 41.9959C18.8711 41.9882 18.737 41.9514 18.6149 41.8877C18.4952 41.8157 18.3964 41.7133 18.3283 41.5908C18.2827 41.5106 18.2543 41.4218 18.2446 41.33C18.228 41.2239 18.22 41.1165 18.2207 41.0091V40.0703C18.2202 39.9628 18.2282 39.8555 18.2446 39.7493C18.2542 39.6588 18.2827 39.5713 18.3283 39.4926C18.3958 39.3686 18.4947 39.2648 18.6149 39.1917C18.7537 39.1143 18.9103 39.0755 19.0689 39.0794C19.1903 39.078 19.3108 39.1012 19.4233 39.1476C19.5252 39.1896 19.6174 39.2524 19.694 39.3321C19.8487 39.5164 19.9284 39.7529 19.917 39.9941H19.3476C19.3564 39.9018 19.3293 39.8098 19.2719 39.7373C19.2465 39.7089 19.215 39.6866 19.1799 39.672C19.1447 39.6574 19.1068 39.651 19.0689 39.6531C19.031 39.6515 18.9932 39.6582 18.9582 39.6728C18.9231 39.6873 18.8916 39.7093 18.8658 39.7373C18.8096 39.8057 18.7824 39.8936 18.7901 39.982L18.7782 41.1455Z" fill="#CE202F"/>
<path d="M21.9437 39.1155V41.9679H21.3743V41.6911C21.3207 41.7805 21.2471 41.8561 21.1593 41.9117C21.0652 41.9746 20.9536 42.0055 20.8408 42C20.7689 42 20.6975 41.9878 20.6297 41.9639C20.5575 41.9394 20.4921 41.8982 20.4386 41.8435C20.3796 41.7811 20.3335 41.7075 20.3032 41.6269C20.2688 41.5221 20.2527 41.4122 20.2554 41.3019V39.1155H20.8009V41.0893C20.7969 41.1779 20.8221 41.2654 20.8726 41.338C20.8977 41.3682 20.9296 41.392 20.9656 41.4073C21.0016 41.4226 21.0407 41.4292 21.0797 41.4263C21.1223 41.4313 21.1656 41.4247 21.2048 41.407C21.2441 41.3894 21.2779 41.3614 21.3026 41.326C21.3475 41.2353 21.3681 41.1343 21.3624 41.0331V39.1155H21.9437Z" fill="#CE202F"/>
<path d="M22.3936 37.9601H22.963V41.1696C22.9553 41.2487 22.975 41.328 23.0187 41.3942C23.0837 41.4417 23.1615 41.4683 23.2417 41.4704V42.008C23.1243 42.0098 23.007 42.0004 22.8913 41.98C22.7928 41.96 22.7001 41.9175 22.6206 41.8556C22.5425 41.7945 22.4832 41.7124 22.4493 41.6189C22.4096 41.489 22.3908 41.3536 22.3936 41.2177V37.9601Z" fill="#CE202F"/>
<path d="M24.5318 41.9679V41.675C24.4686 41.7663 24.3921 41.8475 24.3049 41.9157C24.2089 41.9775 24.096 42.007 23.9823 42C23.9137 42.0003 23.8453 41.9908 23.7793 41.9719C23.7061 41.9464 23.6385 41.9069 23.5802 41.8556C23.5112 41.7936 23.4591 41.7149 23.4289 41.6269C23.3832 41.4984 23.3629 41.3621 23.3691 41.2257C23.3666 41.0829 23.38 40.9403 23.409 40.8004C23.4303 40.6882 23.4796 40.5833 23.5523 40.4955C23.6259 40.4113 23.7209 40.3489 23.8271 40.315C23.9708 40.2744 24.1198 40.2555 24.269 40.2588H24.4602H24.5438V39.962C24.5493 39.8756 24.5269 39.7898 24.4801 39.7173C24.4545 39.6829 24.4205 39.6559 24.3814 39.6391C24.3422 39.6222 24.2994 39.6159 24.2571 39.621C24.1826 39.6217 24.1108 39.6487 24.054 39.6972C23.9895 39.7508 23.9469 39.8265 23.9346 39.9098H23.3811C23.3859 39.6789 23.4769 39.4583 23.6359 39.292C23.7133 39.2152 23.8054 39.1551 23.9067 39.1155C24.0177 39.0691 24.1369 39.0459 24.2571 39.0473C24.3709 39.047 24.484 39.066 24.5916 39.1034C24.6927 39.142 24.7858 39.1992 24.8663 39.2719C24.9449 39.3534 25.0059 39.4504 25.0455 39.5568C25.0936 39.6848 25.1166 39.8211 25.1132 39.958V41.9639L24.5318 41.9679ZM24.5318 40.7403C24.4789 40.7353 24.4255 40.7353 24.3726 40.7403C24.2612 40.7364 24.1513 40.7672 24.058 40.8285C24.0105 40.8652 23.9734 40.9137 23.9504 40.9694C23.9273 41.025 23.9191 41.0857 23.9266 41.1455C23.9231 41.2402 23.9511 41.3334 24.0062 41.4102C24.0313 41.4433 24.064 41.4696 24.1015 41.4871C24.1389 41.5046 24.18 41.5126 24.2212 41.5105C24.2639 41.5134 24.3066 41.5062 24.346 41.4895C24.3854 41.4727 24.4204 41.447 24.4482 41.4143C24.5074 41.3378 24.5371 41.2423 24.5318 41.1455V40.7403Z" fill="#CE202F"/>
<path d="M25.5193 41.9679V39.1155H26.0887V39.4123C26.1903 39.315 26.3041 39.2314 26.4271 39.1636C26.5507 39.1015 26.6872 39.0699 26.8253 39.0713V39.6811C26.7713 39.6573 26.713 39.645 26.6541 39.645C26.5879 39.6468 26.5223 39.6576 26.459 39.6771C26.39 39.6982 26.3262 39.7337 26.2718 39.7814C26.2095 39.8332 26.1603 39.8992 26.1285 39.974C26.0891 40.0664 26.0701 40.1663 26.0728 40.2669V41.9599L25.5193 41.9679Z" fill="#CE202F"/>
<path d="M28.1553 41.9679V37.9561H28.7326L29.4971 40.0783L30.2616 37.9561H30.843V41.9679H30.2417V39.5327L29.6524 41.2538H29.3538L28.7645 39.5327V41.9679H28.1553Z" fill="#CE202F"/>
<path d="M32.5114 41.9679V41.675C32.4466 41.7676 32.3673 41.8489 32.2765 41.9157C32.1747 41.9776 32.0567 42.0069 31.938 42C31.8654 42.0003 31.7931 41.9909 31.723 41.9719C31.6473 41.9466 31.5771 41.9071 31.516 41.8556C31.4432 41.7954 31.3881 41.7163 31.3567 41.6269C31.3075 41.4992 31.2858 41.3625 31.293 41.2257C31.2905 41.0829 31.3038 40.9403 31.3328 40.8004C31.3565 40.6866 31.4102 40.5814 31.4881 40.4955C31.565 40.4095 31.6643 40.3469 31.7748 40.315C31.9253 40.2743 32.0808 40.2554 32.2367 40.2589H32.4357H32.5233V39.962C32.5289 39.8756 32.5065 39.7898 32.4596 39.7173C32.4317 39.6825 32.3955 39.6555 32.3545 39.6387C32.3134 39.6218 32.2688 39.6157 32.2247 39.621C32.148 39.6224 32.0738 39.6492 32.0137 39.6972C31.9456 39.7489 31.8999 39.825 31.8863 39.9098H31.3049C31.3116 39.6761 31.4088 39.4544 31.5757 39.292C31.6549 39.2137 31.75 39.1535 31.8544 39.1155C31.9725 39.0694 32.0981 39.0463 32.2247 39.0473C32.345 39.047 32.4647 39.066 32.5791 39.1034C32.6839 39.1419 32.7809 39.199 32.8658 39.2719C32.9456 39.354 33.0091 39.4507 33.0529 39.5568C33.1044 39.684 33.1288 39.8207 33.1246 39.958V41.9639L32.5114 41.9679ZM32.5114 40.7403C32.4571 40.7353 32.4025 40.7353 32.3481 40.7403C32.2318 40.7364 32.1168 40.7671 32.0177 40.8285C31.9684 40.864 31.9295 40.9121 31.905 40.9678C31.8805 41.0236 31.8713 41.0849 31.8783 41.1455C31.874 41.2409 31.9036 41.3348 31.9619 41.4103C31.9895 41.4435 32.0244 41.4698 32.0637 41.4872C32.1031 41.5046 32.1459 41.5126 32.1889 41.5105C32.2333 41.5135 32.2778 41.5063 32.3191 41.4897C32.3605 41.473 32.3976 41.4472 32.4278 41.4143C32.487 41.3378 32.5167 41.2423 32.5114 41.1455V40.7403Z" fill="#CE202F"/>
<path d="M33.5426 38.5338V37.9601H34.1399V38.5338H33.5426ZM33.5426 41.9679V39.1155H34.1399V41.9679H33.5426Z" fill="#CE202F"/>
<path d="M34.6416 41.9679V39.1155H35.2389V39.3883C35.3012 39.302 35.378 39.2273 35.4658 39.1676C35.5666 39.1065 35.6827 39.0759 35.8003 39.0794C35.8761 39.0793 35.9514 39.0914 36.0233 39.1155C36.0979 39.1418 36.1658 39.1843 36.2224 39.2398C36.2853 39.3007 36.3342 39.3746 36.3657 39.4565C36.4035 39.5591 36.4211 39.6681 36.4175 39.7774V41.9679H35.8202V39.9941C35.8231 39.905 35.7965 39.8175 35.7446 39.7453C35.7172 39.7144 35.6834 39.6901 35.6455 39.6741C35.6076 39.6582 35.5666 39.651 35.5256 39.6531C35.4808 39.6484 35.4356 39.6555 35.3944 39.6738C35.3532 39.6921 35.3174 39.7209 35.2906 39.7574C35.2418 39.8468 35.2197 39.9485 35.2269 40.0502V41.9679H34.6416Z" fill="#CE202F"/>
<path d="M36.9232 39.1155V38.2489H37.5244V39.1155H37.8947V39.5648H37.5244V41.1455C37.5164 41.1973 37.5164 41.2501 37.5244 41.3019C37.5292 41.32 37.5376 41.3369 37.5493 41.3514C37.561 41.3659 37.5756 41.3778 37.5921 41.3862C37.627 41.4077 37.6667 41.4201 37.7076 41.4223H37.8748V41.9639H37.6279C37.5105 41.9682 37.3935 41.9463 37.2855 41.8997C37.2006 41.8648 37.1245 41.8113 37.0625 41.7432C37.0105 41.6786 36.97 41.6053 36.9431 41.5266C36.9198 41.4512 36.9078 41.3728 36.9072 41.2939V39.5608H36.6046V39.1155H36.9232Z" fill="#CE202F"/>
<path d="M39.8458 40.7563H38.6513V41.1575C38.6494 41.196 38.6555 41.2344 38.6693 41.2703C38.683 41.3062 38.704 41.3389 38.7309 41.3661C38.7908 41.417 38.8677 41.4428 38.9459 41.4384C38.9883 41.4443 39.0314 41.4384 39.0707 41.4214C39.11 41.4045 39.1439 41.377 39.1689 41.3421C39.2053 41.2852 39.2284 41.2207 39.2366 41.1535H39.8339C39.8383 41.2657 39.8194 41.3776 39.7782 41.4819C39.7371 41.5863 39.6746 41.6808 39.595 41.7593C39.5149 41.8404 39.4185 41.9033 39.3122 41.9438C39.1962 41.9922 39.0714 42.0154 38.9459 42.012C38.7795 42.0187 38.6144 41.9799 38.4681 41.8997C38.3417 41.8312 38.2369 41.7283 38.1655 41.6028C38.1187 41.523 38.0889 41.4342 38.0779 41.3421C38.0613 41.2359 38.0533 41.1286 38.054 41.0211V40.0823C38.0534 39.9749 38.0614 39.8676 38.0779 39.7614C38.0888 39.6706 38.1187 39.5831 38.1655 39.5046C38.2374 39.3786 38.342 39.2746 38.4681 39.2038C38.6151 39.1254 38.7797 39.0867 38.9459 39.0914C39.0725 39.0904 39.1982 39.1136 39.3162 39.1596C39.422 39.201 39.5182 39.2638 39.5989 39.3442C39.7579 39.5171 39.8424 39.7465 39.8339 39.982L39.8458 40.7563ZM38.6513 40.307H39.2366V39.982C39.2408 39.9379 39.2359 39.8934 39.2222 39.8513C39.2085 39.8092 39.1863 39.7704 39.157 39.7373C39.1298 39.7089 39.0969 39.6867 39.0605 39.6722C39.0241 39.6577 38.985 39.6512 38.9459 39.6531C38.9062 39.6508 38.8664 39.6572 38.8294 39.6717C38.7923 39.6863 38.7587 39.7086 38.7309 39.7373C38.6732 39.8051 38.6446 39.8931 38.6513 39.982V40.307Z" fill="#CE202F"/>
<path d="M40.2878 41.9679V39.1155H40.8851V39.3883C40.9464 39.3011 41.0234 39.2262 41.1121 39.1676C41.2129 39.1065 41.329 39.0759 41.4465 39.0794C41.5223 39.0793 41.5976 39.0914 41.6695 39.1155C41.7441 39.1418 41.8121 39.1843 41.8686 39.2398C41.9315 39.3007 41.9804 39.3746 42.012 39.4565C42.0497 39.5591 42.0673 39.6681 42.0637 39.7774V41.9679H41.4665V39.9941C41.4694 39.905 41.4427 39.8175 41.3908 39.7453C41.3635 39.7144 41.3296 39.6901 41.2917 39.6741C41.2538 39.6582 41.2128 39.651 41.1718 39.6531C41.127 39.6484 41.0818 39.6555 41.0406 39.6738C40.9994 39.6921 40.9636 39.7209 40.9369 39.7574C40.8881 39.8468 40.866 39.9485 40.8732 40.0502V41.9679H40.2878Z" fill="#CE202F"/>
<path d="M43.7002 41.9679V41.675C43.6331 41.7669 43.5525 41.8481 43.4613 41.9157C43.361 41.9775 43.2443 42.0069 43.1269 42C43.0543 42.0005 42.9819 41.9911 42.9118 41.9719C42.8358 41.9475 42.7654 41.9079 42.7048 41.8556C42.6307 41.7957 42.5743 41.7167 42.5415 41.6269C42.4959 41.4984 42.4756 41.3621 42.4818 41.2257C42.4793 41.0829 42.4927 40.9403 42.5216 40.8004C42.5441 40.687 42.5963 40.5817 42.6729 40.4955C42.7511 40.4111 42.85 40.3488 42.9596 40.315C43.1116 40.2746 43.2684 40.2557 43.4255 40.2588H43.6246H43.7122V39.962C43.7144 39.876 43.6923 39.7911 43.6485 39.7172C43.6203 39.6828 43.5841 39.656 43.5431 39.6392C43.5021 39.6224 43.4576 39.6161 43.4136 39.621C43.3355 39.6218 43.2599 39.6486 43.1985 39.6972C43.1316 39.7499 43.0863 39.8256 43.0711 39.9098H42.4938C42.4955 39.7942 42.5199 39.68 42.5657 39.574C42.6115 39.4679 42.6777 39.3721 42.7605 39.292C42.8414 39.2138 42.9377 39.1536 43.0432 39.1155C43.1611 39.0687 43.2869 39.0456 43.4136 39.0473C43.5326 39.047 43.6509 39.066 43.764 39.1034C43.8696 39.1401 43.967 39.1974 44.0506 39.2719C44.1326 39.3522 44.1964 39.4494 44.2378 39.5568C44.2892 39.684 44.3137 39.8207 44.3095 39.958V41.9639L43.7002 41.9679ZM43.7002 40.7403C43.6459 40.7356 43.5913 40.7356 43.537 40.7403C43.4193 40.7358 43.3029 40.7665 43.2025 40.8285C43.1537 40.8642 43.1154 40.9124 43.0915 40.9682C43.0677 41.024 43.0593 41.0852 43.0671 41.1455C43.0636 41.2402 43.0917 41.3334 43.1468 41.4102C43.1748 41.444 43.2103 41.4707 43.2504 41.4881C43.2905 41.5056 43.3341 41.5132 43.3777 41.5105C43.4215 41.5128 43.4652 41.5054 43.5058 41.4888C43.5464 41.4721 43.5829 41.4467 43.6126 41.4143C43.6757 41.3397 43.7072 41.2432 43.7002 41.1455V40.7403Z" fill="#CE202F"/>
<path d="M44.7355 41.9679V39.1155H45.3367V39.3883C45.3966 39.3012 45.4722 39.2263 45.5597 39.1676C45.662 39.1066 45.7793 39.076 45.8982 39.0794C45.9739 39.0796 46.0491 39.0918 46.1211 39.1155C46.1952 39.1428 46.263 39.1851 46.3202 39.2399C46.3818 39.301 46.4294 39.3749 46.4596 39.4565C46.4989 39.5588 46.5179 39.6678 46.5153 39.7774V41.9679H45.926V39.9941C45.9324 39.9046 45.9054 39.8159 45.8504 39.7454C45.8237 39.7148 45.7905 39.6906 45.7533 39.6746C45.716 39.6587 45.6758 39.6513 45.6354 39.6531C45.5905 39.648 45.5452 39.6549 45.5039 39.6733C45.4626 39.6916 45.4269 39.7206 45.4004 39.7574C45.3516 39.8468 45.3295 39.9485 45.3367 40.0503V41.9679H44.7355Z" fill="#CE202F"/>
<path d="M47.6502 41.1455C47.6483 41.1839 47.6545 41.2223 47.6682 41.2582C47.6819 41.2942 47.7029 41.3268 47.7298 41.3541C47.7897 41.405 47.8666 41.4308 47.9448 41.4263C47.9877 41.4317 48.0312 41.4256 48.0711 41.4087C48.1109 41.3918 48.1456 41.3647 48.1718 41.33C48.207 41.2729 48.2288 41.2084 48.2355 41.1415H48.8368C48.8423 41.313 48.7951 41.4821 48.7018 41.6257C48.6084 41.7693 48.4734 41.8804 48.3151 41.9438C48.1976 41.9918 48.0716 42.015 47.9448 42.012C47.7785 42.0177 47.6137 41.9789 47.467 41.8997C47.3415 41.83 47.2369 41.7274 47.1644 41.6028C47.1193 41.5222 47.0896 41.4337 47.0768 41.3421C47.0602 41.2359 47.0522 41.1286 47.0529 41.0211V40.0823C47.0523 39.9749 47.0603 39.8676 47.0768 39.7614C47.0895 39.671 47.1193 39.5838 47.1644 39.5046C47.2363 39.3786 47.3409 39.2746 47.467 39.2037C47.6143 39.1262 47.7787 39.0876 47.9448 39.0914C48.0714 39.0904 48.1971 39.1136 48.3151 39.1596C48.4217 39.2019 48.519 39.2645 48.6018 39.3442C48.7619 39.526 48.8461 39.7632 48.8368 40.0061H48.2355C48.2443 39.9139 48.2172 39.8218 48.1598 39.7494C48.1316 39.7213 48.098 39.6993 48.061 39.6848C48.024 39.6703 47.9845 39.6636 47.9448 39.6651C47.9051 39.6629 47.8654 39.6692 47.8283 39.6838C47.7912 39.6983 47.7576 39.7207 47.7298 39.7494C47.6722 39.8171 47.6435 39.9051 47.6502 39.9941V41.1455Z" fill="#CE202F"/>
<path d="M50.9153 40.7563H49.7207V41.1575C49.7189 41.196 49.725 41.2344 49.7387 41.2703C49.7524 41.3062 49.7734 41.3389 49.8004 41.3661C49.8602 41.417 49.9372 41.4428 50.0154 41.4384C50.0577 41.4443 50.1009 41.4384 50.1402 41.4214C50.1795 41.4045 50.2134 41.377 50.2384 41.3421C50.2747 41.2852 50.2979 41.2207 50.3061 41.1535H50.9033C50.9078 41.2657 50.8888 41.3776 50.8477 41.4819C50.8065 41.5863 50.7441 41.6808 50.6644 41.7593C50.5843 41.8404 50.4879 41.9033 50.3817 41.9438C50.2657 41.9922 50.1409 42.0154 50.0154 42.012C49.849 42.0187 49.6839 41.9799 49.5376 41.8997C49.4111 41.8312 49.3063 41.7283 49.2349 41.6028C49.1899 41.5222 49.1602 41.4337 49.1473 41.3421C49.1307 41.2359 49.1227 41.1286 49.1235 41.0211V40.0823C49.1229 39.9749 49.1309 39.8676 49.1473 39.7614C49.1601 39.671 49.1898 39.5838 49.2349 39.5046C49.3069 39.3786 49.4115 39.2746 49.5376 39.2038C49.6845 39.1254 49.8492 39.0867 50.0154 39.0914C50.142 39.0904 50.2676 39.1136 50.3857 39.1596C50.4915 39.201 50.5877 39.2638 50.6684 39.3442C50.8274 39.5171 50.9119 39.7465 50.9033 39.982L50.9153 40.7563ZM49.7207 40.307H50.3061V39.982C50.3103 39.9379 50.3054 39.8934 50.2917 39.8513C50.278 39.8092 50.2557 39.7704 50.2264 39.7373C50.1992 39.7089 50.1663 39.6867 50.1299 39.6722C50.0935 39.6577 50.0545 39.6512 50.0154 39.6531C49.9756 39.6508 49.9359 39.6572 49.8988 39.6717C49.8617 39.6863 49.8282 39.7086 49.8004 39.7373C49.7427 39.8051 49.7141 39.8931 49.7207 39.982V40.307Z" fill="#CE202F"/>
<path d="M52.1377 40.656V38.7624H51.6957V38.4776H52.1377V37.7635H52.4323V38.4776H52.8743V38.7624H52.4323V40.656H52.1377Z" fill="#CE202F"/>
<path d="M3.80664 16.8738V0H6.19572V7.22132H9.15818V0H11.5473V16.8738H9.15818V9.35963H6.20766V16.8738H3.80664Z" fill="#CE202F"/>
<path d="M14.0637 16.8738V0H21.231V2.27472H16.4608V7.22934H20.6018V9.50406H16.4608V14.4547H21.1991V16.8618L14.0637 16.8738Z" fill="#CE202F"/>
<path d="M21.9158 16.8738L25.6547 0H27.6456L31.3885 16.8738H28.9994L28.2946 13.2632H25.0216L24.3168 16.8738H21.9158ZM27.8447 10.9724L26.6501 4.85834H26.6063L25.4118 10.9724H27.8447Z" fill="#CE202F"/>
<path d="M32.806 16.8738V0H36.6644C39.4835 0 40.8944 1.65154 40.897 4.95463C40.9193 5.82254 40.7634 6.68572 40.4391 7.49011C40.1081 8.21301 39.5478 8.80439 38.8464 9.17108L41.4346 16.8738H38.8942L36.6604 9.6525H35.223V16.8738H32.806ZM35.1951 2.27472V7.53424H36.5609C36.9067 7.54993 37.2518 7.4897 37.5722 7.35772C37.813 7.24814 38.0175 7.07132 38.1616 6.84822C38.2948 6.59854 38.3825 6.32676 38.4204 6.04585C38.468 5.67337 38.4906 5.29808 38.4881 4.92253C38.4905 4.54565 38.4679 4.16903 38.4204 3.7952C38.3809 3.49992 38.2848 3.21516 38.1377 2.95673C37.839 2.51141 37.2736 2.29076 36.4414 2.29076L35.1951 2.27472Z" fill="#CE202F"/>
<path d="M44.2139 16.8738V2.27472H41.4266V0H49.3902V2.27472H46.603V16.8738H44.2139Z" fill="#CE202F"/>
<path d="M0 35.914V19.0402H2.38908V26.2615H5.35153V19.0402H7.74061V35.914H5.35153V28.3999H2.39704V35.914H0Z" fill="#CE202F"/>
<path d="M10.2532 35.914V19.0402H17.4005V21.3149H12.6502V26.2696H16.7913V28.5443H12.6502V33.4949H17.4005V35.902L10.2532 35.914Z" fill="#CE202F"/>
<path d="M18.1052 35.914L21.8481 19.0402H23.839L27.57 35.914H25.1809L24.4761 32.3034H21.1991L20.4943 35.914H18.1052ZM24.0341 30.0126L22.8396 23.8986H22.7918L21.5973 30.0126H24.0341Z" fill="#CE202F"/>
<path d="M28.9955 35.914V19.0402H31.3846V33.4829H36.1348V35.89L28.9955 35.914Z" fill="#CE202F"/>
<path d="M37.7674 35.914V21.3149H34.9801V19.0402H42.9437V21.3149H40.1564V35.914H37.7674Z" fill="#CE202F"/>
<path d="M44.2338 35.914V19.0402H46.6228V26.2615H49.5853V19.0402H51.9744V35.914H49.5853V28.3999H46.6228V35.914H44.2338Z" fill="#CE202F"/>
<path d="M53.3163 20.7814V19.3211H52.8345V19.0402H54.0648V19.3211H53.587V20.7814H53.3163ZM55.7253 20.7814V19.3211L55.2116 20.7814H55.0444L54.5307 19.3211V20.7814H54.248V19.0402H54.678L55.12 20.312L55.558 19.0402H55.9881V20.7814H55.7253Z" fill="#CE202F"/>
</g>
<defs>
<clipPath id="clip0_473_6074">
<rect width="56" height="42" fill="white"/>
</clipPath>
</defs>
</svg>
