<svg width="56" height="42" viewBox="0 0 56 42" fill="none" xmlns="http://www.w3.org/2000/svg">
<g clip-path="url(#clip0_473_12074)">
<path d="M2.92284 40.8245V41.0733C2.92368 41.1934 2.89926 41.3124 2.85117 41.4223C2.80558 41.532 2.74085 41.6325 2.66004 41.7192C2.57808 41.8067 2.47915 41.8764 2.36937 41.9238C2.25863 41.9763 2.13736 42.0024 2.01499 42C1.90477 41.9989 1.7951 41.9841 1.68848 41.9559C1.5776 41.9263 1.47438 41.8729 1.38587 41.7994C1.2918 41.7188 1.21579 41.619 1.16289 41.5065C1.10238 41.3648 1.07382 41.2114 1.07927 41.0572V38.8507C1.07733 38.726 1.09895 38.6021 1.14298 38.4856C1.1877 38.3767 1.25256 38.2773 1.3341 38.1928C1.41819 38.1079 1.51841 38.0411 1.62876 37.9962C1.74822 37.9502 1.87516 37.927 2.00305 37.928C2.12487 37.9232 2.24634 37.9442 2.35954 37.9899C2.47274 38.0355 2.57513 38.1046 2.66004 38.1928C2.7418 38.2817 2.80659 38.3851 2.85117 38.4977C2.90142 38.6252 2.92579 38.7616 2.92284 38.8988V39.1235H2.34946V38.935C2.35148 38.8299 2.31932 38.727 2.25788 38.6421C2.22807 38.6017 2.1889 38.5692 2.14379 38.5475C2.09868 38.5259 2.049 38.5156 1.99906 38.5177C1.94437 38.5109 1.88888 38.5198 1.83891 38.5432C1.78894 38.5666 1.74648 38.6036 1.71636 38.6501C1.66867 38.7544 1.64551 38.8683 1.64867 38.9831V41.0171C1.6446 41.1201 1.67093 41.222 1.72432 41.31C1.75563 41.3513 1.79703 41.3837 1.84448 41.4041C1.89193 41.4245 1.94382 41.4321 1.99508 41.4263C2.03459 41.4334 2.07503 41.4334 2.11454 41.4263C2.15881 41.4147 2.19974 41.3927 2.23399 41.3621C2.26994 41.3268 2.29839 41.2845 2.31761 41.2378C2.34206 41.1753 2.35293 41.1082 2.34946 41.0412V40.8446L2.92284 40.8245Z" fill="#CE202F"/>
<path d="M4.42773 41.9679V41.6751C4.36696 41.767 4.29164 41.8484 4.20475 41.9158C4.10839 41.9766 3.99577 42.006 3.88223 42C3.81355 42.0006 3.74515 41.9911 3.67916 41.9719C3.60558 41.9473 3.53781 41.9077 3.48007 41.8556C3.40977 41.794 3.35631 41.7153 3.32478 41.6269C3.28065 41.4981 3.26172 41.3618 3.26903 41.2257C3.26046 41.0893 3.26446 40.9523 3.28098 40.8165C3.30366 40.704 3.35435 40.599 3.4283 40.5116C3.50192 40.4274 3.59689 40.365 3.70305 40.3311C3.84551 40.2908 3.9931 40.2719 4.14105 40.2749H4.33217H4.41579V39.9781C4.41924 39.8924 4.39853 39.8076 4.35606 39.7333C4.33026 39.6993 4.29618 39.6726 4.25712 39.6557C4.21806 39.6388 4.17533 39.6324 4.13308 39.637C4.05755 39.6385 3.98467 39.6653 3.92603 39.7133C3.8629 39.768 3.82066 39.8432 3.80657 39.9259H3.28098C3.2869 39.6945 3.37934 39.4738 3.53979 39.3081C3.61533 39.2309 3.70626 39.1707 3.80657 39.1316C3.91898 39.0852 4.03949 39.062 4.16095 39.0634C4.27478 39.0631 4.38785 39.082 4.49543 39.1195C4.59957 39.1559 4.69417 39.2156 4.77211 39.2941C4.85004 39.3726 4.90928 39.4679 4.94537 39.5729C4.99546 39.7004 5.01852 39.837 5.01306 39.974V41.98L4.42773 41.9679ZM4.42773 40.7403C4.37608 40.7355 4.3241 40.7355 4.27244 40.7403C4.16107 40.7364 4.05122 40.7672 3.95788 40.8286C3.91041 40.8652 3.87331 40.9138 3.85025 40.9694C3.8272 41.025 3.81901 41.0857 3.82648 41.1455C3.82153 41.2398 3.84817 41.3331 3.90214 41.4103C3.92808 41.4434 3.96149 41.4697 3.99958 41.4872C4.03767 41.5046 4.07934 41.5126 4.12114 41.5106C4.16369 41.5125 4.20614 41.5049 4.2454 41.4882C4.28466 41.4716 4.31974 41.4463 4.3481 41.4143C4.40588 41.3373 4.43415 41.2418 4.42773 41.1455V40.7403Z" fill="#CE202F"/>
<path d="M5.41504 41.9679V39.1155H5.98444V39.4123C6.08742 39.3148 6.20252 39.2312 6.32687 39.1636C6.45047 39.1015 6.58694 39.0699 6.72505 39.0713V39.6811C6.66967 39.6573 6.61007 39.645 6.54985 39.645C6.48495 39.6465 6.4206 39.6574 6.35873 39.6771C6.28972 39.6982 6.22594 39.7337 6.17158 39.7814C6.10911 39.834 6.05882 39.8997 6.02425 39.974C5.98483 40.0664 5.96581 40.1663 5.96851 40.2669V41.9599L5.41504 41.9679Z" fill="#CE202F"/>
<path d="M8.10293 41.9679V41.7071C8.06911 41.7478 8.03322 41.7866 7.99542 41.8235C7.96298 41.8596 7.92541 41.8907 7.88393 41.9158C7.84104 41.9443 7.79403 41.9659 7.74457 41.98C7.68372 41.9871 7.62226 41.9871 7.56141 41.98C7.46138 41.9896 7.36078 41.9692 7.27222 41.9214C7.18366 41.8735 7.11111 41.8004 7.06368 41.7112C7.02867 41.6361 7.00454 41.5564 6.99201 41.4745C6.97395 41.3496 6.96596 41.2235 6.96812 41.0973V40.0101C6.96812 39.8055 6.96812 39.6531 6.96812 39.5568C6.9813 39.4138 7.04951 39.2817 7.15816 39.1887C7.26681 39.0957 7.40726 39.0493 7.54946 39.0593C7.6538 39.0589 7.75655 39.0851 7.8481 39.1356C7.93842 39.1904 8.01585 39.2643 8.07506 39.3522V37.9601H8.64446V41.9719L8.10293 41.9679ZM7.53752 41.0372C7.53389 41.1366 7.5573 41.2351 7.60521 41.322C7.62819 41.3565 7.6598 41.3844 7.69684 41.4027C7.73389 41.421 7.77507 41.4291 7.81624 41.4263C7.85585 41.4279 7.89526 41.42 7.93125 41.4033C7.96724 41.3865 7.99879 41.3614 8.0233 41.33C8.07838 41.2562 8.1065 41.1655 8.10293 41.0733V39.966C8.10522 39.8837 8.07681 39.8036 8.0233 39.7413C7.99661 39.7131 7.96446 39.6908 7.92885 39.6756C7.89323 39.6604 7.85491 39.6527 7.81624 39.6531C7.77373 39.6483 7.73075 39.6556 7.69208 39.674C7.65341 39.6924 7.62058 39.7213 7.59724 39.7574C7.55563 39.8291 7.53493 39.9111 7.53752 39.9941V41.0372Z" fill="#CE202F"/>
<path d="M9.14209 38.5338V37.9601H9.71149V38.5338H9.14209ZM9.14209 41.9679V39.1155H9.71149V41.9679H9.14209Z" fill="#CE202F"/>
<path d="M10.1299 40.0703C10.1293 39.9629 10.1373 39.8555 10.1538 39.7494C10.1634 39.6588 10.1919 39.5713 10.2374 39.4926C10.3025 39.3668 10.402 39.2623 10.5241 39.1917C10.6642 39.1179 10.82 39.0793 10.9781 39.0793C11.1361 39.0793 11.2919 39.1179 11.432 39.1917C11.5537 39.2642 11.654 39.3681 11.7226 39.4926C11.7647 39.5728 11.793 39.6596 11.8063 39.7494C11.8127 39.8562 11.8127 39.9634 11.8063 40.0703V41.0171C11.8128 41.124 11.8128 41.2312 11.8063 41.3381C11.7929 41.429 11.7647 41.5172 11.7226 41.5988C11.6547 41.7228 11.5541 41.8256 11.432 41.8957C11.2919 41.9695 11.1361 42.0081 10.9781 42.0081C10.82 42.0081 10.6642 41.9695 10.5241 41.8957C10.4023 41.8265 10.3027 41.7235 10.2374 41.5988C10.1919 41.5187 10.1634 41.4299 10.1538 41.3381C10.1372 41.2319 10.1292 41.1246 10.1299 41.0171V40.0703ZM10.6993 41.1014C10.6924 41.1897 10.7195 41.2773 10.775 41.3461C10.8016 41.3727 10.8333 41.3936 10.8683 41.4074C10.9032 41.4212 10.9406 41.4276 10.9781 41.4263C11.0156 41.4284 11.0532 41.4223 11.0882 41.4084C11.1233 41.3946 11.1549 41.3733 11.1811 41.3461C11.2366 41.2773 11.2637 41.1897 11.2568 41.1014V39.982C11.2645 39.8936 11.2373 39.8057 11.1811 39.7373C11.1556 39.7089 11.1242 39.6866 11.0891 39.672C11.0539 39.6575 11.016 39.651 10.9781 39.6531C10.9402 39.6515 10.9024 39.6583 10.8674 39.6728C10.8323 39.6873 10.8008 39.7094 10.775 39.7373C10.7188 39.8057 10.6916 39.8936 10.6993 39.982V41.1014Z" fill="#CE202F"/>
<path d="M13.9481 39.1155L13.2115 41.9679H12.7098L11.9731 39.1155H12.5744L12.9726 40.9369L13.3708 39.1155H13.9481Z" fill="#CE202F"/>
<path d="M15.2263 41.9679V41.675C15.1631 41.7663 15.0866 41.8475 14.9993 41.9157C14.9047 41.9772 14.7931 42.0067 14.6808 42C14.6121 42.0005 14.5437 41.9911 14.4777 41.9719C14.4041 41.9473 14.3364 41.9077 14.2786 41.8556C14.2083 41.794 14.1549 41.7152 14.1233 41.6269C14.0777 41.4984 14.0574 41.3621 14.0636 41.2257C14.0631 41.083 14.0764 40.9406 14.1034 40.8005C14.1261 40.6879 14.1768 40.583 14.2507 40.4956C14.322 40.4105 14.416 40.3479 14.5215 40.315C14.6653 40.2744 14.8142 40.2555 14.9635 40.2589H15.1546H15.2382V39.962C15.2437 39.8756 15.2214 39.7898 15.1745 39.7173C15.149 39.6829 15.115 39.656 15.0758 39.6391C15.0367 39.6222 14.9938 39.6159 14.9515 39.621C14.8774 39.6233 14.806 39.6501 14.7485 39.6972C14.6853 39.7519 14.6431 39.8271 14.629 39.9098H14.0755C14.0799 39.678 14.1726 39.4568 14.3344 39.292C14.4092 39.2139 14.5003 39.1536 14.6011 39.1155C14.7123 39.0694 14.8314 39.0462 14.9515 39.0473C15.0666 39.0473 15.181 39.0663 15.29 39.1034C15.3941 39.1398 15.4887 39.1995 15.5667 39.278C15.6446 39.3565 15.7039 39.4519 15.7399 39.5568C15.788 39.6848 15.811 39.8211 15.8076 39.958V41.9639L15.2263 41.9679ZM15.2263 40.7403C15.1746 40.7355 15.1227 40.7355 15.071 40.7403C14.9584 40.7363 14.8472 40.7671 14.7525 40.8285C14.705 40.8652 14.6679 40.9138 14.6448 40.9694C14.6218 41.025 14.6136 41.0857 14.6211 41.1455C14.6176 41.2402 14.6456 41.3334 14.7007 41.4103C14.7262 41.4438 14.7595 41.4706 14.7977 41.4881C14.8359 41.5056 14.8778 41.5133 14.9197 41.5106C14.9622 41.5125 15.0047 41.5049 15.044 41.4882C15.0832 41.4716 15.1183 41.4463 15.1467 41.4143C15.2044 41.3372 15.2327 41.2418 15.2263 41.1455V40.7403Z" fill="#CE202F"/>
<path d="M17.2452 39.9138C17.2462 39.8722 17.2382 39.8309 17.2217 39.7928C17.2051 39.7547 17.1806 39.7207 17.1496 39.6932C17.0954 39.646 17.0261 39.6203 16.9545 39.6209C16.9155 39.6181 16.8764 39.6246 16.8404 39.64C16.8044 39.6553 16.7726 39.679 16.7474 39.7092C16.7 39.765 16.6746 39.8364 16.6758 39.9098C16.6762 39.9627 16.6885 40.0148 16.7116 40.0623C16.7618 40.1298 16.8335 40.1779 16.9147 40.1987L17.2491 40.3351C17.4289 40.394 17.5834 40.5129 17.6871 40.6721C17.7665 40.8155 17.8077 40.9772 17.8066 41.1414C17.8082 41.2557 17.7865 41.369 17.7429 41.4744C17.7017 41.5755 17.6423 41.6679 17.5677 41.7472C17.4922 41.8265 17.4014 41.8893 17.3009 41.9318C17.1483 41.9952 16.9813 42.0149 16.8183 41.9887C16.6553 41.9625 16.5026 41.8914 16.3771 41.7833C16.2975 41.7064 16.2327 41.6152 16.186 41.5145C16.1368 41.3964 16.1111 41.2696 16.1104 41.1414H16.6479C16.6571 41.219 16.6843 41.2932 16.7275 41.3581C16.753 41.3939 16.7874 41.4224 16.8272 41.4407C16.867 41.459 16.9109 41.4665 16.9545 41.4624C17.0353 41.4626 17.1134 41.4326 17.1735 41.3781C17.2065 41.3503 17.2326 41.3152 17.2499 41.2756C17.2671 41.2359 17.2751 41.1927 17.273 41.1495C17.2733 41.0775 17.251 41.0073 17.2093 40.9489C17.1503 40.8802 17.0729 40.83 16.9863 40.8044L16.7116 40.7001C16.546 40.6412 16.3998 40.537 16.2895 40.3992C16.1865 40.2591 16.1333 40.0881 16.1382 39.9138C16.1364 39.7979 16.1594 39.6829 16.2059 39.5768C16.2485 39.477 16.3109 39.3869 16.3891 39.312C16.464 39.2369 16.5534 39.1782 16.6519 39.1395C16.7546 39.0988 16.8641 39.0784 16.9744 39.0794C17.0852 39.0779 17.195 39.0998 17.2969 39.1435C17.3927 39.1829 17.4794 39.2416 17.5518 39.3161C17.622 39.3956 17.6785 39.4865 17.719 39.5848C17.7591 39.6898 17.7793 39.8014 17.7787 39.9138H17.2452Z" fill="#CE202F"/>
<path d="M18.7782 41.1455C18.7756 41.1836 18.781 41.2219 18.794 41.2579C18.807 41.2938 18.8274 41.3266 18.8539 41.3541C18.9097 41.4038 18.9825 41.4297 19.0569 41.4263C19.0981 41.432 19.1401 41.4261 19.1781 41.4091C19.2161 41.392 19.2486 41.3647 19.2719 41.33C19.3072 41.2729 19.329 41.2084 19.3357 41.1415H19.905C19.9099 41.2526 19.8922 41.3637 19.8532 41.4678C19.8142 41.5719 19.7546 41.667 19.6781 41.7472C19.6026 41.8265 19.5118 41.8893 19.4113 41.9318C19.283 41.9816 19.1457 42.0035 19.0084 41.9959C18.8711 41.9882 18.737 41.9514 18.6149 41.8877C18.4952 41.8157 18.3964 41.7133 18.3283 41.5908C18.2827 41.5106 18.2543 41.4218 18.2446 41.33C18.228 41.2239 18.22 41.1165 18.2207 41.0091V40.0703C18.2202 39.9628 18.2282 39.8555 18.2446 39.7493C18.2542 39.6588 18.2827 39.5713 18.3283 39.4926C18.3958 39.3686 18.4947 39.2648 18.6149 39.1917C18.7537 39.1143 18.9103 39.0755 19.0689 39.0794C19.1903 39.078 19.3108 39.1012 19.4233 39.1476C19.5252 39.1896 19.6174 39.2524 19.694 39.3321C19.8487 39.5164 19.9284 39.7529 19.917 39.9941H19.3476C19.3564 39.9018 19.3293 39.8098 19.2719 39.7373C19.2465 39.7089 19.215 39.6866 19.1799 39.672C19.1447 39.6574 19.1068 39.651 19.0689 39.6531C19.031 39.6515 18.9932 39.6582 18.9582 39.6728C18.9231 39.6873 18.8916 39.7093 18.8658 39.7373C18.8096 39.8057 18.7824 39.8936 18.7901 39.982L18.7782 41.1455Z" fill="#CE202F"/>
<path d="M21.9435 39.1155V41.9679H21.3741V41.6911C21.3205 41.7805 21.2468 41.8561 21.1591 41.9117C21.0649 41.9746 20.9533 42.0055 20.8405 42C20.7686 42 20.6973 41.9878 20.6295 41.9639C20.5573 41.9394 20.4918 41.8982 20.4383 41.8435C20.3793 41.7811 20.3333 41.7075 20.303 41.6269C20.2686 41.5221 20.2524 41.4122 20.2552 41.3019V39.1155H20.8007V41.0893C20.7966 41.1779 20.8218 41.2654 20.8724 41.338C20.8975 41.3682 20.9293 41.392 20.9653 41.4073C21.0013 41.4226 21.0404 41.4292 21.0794 41.4263C21.1221 41.4313 21.1653 41.4247 21.2046 41.407C21.2438 41.3894 21.2776 41.3614 21.3024 41.326C21.3473 41.2353 21.3679 41.1343 21.3621 41.0331V39.1155H21.9435Z" fill="#CE202F"/>
<path d="M22.3938 37.9601H22.9632V41.1696C22.9556 41.2487 22.9753 41.328 23.019 41.3942C23.084 41.4417 23.1617 41.4683 23.242 41.4704V42.008C23.1245 42.0098 23.0072 42.0004 22.8916 41.98C22.793 41.96 22.7003 41.9175 22.6208 41.8556C22.5428 41.7945 22.4834 41.7124 22.4496 41.6189C22.4098 41.489 22.391 41.3536 22.3938 41.2177V37.9601Z" fill="#CE202F"/>
<path d="M24.532 41.9679V41.6751C24.4687 41.7663 24.3922 41.8475 24.305 41.9158C24.2091 41.9776 24.0961 42.0071 23.9825 42C23.9138 42.0003 23.8454 41.9908 23.7794 41.9719C23.7062 41.9464 23.6386 41.9069 23.5803 41.8556C23.5113 41.7936 23.4592 41.7149 23.429 41.6269C23.3833 41.4984 23.363 41.3621 23.3693 41.2257C23.3667 41.0829 23.3801 40.9403 23.4091 40.8005C23.4304 40.6882 23.4798 40.5833 23.5524 40.4956C23.626 40.4114 23.721 40.349 23.8272 40.315C23.9709 40.2745 24.1199 40.2555 24.2692 40.2589H24.4603H24.5439V39.962C24.5494 39.8756 24.5271 39.7898 24.4802 39.7173C24.4547 39.6829 24.4206 39.656 24.3815 39.6391C24.3423 39.6222 24.2995 39.6159 24.2572 39.621C24.1828 39.6217 24.1109 39.6487 24.0541 39.6972C23.9896 39.7508 23.9471 39.8265 23.9347 39.9098H23.3812C23.3861 39.679 23.477 39.4584 23.636 39.292C23.7134 39.2152 23.8056 39.1551 23.9068 39.1155C24.0178 39.0691 24.137 39.0459 24.2572 39.0473C24.371 39.047 24.4841 39.066 24.5917 39.1035C24.6928 39.1421 24.786 39.1992 24.8664 39.272C24.945 39.3534 25.006 39.4504 25.0456 39.5568C25.0937 39.6849 25.1167 39.8211 25.1133 39.958V41.9639L24.532 41.9679ZM24.532 40.7403C24.479 40.7353 24.4257 40.7353 24.3727 40.7403C24.2613 40.7364 24.1515 40.7672 24.0581 40.8286C24.0106 40.8652 23.9735 40.9138 23.9505 40.9694C23.9274 41.025 23.9192 41.0857 23.9267 41.1455C23.9232 41.2402 23.9513 41.3334 24.0064 41.4103C24.0315 41.4433 24.0641 41.4697 24.1016 41.4871C24.139 41.5046 24.1801 41.5127 24.2214 41.5106C24.264 41.5134 24.3068 41.5062 24.3462 41.4895C24.3856 41.4728 24.4205 41.447 24.4483 41.4143C24.5075 41.3378 24.5372 41.2423 24.532 41.1455V40.7403Z" fill="#CE202F"/>
<path d="M25.5195 41.9679V39.1155H26.0889V39.4123C26.1906 39.315 26.3043 39.2314 26.4274 39.1636C26.551 39.1015 26.6875 39.0699 26.8256 39.0713V39.6811C26.7716 39.6573 26.7133 39.645 26.6543 39.645C26.5882 39.6468 26.5225 39.6576 26.4592 39.6771C26.3902 39.6982 26.3264 39.7337 26.2721 39.7814C26.2097 39.8332 26.1606 39.8992 26.1287 39.974C26.0893 40.0664 26.0703 40.1663 26.073 40.2669V41.9599L25.5195 41.9679Z" fill="#CE202F"/>
<path d="M28.1553 41.9679V37.9561H28.7326L29.4971 40.0783L30.2616 37.9561H30.843V41.9679H30.2417V39.5327L29.6524 41.2538H29.3538L28.7645 39.5327V41.9679H28.1553Z" fill="#CE202F"/>
<path d="M32.5113 41.9679V41.675C32.4465 41.7676 32.3672 41.8489 32.2764 41.9157C32.1746 41.9776 32.0566 42.0069 31.9379 42C31.8653 42.0003 31.793 41.9909 31.7229 41.9719C31.6472 41.9466 31.577 41.9071 31.5158 41.8556C31.4431 41.7954 31.388 41.7163 31.3566 41.6269C31.3074 41.4992 31.2856 41.3625 31.2929 41.2257C31.2903 41.0829 31.3037 40.9403 31.3327 40.8004C31.3564 40.6866 31.4101 40.5814 31.488 40.4955C31.5648 40.4095 31.6642 40.3469 31.7746 40.315C31.9252 40.2743 32.0807 40.2554 32.2365 40.2589H32.4356H32.5232V39.962C32.5287 39.8756 32.5064 39.7898 32.4595 39.7173C32.4316 39.6825 32.3954 39.6555 32.3543 39.6387C32.3133 39.6218 32.2686 39.6157 32.2246 39.621C32.1479 39.6224 32.0737 39.6492 32.0136 39.6972C31.9455 39.7489 31.8998 39.825 31.8861 39.9098H31.3048C31.3115 39.6761 31.4087 39.4544 31.5756 39.292C31.6548 39.2137 31.7499 39.1535 31.8543 39.1155C31.9723 39.0694 32.098 39.0463 32.2246 39.0473C32.3449 39.047 32.4645 39.066 32.579 39.1034C32.6837 39.1419 32.7808 39.199 32.8657 39.2719C32.9455 39.354 33.009 39.4507 33.0528 39.5568C33.1043 39.684 33.1287 39.8207 33.1245 39.958V41.9639L32.5113 41.9679ZM32.5113 40.7403C32.457 40.7353 32.4023 40.7353 32.348 40.7403C32.2317 40.7364 32.1167 40.7671 32.0175 40.8285C31.9683 40.864 31.9294 40.9121 31.9049 40.9678C31.8804 41.0236 31.8712 41.0849 31.8782 41.1455C31.8739 41.2409 31.9035 41.3348 31.9618 41.4103C31.9894 41.4435 32.0242 41.4698 32.0636 41.4872C32.103 41.5046 32.1458 41.5126 32.1888 41.5105C32.2332 41.5135 32.2777 41.5063 32.319 41.4897C32.3604 41.473 32.3975 41.4472 32.4277 41.4143C32.4869 41.3378 32.5166 41.2423 32.5113 41.1455V40.7403Z" fill="#CE202F"/>
<path d="M33.5425 38.5338V37.9601H34.1398V38.5338H33.5425ZM33.5425 41.9679V39.1155H34.1398V41.9679H33.5425Z" fill="#CE202F"/>
<path d="M34.6416 41.9679V39.1155H35.2389V39.3883C35.3012 39.302 35.378 39.2273 35.4658 39.1676C35.5666 39.1065 35.6827 39.0759 35.8003 39.0794C35.8761 39.0793 35.9514 39.0914 36.0233 39.1155C36.0979 39.1418 36.1658 39.1843 36.2224 39.2398C36.2853 39.3007 36.3342 39.3746 36.3657 39.4565C36.4035 39.5591 36.4211 39.6681 36.4175 39.7774V41.9679H35.8202V39.9941C35.8231 39.905 35.7965 39.8175 35.7446 39.7453C35.7172 39.7144 35.6834 39.6901 35.6455 39.6741C35.6076 39.6582 35.5666 39.651 35.5256 39.6531C35.4808 39.6484 35.4356 39.6555 35.3944 39.6738C35.3532 39.6921 35.3174 39.7209 35.2906 39.7574C35.2418 39.8468 35.2197 39.9485 35.2269 40.0502V41.9679H34.6416Z" fill="#CE202F"/>
<path d="M36.923 39.1155V38.2489H37.5243V39.1155H37.8946V39.5648H37.5243V41.1455C37.5163 41.1973 37.5163 41.2501 37.5243 41.3019C37.529 41.32 37.5375 41.3368 37.5492 41.3513C37.5609 41.3659 37.5754 41.3777 37.592 41.3862C37.6269 41.4077 37.6666 41.4201 37.7075 41.4223H37.8747V41.9639H37.6278C37.5104 41.9682 37.3934 41.9463 37.2854 41.8997C37.2005 41.8647 37.1244 41.8113 37.0624 41.7432C37.0104 41.6786 36.9699 41.6053 36.9429 41.5266C36.9197 41.4512 36.9076 41.3728 36.9071 41.2939V39.5608H36.6045V39.1155H36.923Z" fill="#CE202F"/>
<path d="M39.8461 40.7563H38.6515V41.1575C38.6497 41.1959 38.6558 41.2343 38.6695 41.2703C38.6832 41.3062 38.7042 41.3388 38.7311 41.3661C38.791 41.417 38.868 41.4428 38.9462 41.4383C38.9885 41.4442 39.0317 41.4384 39.0709 41.4214C39.1102 41.4045 39.1442 41.377 39.1691 41.342C39.2055 41.2851 39.2287 41.2207 39.2368 41.1535H39.8341C39.8386 41.2657 39.8196 41.3776 39.7785 41.4819C39.7373 41.5863 39.6749 41.6808 39.5952 41.7593C39.5151 41.8404 39.4187 41.9033 39.3125 41.9438C39.1965 41.9922 39.0717 42.0154 38.9462 42.012C38.7798 42.0187 38.6147 41.9798 38.4683 41.8997C38.3419 41.8311 38.2371 41.7283 38.1657 41.6028C38.1189 41.5229 38.0891 41.4341 38.0781 41.342C38.0615 41.2359 38.0535 41.1285 38.0542 41.0211V40.0823C38.0537 39.9749 38.0617 39.8675 38.0781 39.7614C38.0891 39.6705 38.1189 39.583 38.1657 39.5046C38.2377 39.3785 38.3423 39.2745 38.4683 39.2037C38.6153 39.1254 38.7799 39.0867 38.9462 39.0914C39.0728 39.0904 39.1984 39.1135 39.3165 39.1596C39.4223 39.2009 39.5185 39.2638 39.5992 39.3441C39.7582 39.5171 39.8427 39.7464 39.8341 39.982L39.8461 40.7563ZM38.6515 40.307H39.2368V39.982C39.2411 39.9379 39.2362 39.8934 39.2225 39.8513C39.2087 39.8091 39.1865 39.7703 39.1572 39.7373C39.13 39.7089 39.0971 39.6867 39.0607 39.6722C39.0243 39.6577 38.9853 39.6511 38.9462 39.653C38.9064 39.6508 38.8667 39.6572 38.8296 39.6717C38.7925 39.6862 38.7589 39.7086 38.7311 39.7373C38.6735 39.805 38.6449 39.893 38.6515 39.982V40.307Z" fill="#CE202F"/>
<path d="M40.2876 41.9679V39.1155H40.8849V39.3883C40.9462 39.3011 41.0231 39.2262 41.1118 39.1676C41.2126 39.1065 41.3287 39.0759 41.4463 39.0794C41.5221 39.0793 41.5974 39.0914 41.6693 39.1155C41.7439 39.1418 41.8118 39.1843 41.8684 39.2398C41.9313 39.3007 41.9802 39.3746 42.0117 39.4565C42.0495 39.5591 42.0671 39.6681 42.0635 39.7774V41.9679H41.4662V39.9941C41.4691 39.905 41.4425 39.8175 41.3906 39.7453C41.3632 39.7144 41.3294 39.6901 41.2915 39.6741C41.2536 39.6582 41.2126 39.651 41.1716 39.6531C41.1268 39.6484 41.0816 39.6555 41.0404 39.6738C40.9992 39.6921 40.9634 39.7209 40.9366 39.7574C40.8878 39.8468 40.8657 39.9485 40.8729 40.0502V41.9679H40.2876Z" fill="#CE202F"/>
<path d="M43.7 41.9679V41.675C43.6328 41.7669 43.5523 41.8481 43.4611 41.9157C43.3607 41.9775 43.244 42.0069 43.1266 42C43.054 42.0005 42.9817 41.9911 42.9116 41.9719C42.8356 41.9475 42.7652 41.9079 42.7046 41.8556C42.6305 41.7957 42.5741 41.7167 42.5413 41.6269C42.4956 41.4984 42.4753 41.3621 42.4816 41.2257C42.4791 41.0829 42.4924 40.9403 42.5214 40.8004C42.5438 40.687 42.5961 40.5817 42.6727 40.4955C42.7509 40.4111 42.8497 40.3488 42.9594 40.315C43.1113 40.2746 43.2681 40.2557 43.4253 40.2588H43.6244H43.7119V39.962C43.7142 39.876 43.6921 39.7911 43.6482 39.7172C43.6201 39.6828 43.5839 39.656 43.5429 39.6392C43.5018 39.6224 43.4573 39.6161 43.4133 39.621C43.3353 39.6218 43.2597 39.6486 43.1983 39.6972C43.1314 39.7499 43.086 39.8256 43.0709 39.9098H42.4935C42.4952 39.7942 42.5197 39.68 42.5655 39.574C42.6113 39.4679 42.6775 39.3721 42.7603 39.292C42.8411 39.2138 42.9375 39.1536 43.043 39.1155C43.1609 39.0687 43.2867 39.0456 43.4133 39.0473C43.5323 39.047 43.6506 39.066 43.7637 39.1034C43.8693 39.1401 43.9667 39.1974 44.0504 39.2719C44.1324 39.3522 44.1962 39.4494 44.2375 39.5568C44.289 39.684 44.3134 39.8207 44.3092 39.958V41.9639L43.7 41.9679ZM43.7 40.7403C43.6457 40.7356 43.5911 40.7356 43.5368 40.7403C43.4191 40.7358 43.3027 40.7665 43.2023 40.8285C43.1535 40.8642 43.1151 40.9124 43.0913 40.9682C43.0674 41.024 43.059 41.0852 43.0669 41.1455C43.0634 41.2402 43.0914 41.3334 43.1465 41.4102C43.1745 41.444 43.21 41.4707 43.2501 41.4881C43.2903 41.5056 43.3339 41.5132 43.3775 41.5105C43.4212 41.5128 43.465 41.5054 43.5056 41.4888C43.5462 41.4721 43.5827 41.4467 43.6124 41.4143C43.6755 41.3397 43.707 41.2432 43.7 41.1455V40.7403Z" fill="#CE202F"/>
<path d="M44.7354 41.9679V39.1155H45.3366V39.3883C45.3964 39.3012 45.4721 39.2263 45.5596 39.1676C45.6619 39.1066 45.7792 39.076 45.898 39.0794C45.9738 39.0796 46.049 39.0918 46.121 39.1155C46.1951 39.1428 46.2629 39.1851 46.3201 39.2398C46.3817 39.301 46.4292 39.3749 46.4595 39.4565C46.4988 39.5587 46.5177 39.6678 46.5152 39.7774V41.9679H45.9259V39.9941C45.9322 39.9046 45.9053 39.8159 45.8503 39.7453C45.8235 39.7147 45.7903 39.6906 45.7531 39.6746C45.7159 39.6586 45.6756 39.6513 45.6352 39.653C45.5904 39.6479 45.5451 39.6549 45.5038 39.6732C45.4625 39.6915 45.4268 39.7206 45.4003 39.7574C45.3515 39.8468 45.3294 39.9485 45.3366 40.0502V41.9679H44.7354Z" fill="#CE202F"/>
<path d="M47.65 41.1455C47.6482 41.1839 47.6543 41.2223 47.668 41.2582C47.6818 41.2941 47.7028 41.3268 47.7297 41.3541C47.7896 41.4049 47.8665 41.4308 47.9447 41.4263C47.9876 41.4316 48.0311 41.4256 48.071 41.4087C48.1108 41.3918 48.1455 41.3647 48.1717 41.33C48.2069 41.2729 48.2287 41.2084 48.2354 41.1414H48.8366C48.8421 41.313 48.795 41.4821 48.7017 41.6257C48.6083 41.7693 48.4733 41.8804 48.315 41.9438C48.1975 41.9918 48.0715 42.015 47.9447 42.012C47.7784 42.0177 47.6135 41.9789 47.4669 41.8997C47.3413 41.83 47.2368 41.7274 47.1643 41.6028C47.1192 41.5221 47.0895 41.4337 47.0767 41.342C47.0601 41.2359 47.0521 41.1285 47.0528 41.0211V40.0823C47.0522 39.9749 47.0602 39.8675 47.0767 39.7614C47.0894 39.6709 47.1191 39.5838 47.1643 39.5046C47.2362 39.3785 47.3408 39.2745 47.4669 39.2037C47.6142 39.1262 47.7786 39.0876 47.9447 39.0914C48.0713 39.0904 48.197 39.1135 48.315 39.1596C48.4215 39.2018 48.5189 39.2645 48.6017 39.3441C48.7618 39.526 48.846 39.7632 48.8366 40.0061H48.2354C48.2442 39.9139 48.2171 39.8218 48.1597 39.7493C48.1315 39.7212 48.0978 39.6993 48.0609 39.6848C48.0239 39.6703 47.9844 39.6636 47.9447 39.6651C47.905 39.6628 47.8652 39.6692 47.8281 39.6837C47.7911 39.6983 47.7575 39.7206 47.7297 39.7493C47.672 39.8171 47.6434 39.9051 47.65 39.994V41.1455Z" fill="#CE202F"/>
<path d="M50.9154 40.7563H49.7208V41.1575C49.719 41.1959 49.7251 41.2343 49.7388 41.2703C49.7526 41.3062 49.7735 41.3388 49.8005 41.3661C49.8604 41.417 49.9373 41.4428 50.0155 41.4383C50.0578 41.4442 50.101 41.4384 50.1403 41.4214C50.1796 41.4045 50.2135 41.377 50.2385 41.342C50.2749 41.2851 50.298 41.2207 50.3062 41.1535H50.9034C50.9079 41.2657 50.8889 41.3776 50.8478 41.4819C50.8066 41.5863 50.7442 41.6808 50.6645 41.7593C50.5844 41.8404 50.488 41.9033 50.3818 41.9438C50.2658 41.9922 50.141 42.0154 50.0155 42.012C49.8491 42.0187 49.684 41.9798 49.5377 41.8997C49.4113 41.8311 49.3064 41.7283 49.2351 41.6028C49.19 41.5221 49.1603 41.4337 49.1475 41.342C49.1308 41.2359 49.1229 41.1285 49.1236 41.0211V40.0823C49.123 39.9749 49.131 39.8675 49.1475 39.7614C49.1602 39.671 49.1899 39.5838 49.2351 39.5046C49.307 39.3785 49.4116 39.2745 49.5377 39.2037C49.6847 39.1254 49.8493 39.0867 50.0155 39.0914C50.1421 39.0904 50.2677 39.1135 50.3858 39.1596C50.4916 39.2009 50.5878 39.2638 50.6685 39.3441C50.8275 39.5171 50.912 39.7464 50.9034 39.982L50.9154 40.7563ZM49.7208 40.307H50.3062V39.982C50.3104 39.9379 50.3055 39.8934 50.2918 39.8513C50.2781 39.8091 50.2559 39.7703 50.2265 39.7373C50.1993 39.7089 50.1665 39.6867 50.1301 39.6722C50.0937 39.6577 50.0546 39.6511 50.0155 39.653C49.9758 39.6508 49.936 39.6572 49.8989 39.6717C49.8618 39.6862 49.8283 39.7086 49.8005 39.7373C49.7428 39.805 49.7142 39.893 49.7208 39.982V40.307Z" fill="#CE202F"/>
<path d="M52.1378 40.656V38.7624H51.6958V38.4776H52.1378V37.7635H52.4324V38.4776H52.8744V38.7624H52.4324V40.656H52.1378Z" fill="#CE202F"/>
<path d="M3.80664 16.8738V0H6.19572V7.22132H9.15818V0H11.5473V16.8738H9.15818V9.35963H6.20766V16.8738H3.80664Z" fill="#CE202F"/>
<path d="M14.0635 16.8738V0H21.2307V2.27472H16.4605V7.22934H20.6016V9.50406H16.4605V14.4547H21.1989V16.8618L14.0635 16.8738Z" fill="#CE202F"/>
<path d="M21.916 16.8738L25.6549 0H27.6458L31.3887 16.8738H28.9996L28.2949 13.2632H25.0218L24.317 16.8738H21.916ZM27.8449 10.9724L26.6504 4.85834H26.6066L25.412 10.9724H27.8449Z" fill="#CE202F"/>
<path d="M32.8062 16.8738V0H36.6645C39.4836 0 40.8945 1.65154 40.8972 4.95463C40.9194 5.82254 40.7635 6.68572 40.4393 7.49011C40.1082 8.21301 39.5479 8.80439 38.8465 9.17108L41.4347 16.8738H38.8943L36.6605 9.6525H35.2231V16.8738H32.8062ZM35.1952 2.27472V7.53424H36.561C36.9068 7.54993 37.2519 7.4897 37.5724 7.35772C37.8131 7.24814 38.0176 7.07132 38.1617 6.84822C38.2949 6.59854 38.3826 6.32676 38.4205 6.04585C38.4681 5.67337 38.4907 5.29808 38.4882 4.92253C38.4907 4.54565 38.4681 4.16903 38.4205 3.7952C38.381 3.49992 38.285 3.21516 38.1378 2.95673C37.8391 2.51141 37.2737 2.29076 36.4415 2.29076L35.1952 2.27472Z" fill="#CE202F"/>
<path d="M44.214 16.8738V2.27472H41.4268V0H49.3904V2.27472H46.6031V16.8738H44.214Z" fill="#CE202F"/>
<path d="M0 35.914V19.0402H2.38908V26.2615H5.35153V19.0402H7.74061V35.914H5.35153V28.3999H2.39704V35.914H0Z" fill="#CE202F"/>
<path d="M10.2529 35.914V19.0402H17.4003V21.3149H12.65V26.2696H16.791V28.5443H12.65V33.4949H17.4003V35.902L10.2529 35.914Z" fill="#CE202F"/>
<path d="M18.1055 35.914L21.8484 19.0402H23.8393L27.5702 35.914H25.1811L24.4763 32.3034H21.1993L20.4945 35.914H18.1055ZM24.0344 30.0126L22.8398 23.8986H22.792L21.5975 30.0126H24.0344Z" fill="#CE202F"/>
<path d="M28.9956 35.914V19.0402H31.3847V33.4829H36.135V35.89L28.9956 35.914Z" fill="#CE202F"/>
<path d="M37.7672 35.914V21.3149H34.98V19.0402H42.9436V21.3149H40.1563V35.914H37.7672Z" fill="#CE202F"/>
<path d="M44.2339 35.914V19.0402H46.623V26.2615H49.5854V19.0402H51.9745V35.914H49.5854V28.3999H46.623V35.914H44.2339Z" fill="#CE202F"/>
<path d="M53.3163 20.7814V19.3211H52.8345V19.0402H54.0648V19.3211H53.587V20.7814H53.3163ZM55.7253 20.7814V19.3211L55.2116 20.7814H55.0444L54.5307 19.3211V20.7814H54.248V19.0402H54.678L55.12 20.312L55.558 19.0402H55.9881V20.7814H55.7253Z" fill="#CE202F"/>
</g>
<defs>
<clipPath id="clip0_473_12074">
<rect width="56" height="42" fill="white"/>
</clipPath>
</defs>
</svg>
