<svg width="20" height="20" viewBox="0 0 20 20" fill="none" xmlns="http://www.w3.org/2000/svg">
<g clip-path="url(#clip0_463_987)">
<path d="M10.4167 2.5C8.42762 2.5 6.51997 3.29018 5.11345 4.6967C3.70692 6.10322 2.91675 8.01088 2.91675 10H0.416748L3.75008 13.3333L7.08341 10H4.58341C4.58298 8.69204 5.02214 7.42188 5.83036 6.39351C6.63859 5.36514 7.76897 4.63824 9.03998 4.32954C10.311 4.02083 11.6489 4.14825 12.8388 4.69132C14.0287 5.23439 15.0015 6.1616 15.6011 7.32404C16.2007 8.48649 16.3922 9.81671 16.1448 11.1011C15.8975 12.3854 15.2257 13.5494 14.2374 14.4061C13.249 15.2628 12.0014 15.7624 10.6949 15.8248C9.38843 15.8871 8.0989 15.5086 7.03341 14.75L5.83341 15.95C6.77839 16.6751 7.8825 17.1648 9.05434 17.3784C10.2262 17.592 11.432 17.5234 12.5721 17.1783C13.7122 16.8333 14.7536 16.2216 15.6103 15.394C16.467 14.5664 17.1142 13.5466 17.4984 12.4191C17.8826 11.2917 17.9928 10.0889 17.8197 8.91037C17.6467 7.73186 17.1954 6.61152 16.5033 5.64209C15.8112 4.67265 14.8981 3.88201 13.8397 3.33561C12.7812 2.78921 11.6079 2.50277 10.4167 2.5Z" fill="#141414"/>
</g>
<defs>
<clipPath id="clip0_463_987">
<rect width="20" height="20" fill="white"/>
</clipPath>
</defs>
</svg>
