<svg width="20" height="20" viewBox="0 0 20 20" fill="none" xmlns="http://www.w3.org/2000/svg">
<g clip-path="url(#clip0_463_991)">
<path d="M9.16675 15H10.8334V13.3333H9.16675V15ZM10.0001 1.66666C5.40008 1.66666 1.66675 5.39999 1.66675 9.99999C1.66675 14.6 5.40008 18.3333 10.0001 18.3333C14.6001 18.3333 18.3334 14.6 18.3334 9.99999C18.3334 5.39999 14.6001 1.66666 10.0001 1.66666ZM10.0001 16.6667C6.32508 16.6667 3.33341 13.675 3.33341 9.99999C3.33341 6.32499 6.32508 3.33332 10.0001 3.33332C13.6751 3.33332 16.6667 6.32499 16.6667 9.99999C16.6667 13.675 13.6751 16.6667 10.0001 16.6667ZM10.0001 4.99999C8.15841 4.99999 6.66675 6.49166 6.66675 8.33332H8.33341C8.33341 7.41666 9.08341 6.66666 10.0001 6.66666C10.9167 6.66666 11.6667 7.41666 11.6667 8.33332C11.6667 9.99999 9.16675 9.79166 9.16675 12.5H10.8334C10.8334 10.625 13.3334 10.4167 13.3334 8.33332C13.3334 6.49166 11.8417 4.99999 10.0001 4.99999Z" fill="#141414"/>
</g>
<defs>
<clipPath id="clip0_463_991">
<rect width="20" height="20" fill="white"/>
</clipPath>
</defs>
</svg>
