<svg width="20" height="20" viewBox="0 0 20 20" fill="none" xmlns="http://www.w3.org/2000/svg">
<g clip-path="url(#clip0_542_234)">
<path d="M16.6666 6.66668H14.1666V3.33334H2.49992C1.58325 3.33334 0.833252 4.08334 0.833252 5.00001V14.1667H2.49992C2.49992 15.55 3.61659 16.6667 4.99992 16.6667C6.38325 16.6667 7.49992 15.55 7.49992 14.1667H12.4999C12.4999 15.55 13.6166 16.6667 14.9999 16.6667C16.3833 16.6667 17.4999 15.55 17.4999 14.1667H19.1666V10L16.6666 6.66668ZM4.99992 15.4167C4.30825 15.4167 3.74992 14.8583 3.74992 14.1667C3.74992 13.475 4.30825 12.9167 4.99992 12.9167C5.69159 12.9167 6.24992 13.475 6.24992 14.1667C6.24992 14.8583 5.69159 15.4167 4.99992 15.4167ZM16.2499 7.91668L17.8833 10H14.1666V7.91668H16.2499ZM14.9999 15.4167C14.3083 15.4167 13.7499 14.8583 13.7499 14.1667C13.7499 13.475 14.3083 12.9167 14.9999 12.9167C15.6916 12.9167 16.2499 13.475 16.2499 14.1667C16.2499 14.8583 15.6916 15.4167 14.9999 15.4167Z" fill="#141414"/>
</g>
<defs>
<clipPath id="clip0_542_234">
<rect width="20" height="20" fill="white"/>
</clipPath>
</defs>
</svg>
