<svg width="20" height="20" viewBox="0 0 20 20" fill="none" xmlns="http://www.w3.org/2000/svg">
<g clip-path="url(#clip0_463_1108)">
<path d="M9.99992 5.00002C10.9204 5.00002 11.6666 4.25383 11.6666 3.33335C11.6666 2.41288 10.9204 1.66669 9.99992 1.66669C9.07944 1.66669 8.33325 2.41288 8.33325 3.33335C8.33325 4.25383 9.07944 5.00002 9.99992 5.00002Z" fill="#141414"/>
<path d="M13.2416 6.75835C12.9166 6.43335 12.3583 5.83335 11.2749 5.83335C11.0999 5.83335 10.0916 5.83335 9.15825 5.83335C6.86659 5.82502 4.99992 3.95835 4.99992 1.66669H3.33325C3.33325 4.30002 5.09159 6.53335 7.49992 7.25835V18.3334H9.16659V13.3334H10.8333V18.3334H12.4999V8.37502L15.7916 11.6667L16.9666 10.4917L13.2416 6.75835Z" fill="#141414"/>
</g>
<defs>
<clipPath id="clip0_463_1108">
<rect width="20" height="20" fill="white"/>
</clipPath>
</defs>
</svg>
