<svg width="117" height="117" viewBox="0 0 117 117" fill="none" xmlns="http://www.w3.org/2000/svg">
<rect x="0.452381" y="0.452381" width="116.095" height="116.095" rx="58.0476" stroke="#DFDFDF" stroke-width="0.904762"/>
<path d="M20.451 63.274C18.7326 63.274 17.326 62.8609 16.2311 62.0348V66.3307H15.21V54.55H16.2344V55.7892C17.3359 54.963 18.7425 54.55 20.4543 54.55C22.0955 54.55 23.3402 54.8474 24.1884 55.4422C25.1864 56.1516 25.6854 57.3037 25.6854 58.8987C25.6854 60.4937 25.1853 61.6558 24.1851 62.385C23.3391 62.9799 22.0944 63.2773 20.451 63.2773V63.274ZM20.451 55.6206C19.1291 55.6206 18.1576 55.8002 17.5364 56.1593C16.6684 56.6638 16.2344 57.5769 16.2344 58.8987C16.2344 60.2206 16.664 61.1436 17.5231 61.6679C18.151 62.0248 19.1269 62.2033 20.451 62.2033C21.775 62.2033 22.7443 62.0237 23.359 61.6646C24.2402 61.1734 24.6808 60.2547 24.6808 58.9087C24.6808 57.5626 24.2402 56.6439 23.359 56.1527C22.7333 55.7958 21.764 55.6173 20.451 55.6173V55.6206ZM28.2761 59.4506C28.4414 60.605 28.9844 61.3915 29.9053 61.81C30.7221 62.1097 31.5905 62.2433 32.4597 62.2033C32.8783 62.2033 33.2462 62.1901 33.5634 62.1636C33.844 62.1422 34.1231 62.1047 34.3994 62.0513C35.078 61.9203 35.6875 61.5511 36.1178 61.0103L37.0662 61.4829C36.2996 62.6725 34.7651 63.2673 32.463 63.2673C30.8173 63.2673 29.5726 62.9699 28.7288 62.3751C27.7309 61.6702 27.2319 60.5103 27.2319 58.8954C27.2319 57.2806 27.732 56.124 28.7322 55.4257C29.5583 54.8308 30.803 54.5334 32.4663 54.5334C34.1296 54.5334 35.3776 54.8308 36.2103 55.4257C37.2105 56.1461 37.7106 57.3026 37.7106 58.8954V59.1598C37.7106 59.1598 37.7106 59.3382 37.6842 59.4341L28.2761 59.4506ZM32.463 55.6173C31.5936 55.5783 30.7252 55.7131 29.9086 56.0139C28.9877 56.4325 28.4447 57.2189 28.2794 58.3733H36.6564C36.4912 57.2211 35.9482 56.4358 35.0273 56.0172C34.2071 55.7169 33.3356 55.5821 32.463 55.6206V55.6173ZM49.4318 58.8987C49.4318 57.5549 48.9912 56.6362 48.11 56.1428C47.4843 55.7837 46.515 55.6041 45.202 55.6041C43.889 55.6041 42.9241 55.7881 42.3072 56.156C41.426 56.6627 40.9854 57.5769 40.9854 58.8987V63.274H39.961V54.55H40.9854V55.7925C42.1001 54.9663 43.5068 54.5533 45.2053 54.5533C46.8466 54.5533 48.0913 54.8507 48.9394 55.4455C49.9396 56.1549 50.4397 57.3115 50.4397 58.9153V63.2773H49.4285L49.4318 58.8987ZM56.2854 63.274H55.261V55.6206H52.353V54.5533H55.261V51.48H56.2854V54.5533H59.1934V55.6206H56.2854V63.274ZM70.1876 62.0381C69.0861 62.862 67.6795 63.274 65.9677 63.274C64.3199 63.274 63.0752 62.9765 62.2336 62.3817C61.2334 61.6834 60.7333 60.5268 60.7333 58.912C60.7333 57.2971 61.2334 56.1405 62.2336 55.4422C63.0752 54.8474 64.3199 54.55 65.9677 54.55C67.6773 54.55 69.0839 54.963 70.1876 55.7892V54.55H71.2121V63.274H70.1876V62.0381ZM65.9677 55.6173C64.6459 55.6173 63.6766 55.7969 63.0597 56.156C62.1785 56.6494 61.7379 57.5692 61.7379 58.9153C61.7379 60.2613 62.1785 61.18 63.0597 61.6713C63.681 62.0237 64.6503 62.2 65.9677 62.2C67.2852 62.2 68.2567 62.0204 68.8824 61.6613C69.7525 61.1701 70.1876 60.2514 70.1876 58.9054C70.1876 57.5593 69.7525 56.6406 68.8824 56.1494C68.2589 55.7925 67.2874 55.614 65.9677 55.614V55.6173ZM78.6572 59.6654L75.2271 63.274H73.7863L77.9302 58.8987L73.783 54.5367H75.2238L78.6572 58.1486L82.0741 54.5467H83.5149L79.3677 58.8987L83.5182 63.2607H82.0807L78.6572 59.6654ZM88.1644 66.3141L89.6977 63.5053L84.7904 54.55H85.9569L90.2859 62.4379L94.6247 54.5533H95.7945L89.3342 66.3174L88.1644 66.3141ZM97.4931 51.4833H98.5175V63.274H97.4931V51.4833ZM101.508 53.3802C101.351 53.5383 101.144 53.637 100.922 53.6595C100.7 53.6821 100.477 53.6271 100.291 53.5038C100.105 53.3806 99.9675 53.1967 99.9019 52.9835C99.8363 52.7704 99.8465 52.541 99.9309 52.3345C100.015 52.1281 100.169 51.9572 100.365 51.851C100.561 51.7448 100.788 51.7099 101.007 51.7521C101.226 51.7943 101.423 51.9111 101.566 52.0826C101.709 52.2541 101.787 52.4698 101.789 52.6928C101.792 52.82 101.768 52.9464 101.72 53.0641C101.672 53.1818 101.599 53.2883 101.508 53.3769V53.3802ZM100.239 52.1079C100.161 52.1845 100.1 52.2762 100.059 52.3774C100.018 52.4786 99.9987 52.587 100.001 52.6961C99.9999 52.8045 100.02 52.9122 100.061 53.0126C100.102 53.1131 100.162 53.2043 100.239 53.281C100.316 53.3585 100.407 53.4199 100.508 53.4619C100.609 53.5038 100.717 53.5254 100.826 53.5254C100.935 53.5254 101.043 53.5038 101.143 53.4619C101.244 53.4199 101.335 53.3585 101.412 53.281C101.567 53.1239 101.654 52.912 101.654 52.6912C101.654 52.4703 101.567 52.2584 101.412 52.1013C101.335 52.0239 101.244 51.9624 101.143 51.9205C101.043 51.8785 100.935 51.8569 100.826 51.8569C100.717 51.8569 100.609 51.8785 100.508 51.9205C100.407 51.9624 100.316 52.0239 100.239 52.1013V52.1079ZM100.811 52.1608C100.909 52.1574 101.006 52.172 101.098 52.2037C101.15 52.2246 101.194 52.2615 101.224 52.309C101.254 52.3565 101.268 52.4122 101.264 52.4681C101.267 52.509 101.26 52.5501 101.243 52.5873C101.225 52.6244 101.198 52.6563 101.164 52.6796C101.117 52.7073 101.064 52.7253 101.009 52.7325C101.045 52.7355 101.079 52.7459 101.11 52.763C101.142 52.78 101.169 52.8034 101.191 52.8316C101.226 52.8798 101.245 52.9374 101.247 52.9968V53.1554C101.243 53.1751 101.243 53.1953 101.247 53.2149H101.072V53.0761C101.078 53.0307 101.073 52.9845 101.055 52.9421C101.038 52.8997 101.009 52.8627 100.973 52.8349C100.907 52.8077 100.836 52.7963 100.765 52.8019H100.613V53.2182H100.428V52.1608H100.811ZM101.009 52.326C100.939 52.2979 100.863 52.2866 100.788 52.293H100.629V52.673H100.801C100.861 52.6759 100.922 52.6681 100.979 52.6499C101.01 52.6367 101.038 52.6156 101.058 52.5886C101.078 52.5616 101.091 52.5297 101.095 52.4961C101.099 52.4626 101.094 52.4286 101.081 52.3975C101.067 52.3665 101.046 52.3395 101.019 52.3194L101.009 52.326Z" fill="#070606"/>
</svg>
