<svg width="100" height="100" viewBox="0 0 100 100" fill="none" xmlns="http://www.w3.org/2000/svg">
<rect x="0.452381" y="0.452381" width="99.0952" height="99.0952" rx="49.5476" stroke="#DFDFDF" stroke-width="0.904762"/>
<path d="M17.4795 54.0803C16.0108 54.0803 14.8086 53.7273 13.8727 53.0212V56.6929H13V46.6239H13.8756V47.6831C14.817 46.977 16.0193 46.6239 17.4823 46.6239C18.8851 46.6239 19.949 46.8781 20.6739 47.3865C21.5269 47.9928 21.9533 48.9776 21.9533 50.3408C21.9533 51.7041 21.5259 52.6973 20.6711 53.3206C19.948 53.829 18.8842 54.0832 17.4795 54.0832V54.0803ZM17.4795 47.539C16.3497 47.539 15.5194 47.6925 14.9884 47.9994C14.2465 48.4306 13.8756 49.2111 13.8756 50.3408C13.8756 51.4706 14.2427 52.2595 14.9771 52.7077C15.5137 53.0127 16.3479 53.1652 17.4795 53.1652C18.6111 53.1652 19.4396 53.0118 19.965 52.7049C20.7181 52.285 21.0947 51.4998 21.0947 50.3493C21.0947 49.1988 20.7181 48.4137 19.965 47.9938C19.4302 47.6887 18.6017 47.5362 17.4795 47.5362V47.539ZM24.1677 50.8125C24.3089 51.7992 24.773 52.4714 25.5601 52.8291C26.2583 53.0852 27.0005 53.1995 27.7433 53.1652C28.1011 53.1652 28.4156 53.1539 28.6867 53.1313C28.9265 53.113 29.1651 53.0809 29.4013 53.0353C29.9813 52.9233 30.5021 52.6078 30.87 52.1456L31.6806 52.5495C31.0253 53.5663 29.7138 54.0747 27.7462 54.0747C26.3396 54.0747 25.2758 53.8205 24.5546 53.3121C23.7016 52.7096 23.2752 51.7182 23.2752 50.338C23.2752 48.9578 23.7026 47.9693 24.5574 47.3724C25.2635 46.864 26.3274 46.6098 27.749 46.6098C29.1706 46.6098 30.2373 46.864 30.949 47.3724C31.8039 47.9881 32.2313 48.9766 32.2313 50.338V50.564C32.2313 50.564 32.2313 50.7165 32.2087 50.7984L24.1677 50.8125ZM27.7462 47.5362C27.0031 47.5029 26.2609 47.6181 25.5629 47.8751C24.7758 48.2329 24.3117 48.9051 24.1705 49.8918H31.3303C31.1891 48.907 30.725 48.2357 29.9379 47.878C29.2369 47.6213 28.492 47.5061 27.7462 47.539V47.5362ZM42.2494 50.3408C42.2494 49.1922 41.8729 48.4071 41.1197 47.9853C40.5849 47.6784 39.7564 47.5249 38.6342 47.5249C37.512 47.5249 36.6873 47.6821 36.16 47.9966C35.4069 48.4297 35.0303 49.2111 35.0303 50.3408V54.0803H34.1547V46.6239H35.0303V47.6859C35.9831 46.9798 37.1853 46.6267 38.637 46.6267C40.0398 46.6267 41.1037 46.8809 41.8286 47.3893C42.6835 47.9956 43.1109 48.9842 43.1109 50.355V54.0832H42.2466L42.2494 50.3408ZM48.1072 54.0803H47.2317V47.539H44.7462V46.6267H47.2317V44.0001H48.1072V46.6267H50.5927V47.539H48.1072V54.0803ZM59.9895 53.024C59.048 53.7282 57.8458 54.0803 56.3827 54.0803C54.9743 54.0803 53.9104 53.8261 53.1912 53.3177C52.3363 52.7209 51.9089 51.7323 51.9089 50.3521C51.9089 48.9719 52.3363 47.9834 53.1912 47.3865C53.9104 46.8781 54.9743 46.6239 56.3827 46.6239C57.8439 46.6239 59.0461 46.977 59.9895 47.6831V46.6239H60.865V54.0803H59.9895V53.024ZM56.3827 47.5362C55.253 47.5362 54.4245 47.6897 53.8973 47.9966C53.1441 48.4184 52.7675 49.2045 52.7675 50.355C52.7675 51.5054 53.1441 52.2906 53.8973 52.7105C54.4282 53.0118 55.2567 53.1624 56.3827 53.1624C57.5087 53.1624 58.3391 53.0089 58.8738 52.702C59.6176 52.2821 59.9895 51.497 59.9895 50.3465C59.9895 49.196 59.6176 48.4108 58.8738 47.9909C58.341 47.6859 57.5106 47.5334 56.3827 47.5334V47.5362ZM67.2284 50.9961L64.2967 54.0803H63.0652L66.607 50.3408L63.0624 46.6126H64.2939L67.2284 49.6997L70.1488 46.6211H71.3803L67.8357 50.3408L71.3831 54.069H70.1545L67.2284 50.9961ZM75.3542 56.6788L76.6647 54.278L72.4705 46.6239H73.4675L77.1675 53.3658L80.8759 46.6267H81.8757L76.354 56.6816L75.3542 56.6788ZM83.3275 44.0029H84.203V54.0803H83.3275V44.0029ZM86.7591 45.6241C86.6246 45.7592 86.4475 45.8436 86.2578 45.8629C86.0682 45.8822 85.8777 45.8351 85.7188 45.7298C85.5599 45.6244 85.4424 45.4673 85.3863 45.2851C85.3302 45.1029 85.3389 44.9069 85.411 44.7304C85.4832 44.5539 85.6142 44.4079 85.7818 44.3171C85.9495 44.2264 86.1434 44.1965 86.3306 44.2326C86.5178 44.2687 86.6867 44.3685 86.8086 44.5151C86.9305 44.6617 86.9978 44.846 86.9992 45.0366C87.0015 45.1453 86.9814 45.2534 86.9401 45.354C86.8988 45.4546 86.8372 45.5456 86.7591 45.6213V45.6241ZM85.6745 44.5367C85.6081 44.6022 85.5558 44.6806 85.5209 44.767C85.4859 44.8535 85.469 44.9462 85.4712 45.0394C85.47 45.1321 85.4874 45.2241 85.5223 45.3099C85.5573 45.3958 85.609 45.4738 85.6745 45.5394C85.7402 45.6055 85.8183 45.6581 85.9043 45.6939C85.9904 45.7298 86.0826 45.7482 86.1759 45.7482C86.2691 45.7482 86.3614 45.7298 86.4474 45.6939C86.5335 45.6581 86.6116 45.6055 86.6772 45.5394C86.8098 45.4051 86.8842 45.2239 86.8842 45.0352C86.8842 44.8465 86.8098 44.6653 86.6772 44.531C86.6116 44.4649 86.5335 44.4123 86.4474 44.3765C86.3614 44.3406 86.2691 44.3222 86.1759 44.3222C86.0826 44.3222 85.9904 44.3406 85.9043 44.3765C85.8183 44.4123 85.7402 44.4649 85.6745 44.531V44.5367ZM86.1632 44.5819C86.2466 44.579 86.3299 44.5915 86.4089 44.6186C86.4533 44.6364 86.491 44.6679 86.5163 44.7085C86.5417 44.7492 86.5536 44.7968 86.5501 44.8446C86.5533 44.8795 86.5471 44.9147 86.5322 44.9464C86.5173 44.9782 86.4943 45.0054 86.4654 45.0253C86.4246 45.049 86.3794 45.0644 86.3326 45.0705C86.363 45.0731 86.3924 45.082 86.4192 45.0966C86.4459 45.1112 86.4693 45.1311 86.488 45.1552C86.5177 45.1965 86.5345 45.2456 86.536 45.2965V45.432C86.5329 45.4488 86.5329 45.4661 86.536 45.4829H86.3863V45.3642C86.3918 45.3254 86.3868 45.2859 86.3719 45.2496C86.357 45.2134 86.3327 45.1818 86.3016 45.1581C86.2453 45.1348 86.1843 45.1251 86.1236 45.1298H85.9937V45.4857H85.8355V44.5819H86.1632ZM86.3326 44.7231C86.2726 44.6991 86.2078 44.6894 86.1434 44.6949H86.0078V45.0197H86.1547C86.2063 45.0222 86.2579 45.0155 86.3072 44.9999C86.3338 44.9887 86.357 44.9706 86.3743 44.9475C86.3917 44.9244 86.4027 44.8972 86.4061 44.8685C86.4095 44.8398 86.4053 44.8108 86.3939 44.7842C86.3825 44.7577 86.3643 44.7347 86.3411 44.7175L86.3326 44.7231Z" fill="#070606"/>
</svg>
