<svg width="100" height="100" viewBox="0 0 100 100" fill="none" xmlns="http://www.w3.org/2000/svg">
<rect x="0.452381" y="0.452381" width="99.0952" height="99.0952" rx="49.5476" stroke="#DFDFDF" stroke-width="0.904762"/>
<path d="M29.6512 30.9965H33.0698C34.0466 30.9965 34.8063 31.2678 35.2946 31.8104C35.6745 32.1903 35.8915 32.7329 35.8915 33.3841C35.8915 34.6864 34.9691 35.4461 33.721 35.7174L36.1629 38.9732H35.0776L32.7985 35.8802H30.5737V38.9189H29.7055V30.9965H29.6512ZM32.9613 35.0662C34.1551 35.0662 35.0233 34.4693 35.0233 33.4383C35.0233 32.4073 34.2636 31.8647 33.0156 31.8647H30.5737V35.0662H32.9613Z" fill="#00AFAA"/>
<path d="M46.093 35.0118C46.093 32.787 47.7209 30.8878 50.1628 30.8878C52.5504 30.8878 54.1783 32.787 54.1783 34.9576C54.1783 37.1281 52.5504 39.0273 50.1085 39.0273C47.7209 39.0816 46.093 37.1824 46.093 35.0118ZM53.2015 35.0118C53.2015 33.1669 51.8992 31.7018 50.0542 31.7018C48.2093 31.7018 46.9612 33.1669 46.9612 34.9576C46.9612 36.7483 48.2636 38.2134 50.1085 38.2134C51.9535 38.2134 53.2015 36.8025 53.2015 35.0118Z" fill="#00AFAA"/>
<path d="M66.4418 35.7716L63.1317 30.9965H64.217L66.8759 34.9577L69.5891 30.9965H70.6201L67.31 35.7716V38.9189H66.3875V35.7716H66.4418Z" fill="#00AFAA"/>
<path d="M32.5815 45.4846H33.3955L36.9769 53.4613H36.0001L35.1319 51.3993H30.8451L29.9226 53.5156H29.0001L32.5815 45.4846ZM34.8063 50.5854L33.0156 46.5156L31.2249 50.5311H34.8063V50.5854Z" fill="#00AFAA"/>
<path d="M47.7752 45.5389H48.6434V52.6475H53.093V53.4614H47.7209V45.5389H47.7752Z" fill="#00AFAA"/>
<path d="M29.1086 66.8646L29.6513 66.2134C30.4652 66.9731 31.2792 67.353 32.3644 67.353C33.4497 67.353 34.1551 66.8103 34.1551 65.9964C34.1551 65.2367 33.7753 64.8569 32.0931 64.477C30.2482 64.0972 29.4342 63.5003 29.4342 62.1979C29.4342 60.9499 30.5195 60.0274 32.0389 60.0274C33.1784 60.0274 33.9924 60.353 34.8063 61.0041L34.2637 61.7096C33.504 61.1127 32.7986 60.8414 31.9846 60.8414C30.9536 60.8414 30.3024 61.384 30.3024 62.1437C30.3024 62.9034 30.7365 63.2832 32.473 63.6631C34.2637 64.0429 35.0776 64.6941 35.0776 65.8879C35.0776 67.2444 33.9381 68.1127 32.3644 68.1127C31.1164 68.1127 30.0854 67.6786 29.1086 66.8646Z" fill="#00AFAA"/>
<path d="M46.6357 60.0815H49.6202C51.4109 60.0815 52.6047 61.0582 52.6047 62.5776C52.6047 64.2598 51.1939 65.1822 49.5117 65.1822H47.6125V67.9497H46.7443V60.0815H46.6357ZM49.4574 64.4226C50.7598 64.4226 51.628 63.7171 51.628 62.6861C51.628 61.5466 50.7598 60.9497 49.5117 60.9497H47.504V64.4226H49.4574Z" fill="#00AFAA"/>
<path d="M66.062 60.0274H66.8759L70.4573 68.0041H69.5348L68.6124 65.8879H64.3255L63.4031 68.0041H62.4806L66.062 60.0274ZM68.2868 65.1282L66.4961 61.1127L64.7054 65.1282H68.2868Z" fill="#00AFAA"/>
<path d="M66.7675 50.8568L64.814 44.9963L62.8605 50.8568L58.5737 44.9963L60.9071 53.5157H68.6667L71.0001 44.9963L66.7675 50.8568Z" fill="#00AFAA"/>
</svg>
