<svg width="117" height="117" viewBox="0 0 117 117" fill="none" xmlns="http://www.w3.org/2000/svg">
<rect x="0.452381" y="0.452381" width="116.095" height="116.095" rx="58.0476" stroke="#DFDFDF" stroke-width="0.904762"/>
<path d="M92.631 43.2634H20.6865V68.9055C20.6865 69.9717 21.1101 70.9942 21.864 71.7481C22.6179 72.502 23.6404 72.9256 24.7066 72.9256H92.631C93.6972 72.9256 94.7197 72.502 95.4736 71.7481C96.2275 70.9942 96.651 69.9717 96.651 68.9055V47.2863C96.6514 46.7581 96.5477 46.2351 96.3458 45.747C96.144 45.2589 95.8479 44.8154 95.4746 44.4418C95.1013 44.0682 94.658 43.7719 94.1701 43.5696C93.6821 43.3674 93.1591 43.2634 92.631 43.2634Z" fill="white"/>
<path d="M43.497 62.1805C43.497 63.2467 43.0735 64.2692 42.3196 65.0231C41.5657 65.777 40.5432 66.2005 39.477 66.2005H24.7119C23.6458 66.2005 22.6232 65.777 21.8693 65.0231C21.1154 64.2692 20.6919 63.2467 20.6919 62.1805V43.3896H39.4713C40.5374 43.3896 41.5599 43.8132 42.3139 44.5671C43.0678 45.321 43.4913 46.3435 43.4913 47.4097L43.497 62.1805Z" fill="#F7323F"/>
<path d="M26.2711 50.4079L32.1605 44.5071L38.1532 50.4998C38.9481 51.2706 39.5795 52.1937 40.0097 53.214C40.4399 54.2343 40.6601 55.3308 40.6571 56.438C40.6909 57.5403 40.4943 58.6375 40.08 59.6594C39.6657 60.6814 39.0427 61.6058 38.2508 62.3733C37.4803 63.1661 36.5538 63.7906 35.5297 64.2072C34.5057 64.6239 33.4063 64.8237 32.3012 64.794C31.1938 64.8035 30.0959 64.5886 29.0738 64.1622C28.0517 63.7358 27.1266 63.1068 26.3544 62.313C25.558 61.539 24.9264 60.6119 24.4976 59.5874C24.0688 58.563 23.8516 57.4624 23.8591 56.3519C23.8282 55.2482 24.0266 54.1501 24.4418 53.127C24.857 52.1039 25.4799 51.178 26.2711 50.4079ZM32.3299 49.3627L28.7808 52.9061C28.3079 53.3654 27.9314 53.9142 27.673 54.5206C27.4147 55.1271 27.2798 55.7789 27.2761 56.438C27.2632 57.0923 27.3826 57.7424 27.6272 58.3494C27.8717 58.9563 28.2363 59.5077 28.6992 59.9702C29.1621 60.4328 29.7136 60.7971 30.3207 61.0413C30.9278 61.2855 31.578 61.4045 32.2323 61.3913C32.8935 61.3888 33.5477 61.2541 34.1562 60.9953C34.7647 60.7364 35.3153 60.3585 35.7756 59.8838C36.2469 59.4278 36.6215 58.8817 36.8771 58.2778C37.1326 57.6739 37.2639 57.0248 37.2631 56.3691C37.2815 55.7152 37.1634 55.0646 36.9162 54.4589C36.6689 53.8532 36.2981 53.3058 35.8273 52.8515L32.3299 49.3627Z" fill="white"/>
<path d="M39.4716 43.3896H20.6865V62.1805C20.6865 63.2467 21.1101 64.2692 21.864 65.0231C22.6179 65.777 23.6404 66.2005 24.7066 66.2005H39.4716C40.5378 66.2005 41.5603 65.777 42.3142 65.0231C43.0681 64.2692 43.4917 63.2467 43.4917 62.1805V47.4126C43.492 46.8844 43.3883 46.3613 43.1865 45.8733C42.9846 45.3852 42.6886 44.9417 42.3152 44.5681C41.9419 44.1945 41.4986 43.8981 41.0107 43.6959C40.5228 43.4937 39.9998 43.3896 39.4716 43.3896ZM38.2426 62.3671C37.4721 63.16 36.5456 63.7844 35.5215 64.2011C34.4975 64.6177 33.3981 64.8175 32.293 64.7878C31.1856 64.7974 30.0877 64.5825 29.0656 64.1561C28.0435 63.7297 27.1184 63.1006 26.3462 62.3068C25.5521 61.5327 24.9225 60.6062 24.4952 59.5829C24.0679 58.5595 23.8516 57.4604 23.8595 56.3514C23.8286 55.2477 24.027 54.1496 24.4422 53.1265C24.8574 52.1034 25.4803 51.1776 26.2715 50.4075L32.1609 44.5066L38.1536 50.4994C38.9485 51.2702 39.5799 52.1933 40.0101 53.2136C40.4403 54.2338 40.6605 55.3303 40.6575 56.4376C40.6894 57.5395 40.4911 58.636 40.0753 59.657C39.6595 60.6779 39.0353 61.601 38.2426 62.3671ZM35.8134 52.854C36.2842 53.3082 36.655 53.8557 36.9022 54.4613C37.1494 55.067 37.2676 55.7176 37.2491 56.3715C37.2514 57.0257 37.1222 57.6737 36.8692 58.277C36.6161 58.8803 36.2444 59.4265 35.7761 59.8833C35.3171 60.3558 34.7687 60.7322 34.1628 60.9905C33.5569 61.2488 32.9057 61.3839 32.247 61.388C31.5918 61.4032 30.9403 61.2857 30.3317 61.0426C29.7231 60.7994 29.17 60.4357 28.7056 59.9732C28.2413 59.5107 27.8753 58.9591 27.6297 58.3515C27.3841 57.7438 27.264 57.0928 27.2765 56.4376C27.2802 55.7784 27.4151 55.1266 27.6734 54.5202C27.9318 53.9138 28.3084 53.3649 28.7812 52.9057L32.3303 49.3623L35.8134 52.854Z" fill="#EF4135"/>
<path d="M92.6307 42.9421H20.2412V68.9058C20.242 70.0916 20.7132 71.2286 21.5514 72.0674C22.3896 72.9061 23.5263 73.378 24.7121 73.3796H92.6307C93.2186 73.3799 93.8008 73.2645 94.3441 73.0399C94.8874 72.8153 95.3811 72.4858 95.797 72.0704C96.213 71.655 96.543 71.1617 96.7684 70.6187C96.9937 70.0758 97.1098 69.4937 97.1102 68.9058V47.4129C97.1087 46.2262 96.636 45.0886 95.796 44.2502C94.956 43.4118 93.8175 42.9413 92.6307 42.9421ZM21.1314 43.838H39.4714C40.4196 43.8387 41.3287 44.2155 41.9994 44.8857C42.6702 45.5559 43.0477 46.4648 43.0492 47.4129V62.1809C43.0462 63.128 42.668 64.0354 41.9974 64.7044C41.3269 65.3733 40.4186 65.7493 39.4714 65.7501H24.7121C23.7644 65.7501 22.8554 65.3744 22.1842 64.7054C21.513 64.0364 21.1344 63.1285 21.1314 62.1809V43.838ZM96.2143 68.9058C96.214 69.3761 96.121 69.8416 95.9407 70.2759C95.7604 70.7102 95.4963 71.1047 95.1635 71.4369C94.8308 71.7692 94.4358 72.0326 94.0012 72.2122C93.5667 72.3918 93.101 72.484 92.6307 72.4837H24.7121C23.7629 72.4837 22.8526 72.1068 22.1811 71.4359C21.5097 70.765 21.1321 69.855 21.1314 68.9058V64.8427C21.5464 65.4007 22.0859 65.854 22.7071 66.1666C23.3282 66.4792 24.0138 66.6423 24.7092 66.6431H92.6307C93.3262 66.6426 94.0118 66.4795 94.633 66.1669C95.2542 65.8543 95.7937 65.4008 96.2086 64.8427L96.2143 68.9058ZM96.2143 62.1723C96.214 62.6425 96.121 63.108 95.9407 63.5423C95.7604 63.9766 95.4963 64.3711 95.1635 64.7034C94.8308 65.0356 94.4358 65.299 94.0012 65.4786C93.5667 65.6582 93.101 65.7505 92.6307 65.7501H42.1418C42.6988 65.3361 43.1516 64.798 43.4641 64.1784C43.7766 63.5588 43.9404 62.8748 43.9422 62.1809V47.4129C43.9413 46.718 43.778 46.0329 43.4654 45.4123C43.1528 44.7916 42.6996 44.2525 42.1418 43.838H92.6307C93.5794 43.8387 94.489 44.2159 95.1598 44.8867C95.8306 45.5575 96.2078 46.4671 96.2086 47.4158V62.1809L96.2143 62.1723Z" fill="#231F20"/>
<path d="M52.611 53.0582L51.9994 51.4157H48.9614L48.3871 53.0582H47.1064L49.8458 46.3878H51.2011L53.9779 53.064L52.611 53.0582ZM50.4661 47.4129L49.3433 50.3935H51.6175L50.4661 47.4129ZM56.5105 53.0582C55.9287 53.0796 55.3598 52.8841 54.9139 52.5098C54.6746 52.289 54.4871 52.0179 54.365 51.716C54.2429 51.4142 54.1891 51.089 54.2076 50.7639C54.2076 49.7474 54.4402 49.0678 54.9053 48.7252C55.3705 48.3825 56.3277 48.2112 57.7768 48.2112V46.3878H58.8995V53.0582H56.5105ZM57.7825 49.1214H57.4006C56.6215 49.1214 56.0979 49.2239 55.8299 49.4287C55.5332 49.6508 55.3849 50.1054 55.3849 50.7926C55.3849 51.3995 55.5648 51.79 55.9247 51.9642C56.2157 52.1059 56.835 52.1767 57.7825 52.1767V49.1214ZM62.9483 53.0582H61.705L59.6949 48.1767H60.921L62.3568 51.9556L63.8528 48.1767H65.0416L62.9483 53.0582ZM67.0746 53.0582C66.8836 53.0685 66.6926 53.0405 66.5126 52.9759C66.3326 52.9113 66.1673 52.8114 66.0265 52.6821C65.8943 52.545 65.7917 52.3823 65.725 52.204C65.6584 52.0257 65.629 51.8356 65.6389 51.6455C65.6389 51.0712 65.8188 50.6653 66.1787 50.428C66.5885 50.2201 67.0469 50.1268 67.5053 50.158H69.3057C69.3234 49.9974 69.3069 49.8348 69.2575 49.6809C69.208 49.527 69.1266 49.3853 69.0186 49.265C68.7245 49.074 68.374 48.9889 68.025 49.0238H65.9547V48.1624H68.5103C69.791 48.1624 70.4323 48.7625 70.4342 49.9628V53.0582H67.0746ZM69.3 50.9822H67.6833C67.109 50.9822 66.8219 51.1899 66.8219 51.6053C66.8075 51.7041 66.8208 51.8051 66.8603 51.8968C66.8999 51.9886 66.9641 52.0676 67.0459 52.125C67.2176 52.2132 67.4105 52.252 67.6029 52.237H69.3258L69.3 50.9822ZM74.928 53.0582V50.1035C74.9585 49.8303 74.9033 49.5543 74.7701 49.3138C74.6607 49.228 74.5353 49.1649 74.4011 49.1284C74.267 49.0919 74.1268 49.0827 73.9891 49.1013H72.8548V53.0582H71.7579V48.1767H74.0896C74.7959 48.1767 75.2994 48.3098 75.6 48.5759C75.9005 48.842 76.0508 49.2966 76.0508 49.9398V53.0697L74.928 53.0582ZM79.5339 53.0582C78.7107 53.0582 78.0857 52.8381 77.6588 52.3978C77.4438 52.1576 77.279 51.8769 77.174 51.5722C77.0689 51.2675 77.0258 50.9448 77.0472 50.6232C77.0472 48.9827 77.877 48.1624 79.5367 48.1624H81.1792V49.0812H79.9158C79.5076 49.0501 79.0988 49.1337 78.7356 49.3225C78.3948 49.5522 78.2245 49.9858 78.2245 50.6232C78.2014 50.9921 78.3025 51.358 78.5116 51.6627C78.7777 51.99 79.2486 52.1537 79.9244 52.1537H81.1878V53.0553L79.5339 53.0582ZM84.3034 53.0582C82.7183 53.0582 81.9258 52.2408 81.9258 50.606C81.8922 49.9997 82.0731 49.4009 82.4369 48.9147C82.8389 48.4132 83.4611 48.1624 84.3034 48.1624H86.0951V49.0238H84.4785C84.1607 48.9966 83.8417 49.0614 83.5596 49.2105C83.3299 49.377 83.1998 49.6986 83.1691 50.1753H86.0951V51.0568H83.1749C83.2055 51.522 83.3012 51.8264 83.462 51.9699C83.6228 52.1135 83.9569 52.1863 84.4642 52.1882H86.0894V53.0496L84.3034 53.0582ZM89.0815 53.0582C88.4997 53.0796 87.9308 52.8841 87.4849 52.5098C87.2456 52.289 87.0581 52.0179 86.936 51.716C86.8139 51.4142 86.7601 51.089 86.7785 50.7639C86.7785 49.7474 87.0111 49.0678 87.4763 48.7252C87.9415 48.3825 88.8986 48.2112 90.3478 48.2112V46.3878H91.482V53.0582H89.0815ZM90.3535 49.1214H89.9716C89.1925 49.1214 88.6689 49.2239 88.4009 49.4287C88.1042 49.6508 87.9559 50.1054 87.9559 50.7926C87.9559 51.3995 88.1358 51.79 88.4957 51.9642C88.7867 52.1059 89.4059 52.1767 90.3535 52.1767V49.1214ZM47.8645 55.8407H49.1337V61.2964H50.9944V62.5082H47.8645V55.8407ZM58.6153 60.4034H54.6383C54.6819 60.7303 54.8457 61.0292 55.0977 61.2419C55.3679 61.4564 55.7063 61.5665 56.051 61.552C56.272 61.555 56.4914 61.5136 56.6961 61.4302C56.9008 61.3469 57.0867 61.2233 57.2427 61.0667L58.285 61.5577C58.0491 61.9059 57.7278 62.1877 57.3518 62.3761C56.9469 62.5616 56.5049 62.6519 56.0597 62.6403C55.7104 62.6516 55.3626 62.5912 55.0376 62.4628C54.7126 62.3344 54.4174 62.1407 54.1702 61.8937C53.9301 61.6537 53.7415 61.3671 53.6161 61.0516C53.4907 60.7361 53.4311 60.3982 53.4409 60.0588C53.4305 59.7136 53.4895 59.3698 53.6143 59.0478C53.7391 58.7257 53.9271 58.4319 54.1674 58.1838C54.4032 57.9392 54.6873 57.7465 55.0018 57.618C55.3162 57.4894 55.654 57.4279 55.9936 57.4372C56.344 57.4239 56.6933 57.4833 57.0195 57.6118C57.3457 57.7403 57.6417 57.9351 57.8888 58.1838C58.1386 58.4484 58.3323 58.7609 58.4581 59.1024C58.584 59.4439 58.6394 59.8073 58.621 60.1708L58.6153 60.4034ZM57.3777 59.4271C57.2985 59.1546 57.1282 58.9174 56.8953 58.7552C56.6505 58.5819 56.3567 58.4913 56.0568 58.4968C55.731 58.4901 55.4121 58.591 55.1494 58.7839C54.948 58.9569 54.7922 59.1768 54.6957 59.4243L57.3777 59.4271ZM60.9469 57.5865H62.1931L63.4393 60.4982L64.697 57.5865H65.9518L63.8528 62.5197H63.0545L60.9469 57.5865ZM73.4751 60.4034H69.4981C69.5414 60.7304 69.7053 61.0294 69.9575 61.2419C70.2277 61.4564 70.5661 61.5665 70.9109 61.552C71.1319 61.555 71.3512 61.5136 71.5559 61.4302C71.7606 61.3469 71.9465 61.2233 72.1025 61.0667L73.1449 61.5577C72.909 61.906 72.5877 62.1878 72.2116 62.3761C71.8067 62.5617 71.3647 62.652 70.9195 62.6403C70.5707 62.6512 70.2234 62.5906 69.8989 62.4622C69.5745 62.3338 69.2798 62.1404 69.0329 61.8937C68.7929 61.6536 68.6044 61.367 68.479 61.0515C68.3536 60.736 68.2939 60.3982 68.3036 60.0588C68.2932 59.7136 68.3522 59.3698 68.477 59.0478C68.6017 58.7257 68.7898 58.4319 69.03 58.1838C69.2658 57.9392 69.55 57.7465 69.8645 57.618C70.1789 57.4894 70.5167 57.4279 70.8563 57.4372C71.2066 57.4239 71.5559 57.4833 71.8821 57.6118C72.2083 57.7403 72.5044 57.9351 72.7515 58.1838C73.0008 58.4487 73.1939 58.7613 73.3193 59.1027C73.4446 59.4442 73.4996 59.8075 73.4808 60.1708L73.4751 60.4034ZM72.2432 59.4271C72.1642 59.1544 71.9939 58.9172 71.7608 58.7552C71.5161 58.5817 71.2223 58.4911 70.9223 58.4968C70.5965 58.4901 70.2776 58.591 70.015 58.7839C69.8134 58.9569 69.6576 59.1768 69.5613 59.4243L72.2432 59.4271ZM76.2001 55.6741H77.4377V62.5111H76.2001V55.6741ZM85.3457 60.1708C85.3502 60.7629 85.1259 61.3338 84.7197 61.7645C84.3024 62.1474 83.6525 62.3388 82.77 62.3388H81.0471V61.6066H82.77C83.3137 61.6066 83.7013 61.4793 83.9329 61.2247C84.173 60.9259 84.3037 60.5541 84.3034 60.1708H82.4513C81.998 60.2094 81.5455 60.0896 81.1706 59.832C80.9064 59.608 80.781 59.2338 80.7944 58.7093C80.7908 58.5227 80.8288 58.3378 80.9058 58.1679C80.9828 57.998 81.0968 57.8474 81.2395 57.7272C81.5975 57.4248 82.1478 57.2735 82.8906 57.2735C83.6735 57.2735 84.2555 57.4362 84.6364 57.7617C85.1284 58.1847 85.3744 58.8318 85.3744 59.7028C85.3658 59.8004 85.3572 59.9526 85.3457 60.1708ZM84.1626 58.6662C84.0095 58.2336 83.5711 58.0182 82.8475 58.0201C82.1239 58.022 81.7755 58.2728 81.8023 58.7724C81.7972 58.8679 81.8139 58.9634 81.8512 59.0514C81.8886 59.1395 81.9455 59.2179 82.0177 59.2807C82.1554 59.392 82.3289 59.4491 82.5058 59.4415H84.3034C84.2952 59.1737 84.2478 58.9087 84.1626 58.6547V58.6662ZM88.3234 62.4134C87.4198 62.4134 86.7699 62.1627 86.3737 61.6611C86.0502 61.2534 85.8884 60.6475 85.8884 59.8435C85.8884 59.0395 86.0435 58.4365 86.3536 58.0345C86.7364 57.5291 87.393 57.2764 88.3234 57.2764C89.1676 57.2764 89.785 57.4851 90.1755 57.9024C90.566 58.3197 90.7574 58.9667 90.7498 59.8435C90.7857 60.4457 90.6428 61.0451 90.3392 61.5664C89.9697 62.1311 89.2978 62.4134 88.3234 62.4134ZM88.3234 57.9856C87.3452 57.9856 86.8561 58.6078 86.8561 59.8521C86.8561 61.0964 87.3452 61.7128 88.3234 61.7013C89.294 61.7013 89.7792 61.082 89.7792 59.8435C89.7792 58.6049 89.294 57.9856 88.3234 57.9856Z" fill="#231F20"/>
<path d="M26.9607 70.8526H25.2378V67.6366H26.8487C27.1136 67.6194 27.379 67.6636 27.624 67.7658C27.7489 67.8397 27.8498 67.9481 27.9145 68.078C27.9792 68.2079 28.005 68.3538 27.9887 68.498C27.9763 68.6602 27.9193 68.8157 27.824 68.9475C27.7288 69.0792 27.5989 69.1821 27.4488 69.2446C27.5966 69.311 27.7279 69.409 27.8336 69.5318C27.9413 69.6578 27.9977 69.8198 27.9915 69.9855C28.0064 70.1182 27.9879 70.2526 27.9377 70.3764C27.8876 70.5003 27.8074 70.6096 27.7044 70.6947C27.4777 70.8201 27.2188 70.8751 26.9607 70.8526ZM26.8544 68.1305H25.8207V68.9919H26.8516C27.1808 68.9919 27.3454 68.8512 27.3454 68.5698C27.3454 68.2884 27.1808 68.141 26.8516 68.1276L26.8544 68.1305ZM26.8544 69.4858H25.8207V70.3473H26.8745C27.2038 70.3473 27.3684 70.2018 27.3684 69.9108C27.3684 69.6198 27.2038 69.4772 26.8745 69.4829L26.8544 69.4858ZM29.0051 70.8526V67.6366H29.5622V70.8526H29.0051ZM31.69 70.9014C31.5088 70.9143 31.3272 70.8832 31.1607 70.8107C30.9942 70.7382 30.8477 70.6265 30.7338 70.4851C30.5583 70.2491 30.4682 69.9606 30.4782 69.6667C30.4715 69.3629 30.5733 69.0667 30.7654 68.8311C30.8805 68.6986 31.0245 68.5942 31.1863 68.526C31.348 68.4578 31.5233 68.4276 31.6986 68.4377C32.0013 68.4266 32.2973 68.529 32.5284 68.7249C32.657 68.8442 32.7575 68.9906 32.8226 69.1534C32.8876 69.3163 32.9156 69.4917 32.9046 69.6667C32.9146 69.9829 32.8037 70.2909 32.5945 70.5282C32.4805 70.6531 32.3403 70.7514 32.184 70.8159C32.0276 70.8805 31.8589 70.9097 31.69 70.9014ZM31.69 68.8914C31.6008 68.8888 31.5121 68.9062 31.4306 68.9425C31.3491 68.9788 31.2768 69.033 31.219 69.101C31.0906 69.2641 31.0253 69.468 31.0353 69.6753C31.0237 69.8819 31.0869 70.0858 31.2133 70.2496C31.2683 70.3192 31.3386 70.3752 31.4188 70.413C31.499 70.4509 31.5869 70.4697 31.6756 70.4679C31.8304 70.4716 31.9809 70.4173 32.0977 70.3157C32.1807 70.2322 32.2445 70.1317 32.2846 70.0212C32.3248 69.9106 32.3404 69.7926 32.3303 69.6753C32.3474 69.4583 32.2818 69.2429 32.1465 69.0723C32.0894 69.0096 32.0191 68.9604 31.9406 68.9281C31.8622 68.8959 31.7776 68.8814 31.6928 68.8857L31.69 68.8914ZM34.8715 70.9014C34.6904 70.9143 34.5088 70.8832 34.3423 70.8107C34.1758 70.7382 34.0293 70.6265 33.9153 70.4851C33.7399 70.2491 33.6498 69.9606 33.6598 69.6667C33.6528 69.3629 33.7547 69.0665 33.9469 68.8311C34.0621 68.6986 34.2061 68.5942 34.3678 68.526C34.5296 68.4578 34.7049 68.4276 34.8802 68.4377C35.1829 68.4266 35.4789 68.529 35.71 68.7249C35.8382 68.8439 35.9385 68.9898 36.0035 69.1521C36.0685 69.3145 36.0968 69.4893 36.0862 69.6638C36.0961 69.98 35.9852 70.288 35.7761 70.5253C35.6623 70.6508 35.5223 70.7496 35.3659 70.8146C35.2095 70.8797 35.0407 70.9093 34.8715 70.9014ZM34.8715 68.8914C34.7823 68.8888 34.6937 68.9062 34.6122 68.9425C34.5307 68.9788 34.4584 69.033 34.4006 69.101C34.2722 69.2641 34.2069 69.468 34.2169 69.6753C34.2053 69.8819 34.2685 70.0858 34.3949 70.2496C34.4499 70.3192 34.5202 70.3752 34.6004 70.413C34.6806 70.4509 34.7685 70.4697 34.8572 70.4679C35.012 70.4716 35.1625 70.4173 35.2793 70.3157C35.3611 70.2332 35.4242 70.1341 35.4643 70.0251C35.5045 69.9161 35.5207 69.7998 35.5119 69.6839C35.5312 69.4641 35.4655 69.2451 35.3281 69.0723C35.271 69.0096 35.2006 68.9604 35.1222 68.9281C35.0437 68.8959 34.9591 68.8814 34.8744 68.8857L34.8715 68.8914ZM37.9498 70.8526C37.6684 70.8638 37.393 70.7696 37.1773 70.5885C37.0614 70.4819 36.9705 70.3508 36.9114 70.2048C36.8523 70.0588 36.8264 69.9015 36.8356 69.7442C36.8356 69.2542 36.9476 68.9259 37.1716 68.7593C37.3956 68.5928 37.8607 68.5095 38.5614 68.5095V67.6366H39.1069V70.8526H37.9498ZM38.5642 68.9517H38.3805C38.1186 68.9262 37.855 68.9781 37.6224 69.101C37.5389 69.1877 37.4761 69.2921 37.4388 69.4065C37.4015 69.5209 37.3906 69.6423 37.407 69.7615C37.407 70.0544 37.4941 70.2458 37.6683 70.3358C37.9589 70.4258 38.2637 70.4609 38.5671 70.4391L38.5642 68.9517ZM43.9741 70.8526H42.2167V70.3501H43.8678C44.0309 70.3668 44.1942 70.3206 44.3244 70.2209C44.4045 70.1226 44.4426 69.9968 44.4306 69.8706C44.4306 69.6256 44.2574 69.503 43.9109 69.503H43.1126C42.4158 69.503 42.0722 69.1968 42.0818 68.5842C42.0723 68.4574 42.0885 68.3299 42.1295 68.2096C42.1704 68.0892 42.2353 67.9783 42.3201 67.8835C42.4397 67.7862 42.5774 67.7135 42.7253 67.6697C42.8731 67.6258 43.0282 67.6116 43.1816 67.628H44.9044V68.1305H43.2763C42.8934 68.1305 42.702 68.2903 42.702 68.61C42.702 68.8819 42.8609 69.0178 43.1787 69.0178H44.0717C44.3539 68.9889 44.6364 69.069 44.8614 69.2417C44.939 69.3324 44.9969 69.4381 45.0315 69.5523C45.0661 69.6665 45.0766 69.7866 45.0624 69.9051C45.0792 70.1583 44.9957 70.4079 44.8298 70.5999C44.5882 70.7921 44.2813 70.8827 43.9741 70.8526ZM46.9748 70.8526C46.7166 70.877 46.4589 70.802 46.254 70.643C46.1765 70.5566 46.1176 70.4552 46.081 70.345C46.0445 70.2348 46.031 70.1183 46.0415 70.0027V68.498H46.5699V69.9596C46.5601 70.0707 46.5852 70.1821 46.6417 70.2783C46.6884 70.3304 46.747 70.3704 46.8125 70.3949C46.878 70.4194 46.9484 70.4277 47.0178 70.419H47.549V68.498H48.0831V70.8526H46.9748ZM50.4722 71.6997H49.292V71.2948H50.3602C50.6416 71.2948 50.7823 71.1388 50.7823 70.8268H50.231C49.4346 70.8268 49.0365 70.4382 49.0365 69.661C49.021 69.3686 49.1106 69.0804 49.2891 68.8484C49.4093 68.7224 49.5566 68.6254 49.7197 68.5647C49.8829 68.504 50.0577 68.4812 50.231 68.498H51.325V70.7952C51.3496 71.0561 51.2702 71.3162 51.1039 71.5188C50.9248 71.6588 50.6983 71.7237 50.4722 71.6997ZM50.7823 68.9259C50.6733 68.899 50.5615 68.8855 50.4492 68.8857C50.2435 68.8774 50.041 68.9392 49.8749 69.0608C49.7832 69.1347 49.7107 69.2298 49.6637 69.3378C49.6167 69.4458 49.5966 69.5636 49.605 69.6811C49.5956 69.7868 49.6101 69.8933 49.6474 69.9927C49.6847 70.0921 49.7438 70.1819 49.8204 70.2554C49.9968 70.3714 50.2071 70.425 50.4176 70.4076H50.7852L50.7823 68.9259ZM52.956 70.8526C52.8635 70.858 52.7708 70.8448 52.6835 70.8137C52.5962 70.7827 52.516 70.7344 52.4478 70.6717C52.3847 70.6054 52.3359 70.5268 52.3043 70.4409C52.2727 70.355 52.259 70.2635 52.264 70.1721C52.2545 70.062 52.2736 69.9513 52.3194 69.8507C52.3652 69.7501 52.4361 69.663 52.5253 69.5978C52.7242 69.4977 52.9464 69.453 53.1685 69.4686H54.0299C54.0389 69.3913 54.0315 69.3131 54.0083 69.2389C53.985 69.1647 53.9464 69.0962 53.895 69.0379C53.7528 68.9464 53.5837 68.9059 53.4154 68.923H52.4305V68.498H53.6653C54.2836 68.498 54.5937 68.7852 54.5956 69.3595V70.8526H52.956ZM54.0385 69.8534H53.2575C52.978 69.8534 52.8373 69.9491 52.8354 70.1405C52.8283 70.1886 52.8347 70.2377 52.854 70.2824C52.8733 70.327 52.9046 70.3654 52.9445 70.3932C53.0278 70.4359 53.1212 70.4548 53.2144 70.4478H54.0414L54.0385 69.8534ZM56.7865 69.4198V69.2705C56.7865 69.0723 56.7578 68.9575 56.7033 68.9173C56.5422 68.8652 56.3721 68.8466 56.2036 68.8627V70.8526H55.6753V68.498H56.6803C56.9521 68.498 57.1244 68.5516 57.1972 68.6588C57.2815 68.8711 57.314 69.1005 57.2919 69.3279V69.4313L56.7865 69.4198ZM63.276 70.8526L63.3335 68.007L62.4318 70.8526H61.7714L60.8382 67.9812L60.9186 70.8526H60.3127V67.6366H61.2373L62.0987 70.2783L62.9602 67.6366H63.8762V70.8526H63.276ZM65.5789 70.8526C65.4864 70.858 65.3938 70.8448 65.3065 70.8137C65.2192 70.7827 65.139 70.7344 65.0707 70.6717C65.0076 70.6054 64.9588 70.5268 64.9272 70.4409C64.8956 70.355 64.8819 70.2635 64.8869 70.1721C64.8775 70.062 64.8966 69.9513 64.9423 69.8507C64.9881 69.7501 65.059 69.663 65.1482 69.5978C65.3471 69.4975 65.5693 69.4529 65.7914 69.4686H66.6529C66.6619 69.3913 66.6545 69.3131 66.6312 69.2389C66.608 69.1647 66.5694 69.0962 66.5179 69.0379C66.3757 68.9464 66.2066 68.9059 66.0384 68.923H65.0362V68.498H66.271C66.8893 68.498 67.1984 68.7852 67.1984 69.3595V70.8526H65.5789ZM66.6615 69.8534H65.8804C65.601 69.8534 65.4603 69.9491 65.4583 70.1405C65.4509 70.1883 65.4569 70.2373 65.4757 70.2819C65.4944 70.3265 65.5252 70.3651 65.5646 70.3932C65.6478 70.4359 65.7412 70.4548 65.8345 70.4478H66.6615V69.8534ZM68.2982 68.1362V67.6366H68.8553V68.1477L68.2982 68.1362ZM68.2982 70.8498V68.498H68.8553V70.8526L68.2982 70.8498ZM71.4683 70.8526V69.4169C71.4782 69.2866 71.4481 69.1564 71.3822 69.0436C71.3295 69.0022 71.2691 68.9717 71.2045 68.9539C71.1399 68.9362 71.0724 68.9315 71.006 68.9402H70.4576V70.8526H69.9464V68.498H71.0721C71.3303 68.4737 71.5888 68.5419 71.8014 68.6904C71.8817 68.7793 71.9426 68.8839 71.9801 68.9976C72.0177 69.1114 72.0312 69.2317 72.0196 69.3509V70.8526H71.4683ZM73.9665 70.8526C73.5147 70.8526 73.2888 70.6162 73.2888 70.1434V68.9058H72.8466V68.498H73.2831V67.6366H73.8172V68.498H74.4862V68.8914H73.8172V69.9338C73.8065 70.0118 73.8139 70.0912 73.8388 70.1658C73.8637 70.2405 73.9054 70.3085 73.9607 70.3645C74.1179 70.4433 74.294 70.4762 74.469 70.4592H74.4862V70.8526H73.9665ZM76.3929 70.8526C75.6271 70.8526 75.2443 70.4583 75.2443 69.6696C75.2282 69.3772 75.3157 69.0885 75.4912 68.8541C75.6038 68.7291 75.7438 68.6319 75.9002 68.5701C76.0567 68.5083 76.2253 68.4837 76.3929 68.498H77.2543V68.9144H76.4733C76.3194 68.9004 76.1648 68.9313 76.0282 69.0034C75.9652 69.0628 75.9159 69.1352 75.8837 69.2155C75.8515 69.2958 75.8371 69.3822 75.8415 69.4686H77.2543V69.8964H75.8415C75.8329 70.0565 75.884 70.2142 75.9851 70.3386C76.131 70.4259 76.3014 70.4632 76.4704 70.4449H77.2543V70.8526H76.3929ZM79.7295 70.8526V69.4169C79.7438 69.2846 79.7167 69.1512 79.652 69.035C79.5993 68.9936 79.5389 68.9631 79.4743 68.9453C79.4097 68.9276 79.3422 68.9229 79.2758 68.9316H78.7274V70.8526H78.199V68.498H79.3246C79.5829 68.4737 79.8414 68.5419 80.054 68.6904C80.1352 68.7787 80.1966 68.8832 80.2343 68.9971C80.2719 69.111 80.2848 69.2316 80.2722 69.3509V70.8526H79.7295ZM81.9204 70.8526C81.8279 70.858 81.7353 70.8448 81.648 70.8137C81.5606 70.7827 81.4805 70.7344 81.4122 70.6717C81.3491 70.6054 81.3003 70.5268 81.2687 70.4409C81.2371 70.355 81.2234 70.2635 81.2284 70.1721C81.2187 70.062 81.2376 69.9512 81.2834 69.8505C81.3292 69.7499 81.4003 69.6628 81.4897 69.5978C81.6877 69.498 81.9089 69.4534 82.13 69.4686H82.9915C83.0005 69.3913 82.9931 69.3131 82.9698 69.2389C82.9466 69.1647 82.908 69.0962 82.8565 69.0379C82.7143 68.9464 82.5452 68.9059 82.377 68.923H81.3749V68.498H82.6096C83.2279 68.498 83.5371 68.7852 83.5371 69.3595V70.8526H81.9204ZM83.003 69.8534H82.2219C81.9424 69.8534 81.8017 69.9491 81.7998 70.1405C81.7924 70.1883 81.7984 70.2373 81.8172 70.2819C81.8359 70.3265 81.8667 70.3651 81.9061 70.3932C81.9893 70.4359 82.0827 70.4548 82.176 70.4478H83.003V69.8534ZM86.1702 70.8526V69.4169C86.1845 69.2846 86.1574 69.1512 86.0927 69.035C86.04 68.9936 85.9796 68.9631 85.915 68.9453C85.8504 68.9276 85.7829 68.9229 85.7165 68.9316H85.1652V70.8526H84.6368V68.498H85.7624C86.0207 68.4737 86.2792 68.5419 86.4918 68.6904C86.5721 68.7793 86.633 68.8839 86.6705 68.9976C86.7081 69.1114 86.7216 69.2317 86.71 69.3509V70.8526H86.1702ZM88.8435 70.8526C88.6785 70.8644 88.5128 70.8422 88.3568 70.7874C88.2007 70.7326 88.0575 70.6463 87.9361 70.5339C87.8334 70.4166 87.755 70.2801 87.7057 70.1321C87.6564 69.9842 87.6371 69.8279 87.649 69.6725C87.649 68.8799 88.05 68.4837 88.8521 68.4837H89.6475V68.9288H89.0359C88.8372 68.9132 88.6382 68.954 88.4616 69.0465C88.3712 69.1223 88.3012 69.2196 88.2581 69.3295C88.215 69.4393 88.2 69.5582 88.2147 69.6753C88.2025 69.8532 88.25 70.03 88.3496 70.1778C88.4384 70.2663 88.5459 70.3336 88.6642 70.3748C88.7825 70.4161 88.9085 70.4302 89.033 70.4162H89.6447V70.8526H88.8435ZM91.6001 70.8526C90.8344 70.8526 90.4515 70.4583 90.4515 69.6696C90.4357 69.3772 90.5231 69.0886 90.6985 68.8541C90.811 68.7291 90.951 68.6319 91.1075 68.5701C91.2639 68.5083 91.4325 68.4837 91.6001 68.498H92.4616V68.9144H91.6834C91.5296 68.9004 91.3749 68.9313 91.2383 69.0034C91.1752 69.0627 91.1258 69.135 91.0936 69.2154C91.0613 69.2957 91.047 69.3821 91.0517 69.4686H92.4644V69.8964H91.0517C91.043 70.0565 91.0942 70.2142 91.1953 70.3386C91.3411 70.4259 91.5115 70.4632 91.6805 70.4449H92.4644V70.8526H91.6001Z" fill="#231F20" stroke="#231F20" stroke-width="0.25"/>
<path d="M93.4921 67.4932V68.1335L93.9688 68.1134V68.3316L93.4921 68.3087L93.5151 69.6927H93.2911L93.3141 68.3087L92.8374 68.3345V68.1163L93.3141 68.1364L93.2911 67.496L93.4921 67.4932ZM91.5568 56.4983C91.7261 56.5029 91.8903 56.5572 92.0289 56.6546C92.1676 56.7519 92.2744 56.888 92.3361 57.0457C92.3978 57.2035 92.4116 57.3759 92.3758 57.5415C92.34 57.707 92.2562 57.8584 92.1349 57.9766C92.0135 58.0948 91.86 58.1745 91.6936 58.206C91.5271 58.2374 91.3551 58.219 91.1991 58.1532C91.043 58.0874 90.9098 57.977 90.8161 57.8359C90.7224 57.6948 90.6724 57.5292 90.6724 57.3598C90.6723 57.2452 90.6952 57.1317 90.7395 57.0261C90.7839 56.9204 90.8489 56.8247 90.9307 56.7445C91.0126 56.6643 91.1096 56.6012 91.2161 56.5589C91.3226 56.5166 91.4365 56.496 91.551 56.4983H91.5568ZM91.5568 56.6706C91.3763 56.6706 91.2032 56.7423 91.0756 56.87C90.9479 56.9976 90.8762 57.1707 90.8762 57.3512C90.8762 57.5317 90.9479 57.7048 91.0756 57.8324C91.2032 57.96 91.3763 58.0317 91.5568 58.0317C91.6446 58.0314 91.7315 58.0134 91.8121 57.9786C91.8928 57.9439 91.9657 57.8933 92.0263 57.8297C92.0869 57.7662 92.134 57.691 92.1649 57.6088C92.1957 57.5265 92.2096 57.4389 92.2057 57.3512C92.2088 57.2631 92.1942 57.1754 92.1627 57.0931C92.1312 57.0109 92.0835 56.9358 92.0224 56.8723C91.9614 56.8088 91.8882 56.7583 91.8072 56.7236C91.7262 56.689 91.6391 56.671 91.551 56.6706H91.5568ZM91.4276 57.7934H91.2294V56.9319C91.3372 56.9105 91.4469 56.8999 91.5568 56.9003C91.657 56.8921 91.7574 56.9151 91.8439 56.9664C91.8702 56.9886 91.8912 57.0163 91.9056 57.0476C91.92 57.0789 91.9274 57.1129 91.9272 57.1473C91.9249 57.1959 91.9065 57.2424 91.8747 57.2794C91.843 57.3163 91.7998 57.3416 91.752 57.3512C91.7946 57.3677 91.8318 57.3958 91.8592 57.4323C91.8866 57.4689 91.9032 57.5124 91.9071 57.5579C91.9145 57.6312 91.936 57.7024 91.9703 57.7675H91.7578C91.7244 57.7035 91.7012 57.6348 91.6889 57.5637C91.6745 57.4689 91.6228 57.4287 91.5137 57.4287H91.4189L91.4276 57.7934ZM91.4276 57.3138H91.5223C91.6314 57.3138 91.7204 57.2765 91.7204 57.1904C91.7204 57.1042 91.663 57.0611 91.5396 57.0611C91.5033 57.0569 91.4667 57.0569 91.4304 57.0611L91.4276 57.3138Z" fill="#231F20"/>
</svg>
