<svg width="117" height="117" viewBox="0 0 117 117" fill="none" xmlns="http://www.w3.org/2000/svg">
<rect x="0.452381" y="0.452381" width="116.095" height="116.095" rx="58.0476" stroke="#DFDFDF" stroke-width="0.904762"/>
<path d="M14.3871 60.7343C14.7458 61.3218 15.4632 61.5029 16.0952 61.5405C16.7271 61.5781 17.5983 61.4722 17.974 61.0793C18.0736 60.9783 18.1506 60.8574 18.1999 60.7244C18.2492 60.5915 18.2696 60.4495 18.26 60.3081C18.2503 60.1666 18.2106 60.0288 18.1437 59.9038C18.0767 59.7788 17.9839 59.6695 17.8715 59.583C17.3591 59.2414 16.5461 59.0467 15.8902 58.8998C14.8825 58.688 13.7107 58.4216 13.2256 57.5334C13.1053 57.277 13.0376 56.999 13.0266 56.716C13.0155 56.433 13.0614 56.1506 13.1614 55.8856C13.2614 55.6206 13.4135 55.3784 13.6088 55.1732C13.8041 54.968 14.0386 54.8041 14.2983 54.6912C14.875 54.4311 15.5039 54.3072 16.1362 54.3291C16.9028 54.293 17.663 54.4831 18.3225 54.8757C18.6233 55.1058 18.8672 55.4021 19.0354 55.7414C19.2036 56.0808 19.2916 56.4543 19.2926 56.8331H17.9843C17.9262 56.0952 17.4275 55.7058 16.7716 55.5589C16.1157 55.412 15.1216 55.4564 14.6536 55.9346C14.5241 56.0693 14.4437 56.2435 14.4251 56.4293C14.4065 56.6152 14.4509 56.8019 14.5511 56.9595C14.6814 57.1206 14.8444 57.2522 15.0293 57.3455C15.6101 57.6529 16.4504 57.7691 17.1678 57.9433C17.8852 58.1175 18.6607 58.3191 19.1731 58.8759C19.4005 59.1462 19.557 59.4689 19.6286 59.8148C19.7001 60.1606 19.6845 60.5189 19.583 60.8573C19.4722 61.2468 19.2607 61.6003 18.9698 61.8821C18.679 62.164 18.319 62.3643 17.9262 62.4628C17.3635 62.6305 16.7777 62.7077 16.1908 62.6917C15.3406 62.7302 14.5011 62.4903 13.7995 62.0085C13.5043 61.7653 13.2674 61.4588 13.1066 61.1117C12.9458 60.7646 12.865 60.3857 12.8704 60.0032H14.1856C14.1875 60.2588 14.2558 60.5096 14.3837 60.7309L14.3871 60.7343ZM22.5072 51.48V58.0151L26.1488 54.5306H27.9115L24.7413 57.4343L28.1574 62.5243H26.4733L23.7404 58.3498L22.5038 59.4942V62.5277H21.1852V51.4937L22.5072 51.48ZM29.213 53.089V51.4835H30.5282V53.089H29.213ZM30.5282 54.5238V62.5175H29.213V54.5306L30.5282 54.5238ZM33.8077 54.5238V55.7946H33.8418C34.0914 55.3305 34.4684 54.9473 34.9283 54.6901C35.3882 54.4329 35.912 54.3124 36.4381 54.3427C36.8851 54.3293 37.3306 54.4024 37.7499 54.558C38.0792 54.6859 38.3723 54.8923 38.6039 55.1592C38.8247 55.4273 38.9802 55.7431 39.0582 56.0815C39.1483 56.4678 39.1919 56.8635 39.188 57.2601V62.5141H37.8728V57.1064C37.884 56.8913 37.8512 56.6762 37.7766 56.4742C37.7021 56.2722 37.5872 56.0875 37.439 55.9312C37.281 55.7826 37.0945 55.6675 36.8907 55.5929C36.687 55.5184 36.4703 55.4859 36.2536 55.4974C35.8964 55.4888 35.541 55.5515 35.2083 55.6819C34.9257 55.7974 34.6742 55.9776 34.4738 56.2079C34.2727 56.4413 34.1216 56.7133 34.0297 57.0073C33.93 57.3303 33.8816 57.6668 33.8862 58.0048V62.5209H32.571V54.5272L33.8077 54.5238ZM43.9603 55.084H42.2318V60.6318C42.2318 61.9162 42.833 62.0392 43.9398 61.9982V62.5106C42.734 62.5858 41.5759 62.415 41.6374 60.6215V55.0875H40.1685V54.575H41.6374V52.0984H42.225V54.5716H43.9569L43.9603 55.084ZM45.279 58.6231C45.2448 60.4951 46.2355 62.1929 48.1997 62.1929C48.8846 62.2282 49.5577 62.0048 50.0855 61.5669C50.6133 61.129 50.9571 60.5086 51.0488 59.829H51.6363C51.3289 61.6874 50.0888 62.7088 48.2202 62.7088C45.8973 62.7088 44.6811 60.8846 44.7119 58.688C44.6777 56.5085 45.8221 54.3906 48.2168 54.3906C50.7106 54.3906 51.8208 56.3548 51.7115 58.6265L45.279 58.6231ZM51.1068 58.1107C51.0727 56.4436 50.0239 54.8996 48.2031 54.8996C46.437 54.8996 45.4019 56.5393 45.279 58.1107H51.1068ZM53.7987 51.48V62.5141H53.218V51.48H53.7987ZM56.395 51.48V62.5141H55.8074V51.48H56.395ZM58.4036 53.0719V51.48H58.9912V53.0719H58.4036ZM58.4036 62.5175V54.5716H58.9912V62.5175H58.4036ZM67.429 54.5716V62.0871C67.429 62.702 67.429 65.6398 64.0129 65.5373C62.3048 65.5373 60.9999 64.8985 60.9042 63.0606H61.4952C61.6182 64.4681 62.7318 65.0249 64.03 65.0249C66.8107 65.0249 66.8585 62.7532 66.8585 62.2237V60.4132H66.8243C66.5863 60.9705 66.1843 61.4423 65.6718 61.7657C65.1592 62.0891 64.5603 62.2488 63.9548 62.2237C61.6182 62.2237 60.5387 60.5156 60.5387 58.2952C60.5387 56.1977 61.7275 54.3871 63.9548 54.3871C64.5647 54.3628 65.1672 54.5268 65.6806 54.8568C66.194 55.1868 66.5933 55.6669 66.8243 56.2318H66.8585V54.5648L67.429 54.5716ZM61.0955 58.2952C61.0955 60.174 62.0691 61.7113 63.9412 61.7113C65.8713 61.7113 66.8278 60.092 66.8278 58.2952C66.8278 56.4983 65.8849 54.8791 63.9377 54.8791C61.9906 54.8791 61.0887 56.6144 61.0887 58.2952H61.0955ZM69.3967 58.6231C69.3625 60.4951 70.3532 62.1929 72.3174 62.1929C73.0023 62.2282 73.6754 62.0048 74.2032 61.5669C74.731 61.129 75.0748 60.5086 75.1665 59.829H75.7643C75.4568 61.6874 74.2168 62.7088 72.3482 62.7088C70.0252 62.7088 68.8091 60.8846 68.8398 58.688C68.8057 56.5085 69.9535 54.3906 72.3482 54.3906C74.8419 54.3906 75.9488 56.3548 75.8429 58.6265L69.3967 58.6231ZM75.2245 58.1107C75.1904 56.4436 74.1416 54.8996 72.3209 54.8996C70.5547 54.8996 69.5196 56.5393 69.3967 58.1107H75.2245ZM77.1888 54.5716H77.7764V56.2797H77.8105C78.0302 55.7087 78.4223 55.2203 78.9322 54.8824C79.4422 54.5445 80.0447 54.3738 80.6562 54.394C83.4574 54.394 83.4847 56.6349 83.4847 57.6051V62.5243H82.904V57.5026C82.904 56.6828 82.8083 54.9064 80.6425 54.9064C78.8661 54.9064 77.7832 56.2728 77.7832 58.2269V62.5243H77.2025L77.1888 54.5716ZM91.1983 57.0244C91.0889 55.6169 89.9445 54.8893 88.5098 54.8893C86.5182 54.8893 85.4353 56.652 85.4353 58.4626C85.4353 60.6147 86.443 62.1929 88.5098 62.1929C89.1976 62.2047 89.8646 61.9565 90.3775 61.498C90.8904 61.0396 91.2116 60.4045 91.2768 59.7197H91.8678C91.6048 61.6225 90.2281 62.7054 88.5132 62.7054C85.934 62.7054 84.8682 60.6796 84.8682 58.4694C84.8682 56.2592 86.1663 54.3871 88.5166 54.3871C90.2247 54.3871 91.6253 55.2207 91.7961 57.0312L91.1983 57.0244ZM93.47 58.6231C93.4358 60.4951 94.4265 62.1929 96.3907 62.1929C97.075 62.2274 97.7473 62.0035 98.2743 61.5657C98.8014 61.1278 99.1447 60.508 99.2364 59.829H99.8273C99.5199 61.6874 98.2798 62.7088 96.4112 62.7088C94.0883 62.7088 92.8722 60.8846 92.8995 58.688C92.8653 56.5085 94.0131 54.3906 96.4112 54.3906C98.905 54.3906 100.012 56.3548 99.9059 58.6265L93.47 58.6231ZM99.2979 58.1107C99.2637 56.4436 98.2115 54.8996 96.3873 54.8996C94.6246 54.8996 93.5861 56.5393 93.4666 58.1107H99.2979ZM103.886 56.2728C103.885 56.6058 103.786 56.9311 103.6 57.2076C103.415 57.4841 103.151 57.6994 102.844 57.8263C102.536 57.9533 102.197 57.9862 101.871 57.9208C101.544 57.8554 101.245 57.6947 101.009 57.4591C100.774 57.2234 100.614 56.9233 100.55 56.5967C100.485 56.2701 100.518 55.9317 100.646 55.6241C100.773 55.3166 100.989 55.0538 101.266 54.8689C101.543 54.684 101.869 54.5853 102.202 54.5853C102.423 54.5857 102.642 54.6297 102.846 54.7148C103.05 54.7998 103.235 54.9243 103.391 55.081C103.547 55.2377 103.671 55.4236 103.755 55.6281C103.84 55.8326 103.883 56.0517 103.882 56.2728H103.886ZM100.685 56.2728C100.685 56.6747 100.844 57.06 101.129 57.3441C101.413 57.6283 101.798 57.7879 102.2 57.7879C102.602 57.7879 102.987 57.6283 103.271 57.3441C103.555 57.06 103.715 56.6747 103.715 56.2728C103.715 55.871 103.555 55.4857 103.271 55.2015C102.987 54.9174 102.602 54.7578 102.2 54.7578C101.798 54.7578 101.413 54.9174 101.129 55.2015C100.844 55.4857 100.685 55.871 100.685 56.2728ZM101.587 55.2753H102.331C102.782 55.2753 102.98 55.4632 102.98 55.8219C102.98 55.9594 102.927 56.0916 102.831 56.1904C102.736 56.2892 102.605 56.347 102.468 56.3514L103.062 57.2669H102.874L102.273 56.3412H101.761V57.2635H101.59L101.587 55.2753ZM101.757 56.1977H102.178C102.478 56.1977 102.81 56.1635 102.81 55.8219C102.81 55.4803 102.543 55.4222 102.304 55.4222H101.757V56.1977Z" fill="#050404"/>
<path d="M69.9909 64.1981H99.5504M12.959 64.1981H58.4171" stroke="#050404" stroke-width="0.81"/>
</svg>
