<svg width="100" height="100" viewBox="0 0 100 100" fill="none" xmlns="http://www.w3.org/2000/svg">
<rect x="0.452381" y="0.452381" width="99.0952" height="99.0952" rx="49.5476" stroke="#DFDFDF" stroke-width="0.904762"/>
<path d="M79.1714 36.9773H17.6804V58.8936C17.6804 59.8049 18.0424 60.6788 18.6868 61.3232C19.3311 61.9676 20.2051 62.3296 21.1164 62.3296H79.1714C80.0827 62.3296 80.9566 61.9676 81.601 61.3232C82.2453 60.6788 82.6073 59.8049 82.6073 58.8936V40.4157C82.6077 39.9642 82.519 39.5172 82.3465 39.1C82.174 38.6829 81.9209 38.3038 81.6018 37.9845C81.2828 37.6652 80.9039 37.4119 80.4869 37.239C80.0698 37.0662 79.6228 36.9773 79.1714 36.9773Z" fill="white"/>
<path d="M37.1769 53.1458C37.1769 54.057 36.8149 54.931 36.1705 55.5753C35.5262 56.2197 34.6522 56.5817 33.7409 56.5817H21.1212C20.21 56.5817 19.336 56.2197 18.6917 55.5753C18.0473 54.931 17.6853 54.057 17.6853 53.1458V37.0852H33.736C34.6473 37.0852 35.5212 37.4472 36.1656 38.0916C36.81 38.7359 37.172 39.6099 37.172 40.5211L37.1769 53.1458Z" fill="#F7323F"/>
<path d="M22.4539 43.0837L27.4875 38.0403L32.6095 43.1623C33.2889 43.8211 33.8286 44.6101 34.1963 45.4821C34.564 46.3541 34.7522 47.2913 34.7496 48.2376C34.7785 49.1797 34.6105 50.1175 34.2563 50.991C33.9022 51.8645 33.3697 52.6545 32.693 53.3105C32.0344 53.9882 31.2425 54.5219 30.3672 54.878C29.492 55.2341 28.5524 55.4048 27.6078 55.3795C26.6613 55.3876 25.7229 55.204 24.8494 54.8395C23.9758 54.4751 23.1851 53.9374 22.5251 53.259C21.8444 52.5974 21.3046 51.805 20.9381 50.9294C20.5715 50.0538 20.3859 49.1132 20.3923 48.164C20.3659 47.2207 20.5355 46.2821 20.8904 45.4077C21.2452 44.5332 21.7776 43.7419 22.4539 43.0837ZM27.6323 42.1904L24.5989 45.2189C24.1948 45.6114 23.8729 46.0805 23.6521 46.5988C23.4313 47.1172 23.316 47.6743 23.3129 48.2376C23.3018 48.7968 23.4039 49.3525 23.6129 49.8713C23.8219 50.39 24.1336 50.8613 24.5292 51.2566C24.9248 51.652 25.3962 51.9634 25.9151 52.1721C26.434 52.3808 26.9897 52.4825 27.5489 52.4712C28.1141 52.4691 28.6732 52.354 29.1932 52.1327C29.7133 51.9114 30.1839 51.5885 30.5774 51.1827C30.9802 50.793 31.3004 50.3262 31.5188 49.8101C31.7372 49.294 31.8494 48.7392 31.8487 48.1787C31.8645 47.6198 31.7635 47.0638 31.5522 46.5461C31.3409 46.0284 31.024 45.5605 30.6216 45.1723L27.6323 42.1904Z" fill="white"/>
<path d="M33.7361 37.0852H17.6804V53.1458C17.6804 54.057 18.0424 54.931 18.6868 55.5753C19.3311 56.2197 20.2051 56.5817 21.1164 56.5817H33.7361C34.6473 56.5817 35.5213 56.2197 36.1656 55.5753C36.81 54.931 37.172 54.057 37.172 53.1458V40.5236C37.1723 40.0722 37.0837 39.6251 36.9112 39.208C36.7386 38.7908 36.4856 38.4118 36.1665 38.0924C35.8474 37.7731 35.4685 37.5198 35.0515 37.347C34.6345 37.1742 34.1875 37.0852 33.7361 37.0852ZM32.6856 53.3053C32.0271 53.9829 31.2352 54.5166 30.3599 54.8727C29.4846 55.2288 28.545 55.3996 27.6005 55.3742C26.654 55.3824 25.7156 55.1987 24.842 54.8343C23.9685 54.4698 23.1778 53.9322 22.5177 53.2537C21.839 52.5921 21.3009 51.8002 20.9357 50.9256C20.5704 50.0509 20.3856 49.1115 20.3924 48.1636C20.366 47.2203 20.5355 46.2818 20.8904 45.4073C21.2452 44.5329 21.7776 43.7416 22.4539 43.0834L27.4876 38.0399L32.6096 43.1619C33.2889 43.8207 33.8286 44.6097 34.1963 45.4817C34.564 46.3537 34.7522 47.2909 34.7497 48.2373C34.7769 49.1791 34.6074 50.1163 34.252 50.9889C33.8966 51.8615 33.3631 52.6504 32.6856 53.3053ZM30.6094 45.1744C31.0117 45.5626 31.3287 46.0305 31.54 46.5482C31.7513 47.0659 31.8523 47.6219 31.8365 48.1808C31.8385 48.74 31.728 49.2938 31.5117 49.8094C31.2955 50.3251 30.9777 50.7919 30.5775 51.1824C30.1852 51.5862 29.7165 51.9079 29.1986 52.1287C28.6808 52.3495 28.1241 52.4649 27.5612 52.4684C27.0012 52.4814 26.4444 52.381 25.9242 52.1732C25.404 51.9654 24.9312 51.6545 24.5344 51.2592C24.1375 50.8639 23.8247 50.3924 23.6147 49.8731C23.4048 49.3537 23.3022 48.7973 23.3129 48.2373C23.316 47.6739 23.4313 47.1168 23.6521 46.5985C23.8729 46.0802 24.1948 45.6111 24.5989 45.2186L27.6324 42.19L30.6094 45.1744Z" fill="#EF4135"/>
<path d="M79.1714 36.7026H17.3V58.8939C17.3007 59.9074 17.7034 60.8792 18.4198 61.5961C19.1362 62.3129 20.1078 62.7163 21.1213 62.7176H79.1714C79.6739 62.7179 80.1715 62.6193 80.6358 62.4273C81.1002 62.2353 81.5221 61.9537 81.8777 61.5987C82.2332 61.2436 82.5153 60.822 82.7079 60.3579C82.9005 59.8938 82.9997 59.3963 83.0001 58.8939V40.5239C82.9988 39.5096 82.5947 38.5372 81.8768 37.8207C81.1589 37.1041 80.1858 36.702 79.1714 36.7026ZM18.0609 37.4684H33.7361C34.5465 37.469 35.3236 37.7911 35.8968 38.3639C36.4701 38.9367 36.7928 39.7135 36.7941 40.5239V53.146C36.7915 53.9556 36.4682 54.7311 35.8951 55.3029C35.322 55.8746 34.5457 56.196 33.7361 56.1967H21.1213C20.3113 56.1967 19.5344 55.8756 18.9607 55.3038C18.387 54.7319 18.0635 53.956 18.0609 53.146V37.4684ZM82.2343 58.8939C82.234 59.2958 82.1545 59.6937 82.0004 60.0649C81.8463 60.4361 81.6206 60.7733 81.3362 61.0572C81.0518 61.3412 80.7142 61.5663 80.3428 61.7198C79.9714 61.8733 79.5733 61.9522 79.1714 61.9519H21.1213C20.31 61.9519 19.532 61.6298 18.9581 61.0563C18.3842 60.4829 18.0615 59.7051 18.0609 58.8939V55.4211C18.4156 55.898 18.8767 56.2855 19.4076 56.5526C19.9385 56.8198 20.5245 56.9593 21.1188 56.9599H79.1714C79.7658 56.9595 80.3518 56.8201 80.8828 56.5529C81.4137 56.2857 81.8749 55.8982 82.2294 55.4211L82.2343 58.8939ZM82.2343 53.1387C82.234 53.5406 82.1545 53.9385 82.0004 54.3097C81.8463 54.6809 81.6206 55.0181 81.3362 55.302C81.0518 55.586 80.7142 55.8111 80.3428 55.9646C79.9714 56.1181 79.5733 56.197 79.1714 56.1967H36.0185C36.4946 55.8429 36.8815 55.3829 37.1487 54.8533C37.4158 54.3237 37.5557 53.7392 37.5573 53.146V40.5239C37.5565 39.9299 37.4169 39.3444 37.1498 38.8139C36.8826 38.2834 36.4952 37.8227 36.0185 37.4684H79.1714C79.9823 37.469 80.7597 37.7914 81.333 38.3647C81.9064 38.9381 82.2288 39.7155 82.2294 40.5263V53.146L82.2343 53.1387Z" fill="#231F20"/>
<path d="M44.9666 45.3489L44.4439 43.9451H41.8473L41.3564 45.3489H40.2618L42.6032 39.6477H43.7616L46.1348 45.3538L44.9666 45.3489ZM43.1333 40.5239L42.1737 43.0714H44.1175L43.1333 40.5239ZM48.2995 45.3489C47.8023 45.3671 47.316 45.2001 46.9349 44.8801C46.7304 44.6914 46.5701 44.4597 46.4657 44.2017C46.3614 43.9437 46.3154 43.6658 46.3312 43.388C46.3312 42.5192 46.53 41.9383 46.9276 41.6455C47.3251 41.3526 48.1432 41.2061 49.3818 41.2061V39.6477H50.3414V45.3489H48.2995ZM49.3867 41.9841H49.0603C48.3944 41.9841 47.9469 42.0717 47.7178 42.2467C47.4642 42.4365 47.3374 42.8251 47.3374 43.4125C47.3374 43.9312 47.4912 44.2649 47.7988 44.4138C48.0475 44.5349 48.5768 44.5955 49.3867 44.5955V41.9841ZM53.8019 45.3489H52.7392L51.0212 41.1767H52.0692L53.2963 44.4065L54.575 41.1767H55.591L53.8019 45.3489ZM57.3286 45.3489C57.1654 45.3577 57.0021 45.3337 56.8483 45.2785C56.6945 45.2233 56.5532 45.1379 56.4328 45.0274C56.3199 44.9103 56.2322 44.7712 56.1752 44.6188C56.1182 44.4664 56.0931 44.3039 56.1015 44.1414C56.1015 43.6506 56.2553 43.3037 56.5629 43.1008C56.9132 42.9232 57.3049 42.8435 57.6968 42.8701H59.2356C59.2507 42.7328 59.2366 42.5938 59.1943 42.4623C59.152 42.3308 59.0825 42.2096 58.9901 42.1069C58.7388 41.9436 58.4392 41.8708 58.141 41.9007H56.3715V41.1644H58.5557C59.6503 41.1644 60.1985 41.6774 60.2001 42.7032V45.3489H57.3286ZM59.2307 43.5745H57.8489C57.3581 43.5745 57.1127 43.752 57.1127 44.1071C57.1003 44.1916 57.1117 44.2778 57.1455 44.3563C57.1793 44.4347 57.2342 44.5022 57.3041 44.5513C57.4509 44.6267 57.6157 44.6598 57.7802 44.647H59.2528L59.2307 43.5745ZM64.041 45.3489V42.8235C64.067 42.59 64.0198 42.3541 63.906 42.1486C63.8125 42.0752 63.7053 42.0213 63.5906 41.9901C63.476 41.9589 63.3562 41.9511 63.2384 41.967H62.269V45.3489H61.3315V41.1767H63.3243C63.9281 41.1767 64.3584 41.2904 64.6153 41.5178C64.8721 41.7453 65.0006 42.1339 65.0006 42.6836V45.3587L64.041 45.3489ZM67.9776 45.3489C67.274 45.3489 66.7398 45.1607 66.375 44.7844C66.1912 44.5792 66.0504 44.3393 65.9606 44.0788C65.8708 43.8183 65.834 43.5426 65.8522 43.2677C65.8522 41.8655 66.5615 41.1644 67.98 41.1644H69.3839V41.9498H68.304C67.9551 41.9232 67.6057 41.9946 67.2953 42.1559C67.0041 42.3523 66.8584 42.7229 66.8584 43.2677C66.8387 43.583 66.9251 43.8957 67.1039 44.1561C67.3313 44.4359 67.7338 44.5758 68.3114 44.5758H69.3912V45.3465L67.9776 45.3489ZM72.0541 45.3489C70.6993 45.3489 70.022 44.6503 70.022 43.253C69.9932 42.7348 70.1479 42.223 70.4588 41.8074C70.8024 41.3788 71.3342 41.1644 72.0541 41.1644H73.5855V41.9007H72.2038C71.9321 41.8774 71.6595 41.9328 71.4184 42.0602C71.2221 42.2026 71.1108 42.4774 71.0846 42.8848H73.5855V43.6383H71.0896C71.1157 44.0359 71.1975 44.296 71.335 44.4187C71.4724 44.5415 71.7579 44.6036 72.1915 44.6053H73.5806V45.3415L72.0541 45.3489ZM76.1379 45.3489C75.6407 45.3671 75.1544 45.2001 74.7734 44.8801C74.5688 44.6914 74.4086 44.4597 74.3042 44.2017C74.1998 43.9437 74.1539 43.6658 74.1696 43.388C74.1696 42.5192 74.3684 41.9383 74.766 41.6455C75.1636 41.3526 75.9817 41.2061 77.2202 41.2061V39.6477H78.1897V45.3489H76.1379ZM77.2252 41.9841H76.8987C76.2328 41.9841 75.7853 42.0717 75.5563 42.2467C75.3027 42.4365 75.1759 42.8251 75.1759 43.4125C75.1759 43.9312 75.3297 44.2649 75.6373 44.4138C75.886 44.5349 76.4153 44.5955 77.2252 44.5955V41.9841ZM40.9098 47.7271H41.9945V52.3901H43.5849V53.4258H40.9098V47.7271ZM50.0984 51.6269H46.6993C46.7366 51.9062 46.8766 52.1617 47.092 52.3435C47.3229 52.5269 47.6122 52.621 47.9068 52.6085C48.0957 52.6111 48.2832 52.5757 48.4581 52.5045C48.6331 52.4332 48.7919 52.3276 48.9253 52.1938L49.8162 52.6135C49.6145 52.911 49.3399 53.1518 49.0186 53.3129C48.6725 53.4714 48.2947 53.5486 47.9142 53.5387C47.6157 53.5484 47.3183 53.4968 47.0406 53.387C46.7628 53.2773 46.5105 53.1117 46.2993 52.9006C46.094 52.6954 45.9329 52.4505 45.8257 52.1808C45.7185 51.9112 45.6675 51.6224 45.6759 51.3323C45.667 51.0373 45.7174 50.7434 45.8241 50.4682C45.9307 50.1929 46.0915 49.9418 46.2968 49.7297C46.4983 49.5207 46.7412 49.356 47.01 49.2461C47.2788 49.1363 47.5675 49.0836 47.8577 49.0916C48.1572 49.0802 48.4557 49.131 48.7345 49.2409C49.0133 49.3507 49.2663 49.5172 49.4775 49.7297C49.691 49.9559 49.8566 50.223 49.9641 50.5149C50.0717 50.8068 50.119 51.1174 50.1033 51.4281L50.0984 51.6269ZM49.0407 50.7924C48.973 50.5594 48.8274 50.3567 48.6283 50.2181C48.4191 50.07 48.168 49.9926 47.9117 49.9972C47.6332 49.9915 47.3607 50.0778 47.1362 50.2427C46.964 50.3905 46.8308 50.5785 46.7484 50.79L49.0407 50.7924ZM52.0913 49.2192H53.1564L54.2216 51.7078L55.2965 49.2192H56.369L54.575 53.4356H53.8927L52.0913 49.2192ZM62.7991 51.6269H59.4C59.437 51.9063 59.5771 52.1619 59.7927 52.3435C60.0236 52.5269 60.3129 52.621 60.6075 52.6085C60.7964 52.6111 60.9839 52.5757 61.1588 52.5045C61.3338 52.4332 61.4926 52.3276 61.626 52.1938L62.5169 52.6135C62.3153 52.9111 62.0407 53.1519 61.7193 53.3129C61.3732 53.4715 60.9954 53.5487 60.6149 53.5387C60.3168 53.5481 60.0199 53.4963 59.7426 53.3865C59.4653 53.2768 59.2134 53.1114 59.0024 52.9006C58.7973 52.6954 58.6362 52.4504 58.529 52.1808C58.4218 51.9111 58.3708 51.6224 58.379 51.3323C58.3702 51.0373 58.4206 50.7434 58.5272 50.4682C58.6339 50.1929 58.7946 49.9418 59 49.7297C59.2015 49.5207 59.4444 49.356 59.7132 49.2461C59.9819 49.1363 60.2706 49.0836 60.5609 49.0916C60.8603 49.0802 61.1589 49.131 61.4377 49.2409C61.7165 49.3507 61.9695 49.5172 62.1807 49.7297C62.3938 49.9561 62.5588 50.2233 62.666 50.5152C62.7731 50.807 62.8201 51.1176 62.804 51.4281L62.7991 51.6269ZM61.7463 50.7924C61.6788 50.5594 61.5332 50.3566 61.3339 50.2181C61.1248 50.0698 60.8736 49.9924 60.6173 49.9972C60.3388 49.9915 60.0663 50.0778 59.8418 50.2427C59.6695 50.3905 59.5363 50.5784 59.454 50.79L61.7463 50.7924ZM65.1282 47.5847H66.186V53.4283H65.1282V47.5847ZM72.945 51.4281C72.9488 51.9341 72.7571 52.422 72.4099 52.7902C72.0532 53.1174 71.4978 53.281 70.7435 53.281H69.271V52.6552H70.7435C71.2082 52.6552 71.5395 52.5464 71.7375 52.3288C71.9427 52.0734 72.0544 51.7556 72.0541 51.4281H70.4711C70.0837 51.461 69.6969 51.3587 69.3765 51.1385C69.1507 50.947 69.0435 50.6272 69.055 50.1788C69.0519 50.0194 69.0844 49.8613 69.1502 49.7161C69.216 49.5709 69.3135 49.4422 69.4354 49.3395C69.7414 49.081 70.2118 48.9517 70.8466 48.9517C71.5158 48.9517 72.0132 49.0908 72.3388 49.369C72.7593 49.7305 72.9695 50.2836 72.9695 51.028C72.9621 51.1115 72.9548 51.2415 72.945 51.4281ZM71.9338 50.142C71.8029 49.7723 71.4282 49.5882 70.8098 49.5898C70.1913 49.5915 69.8935 49.8058 69.9164 50.2328C69.912 50.3145 69.9264 50.396 69.9583 50.4713C69.9901 50.5466 70.0388 50.6136 70.1005 50.6672C70.2182 50.7624 70.3665 50.8112 70.5177 50.8047H72.0541C72.0471 50.5758 72.0066 50.3493 71.9338 50.1322V50.142ZM75.49 53.3448C74.7177 53.3448 74.1623 53.1305 73.8236 52.7018C73.5471 52.3533 73.4088 51.8355 73.4088 51.1483C73.4088 50.4611 73.5413 49.9457 73.8064 49.6021C74.1336 49.1702 74.6948 48.9542 75.49 48.9542C76.2116 48.9542 76.7392 49.1325 77.073 49.4892C77.4068 49.8459 77.5704 50.3989 77.5638 51.1483C77.5945 51.663 77.4724 52.1753 77.2129 52.6208C76.8971 53.1035 76.3228 53.3448 75.49 53.3448ZM75.49 49.5604C74.6539 49.5604 74.2359 50.0921 74.2359 51.1556C74.2359 52.2191 74.6539 52.746 75.49 52.7362C76.3195 52.7362 76.7343 52.2069 76.7343 51.1483C76.7343 50.0897 76.3195 49.5604 75.49 49.5604Z" fill="#231F20"/>
<path d="M23.043 60.5578H21.5704V57.809H22.9473C23.1737 57.7943 23.4005 57.8321 23.6099 57.9195C23.7167 57.9826 23.8029 58.0753 23.8582 58.1863C23.9135 58.2974 23.9355 58.422 23.9216 58.5453C23.911 58.6839 23.8623 58.8168 23.7809 58.9294C23.6995 59.042 23.5885 59.1299 23.4602 59.1834C23.5865 59.2401 23.6987 59.3239 23.7891 59.4288C23.8811 59.5366 23.9293 59.675 23.9241 59.8166C23.9367 59.9301 23.9209 60.0449 23.8781 60.1508C23.8352 60.2566 23.7667 60.3501 23.6786 60.4228C23.4849 60.53 23.2636 60.577 23.043 60.5578ZM22.9522 58.2312H22.0686V58.9674H22.9497C23.2311 58.9674 23.3718 58.8472 23.3718 58.6067C23.3718 58.3662 23.2311 58.2402 22.9497 58.2287L22.9522 58.2312ZM22.9522 59.3896H22.0686V60.1258H22.9694C23.2508 60.1258 23.3915 60.0015 23.3915 59.7528C23.3915 59.5041 23.2508 59.3822 22.9694 59.3871L22.9522 59.3896ZM24.7904 60.5578V57.809H25.2665V60.5578H24.7904ZM27.0851 60.5995C26.9303 60.6105 26.7751 60.5839 26.6328 60.5219C26.4905 60.46 26.3653 60.3645 26.2678 60.2436C26.1179 60.042 26.0409 59.7954 26.0494 59.5442C26.0437 59.2845 26.1307 59.0313 26.2948 58.83C26.3933 58.7167 26.5163 58.6275 26.6546 58.5692C26.7929 58.5109 26.9427 58.4851 27.0925 58.4938C27.3512 58.4843 27.6042 58.5718 27.8017 58.7392C27.9117 58.8412 27.9975 58.9663 28.0531 59.1055C28.1087 59.2447 28.1327 59.3946 28.1233 59.5442C28.1318 59.8144 28.037 60.0777 27.8582 60.2805C27.7608 60.3873 27.641 60.4713 27.5073 60.5264C27.3737 60.5816 27.2295 60.6065 27.0851 60.5995ZM27.0851 58.8815C27.0089 58.8793 26.9331 58.8942 26.8634 58.9252C26.7938 58.9562 26.732 59.0025 26.6826 59.0607C26.5728 59.2001 26.5171 59.3744 26.5255 59.5516C26.5157 59.7281 26.5697 59.9024 26.6777 60.0424C26.7247 60.1019 26.7848 60.1497 26.8534 60.1821C26.9219 60.2144 26.997 60.2305 27.0728 60.2289C27.2051 60.2321 27.3338 60.1857 27.4336 60.0988C27.5045 60.0275 27.559 59.9416 27.5934 59.8471C27.6277 59.7526 27.641 59.6517 27.6324 59.5516C27.647 59.3661 27.5909 59.1819 27.4753 59.0362C27.4265 58.9826 27.3664 58.9405 27.2993 58.9129C27.2323 58.8853 27.16 58.8729 27.0876 58.8766L27.0851 58.8815ZM29.8044 60.5995C29.6496 60.6105 29.4944 60.5839 29.3521 60.5219C29.2098 60.46 29.0846 60.3645 28.9871 60.2436C28.8372 60.042 28.7602 59.7954 28.7687 59.5442C28.7628 59.2845 28.8498 59.0312 29.0141 58.83C29.1126 58.7167 29.2356 58.6275 29.3739 58.5692C29.5122 58.5109 29.662 58.4851 29.8118 58.4938C30.0705 58.4843 30.3235 58.5718 30.521 58.7392C30.6306 58.8409 30.7163 58.9656 30.7719 59.1044C30.8275 59.2431 30.8516 59.3925 30.8426 59.5417C30.8511 59.8119 30.7563 60.0752 30.5775 60.278C30.4803 60.3853 30.3606 60.4697 30.2269 60.5253C30.0933 60.5809 29.949 60.6062 29.8044 60.5995ZM29.8044 58.8815C29.7282 58.8793 29.6524 58.8942 29.5827 58.9252C29.5131 58.9562 29.4513 59.0025 29.4019 59.0607C29.2921 59.2001 29.2364 59.3744 29.2448 59.5516C29.235 59.7281 29.289 59.9024 29.397 60.0424C29.444 60.1019 29.5041 60.1497 29.5727 60.1821C29.6412 60.2144 29.7163 60.2305 29.7921 60.2289C29.9244 60.2321 30.0531 60.1857 30.1529 60.0988C30.2228 60.0284 30.2768 59.9437 30.3111 59.8505C30.3454 59.7574 30.3592 59.6579 30.3517 59.5589C30.3683 59.371 30.312 59.1839 30.1946 59.0362C30.1458 58.9826 30.0857 58.9405 30.0186 58.9129C29.9516 58.8853 29.8793 58.8729 29.8069 58.8766L29.8044 58.8815ZM32.4354 60.5578C32.1949 60.5673 31.9595 60.4868 31.7752 60.332C31.676 60.2409 31.5984 60.1289 31.5479 60.0041C31.4974 59.8793 31.4753 59.7449 31.4831 59.6105C31.4831 59.1916 31.5788 58.911 31.7703 58.7686C31.9617 58.6263 32.3593 58.5551 32.9581 58.5551V57.809H33.4244V60.5578H32.4354ZM32.9606 58.9331H32.8035C32.5797 58.9113 32.3544 58.9557 32.1556 59.0607C32.0842 59.1347 32.0305 59.224 31.9987 59.3218C31.9668 59.4196 31.9575 59.5233 31.9715 59.6252C31.9715 59.8755 32.0459 60.0391 32.1948 60.116C32.4432 60.193 32.7037 60.2229 32.963 60.2044L32.9606 58.9331ZM37.5844 60.5578H36.0824V60.1283H37.4935C37.6329 60.1426 37.7725 60.1031 37.8838 60.0179C37.9522 59.9339 37.9848 59.8263 37.9746 59.7184C37.9746 59.509 37.8265 59.4043 37.5304 59.4043H36.8481C36.2525 59.4043 35.9588 59.1425 35.967 58.6189C35.9589 58.5106 35.9728 58.4016 36.0078 58.2987C36.0428 58.1958 36.0982 58.1011 36.1707 58.0201C36.273 57.9369 36.3906 57.8748 36.517 57.8373C36.6434 57.7998 36.7759 57.7877 36.907 57.8017H38.3795V58.2312H36.988C36.6607 58.2312 36.4971 58.3678 36.4971 58.641C36.4971 58.8734 36.6329 58.9895 36.9045 58.9895H37.6678C37.909 58.9649 38.1504 59.0334 38.3427 59.181C38.409 59.2584 38.4586 59.3488 38.4881 59.4464C38.5177 59.544 38.5267 59.6466 38.5145 59.7479C38.5289 59.9643 38.4575 60.1777 38.3157 60.3418C38.1092 60.506 37.8469 60.5835 37.5844 60.5578ZM40.149 60.5578C39.9284 60.5786 39.7081 60.5145 39.533 60.3786C39.4667 60.3048 39.4164 60.2181 39.3852 60.1239C39.3539 60.0297 39.3424 59.9301 39.3514 59.8313V58.5453H39.803V59.7945C39.7946 59.8895 39.8161 59.9847 39.8643 60.0669C39.9043 60.1114 39.9543 60.1456 40.0103 60.1665C40.0663 60.1875 40.1265 60.1946 40.1858 60.1872H40.6399V58.5453H41.0964V60.5578H40.149ZM43.1383 61.2818H42.1296V60.9357H43.0426C43.2831 60.9357 43.4034 60.8024 43.4034 60.5357H42.9321C42.2515 60.5357 41.9112 60.2036 41.9112 59.5393C41.8979 59.2894 41.9745 59.043 42.1271 58.8447C42.2299 58.7371 42.3557 58.6542 42.4952 58.6023C42.6346 58.5504 42.784 58.531 42.9321 58.5453H43.8672V60.5087C43.8883 60.7317 43.8203 60.954 43.6782 61.1272C43.5251 61.2468 43.3315 61.3023 43.1383 61.2818ZM43.4034 58.911C43.3102 58.888 43.2146 58.8765 43.1187 58.8766C42.9428 58.8696 42.7698 58.9224 42.6278 59.0263C42.5494 59.0895 42.4875 59.1707 42.4473 59.263C42.4071 59.3554 42.3899 59.456 42.3971 59.5565C42.3891 59.6468 42.4015 59.7379 42.4333 59.8228C42.4652 59.9078 42.5157 59.9845 42.5812 60.0473C42.732 60.1465 42.9117 60.1923 43.0917 60.1774H43.4058L43.4034 58.911ZM45.2612 60.5578C45.1821 60.5624 45.1029 60.5511 45.0283 60.5246C44.9537 60.498 44.8852 60.4567 44.8268 60.4032C44.7729 60.3464 44.7312 60.2793 44.7042 60.2059C44.6772 60.1324 44.6655 60.0543 44.6697 59.9761C44.6617 59.882 44.678 59.7874 44.7171 59.7014C44.7562 59.6155 44.8168 59.541 44.8931 59.4853C45.0631 59.3997 45.253 59.3615 45.4428 59.3748H46.1791C46.1868 59.3088 46.1805 59.2419 46.1606 59.1785C46.1407 59.1151 46.1077 59.0565 46.0638 59.0067C45.9422 58.9285 45.7977 58.8939 45.6539 58.9085H44.8121V58.5453H45.8674C46.3959 58.5453 46.6609 58.7907 46.6626 59.2816V60.5578H45.2612ZM46.1865 59.7037H45.5189C45.28 59.7037 45.1598 59.7855 45.1581 59.9491C45.152 59.9902 45.1575 60.0322 45.174 60.0704C45.1905 60.1086 45.2173 60.1414 45.2514 60.1651C45.3225 60.2016 45.4024 60.2177 45.4821 60.2117H46.1889L46.1865 59.7037ZM48.5352 59.3331V59.2055C48.5352 59.0362 48.5106 58.938 48.464 58.9036C48.3263 58.8591 48.181 58.8432 48.037 58.857V60.5578H47.5854V58.5453H48.4444C48.6767 58.5453 48.824 58.5911 48.8861 58.6827C48.9582 58.8642 48.986 59.0602 48.9671 59.2546V59.3429L48.5352 59.3331ZM54.0818 60.5578L54.1308 58.1256L53.3602 60.5578H52.7957L51.9981 58.1035L52.0668 60.5578H51.549V57.809H52.3392L53.0755 60.0669L53.8118 57.809H54.5947V60.5578H54.0818ZM56.05 60.5578C55.971 60.5624 55.8918 60.5511 55.8172 60.5246C55.7425 60.498 55.674 60.4567 55.6157 60.4032C55.5618 60.3464 55.52 60.2793 55.493 60.2059C55.466 60.1324 55.4543 60.0543 55.4586 59.9761C55.4505 59.882 55.4668 59.7874 55.5059 59.7014C55.545 59.6155 55.6057 59.541 55.6819 59.4853C55.8519 59.3996 56.0418 59.3614 56.2317 59.3748H56.9679C56.9756 59.3088 56.9693 59.2419 56.9494 59.1785C56.9296 59.1151 56.8966 59.0565 56.8526 59.0067C56.731 58.9285 56.5865 58.8939 56.4427 58.9085H55.5862V58.5453H56.6415C57.17 58.5453 57.4342 58.7907 57.4342 59.2816V60.5578H56.05ZM56.9753 59.7037H56.3077C56.0689 59.7037 55.9486 59.7855 55.947 59.9491C55.9406 59.99 55.9458 60.0319 55.9618 60.07C55.9778 60.1081 56.0041 60.1411 56.0378 60.1651C56.1089 60.2016 56.1888 60.2177 56.2685 60.2117H56.9753V59.7037ZM58.3742 58.2361V57.809H58.8503V58.2459L58.3742 58.2361ZM58.3742 60.5553V58.5453H58.8503V60.5578L58.3742 60.5553ZM61.0837 60.5578V59.3307C61.0921 59.2193 61.0665 59.108 61.0101 59.0116C60.9651 58.9762 60.9135 58.9501 60.8582 58.935C60.803 58.9198 60.7453 58.9158 60.6886 58.9233H60.2198V60.5578H59.783V58.5453H60.745C60.9657 58.5245 61.1867 58.5828 61.3684 58.7097C61.437 58.7857 61.489 58.8751 61.5212 58.9723C61.5533 59.0695 61.5648 59.1723 61.5549 59.2742V60.5578H61.0837ZM63.2189 60.5578C62.8328 60.5578 62.6397 60.3557 62.6397 59.9516V58.8938H62.2617V58.5453H62.6348V57.809H63.0913V58.5453H63.6631V58.8815H63.0913V59.7724C63.0822 59.8391 63.0885 59.907 63.1098 59.9708C63.1311 60.0346 63.1667 60.0927 63.214 60.1406C63.3483 60.2079 63.4988 60.236 63.6484 60.2216H63.6631V60.5578H63.2189ZM65.2927 60.5578C64.6383 60.5578 64.311 60.2207 64.311 59.5466C64.2973 59.2967 64.372 59.05 64.5221 58.8496C64.6183 58.7428 64.7379 58.6597 64.8717 58.6069C65.0054 58.5541 65.1495 58.533 65.2927 58.5453H66.029V58.9012H65.3614C65.2299 58.8892 65.0978 58.9156 64.981 58.9773C64.9272 59.028 64.8851 59.0899 64.8575 59.1585C64.83 59.2272 64.8177 59.301 64.8215 59.3748H66.029V59.7405H64.8215C64.8141 59.8774 64.8578 60.0121 64.9442 60.1185C65.0689 60.1931 65.2145 60.225 65.359 60.2093H66.029V60.5578H65.2927ZM68.1446 60.5578V59.3307C68.1567 59.2176 68.1336 59.1036 68.0783 59.0043C68.0333 58.9688 67.9817 58.9428 67.9265 58.9276C67.8712 58.9124 67.8136 58.9085 67.7568 58.9159H67.288V60.5578H66.8364V58.5453H67.7985C68.0192 58.5245 68.2401 58.5828 68.4219 58.7097C68.4913 58.7852 68.5438 58.8745 68.576 58.9719C68.6081 59.0692 68.6192 59.1723 68.6084 59.2742V60.5578H68.1446ZM70.0171 60.5578C69.9381 60.5624 69.8589 60.5511 69.7842 60.5246C69.7096 60.498 69.6411 60.4567 69.5827 60.4032C69.5288 60.3464 69.4871 60.2793 69.4601 60.2059C69.4331 60.1324 69.4214 60.0543 69.4257 59.9761C69.4173 59.882 69.4335 59.7873 69.4727 59.7013C69.5118 59.6153 69.5726 59.5409 69.649 59.4853C69.8182 59.4 70.0073 59.3619 70.1963 59.3748H70.9326C70.9402 59.3088 70.9339 59.2419 70.9141 59.1785C70.8942 59.1151 70.8612 59.0565 70.8172 59.0067C70.6957 58.9285 70.5511 58.8939 70.4074 58.9085H69.5508V58.5453H70.6062C71.1346 58.5453 71.3989 58.7907 71.3989 59.2816V60.5578H70.0171ZM70.9424 59.7037H70.2748C70.0359 59.7037 69.9157 59.7855 69.9141 59.9491C69.9077 59.99 69.9128 60.0319 69.9289 60.07C69.9449 60.1081 69.9712 60.1411 70.0049 60.1651C70.076 60.2016 70.1558 60.2177 70.2356 60.2117H70.9424V59.7037ZM73.6494 60.5578V59.3307C73.6616 59.2176 73.6385 59.1036 73.5831 59.0043C73.5381 58.9688 73.4865 58.9428 73.4313 58.9276C73.3761 58.9124 73.3184 58.9085 73.2616 58.9159H72.7904V60.5578H72.3388V58.5453H73.3009C73.5216 58.5245 73.7425 58.5828 73.9243 58.7097C73.9929 58.7857 74.0449 58.8751 74.077 58.9723C74.1092 59.0695 74.1207 59.1723 74.1108 59.2742V60.5578H73.6494ZM75.9343 60.5578C75.7933 60.5679 75.6517 60.5489 75.5183 60.502C75.3849 60.4552 75.2625 60.3814 75.1588 60.2854C75.0709 60.1851 75.004 60.0684 74.9618 59.942C74.9197 59.8155 74.9032 59.682 74.9133 59.5491C74.9133 58.8717 75.2561 58.533 75.9417 58.533H76.6215V58.9134H76.0987C75.9289 58.9002 75.7588 58.935 75.6079 59.0141C75.5306 59.0789 75.4708 59.1621 75.4339 59.2559C75.3971 59.3498 75.3843 59.4515 75.3968 59.5516C75.3864 59.7036 75.427 59.8547 75.5122 59.981C75.588 60.0566 75.6799 60.1142 75.781 60.1494C75.8821 60.1847 75.9899 60.1968 76.0963 60.1847H76.619V60.5578H75.9343ZM78.2904 60.5578C77.6359 60.5578 77.3087 60.2207 77.3087 59.5466C77.2952 59.2968 77.3699 59.0501 77.5197 58.8496C77.6159 58.7428 77.7356 58.6597 77.8693 58.6069C78.003 58.5541 78.1471 58.533 78.2904 58.5453H79.0266V58.9012H78.3615C78.2301 58.8892 78.0979 58.9156 77.9811 58.9773C77.9272 59.0279 77.885 59.0897 77.8574 59.1584C77.8299 59.2271 77.8176 59.301 77.8216 59.3748H79.0291V59.7405H77.8216C77.8142 59.8774 77.8579 60.0121 77.9443 60.1185C78.069 60.1931 78.2146 60.225 78.3591 60.2093H79.0291V60.5578H78.2904Z" fill="#231F20" stroke="#231F20" stroke-width="0.25"/>
<path d="M79.9076 57.6865V58.2338L80.315 58.2166V58.4031L79.9076 58.3835L79.9273 59.5664H79.7358L79.7555 58.3835L79.3481 58.4056V58.219L79.7555 58.2362L79.7358 57.6889L79.9076 57.6865ZM78.2535 48.2892C78.3982 48.293 78.5386 48.3395 78.657 48.4227C78.7755 48.5059 78.8668 48.6222 78.9195 48.757C78.9723 48.8919 78.9841 49.0392 78.9535 49.1807C78.9229 49.3223 78.8513 49.4516 78.7476 49.5526C78.6439 49.6536 78.5127 49.7218 78.3704 49.7487C78.2281 49.7755 78.0811 49.7599 77.9477 49.7036C77.8143 49.6473 77.7005 49.553 77.6204 49.4324C77.5403 49.3118 77.4976 49.1702 77.4976 49.0255C77.4975 48.9275 77.5171 48.8306 77.555 48.7402C77.5929 48.6499 77.6484 48.5681 77.7184 48.4996C77.7883 48.431 77.8712 48.3771 77.9623 48.3409C78.0533 48.3048 78.1506 48.2872 78.2486 48.2892H78.2535ZM78.2535 48.4364C78.0992 48.4364 77.9513 48.4977 77.8422 48.6068C77.7331 48.7159 77.6718 48.8638 77.6718 49.0181C77.6718 49.1724 77.7331 49.3203 77.8422 49.4294C77.9513 49.5385 78.0992 49.5997 78.2535 49.5997C78.3285 49.5995 78.4028 49.5841 78.4717 49.5544C78.5407 49.5247 78.6029 49.4814 78.6547 49.4271C78.7065 49.3728 78.7468 49.3085 78.7732 49.2383C78.7995 49.168 78.8114 49.0931 78.8081 49.0181C78.8108 48.9429 78.7982 48.8679 78.7713 48.7975C78.7444 48.7272 78.7037 48.6631 78.6515 48.6088C78.5993 48.5546 78.5367 48.5113 78.4675 48.4817C78.3983 48.4521 78.3238 48.4367 78.2486 48.4364H78.2535ZM78.143 49.396H77.9737V48.6598C78.0658 48.6414 78.1595 48.6324 78.2535 48.6328C78.3391 48.6257 78.4249 48.6454 78.4989 48.6892C78.5213 48.7082 78.5393 48.7319 78.5516 48.7586C78.5639 48.7853 78.5702 48.8144 78.5701 48.8438C78.5681 48.8854 78.5523 48.9252 78.5252 48.9567C78.4981 48.9883 78.4612 49.0099 78.4204 49.0181C78.4568 49.0322 78.4885 49.0562 78.5119 49.0875C78.5354 49.1187 78.5495 49.1559 78.5529 49.1948C78.5592 49.2574 78.5776 49.3182 78.6069 49.374H78.4253C78.3967 49.3193 78.3769 49.2605 78.3664 49.1997C78.3541 49.1187 78.3099 49.0844 78.2166 49.0844H78.1357L78.143 49.396ZM78.143 48.9862H78.224C78.3173 48.9862 78.3934 48.9543 78.3934 48.8807C78.3934 48.807 78.3443 48.7702 78.2387 48.7702C78.2078 48.7666 78.1765 48.7666 78.1455 48.7702L78.143 48.9862Z" fill="#231F20"/>
</svg>
