<svg width="100" height="100" viewBox="0 0 100 100" fill="none" xmlns="http://www.w3.org/2000/svg">
<rect x="0.452381" y="0.452381" width="99.0952" height="99.0952" rx="49.5476" stroke="#DFDFDF" stroke-width="0.904762"/>
<path d="M46.1099 26H32.6929L25.9938 37.5385L32.6883 49.0308H46.1053L52.8278 37.5385L46.1099 26ZM46.5758 43.2154C46.422 43.2385 46.2649 43.2261 46.1167 43.1791C45.9685 43.1322 45.8332 43.052 45.7214 42.9448C45.6096 42.8377 45.5243 42.7064 45.4721 42.5611C45.4199 42.4159 45.4022 42.2608 45.4205 42.1077V34.9215L40.7618 38.0738C40.4422 38.3832 40.0306 38.5823 39.5878 38.6415C39.1509 38.5985 38.7458 38.3962 38.4511 38.0738L33.7691 34.9585V42.08C33.7898 42.2443 33.7706 42.4111 33.713 42.5666C33.6554 42.722 33.5612 42.8616 33.4381 42.9736C33.315 43.0856 33.1666 43.1668 33.0054 43.2105C32.8442 43.2542 32.6748 43.259 32.5113 43.2246C32.3542 43.2495 32.1935 43.237 32.0423 43.1882C31.8911 43.1393 31.7538 43.0555 31.6418 42.9436C31.5298 42.8317 31.4463 42.6951 31.3982 42.5449C31.3501 42.3947 31.3388 42.2354 31.3652 42.08V32.8031C31.3652 32.5262 31.5516 32.24 31.9429 31.9538C32.1255 31.814 32.3477 31.7343 32.5783 31.726C32.8089 31.7178 33.0364 31.7813 33.2287 31.9077L39.5179 36.0615L45.7605 31.9077C45.9552 31.7724 46.1845 31.6945 46.422 31.6831C46.6594 31.6717 46.8953 31.7271 47.1022 31.8431C47.2755 31.9372 47.4211 32.0744 47.5248 32.241C47.6285 32.4077 47.6868 32.5982 47.6939 32.7938V42.0846C47.7134 42.2375 47.6974 42.3928 47.6473 42.5387C47.5972 42.6845 47.5142 42.8172 47.4047 42.9266C47.2952 43.036 47.1619 43.1193 47.0151 43.1701C46.8683 43.221 46.7117 43.238 46.5572 43.22L46.5758 43.2154ZM45.3506 60.1262C45.3742 60.2831 45.3603 60.4433 45.3101 60.5939C45.2599 60.7446 45.1748 60.8815 45.0616 60.9937C44.9483 61.1059 44.8101 61.1902 44.6581 61.2399C44.506 61.2896 44.3443 61.3034 44.1859 61.28H33.634V58.9723H44.1859C44.3428 58.9564 44.5013 58.9753 44.6499 59.0277C44.7985 59.0801 44.9335 59.1646 45.045 59.2751C45.1565 59.3856 45.2418 59.5193 45.2947 59.6665C45.3475 59.8137 45.3666 59.9707 45.3506 60.1262ZM52.7486 62.4938L46.0261 74H32.6091L25.9099 62.4938L32.6184 50.9554H46.0261L52.7486 62.4938ZM47.6799 60.1215C47.6799 57.8046 46.5075 56.6462 44.1626 56.6462H32.4693C32.3109 56.6228 32.1492 56.6365 31.9972 56.6862C31.8451 56.736 31.7069 56.8203 31.5937 56.9325C31.4804 57.0447 31.3953 57.1816 31.3451 57.3322C31.2949 57.4829 31.2811 57.6431 31.3047 57.8V67.0769C31.2814 67.233 31.2952 67.3922 31.3449 67.5421C31.3946 67.6919 31.4789 67.8282 31.591 67.9402C31.7031 68.0522 31.84 68.1367 31.9909 68.1872C32.1417 68.2376 32.3023 68.2525 32.46 68.2308C32.6184 68.2518 32.7795 68.2365 32.931 68.1861C33.0824 68.1357 33.2202 68.0515 33.3336 67.94C33.447 67.8285 33.5331 67.6928 33.5852 67.5431C33.6373 67.3935 33.654 67.234 33.634 67.0769V63.5923H44.1626C46.5106 63.5923 47.6846 62.4354 47.6846 60.1215H47.6799ZM68.1828 38.36H54.7658L48.0573 49.8985L54.7658 61.4046H68.1828L74.9099 49.8892L68.1828 38.36ZM68.6486 55.5615H58.1387C55.0329 55.5462 53.48 54 53.48 50.9231V48.6154C53.48 45.5385 55.0329 44 58.1387 44H68.644C68.7992 43.9804 68.9569 43.9967 69.1047 44.0477C69.2525 44.0987 69.3863 44.183 69.4956 44.294C69.6049 44.405 69.6867 44.5395 69.7345 44.6872C69.7824 44.8348 69.795 44.9914 69.7714 45.1446C69.795 45.2979 69.7824 45.4545 69.7345 45.6021C69.6867 45.7497 69.6049 45.8843 69.4956 45.9952C69.3863 46.1062 69.2525 46.1905 69.1047 46.2415C68.9569 46.2925 68.7992 46.3089 68.644 46.2892H58.1387C56.5858 46.3015 55.8093 47.0769 55.8093 48.6154V50.9231C55.8093 52.4615 56.5858 53.2308 58.1387 53.2308H68.644C68.8017 53.209 68.9623 53.2239 69.1131 53.2744C69.264 53.3248 69.4009 53.4094 69.513 53.5213C69.6251 53.6333 69.7094 53.7696 69.7591 53.9195C69.8088 54.0693 69.8226 54.2286 69.7993 54.3846C69.8209 54.5412 69.8057 54.7005 69.7548 54.8503C69.7039 55 69.6187 55.1361 69.5059 55.2478C69.3932 55.3595 69.2558 55.4439 69.1047 55.4943C68.9536 55.5447 68.7927 55.5598 68.6347 55.5385L68.6486 55.5615Z" fill="#C1272D"/>
<path d="M71.9099 60.5C71.9099 60.5989 71.8513 60.6956 71.7414 60.7778C71.6315 60.86 71.4753 60.9241 71.2926 60.9619C71.1099 60.9998 70.9088 61.0097 70.7148 60.9904C70.5208 60.9711 70.3427 60.9235 70.2028 60.8536C70.063 60.7836 69.9677 60.6945 69.9291 60.5975C69.8905 60.5006 69.9103 60.4 69.986 60.3087C70.0617 60.2173 70.1899 60.1392 70.3543 60.0843C70.5188 60.0293 70.7121 60 70.9099 60C71.1751 60 71.4295 60.0527 71.617 60.1464C71.8046 60.2402 71.9099 60.3674 71.9099 60.5ZM70.1249 60.5C70.1216 60.5517 70.139 60.6032 70.1761 60.6516C70.2133 60.6999 70.2694 60.7439 70.3411 60.7812C70.4129 60.8185 70.4989 60.8482 70.594 60.8686C70.6891 60.889 70.7914 60.8997 70.8949 60.9C70.9982 60.8997 71.1003 60.889 71.1951 60.8686C71.29 60.8482 71.3756 60.8184 71.447 60.7811C71.5184 60.7438 71.574 60.6997 71.6106 60.6514C71.6472 60.6031 71.6639 60.5516 71.6599 60.5C71.6599 60.3979 71.5788 60.3 71.4344 60.2278C71.29 60.1556 71.0941 60.115 70.8899 60.115C70.6857 60.115 70.4898 60.1556 70.3454 60.2278C70.201 60.3 70.1199 60.3979 70.1199 60.5H70.1249ZM70.7249 60.75H70.5149V60.25C70.6338 60.2393 70.7542 60.2334 70.8749 60.2325C70.9931 60.2263 71.1119 60.2414 71.2099 60.275C71.2431 60.2874 71.2696 60.3037 71.287 60.3224C71.3045 60.3412 71.3123 60.3618 71.3099 60.3825C71.3042 60.4109 71.2809 60.4378 71.2432 60.4593C71.2056 60.4808 71.1555 60.4959 71.0999 60.5025C71.1999 60.52 71.2499 60.5575 71.2799 60.6275C71.2918 60.6696 71.3189 60.7103 71.3599 60.7475H71.1249C71.0823 60.7088 71.0551 60.6664 71.0449 60.6225C71.0449 60.5725 70.9599 60.5475 70.8299 60.5475H70.7299L70.7249 60.75ZM70.7249 60.465H70.8399C70.9699 60.465 71.0749 60.4475 71.0749 60.3975C71.0749 60.3475 71.0149 60.3225 70.8599 60.3225C70.8167 60.32 70.7731 60.32 70.7299 60.3225L70.7249 60.465Z" fill="#981B1E"/>
</svg>
