<svg width="118" height="117" viewBox="0 0 118 117" fill="none" xmlns="http://www.w3.org/2000/svg">
<rect x="0.454955" y="0.454955" width="117.09" height="116.09" rx="58.045" stroke="#DFDFDF" stroke-width="0.90991"/>
<path d="M21.156 66.025C21.156 64.9784 19.8864 65.5163 19.8864 62.9949V57.8753L19.9122 54.1755C19.9122 53.6668 19.724 53.4765 19.318 53.4765C18.912 53.5021 17.48 53.9596 16.3173 54.5231C15.6678 54.8195 15.5054 54.9769 15.5054 55.2733C15.5054 56.104 16.8045 55.782 16.8045 57.8753L16.8304 62.9949C16.8304 65.5163 15.5054 64.9784 15.5054 65.9957C15.5054 66.4788 15.9667 66.6142 16.668 66.6142H20.0488C20.75 66.6142 21.156 66.5081 21.156 66.025Z" fill="#231F20"/>
<path d="M20.0192 50.6147C20.045 49.8096 19.3955 49.1143 18.5577 49.0887C17.3139 48.9825 15.9889 50.2158 15.963 51.3393C15.9077 52.1444 16.5056 52.7885 17.3951 52.8141C18.613 52.869 19.9639 51.7418 20.0192 50.6147Z" fill="#231F20"/>
<path d="M27.8735 66.8632C27.9363 66.8595 27.9916 66.8485 28.0544 66.8449C28.1651 66.8339 28.2721 66.8229 28.3792 66.8083C28.453 66.7973 28.5194 66.7827 28.5932 66.7717C28.6818 66.757 28.7741 66.7387 28.8627 66.7204C28.9402 66.7021 29.014 66.6802 29.0878 66.6619C29.1653 66.6399 29.2428 66.6216 29.3166 66.5997C29.3941 66.5741 29.4716 66.5484 29.5491 66.5192C29.6156 66.4972 29.682 66.4716 29.7484 66.446C29.8296 66.413 29.9035 66.3801 29.981 66.3435C30.0363 66.3179 30.0954 66.2923 30.1471 66.2667C30.2282 66.2264 30.3021 66.1825 30.3796 66.1422C30.4276 66.1166 30.4718 66.091 30.5161 66.0617C30.5973 66.0142 30.6711 65.9629 30.745 65.908C30.7819 65.8824 30.8188 65.8568 30.8557 65.8312C30.9332 65.7726 31.007 65.7141 31.0771 65.6519C31.1067 65.6262 31.1362 65.6043 31.162 65.5787C31.2358 65.5128 31.306 65.4433 31.3761 65.3737C31.3982 65.3518 31.4167 65.3298 31.4388 65.3079C31.509 65.231 31.5754 65.1542 31.6381 65.0737C31.6529 65.0554 31.6677 65.0371 31.6824 65.0188C31.7452 64.9346 31.8042 64.8468 31.8596 64.7553C31.8707 64.7406 31.878 64.726 31.8891 64.7077C31.9445 64.6126 31.9961 64.5174 32.0441 64.4186C32.0478 64.4076 32.0552 64.3966 32.0589 64.382C32.1069 64.2795 32.1475 64.1734 32.1844 64.0673C32.1844 64.06 32.1881 64.0526 32.1918 64.0453C32.2287 63.9355 32.2582 63.8221 32.284 63.705C32.284 63.7013 32.284 63.6977 32.284 63.694C32.3283 63.4854 32.3542 63.2695 32.3542 63.0499C32.3542 62.9109 32.3431 62.7791 32.3246 62.6474C32.3209 62.6145 32.3099 62.5815 32.3062 62.5486C32.2877 62.4498 32.2656 62.3546 32.236 62.2595C32.2287 62.2302 32.2176 62.2009 32.2065 62.1717C32.1733 62.0728 32.1327 61.974 32.0847 61.8789C32.0773 61.8606 32.0663 61.8423 32.0589 61.824C31.8596 61.4361 31.5569 61.0848 31.1768 60.7664C31.1657 60.7591 31.1583 60.7518 31.1473 60.7444C30.8778 60.5212 30.5678 60.309 30.2209 60.1077C30.2024 60.0967 30.184 60.0857 30.1655 60.0747C30.0031 59.9833 29.837 59.8918 29.6636 59.8003C29.6488 59.793 29.634 59.7856 29.6193 59.7783C29.431 59.6832 29.2354 59.588 29.0361 59.4929C29.0103 59.4819 28.9844 59.4709 28.9586 59.4563C28.7888 59.3758 28.6117 59.2989 28.4308 59.2221C28.3828 59.2001 28.3312 59.1782 28.2795 59.1562C28.0728 59.0684 27.8661 58.9805 27.6484 58.8927C25.2973 57.9266 24.1052 57.3374 24.1052 56.2908C24.1052 55.515 24.7806 54.8416 26.0798 54.8416C27.2978 54.8416 28.6486 55.5662 29.7042 56.3164C29.8112 56.3969 29.9108 56.4738 30.0068 56.547C30.0843 56.6092 30.1581 56.6641 30.2282 56.719C30.2615 56.7446 30.291 56.7702 30.3242 56.7921C30.3796 56.8361 30.4312 56.8727 30.4829 56.9129C30.5088 56.9312 30.5346 56.9495 30.5567 56.9678C30.6121 57.0081 30.6675 57.0447 30.7191 57.0776C30.7339 57.0849 30.7487 57.0959 30.7634 57.1069C30.8262 57.1435 30.8889 57.1764 30.948 57.202C30.9627 57.2093 30.9775 57.213 30.9886 57.2167C31.0328 57.235 31.0734 57.2459 31.1177 57.2532C31.1362 57.2569 31.1546 57.2569 31.1731 57.2606C31.1915 57.2606 31.2137 57.2679 31.2321 57.2679C31.2432 57.2679 31.2506 57.2606 31.258 57.2606C31.3355 57.2569 31.4093 57.2423 31.4868 57.202C31.7858 57.041 31.8374 56.6677 31.6234 56.1042C31.4056 55.5662 31.2174 55.138 30.8409 54.4427C30.4608 53.7987 30.2725 53.4766 29.8961 53.4766C29.8001 53.4766 29.7226 53.4986 29.6525 53.5315C29.6525 53.5315 29.6451 53.5315 29.6414 53.5315C29.5713 53.5644 29.5085 53.6047 29.4421 53.6486C29.3794 53.6889 29.3166 53.7255 29.2465 53.7584C29.2391 53.7621 29.228 53.7657 29.2207 53.7694C29.1505 53.7987 29.0656 53.8133 28.9697 53.817C28.9439 53.817 28.9254 53.8206 28.8959 53.817C28.1393 53.7913 27.2461 53.4693 25.7587 53.4693C23.7029 53.4693 21.3777 54.622 21.3777 57.1435C21.3777 59.3685 23.4593 60.3346 25.6775 61.2458C27.9473 62.1826 29.3831 62.9072 29.3831 63.9538C29.3831 64.9456 28.5452 65.4799 27.4638 65.4799C25.9506 65.4799 24.4632 64.7553 22.544 62.7718C22.4591 62.6913 22.3779 62.6218 22.3041 62.5559C22.2856 62.5413 22.2672 62.523 22.2487 62.5083C22.1712 62.4461 22.0974 62.3876 22.0273 62.34C22.0162 62.3327 22.0051 62.3253 21.9941 62.318C21.9313 62.2778 21.8686 62.2448 21.8095 62.2192C21.7985 62.2156 21.7874 62.2082 21.7763 62.2046C21.7099 62.179 21.6471 62.168 21.5844 62.168C21.577 62.168 21.5696 62.1643 21.5659 62.1643C21.5586 62.1643 21.5512 62.168 21.5438 62.168C21.481 62.168 21.4183 62.1826 21.3556 62.2082C21.0566 62.3144 20.9496 62.5852 21.0566 63.0646C21.326 64.0563 21.625 64.8065 22.031 65.8787C22.3816 66.6838 22.5182 66.8705 22.9241 66.8705C23.4372 66.8705 23.5737 66.3325 23.9797 66.3325C24.5481 66.3325 25.4118 66.8705 27.3605 66.8705C27.5377 66.8705 27.7148 66.8632 27.8846 66.8522L27.8735 66.8632Z" fill="#231F20"/>
<path d="M45.3529 59.8294C45.3529 56.2358 42.7582 53.4765 39.108 53.4765C34.8636 53.4765 31.8076 56.6383 31.8076 60.6602C31.8076 60.7407 31.8076 60.8212 31.8113 60.9017C32.3612 61.4909 32.6934 62.1898 32.6934 63.0462C32.6934 63.3316 32.6602 63.6061 32.5974 63.8696C33.6604 65.7688 35.7051 66.8777 38.1595 66.8777C42.3781 66.8777 45.3529 63.822 45.3529 59.8258V59.8294ZM34.8378 59.1597C34.8378 56.9348 35.8638 55.0318 38.0266 55.0318C40.5401 55.0318 42.3522 58.1936 42.3522 61.4104C42.3522 63.6353 41.245 65.3517 39.1634 65.3517C36.6204 65.3517 34.8378 62.4826 34.8378 59.1597Z" fill="#231F20"/>
<path d="M53.4355 64.5575C53.4355 64.5575 53.4356 64.5611 53.4392 64.5648C53.4688 64.5063 53.4946 64.444 53.5167 64.3855C53.5463 64.305 53.5573 64.2281 53.5537 64.1549C53.5537 64.1366 53.5537 64.1183 53.55 64.1C53.5426 64.0415 53.5278 63.9903 53.5057 63.9427C53.502 63.9317 53.4983 63.9244 53.4946 63.9134C53.4651 63.8622 53.4208 63.8219 53.3728 63.789C53.3617 63.7817 53.347 63.778 53.3322 63.7707C53.2879 63.7487 53.2436 63.7378 53.192 63.7341C53.1809 63.7341 53.1735 63.7268 53.1624 63.7268C53.1587 63.7268 53.1514 63.7304 53.1477 63.7304C53.0812 63.7304 53.0111 63.7487 52.9373 63.7853C52.9373 63.7853 52.9373 63.7853 52.9336 63.7853C52.8856 63.8073 52.834 63.8366 52.786 63.8768C52.2729 64.305 51.4868 64.7075 50.7856 64.7075C49.4347 64.7075 49.0804 63.8512 49.1099 61.7579C49.1653 58.7571 49.1653 56.7444 49.1911 55.2696L51.5422 55.3501C52.0552 55.3757 52.5165 55.2952 52.6494 54.545C52.786 53.8204 52.38 53.7399 51.9186 53.7399H49.217C49.2428 52.8543 49.2723 52.1846 49.324 51.5406C49.3498 51.138 49.1874 50.8452 48.8368 50.8452C48.6486 50.8452 48.4567 50.8452 47.9732 51.1673C46.973 51.837 45.8104 52.7738 44.8101 53.8497C44.5666 54.1169 44.4854 54.3328 44.4854 54.5999C44.4854 55.0025 44.7031 55.1891 45.3232 55.1891H46.2163C46.1351 56.7188 46.1093 58.995 46.1093 61.7579V62.8558C46.1093 65.4577 47.3273 66.8776 49.6525 66.8776C51.7009 66.8776 52.9631 65.5822 53.4355 64.5538V64.5575Z" fill="#231F20"/>
<path d="M69.6309 56.2137L69.6568 54.2302C69.6568 53.7215 69.4685 53.5349 69.0884 53.5349C68.6824 53.5605 67.3869 53.9631 66.4126 54.3912C65.763 54.6877 65.6006 54.8743 65.6006 55.222C65.6006 55.544 65.8183 55.7306 66.0878 55.9173C66.7078 56.3198 66.9256 56.909 66.9256 57.7397V62.9948C66.9256 65.5162 65.6006 64.9782 65.6006 65.9956C65.6006 66.4787 66.0582 66.6141 66.7374 66.6141H70.144C70.8452 66.6141 71.2512 66.5079 71.2512 66.0249C71.2512 64.9782 69.9816 65.5162 69.9816 62.9948V59.6975C69.9816 56.909 71.5502 55.4891 73.1446 55.4635C75.2816 55.4379 75.7687 57.3115 76.1194 59.2182L76.9313 63.562C77.2561 65.3039 75.8241 65.1722 75.8241 66.0029C75.8241 66.486 76.2818 66.6214 76.9867 66.6214H80.3121C80.6332 66.6214 80.8879 66.5958 81.0724 66.5262C81.1278 66.5043 81.1758 66.4823 81.2164 66.453C81.2164 66.453 81.2201 66.453 81.2238 66.453C81.2607 66.4274 81.2939 66.3945 81.3234 66.3579C81.3234 66.3542 81.3308 66.3506 81.3345 66.3469C81.3566 66.314 81.3751 66.2737 81.3898 66.2335C81.3898 66.2261 81.3972 66.2188 81.4009 66.2078C81.4157 66.1566 81.4231 66.0981 81.4231 66.0358C81.4231 65.959 81.412 65.8895 81.3972 65.8273C81.3972 65.8126 81.3898 65.8016 81.3861 65.787C81.3677 65.7284 81.3455 65.6736 81.3123 65.6223C81.3086 65.615 81.305 65.6113 81.3013 65.604C81.2717 65.5564 81.2348 65.5125 81.1942 65.4723C81.1868 65.465 81.1832 65.4613 81.1795 65.454C80.8399 65.11 80.2457 64.8648 80.0169 63.7011L79.1237 59.0645C78.4224 55.2329 77.1491 53.4873 74.2555 53.4873C72.4692 53.4873 70.6865 54.3986 69.6309 56.221V56.2137Z" fill="#231F20"/>
<path d="M53.7642 63.6939C53.9229 63.9171 53.9487 64.2135 53.838 64.51C53.7974 64.6161 53.742 64.7332 53.6793 64.854C54.8271 66.1458 56.5507 66.8813 58.5438 66.8813C62.7624 66.8813 65.7371 63.8256 65.7371 59.8294C65.7371 56.2358 63.1425 53.4765 59.4923 53.4765C55.2479 53.4765 52.1919 56.6383 52.1919 60.6602C52.1919 61.7141 52.4023 62.6583 52.7824 63.478C52.9079 63.4158 53.0334 63.3828 53.1626 63.3828C53.4062 63.3828 53.6276 63.4963 53.7642 63.6939ZM55.222 59.1597C55.222 56.9348 56.2481 55.0318 58.4109 55.0318C60.9243 55.0318 62.7365 58.1936 62.7365 61.4104C62.7365 63.6353 61.6293 65.3517 59.5477 65.3517C57.0047 65.3517 55.222 62.4826 55.222 59.1597Z" fill="#231F20"/>
<path d="M85.0441 62.9949V57.8753L85.0699 54.1755C85.0699 53.6668 84.8817 53.4765 84.4757 53.4765C84.0697 53.5021 82.6377 53.9596 81.4751 54.5231C80.8255 54.8195 80.6631 54.9769 80.6631 55.2733C80.6631 56.104 81.9623 55.782 81.9623 57.8753L81.9881 62.9949C81.9881 64.2941 81.6375 64.7808 81.2979 65.0845C81.5378 65.2968 81.7666 65.5566 81.7666 66.025C81.7666 66.2848 81.6854 66.4715 81.5599 66.6069C81.6448 66.6105 81.7334 66.6142 81.8257 66.6142H85.2065C85.6272 66.6142 85.9372 66.5739 86.1218 66.4385C86.1808 66.3946 86.2251 66.3434 86.2547 66.2812C86.2583 66.2739 86.262 66.2629 86.2657 66.2556C86.2916 66.1897 86.31 66.1165 86.31 66.0287C86.31 65.9006 86.2916 65.7981 86.2583 65.7103C86.2583 65.7103 86.2583 65.7103 86.2583 65.7066C86.2251 65.6188 86.1771 65.5456 86.1218 65.4797C85.7675 65.0662 85.0441 64.9015 85.0441 63.0059V62.9949Z" fill="#231F20"/>
<path d="M82.0138 51.3465C81.9584 52.1662 82.56 52.8213 83.4569 52.8469C84.4645 52.8908 85.5496 52.1223 85.9408 51.2147C86.4243 52.3565 87.0296 54.1899 87.7345 55.3573C90.2996 59.5987 90.9345 60.3416 90.9345 60.3416L88.3915 63.5034C87.5537 64.5684 86.8413 64.9563 86.3874 65.26C86.5387 65.4393 86.6531 65.6699 86.6531 66.0248C86.6531 66.2627 86.5867 66.4384 86.4796 66.5701C86.642 66.5994 86.8266 66.614 87.037 66.614H89.1186C89.8198 66.614 90.2553 66.5079 90.2553 66.0248C90.2553 65.1685 88.6867 65.3259 90.1188 63.5034L91.739 61.4395L93.2264 63.4485C94.6068 65.3259 93.0087 65.1649 93.0087 65.9956C93.0087 66.4786 93.4663 66.614 94.1713 66.614H98.3603C99.0616 66.614 99.4971 66.5079 99.4971 66.0248C99.4971 65.1685 98.3603 65.3259 97.0095 63.4522L94.2525 59.6975L96.4707 56.8541C97.9027 55.0316 98.9841 55.1926 98.9841 54.3327C98.9841 53.8789 98.5523 53.7435 97.8473 53.7435H95.7399C95.0386 53.7435 94.6326 53.8496 94.6326 54.3327C94.6326 55.189 96.2012 55.028 94.7397 56.8541L93.4147 58.5411C93.4147 58.5411 91.632 56.2649 89.9379 53.7435C86.3837 48.4518 84.6195 48.7116 83.7891 49.1764C82.8442 49.5094 82.0359 50.4572 82.0138 51.3465Z" fill="#231F20"/>
<path d="M100.165 54.9916C100.165 54.8196 100.198 54.6585 100.265 54.5122C100.331 54.3621 100.42 54.2304 100.534 54.1206C100.649 54.0071 100.778 53.9193 100.929 53.8534C101.08 53.7876 101.243 53.7546 101.413 53.7546C101.582 53.7546 101.745 53.7876 101.896 53.8534C102.047 53.9193 102.18 54.0071 102.291 54.1206C102.405 54.234 102.494 54.3621 102.56 54.5122C102.627 54.6622 102.66 54.8232 102.66 54.9916C102.66 55.1599 102.627 55.3209 102.56 55.471C102.494 55.621 102.405 55.7527 102.291 55.8625C102.177 55.976 102.047 56.0638 101.896 56.1297C101.745 56.1955 101.582 56.2285 101.413 56.2285C101.243 56.2285 101.08 56.1955 100.929 56.1297C100.778 56.0638 100.645 55.976 100.534 55.8625C100.42 55.7491 100.331 55.621 100.265 55.471C100.198 55.3209 100.165 55.1599 100.165 54.9916ZM100.505 54.9916C100.505 55.1196 100.527 55.2404 100.575 55.3539C100.623 55.4673 100.685 55.5661 100.77 55.6503C100.855 55.7344 100.947 55.8003 101.058 55.8515C101.165 55.9028 101.283 55.9247 101.409 55.9247C101.534 55.9247 101.652 55.8991 101.759 55.8515C101.87 55.8003 101.966 55.7344 102.047 55.6503C102.129 55.5661 102.195 55.4673 102.243 55.3539C102.291 55.2404 102.313 55.1196 102.313 54.9916C102.313 54.8635 102.291 54.7427 102.243 54.6256C102.195 54.5085 102.132 54.4134 102.047 54.3292C101.962 54.245 101.87 54.1791 101.759 54.1279C101.652 54.0767 101.534 54.0547 101.409 54.0547C101.283 54.0547 101.165 54.0803 101.058 54.1279C100.947 54.1791 100.852 54.245 100.77 54.3292C100.689 54.4134 100.623 54.5122 100.575 54.6256C100.527 54.7391 100.505 54.8598 100.505 54.9916ZM100.933 54.3292H101.398C101.435 54.3292 101.483 54.3292 101.545 54.3365C101.608 54.3402 101.671 54.3585 101.73 54.3841C101.789 54.4097 101.844 54.4536 101.889 54.5085C101.933 54.5634 101.955 54.6439 101.955 54.75C101.955 54.8159 101.948 54.8708 101.929 54.9147C101.911 54.9586 101.889 54.9916 101.863 55.0208C101.833 55.0501 101.8 55.0684 101.767 55.083C101.73 55.0977 101.693 55.1087 101.656 55.1123L101.992 55.6283H101.638L101.339 55.1306H101.283V55.6283H100.94V54.3328L100.933 54.3292ZM101.272 54.8671H101.409C101.427 54.8671 101.449 54.8671 101.475 54.8671C101.501 54.8671 101.52 54.8598 101.542 54.8488C101.56 54.8415 101.579 54.8269 101.59 54.8086C101.604 54.7903 101.612 54.7647 101.612 54.7317C101.612 54.6988 101.604 54.6732 101.59 54.6549C101.575 54.6366 101.56 54.6219 101.542 54.6146C101.52 54.6073 101.501 54.6 101.475 54.5963C101.453 54.5963 101.431 54.5963 101.409 54.5963H101.272V54.8745V54.8671Z" fill="#231F20"/>
</svg>
