<svg width="100" height="100" viewBox="0 0 100 100" fill="none" xmlns="http://www.w3.org/2000/svg">
<rect x="0.454955" y="0.454955" width="99.0901" height="99.0901" rx="49.545" stroke="#DFDFDF" stroke-width="0.90991"/>
<path d="M17.9288 56.4316C17.9288 55.5371 16.8528 55.9969 16.8528 53.8418V49.466L16.8747 46.3038C16.8747 45.8691 16.7152 45.7064 16.3712 45.7064C16.0271 45.7283 14.8135 46.1193 13.8283 46.601C13.2778 46.8543 13.1401 46.9888 13.1401 47.2422C13.1401 47.9522 14.2411 47.6769 14.2411 49.466L14.263 53.8418C14.263 55.9969 13.1401 55.5371 13.1401 56.4066C13.1401 56.8195 13.5311 56.9352 14.1254 56.9352H16.9905C17.5847 56.9352 17.9288 56.8445 17.9288 56.4316Z" fill="#231F20"/>
<path d="M16.9655 43.2604C16.9874 42.5723 16.4369 41.978 15.7269 41.9561C14.6728 41.8654 13.5499 42.9195 13.528 43.8797C13.4811 44.5679 13.9878 45.1183 14.7416 45.1402C15.7738 45.1872 16.9186 44.2238 16.9655 43.2604Z" fill="#231F20"/>
<path d="M23.6214 57.148C23.6746 57.1449 23.7215 57.1355 23.7747 57.1324C23.8685 57.123 23.9592 57.1136 24.0499 57.1011C24.1125 57.0917 24.1688 57.0792 24.2313 57.0698C24.3064 57.0573 24.3846 57.0417 24.4597 57.026C24.5254 57.0104 24.5879 56.9916 24.6505 56.976C24.7161 56.9572 24.7818 56.9416 24.8444 56.9228C24.9101 56.9009 24.9758 56.879 25.0414 56.854C25.0977 56.8352 25.154 56.8133 25.2103 56.7914C25.2792 56.7633 25.3417 56.7351 25.4074 56.7039C25.4543 56.682 25.5044 56.6601 25.5481 56.6382C25.617 56.6038 25.6795 56.5662 25.7452 56.5318C25.7859 56.5099 25.8234 56.488 25.8609 56.463C25.9297 56.4223 25.9923 56.3786 26.0548 56.3316C26.0861 56.3097 26.1174 56.2879 26.1487 56.266C26.2144 56.2159 26.2769 56.1659 26.3363 56.1127C26.3614 56.0908 26.3864 56.072 26.4083 56.0501C26.4708 55.9938 26.5303 55.9344 26.5897 55.875C26.6085 55.8562 26.6241 55.8375 26.6429 55.8187C26.7023 55.753 26.7586 55.6873 26.8118 55.6185C26.8243 55.6029 26.8368 55.5872 26.8493 55.5716C26.9025 55.4997 26.9525 55.4246 26.9994 55.3464C27.0088 55.3339 27.0151 55.3214 27.0245 55.3057C27.0714 55.2244 27.1152 55.1431 27.1558 55.0586C27.159 55.0492 27.1652 55.0399 27.1683 55.0274C27.209 54.9398 27.2434 54.8491 27.2747 54.7584C27.2747 54.7521 27.2778 54.7459 27.2809 54.7396C27.3122 54.6458 27.3372 54.5488 27.3591 54.4487C27.3591 54.4456 27.3591 54.4425 27.3591 54.4393C27.3967 54.261 27.4186 54.0765 27.4186 53.8888C27.4186 53.77 27.4092 53.6574 27.3935 53.5448C27.3904 53.5166 27.381 53.4885 27.3779 53.4603C27.3623 53.3759 27.3435 53.2946 27.3185 53.2132C27.3122 53.1882 27.3028 53.1632 27.2935 53.1382C27.2653 53.0537 27.2309 52.9693 27.1902 52.8879C27.184 52.8723 27.1746 52.8567 27.1683 52.841C26.9994 52.5095 26.743 52.2092 26.4208 51.9371C26.4114 51.9308 26.4052 51.9246 26.3958 51.9183C26.1674 51.7275 25.9047 51.5461 25.6107 51.3741C25.5951 51.3647 25.5794 51.3553 25.5638 51.3459C25.4262 51.2677 25.2854 51.1895 25.1384 51.1113C25.1259 51.1051 25.1134 51.0988 25.1009 51.0926C24.9413 51.0113 24.7756 50.9299 24.6067 50.8486C24.5848 50.8392 24.5629 50.8298 24.541 50.8173C24.3971 50.7485 24.247 50.6828 24.0937 50.6172C24.0531 50.5984 24.0093 50.5796 23.9655 50.5609C23.7903 50.4858 23.6152 50.4107 23.4306 50.3357C21.4382 49.5099 20.4279 49.0063 20.4279 48.1118C20.4279 47.4487 21.0003 46.8732 22.1013 46.8732C23.1335 46.8732 24.2783 47.4925 25.1728 48.1337C25.2635 48.2025 25.348 48.2682 25.4293 48.3307C25.495 48.3839 25.5575 48.4308 25.617 48.4777C25.6451 48.4996 25.6701 48.5215 25.6983 48.5403C25.7452 48.5778 25.789 48.6091 25.8328 48.6435C25.8547 48.6592 25.8766 48.6748 25.8953 48.6904C25.9422 48.7248 25.9892 48.7561 26.033 48.7843C26.0455 48.7905 26.058 48.7999 26.0705 48.8093C26.1237 48.8406 26.1768 48.8687 26.2269 48.8906C26.2394 48.8969 26.2519 48.9 26.2613 48.9031C26.2988 48.9188 26.3332 48.9281 26.3708 48.9344C26.3864 48.9375 26.402 48.9375 26.4177 48.9407C26.4333 48.9407 26.4521 48.9469 26.4677 48.9469C26.4771 48.9469 26.4834 48.9407 26.4896 48.9407C26.5553 48.9375 26.6179 48.925 26.6835 48.8906C26.9369 48.753 26.9807 48.434 26.7993 47.9523C26.6147 47.4925 26.4552 47.1265 26.1362 46.5323C25.814 45.9818 25.6545 45.7065 25.3355 45.7065C25.2541 45.7065 25.1884 45.7253 25.129 45.7534C25.129 45.7534 25.1228 45.7534 25.1196 45.7534C25.0602 45.7816 25.007 45.816 24.9507 45.8535C24.8976 45.8879 24.8444 45.9192 24.785 45.9474C24.7787 45.9505 24.7693 45.9536 24.7631 45.9567C24.7036 45.9818 24.6317 45.9943 24.5504 45.9974C24.5285 45.9974 24.5128 46.0005 24.4878 45.9974C23.8466 45.9755 23.0897 45.7003 21.8292 45.7003C20.087 45.7003 18.1165 46.6855 18.1165 48.8406C18.1165 50.7423 19.8806 51.568 21.7604 52.3468C23.684 53.1475 24.9007 53.7668 24.9007 54.6614C24.9007 55.509 24.1907 55.9657 23.2742 55.9657C21.9918 55.9657 20.7313 55.3464 19.1049 53.6511C19.0329 53.5823 18.9641 53.5229 18.9016 53.4666C18.8859 53.4541 18.8703 53.4384 18.8547 53.4259C18.789 53.3727 18.7264 53.3227 18.667 53.282C18.6576 53.2758 18.6482 53.2695 18.6388 53.2633C18.5857 53.2289 18.5325 53.2007 18.4824 53.1788C18.4731 53.1757 18.4637 53.1694 18.4543 53.1663C18.398 53.1444 18.3448 53.135 18.2916 53.135C18.2854 53.135 18.2791 53.1319 18.276 53.1319C18.2698 53.1319 18.2635 53.135 18.2572 53.135C18.2041 53.135 18.1509 53.1475 18.0977 53.1694C17.8444 53.2601 17.7537 53.4916 17.8444 53.9013C18.0727 54.749 18.3261 55.3902 18.6701 56.3066C18.9673 56.9947 19.083 57.1543 19.427 57.1543C19.8618 57.1543 19.9775 56.6945 20.3216 56.6945C20.8033 56.6945 21.5352 57.1543 23.1867 57.1543C23.3368 57.1543 23.4869 57.148 23.6308 57.1386L23.6214 57.148Z" fill="#231F20"/>
<path d="M38.4347 51.1363C38.4347 48.0648 36.2359 45.7064 33.1425 45.7064C29.5455 45.7064 26.9557 48.4088 26.9557 51.8463C26.9557 51.9151 26.9557 51.9839 26.9588 52.0527C27.4249 52.5563 27.7064 53.1537 27.7064 53.8856C27.7064 54.1296 27.6782 54.3642 27.625 54.5894C28.5258 56.2127 30.2586 57.1604 32.3386 57.1604C35.9137 57.1604 38.4347 54.5487 38.4347 51.1332V51.1363ZM29.5236 50.5639C29.5236 48.6622 30.3931 47.0357 32.226 47.0357C34.3561 47.0357 35.8918 49.7382 35.8918 52.4875C35.8918 54.3892 34.9535 55.8561 33.1894 55.8561C31.0343 55.8561 29.5236 53.4039 29.5236 50.5639Z" fill="#231F20"/>
<path d="M45.2845 55.1773C45.2845 55.1773 45.2845 55.1804 45.2876 55.1836C45.3127 55.1335 45.3345 55.0804 45.3533 55.0303C45.3783 54.9615 45.3877 54.8958 45.3846 54.8333C45.3846 54.8176 45.3846 54.802 45.3815 54.7863C45.3752 54.7363 45.3627 54.6925 45.3439 54.6519C45.3408 54.6425 45.3377 54.6362 45.3345 54.6268C45.3095 54.583 45.272 54.5486 45.2313 54.5205C45.2219 54.5142 45.2094 54.5111 45.1969 54.5048C45.1594 54.4861 45.1219 54.4767 45.0781 54.4736C45.0687 54.4736 45.0624 54.4673 45.053 54.4673C45.0499 54.4673 45.0437 54.4704 45.0405 54.4704C44.9842 54.4704 44.9248 54.4861 44.8622 54.5174C44.8622 54.5174 44.8622 54.5174 44.8591 54.5174C44.8185 54.5361 44.7747 54.5611 44.734 54.5956C44.2992 54.9615 43.633 55.3056 43.0387 55.3056C41.894 55.3056 41.5937 54.5737 41.6187 52.7846C41.6656 50.2198 41.6656 48.4995 41.6875 47.239L43.6799 47.3078C44.1147 47.3297 44.5057 47.2609 44.6183 46.6197C44.734 46.0004 44.3899 45.9315 43.999 45.9315H41.7094C41.7313 45.1746 41.7563 44.6022 41.8001 44.0517C41.822 43.7077 41.6844 43.4575 41.3873 43.4575C41.2277 43.4575 41.0651 43.4575 40.6554 43.7327C39.8077 44.3051 38.8225 45.1058 37.9748 46.0254C37.7684 46.2537 37.6996 46.4383 37.6996 46.6666C37.6996 47.0106 37.8841 47.1702 38.4096 47.1702H39.1665C39.0977 48.4776 39.0758 50.4231 39.0758 52.7846V53.7229C39.0758 55.9468 40.108 57.1603 42.0785 57.1603C43.8144 57.1603 44.8841 56.0531 45.2845 55.1742V55.1773Z" fill="#231F20"/>
<path d="M59.0093 48.0459L59.0312 46.3506C59.0312 45.9158 58.8717 45.7563 58.5495 45.7563C58.2055 45.7782 57.1076 46.1223 56.2819 46.4882C55.7314 46.7416 55.5938 46.9011 55.5938 47.1982C55.5938 47.4735 55.7783 47.633 56.0066 47.7925C56.5321 48.1366 56.7166 48.6402 56.7166 49.3502V53.8417C56.7166 55.9967 55.5938 55.537 55.5938 56.4065C55.5938 56.8194 55.9816 56.9351 56.5571 56.9351H59.4441C60.0384 56.9351 60.3824 56.8444 60.3824 56.4315C60.3824 55.537 59.3064 55.9967 59.3064 53.8417V51.0235C59.3064 48.6402 60.6358 47.4266 61.987 47.4047C63.798 47.3828 64.2108 48.9842 64.508 50.6138L65.1961 54.3265C65.4713 55.8153 64.2578 55.7027 64.2578 56.4127C64.2578 56.8256 64.6456 56.9413 65.243 56.9413H68.0612C68.3333 56.9413 68.5491 56.9194 68.7055 56.86C68.7524 56.8412 68.7931 56.8225 68.8275 56.7975C68.8275 56.7975 68.8306 56.7975 68.8337 56.7975C68.865 56.7756 68.8932 56.7474 68.9182 56.7161C68.9182 56.713 68.9244 56.7099 68.9276 56.7068C68.9463 56.6786 68.962 56.6442 68.9745 56.6098C68.9745 56.6035 68.9807 56.5973 68.9839 56.5879C68.9964 56.5441 69.0026 56.4941 69.0026 56.4409C69.0026 56.3752 68.9932 56.3158 68.9807 56.2626C68.9807 56.2501 68.9745 56.2407 68.9713 56.2282C68.9557 56.1782 68.9369 56.1312 68.9088 56.0875C68.9057 56.0812 68.9025 56.0781 68.8994 56.0718C68.8744 56.0311 68.8431 55.9936 68.8087 55.9592C68.8024 55.953 68.7993 55.9498 68.7962 55.9436C68.5084 55.6496 68.0049 55.44 67.8109 54.4454L67.054 50.4824C66.4597 47.2076 65.3806 45.7157 62.9284 45.7157C61.4146 45.7157 59.9039 46.4945 59.0093 48.0521V48.0459Z" fill="#231F20"/>
<path d="M45.563 54.4392C45.6975 54.63 45.7194 54.8834 45.6256 55.1367C45.5912 55.2274 45.5443 55.3275 45.4911 55.4307C46.4638 56.5349 47.9245 57.1636 49.6135 57.1636C53.1886 57.1636 55.7096 54.5518 55.7096 51.1363C55.7096 48.0648 53.5108 45.7064 50.4174 45.7064C46.8204 45.7064 44.2306 48.4088 44.2306 51.8463C44.2306 52.7471 44.4089 53.5541 44.731 54.2547C44.8374 54.2015 44.9437 54.1734 45.0532 54.1734C45.2596 54.1734 45.4473 54.2703 45.563 54.4392ZM46.7985 50.5639C46.7985 48.6622 47.668 47.0357 49.5009 47.0357C51.631 47.0357 53.1667 49.7382 53.1667 52.4875C53.1667 54.3892 52.2284 55.8561 50.4643 55.8561C48.3092 55.8561 46.7985 53.4039 46.7985 50.5639Z" fill="#231F20"/>
<path d="M72.0711 53.8418V49.466L72.093 46.3038C72.093 45.8691 71.9335 45.7064 71.5894 45.7064C71.2454 45.7283 70.0318 46.1193 69.0465 46.601C68.496 46.8543 68.3584 46.9888 68.3584 47.2422C68.3584 47.9522 69.4594 47.6769 69.4594 49.466L69.4813 53.8418C69.4813 54.9522 69.1841 55.3682 68.8964 55.6278C69.0997 55.8092 69.2936 56.0313 69.2936 56.4316C69.2936 56.6537 69.2248 56.8132 69.1185 56.929C69.1904 56.9321 69.2655 56.9352 69.3437 56.9352H72.2087C72.5653 56.9352 72.828 56.9008 72.9844 56.7851C73.0345 56.7476 73.072 56.7038 73.097 56.6506C73.1001 56.6443 73.1033 56.635 73.1064 56.6287C73.1283 56.5724 73.1439 56.5098 73.1439 56.4348C73.1439 56.3253 73.1283 56.2377 73.1001 56.1627C73.1001 56.1627 73.1001 56.1627 73.1001 56.1595C73.072 56.0845 73.0313 56.0219 72.9844 55.9656C72.6841 55.6122 72.0711 55.4714 72.0711 53.8512V53.8418Z" fill="#231F20"/>
<path d="M69.5031 43.8859C69.4562 44.5865 69.966 45.1464 70.7261 45.1683C71.58 45.2058 72.4995 44.549 72.8311 43.7733C73.2408 44.7492 73.7538 46.3162 74.3512 47.314C76.525 50.9391 77.063 51.574 77.063 51.574L74.9079 54.2764C74.1979 55.1866 73.5943 55.5182 73.2095 55.7778C73.3378 55.931 73.4348 56.1281 73.4348 56.4315C73.4348 56.6348 73.3785 56.7849 73.2877 56.8975C73.4254 56.9226 73.5818 56.9351 73.76 56.9351H75.5241C76.1184 56.9351 76.4875 56.8444 76.4875 56.4315C76.4875 55.6996 75.1582 55.8341 76.3718 54.2764L77.7449 52.5124L79.0054 54.2295C80.1752 55.8341 78.8208 55.6965 78.8208 56.4065C78.8208 56.8193 79.2087 56.9351 79.8061 56.9351H83.3561C83.9504 56.9351 84.3195 56.8444 84.3195 56.4315C84.3195 55.6996 83.3561 55.8341 82.2114 54.2326L79.8749 51.0235L81.7547 48.5932C82.9683 47.0356 83.8847 47.1732 83.8847 46.4382C83.8847 46.0503 83.5188 45.9346 82.9214 45.9346H81.1354C80.5411 45.9346 80.1971 46.0253 80.1971 46.4382C80.1971 47.1701 81.5264 47.0325 80.2878 48.5932L79.1649 50.0351C79.1649 50.0351 77.6542 48.0896 76.2185 45.9346C73.2064 41.4118 71.7113 41.6339 71.0076 42.0311C70.2069 42.3157 69.5219 43.1258 69.5031 43.8859Z" fill="#231F20"/>
<path d="M84.8856 47.0013C84.8856 46.8543 84.9138 46.7167 84.9701 46.5916C85.0264 46.4633 85.1014 46.3507 85.1984 46.2569C85.2954 46.1599 85.4048 46.0849 85.5331 46.0286C85.6613 45.9723 85.7989 45.9441 85.9428 45.9441C86.0867 45.9441 86.2243 45.9723 86.3526 46.0286C86.4808 46.0849 86.5934 46.1599 86.6872 46.2569C86.7842 46.3539 86.8593 46.4633 86.9156 46.5916C86.9719 46.7198 87 46.8574 87 47.0013C87 47.1452 86.9719 47.2828 86.9156 47.4111C86.8593 47.5393 86.7842 47.6519 86.6872 47.7457C86.5903 47.8427 86.4808 47.9178 86.3526 47.9741C86.2243 48.0304 86.0867 48.0585 85.9428 48.0585C85.7989 48.0585 85.6613 48.0304 85.5331 47.9741C85.4048 47.9178 85.2922 47.8427 85.1984 47.7457C85.1014 47.6488 85.0264 47.5393 84.9701 47.4111C84.9138 47.2828 84.8856 47.1452 84.8856 47.0013ZM85.1734 47.0013C85.1734 47.1108 85.1921 47.214 85.2328 47.311C85.2735 47.4079 85.3266 47.4924 85.3986 47.5643C85.4705 47.6363 85.5487 47.6926 85.6426 47.7364C85.7333 47.7801 85.8333 47.7989 85.9397 47.7989C86.046 47.7989 86.1461 47.777 86.2368 47.7364C86.3307 47.6926 86.412 47.6363 86.4808 47.5643C86.5496 47.4924 86.6059 47.4079 86.6466 47.311C86.6872 47.214 86.706 47.1108 86.706 47.0013C86.706 46.8918 86.6872 46.7886 86.6466 46.6885C86.6059 46.5884 86.5527 46.5071 86.4808 46.4352C86.4089 46.3632 86.3307 46.3069 86.2368 46.2632C86.1461 46.2194 86.046 46.2006 85.9397 46.2006C85.8333 46.2006 85.7333 46.2225 85.6426 46.2632C85.5487 46.3069 85.4674 46.3632 85.3986 46.4352C85.3298 46.5071 85.2735 46.5916 85.2328 46.6885C85.1921 46.7855 85.1734 46.8887 85.1734 47.0013ZM85.5362 46.4352H85.9303C85.9616 46.4352 86.0022 46.4352 86.0554 46.4414C86.1086 46.4446 86.1618 46.4602 86.2118 46.4821C86.2618 46.504 86.3088 46.5415 86.3463 46.5884C86.3838 46.6354 86.4026 46.7042 86.4026 46.7949C86.4026 46.8512 86.3963 46.8981 86.3807 46.9356C86.3651 46.9732 86.3463 47.0013 86.3244 47.0263C86.2994 47.0514 86.2712 47.067 86.2431 47.0795C86.2118 47.092 86.1805 47.1014 86.1493 47.1045L86.4339 47.5456H86.1336L85.8803 47.1202H85.8333V47.5456H85.5425V46.4383L85.5362 46.4352ZM85.824 46.895H85.9397C85.9553 46.895 85.9741 46.895 85.996 46.895C86.0179 46.895 86.0335 46.8887 86.0523 46.8793C86.0679 46.8731 86.0836 46.8606 86.093 46.8449C86.1055 46.8293 86.1117 46.8074 86.1117 46.7792C86.1117 46.7511 86.1055 46.7292 86.093 46.7136C86.0804 46.6979 86.0679 46.6854 86.0523 46.6792C86.0335 46.6729 86.0179 46.6666 85.996 46.6635C85.9772 46.6635 85.9585 46.6635 85.9397 46.6635H85.824V46.9012V46.895Z" fill="#231F20"/>
</svg>
