<svg width="117" height="117" viewBox="0 0 117 117" fill="none" xmlns="http://www.w3.org/2000/svg">
<rect x="0.452381" y="0.452381" width="116.095" height="116.095" rx="58.0476" stroke="#DFDFDF" stroke-width="0.904762"/>
<path d="M34.6919 36.2659H38.6917C39.8344 36.2659 40.7233 36.5833 41.2947 37.2182C41.7391 37.6626 41.993 38.2975 41.993 39.0594C41.993 40.5831 40.9137 41.4719 39.4535 41.7893L42.3105 45.5986H41.0407L38.3742 41.9798H35.7712V45.5352H34.7554V36.2659H34.6919ZM38.5647 41.0275C39.9614 41.0275 40.9772 40.3291 40.9772 39.1228C40.9772 37.9166 40.0884 37.2817 38.6282 37.2817H35.7712V41.0275H38.5647Z" fill="#00AFAA"/>
<path d="M53.9292 40.9639C53.9292 38.3609 55.8338 36.1388 58.6908 36.1388C61.4843 36.1388 63.3889 38.3609 63.3889 40.9004C63.3889 43.4399 61.4843 45.662 58.6273 45.662C55.8338 45.7255 53.9292 43.5034 53.9292 40.9639ZM62.2462 40.9639C62.2462 38.8053 60.7224 37.0911 58.5638 37.0911C56.4052 37.0911 54.945 38.8053 54.945 40.9004C54.945 42.9955 56.4687 44.7097 58.6273 44.7097C60.7859 44.7097 62.2462 43.059 62.2462 40.9639Z" fill="#00AFAA"/>
<path d="M77.737 41.8528L73.8643 36.2659H75.134L78.245 40.9005L81.4194 36.2659H82.6256L78.7529 41.8528V45.5352H77.6736V41.8528H77.737Z" fill="#00AFAA"/>
<path d="M38.1204 53.217H39.0727L43.2629 62.5498H42.1202L41.1043 60.1373H36.0888L35.0095 62.6133H33.9302L38.1204 53.217ZM40.7234 59.1849L38.6283 54.4233L36.5332 59.1214H40.7234V59.1849Z" fill="#00AFAA"/>
<path d="M55.897 53.2806H56.9128V61.5975H62.1188V62.5499H55.8335V53.2806H55.897Z" fill="#00AFAA"/>
<path d="M34.0571 78.2316L34.692 77.4697C35.6443 78.3586 36.5967 78.803 37.8664 78.803C39.1362 78.803 39.9615 78.1681 39.9615 77.2158C39.9615 76.3269 39.5171 75.8825 37.549 75.4381C35.3904 74.9937 34.4381 74.2953 34.4381 72.7716C34.4381 71.3114 35.7078 70.2321 37.4855 70.2321C38.8187 70.2321 39.7711 70.613 40.7234 71.3748L40.0885 72.2002C39.1997 71.5018 38.3743 71.1844 37.422 71.1844C36.2157 71.1844 35.4539 71.8193 35.4539 72.7081C35.4539 73.5969 35.9618 74.0413 37.9934 74.4858C40.0885 74.9302 41.0408 75.692 41.0408 77.0888C41.0408 78.676 39.7076 79.6918 37.8664 79.6918C36.4062 79.6918 35.1999 79.1839 34.0571 78.2316Z" fill="#00AFAA"/>
<path d="M54.564 70.2953H58.0558C60.1509 70.2953 61.5477 71.4381 61.5477 73.2158C61.5477 75.1839 59.897 76.2632 57.9288 76.2632H55.7068V79.5011H54.6909V70.2953H54.564ZM57.8654 75.3744C59.3891 75.3744 60.4049 74.5491 60.4049 73.3428C60.4049 72.0095 59.3891 71.3112 57.9288 71.3112H55.5798V75.3744H57.8654Z" fill="#00AFAA"/>
<path d="M77.2928 70.2321H78.2451L82.4353 79.5648H81.356L80.2767 77.0888H75.2611L74.1818 79.5648H73.1025L77.2928 70.2321ZM79.8958 76.2L77.8007 71.5018L75.7056 76.2H79.8958Z" fill="#00AFAA"/>
<path d="M78.118 59.5024L75.8324 52.6457L73.5468 59.5024L68.5312 52.6457L71.2612 62.6133H80.3401L83.0701 52.6457L78.118 59.5024Z" fill="#00AFAA"/>
</svg>
