<svg width="117" height="117" viewBox="0 0 117 117" fill="none" xmlns="http://www.w3.org/2000/svg">
<rect x="0.452381" y="0.452381" width="116.095" height="116.095" rx="58.0476" stroke="#DFDFDF" stroke-width="0.904762"/>
<path d="M53.9485 30.42H38.2506L30.4126 43.92L38.2452 57.366H53.943L61.8083 43.92L53.9485 30.42ZM54.4936 50.562C54.3136 50.589 54.1297 50.5745 53.9564 50.5196C53.783 50.4647 53.6247 50.3709 53.4939 50.2455C53.3631 50.1201 53.2633 49.9664 53.2022 49.7966C53.1411 49.6267 53.1205 49.4451 53.1418 49.266V40.8582L47.6911 44.5464C47.3173 44.9084 46.8356 45.1413 46.3176 45.2106C45.8065 45.1602 45.3325 44.9235 44.9876 44.5464L39.5097 40.9014V49.2336C39.534 49.4259 39.5115 49.6211 39.4441 49.8029C39.3767 49.9848 39.2664 50.1481 39.1224 50.2791C38.9784 50.4102 38.8048 50.5052 38.6162 50.5563C38.4276 50.6074 38.2293 50.6131 38.038 50.5728C37.8543 50.602 37.6662 50.5873 37.4893 50.5302C37.3124 50.473 37.1518 50.3749 37.0208 50.244C36.8898 50.1132 36.7921 49.9533 36.7358 49.7776C36.6795 49.6018 36.6663 49.4154 36.6972 49.2336V38.3796C36.6972 38.0556 36.9152 37.7208 37.3731 37.386C37.5867 37.2224 37.8466 37.1292 38.1165 37.1195C38.3863 37.1098 38.6524 37.1841 38.8774 37.332L46.2358 42.192L53.5397 37.332C53.7674 37.1737 54.0357 37.0826 54.3136 37.0692C54.5914 37.0558 54.8674 37.1208 55.1095 37.2564C55.3122 37.3666 55.4826 37.527 55.6039 37.722C55.7253 37.917 55.7934 38.1399 55.8017 38.3688V49.239C55.8245 49.4179 55.8058 49.5996 55.7472 49.7702C55.6886 49.9409 55.5915 50.0962 55.4634 50.2242C55.3352 50.3522 55.1793 50.4496 55.0075 50.5091C54.8357 50.5685 54.6525 50.5885 54.4718 50.5674L54.4936 50.562ZM53.06 70.3476C53.0876 70.5312 53.0714 70.7187 53.0127 70.8949C52.954 71.0712 52.8544 71.2314 52.7219 71.3626C52.5894 71.4939 52.4277 71.5925 52.2498 71.6507C52.0719 71.7089 51.8827 71.725 51.6974 71.6976H39.3516V68.9976H51.6974C51.881 68.979 52.0664 69.0012 52.2402 69.0624C52.4141 69.1237 52.572 69.2226 52.7025 69.3518C52.833 69.4811 52.9328 69.6375 52.9946 69.8098C53.0565 69.982 53.0788 70.1657 53.06 70.3476ZM61.7157 73.1178L53.8504 86.58H38.1525L30.3145 73.1178L38.1634 59.6178H53.8504L61.7157 73.1178ZM55.7854 70.3422C55.7854 67.6314 54.4136 66.276 51.6701 66.276H37.989C37.8037 66.2487 37.6145 66.2647 37.4365 66.3229C37.2586 66.3811 37.0969 66.4798 36.9645 66.611C36.832 66.7423 36.7324 66.9025 36.6737 67.0787C36.6149 67.255 36.5987 67.4424 36.6263 67.626V78.48C36.5991 78.6626 36.6153 78.8489 36.6734 79.0242C36.7315 79.1995 36.8301 79.359 36.9613 79.49C37.0925 79.6211 37.2527 79.72 37.4292 79.779C37.6056 79.838 37.7936 79.8555 37.9781 79.83C38.1634 79.8546 38.3519 79.8367 38.5291 79.7778C38.7063 79.7188 38.8674 79.6203 39.0002 79.4898C39.1329 79.3594 39.2336 79.2005 39.2945 79.0255C39.3554 78.8504 39.375 78.6638 39.3516 78.48V74.403H51.6701C54.4173 74.403 55.7908 73.0494 55.7908 70.3422H55.7854ZM79.7737 44.8812H64.0758L56.2269 58.3812L64.0758 71.8434H79.7737L87.6445 58.3704L79.7737 44.8812ZM80.3188 65.007H68.0221C64.3883 64.989 62.5714 63.18 62.5714 59.58V56.88C62.5714 53.28 64.3883 51.48 68.0221 51.48H80.3133C80.4949 51.457 80.6795 51.4762 80.8524 51.5358C81.0253 51.5955 81.1818 51.6942 81.3097 51.824C81.4375 51.9538 81.5333 52.1113 81.5893 52.284C81.6453 52.4567 81.66 52.6399 81.6324 52.8192C81.66 52.9985 81.6453 53.1817 81.5893 53.3544C81.5333 53.5271 81.4375 53.6846 81.3097 53.8144C81.1818 53.9443 81.0253 54.0429 80.8524 54.1026C80.6795 54.1623 80.4949 54.1814 80.3133 54.1584H68.0221C66.2052 54.1728 65.2968 55.08 65.2968 56.88V59.58C65.2968 61.38 66.2052 62.28 68.0221 62.28H80.3133C80.4978 62.2546 80.6858 62.272 80.8622 62.331C81.0387 62.39 81.1989 62.489 81.3301 62.62C81.4613 62.751 81.5599 62.9105 81.618 63.0858C81.6762 63.2611 81.6923 63.4475 81.6651 63.63C81.6903 63.8132 81.6725 63.9996 81.6129 64.1748C81.5534 64.35 81.4537 64.5092 81.3218 64.6399C81.1899 64.7706 81.0292 64.8694 80.8524 64.9284C80.6755 64.9874 80.4873 65.005 80.3024 64.98L80.3188 65.007Z" fill="#C1272D"/>
<path d="M84.1344 70.785C84.1344 70.9007 84.0658 71.0138 83.9372 71.11C83.8087 71.2062 83.626 71.2812 83.4122 71.3255C83.1984 71.3698 82.9631 71.3813 82.7362 71.3588C82.5092 71.3362 82.3007 71.2805 82.1371 71.1987C81.9735 71.1169 81.8621 71.0126 81.8169 70.8991C81.7718 70.7857 81.7949 70.668 81.8835 70.5611C81.9721 70.4542 82.122 70.3629 82.3144 70.2986C82.5068 70.2343 82.733 70.2 82.9644 70.2C83.2747 70.2 83.5723 70.2616 83.7917 70.3714C84.0112 70.4811 84.1344 70.6299 84.1344 70.785ZM82.046 70.785C82.0421 70.8455 82.0624 70.9058 82.1059 70.9623C82.1493 71.0188 82.215 71.0704 82.299 71.114C82.3829 71.1577 82.4835 71.1924 82.5948 71.2163C82.7061 71.2402 82.8258 71.2527 82.9469 71.253C83.0677 71.2527 83.1872 71.2402 83.2981 71.2163C83.4091 71.1924 83.5093 71.1575 83.5928 71.1139C83.6763 71.0702 83.7414 71.0186 83.7842 70.9621C83.827 70.9056 83.8466 70.8454 83.8419 70.785C83.8419 70.6655 83.747 70.551 83.5781 70.4665C83.4091 70.382 83.18 70.3346 82.941 70.3346C82.7021 70.3346 82.473 70.382 82.304 70.4665C82.135 70.551 82.0401 70.6655 82.0401 70.785H82.046ZM82.748 71.0775H82.5023V70.4925C82.6413 70.48 82.7822 70.4731 82.9235 70.472C83.0618 70.4648 83.2008 70.4824 83.3154 70.5218C83.3542 70.5362 83.3852 70.5553 83.4057 70.5773C83.4261 70.5992 83.4353 70.6234 83.4324 70.6475C83.4257 70.6808 83.3985 70.7122 83.3544 70.7374C83.3104 70.7625 83.2518 70.7802 83.1867 70.7879C83.3037 70.8084 83.3622 70.8523 83.3973 70.9342C83.4112 70.9834 83.4429 71.031 83.4909 71.0746H83.216C83.1661 71.0293 83.1343 70.9797 83.1224 70.9283C83.1224 70.8698 83.0229 70.8406 82.8708 70.8406H82.7538L82.748 71.0775ZM82.748 70.7441H82.8825C83.0346 70.7441 83.1575 70.7236 83.1575 70.6651C83.1575 70.6066 83.0873 70.5773 82.9059 70.5773C82.8554 70.5745 82.8044 70.5745 82.7538 70.5773L82.748 70.7441Z" fill="#981B1E"/>
</svg>
