<svg width="100" height="100" viewBox="0 0 100 100" fill="none" xmlns="http://www.w3.org/2000/svg">
<rect x="0.452381" y="0.452381" width="99.0952" height="99.0952" rx="49.5476" stroke="#DFDFDF" stroke-width="0.904762"/>
<path d="M12.2966 51.9096C12.6032 52.4118 13.2163 52.5665 13.7565 52.5987C14.2966 52.6308 15.0411 52.5403 15.3623 52.2045C15.4474 52.1182 15.5132 52.0148 15.5553 51.9012C15.5975 51.7875 15.615 51.6662 15.6067 51.5453C15.5984 51.4244 15.5645 51.3066 15.5073 51.1998C15.4501 51.093 15.3708 50.9995 15.2747 50.9256C14.8368 50.6337 14.1419 50.4672 13.5813 50.3417C12.7199 50.1607 11.7185 49.9329 11.3039 49.1738C11.201 48.9546 11.1431 48.7171 11.1337 48.4752C11.1243 48.2333 11.1635 47.9919 11.2489 47.7654C11.3344 47.539 11.4645 47.3319 11.6314 47.1566C11.7983 46.9812 11.9987 46.8411 12.2207 46.7446C12.7136 46.5223 13.2511 46.4164 13.7915 46.4351C14.4467 46.4043 15.0965 46.5667 15.6601 46.9022C15.9172 47.099 16.1257 47.3522 16.2695 47.6422C16.4132 47.9323 16.4885 48.2515 16.4893 48.5752H15.3711C15.3214 47.9446 14.8952 47.6117 14.3346 47.4862C13.774 47.3606 12.9243 47.3986 12.5243 47.8074C12.4137 47.9224 12.3449 48.0713 12.329 48.2302C12.3132 48.389 12.3511 48.5486 12.4367 48.6833C12.5481 48.821 12.6874 48.9334 12.8455 49.0132C13.3419 49.276 14.0601 49.3753 14.6733 49.5242C15.2864 49.6731 15.9492 49.8453 16.3871 50.3213C16.5815 50.5523 16.7153 50.828 16.7764 51.1237C16.8376 51.4193 16.8242 51.7255 16.7375 52.0147C16.6428 52.3477 16.462 52.6498 16.2134 52.8907C15.9649 53.1316 15.6572 53.3028 15.3214 53.387C14.8405 53.5303 14.3399 53.5963 13.8382 53.5826C13.1115 53.6155 12.394 53.4105 11.7944 52.9987C11.542 52.7908 11.3396 52.5288 11.2021 52.2322C11.0647 51.9355 10.9957 51.6117 11.0002 51.2848H12.1243C12.126 51.5032 12.1843 51.7175 12.2937 51.9067L12.2966 51.9096ZM19.2368 44V49.5855L22.3493 46.6073H23.8559L21.1463 49.0891L24.0661 53.4395H22.6267L20.2909 49.8716L19.2339 50.8497V53.4425H18.1069V44.0117L19.2368 44ZM24.9683 45.3752V44.0029H26.0924V45.3752H24.9683ZM26.0924 46.6015V53.4337H24.9683V46.6073L26.0924 46.6015ZM28.8954 46.6015V47.6876H28.9245C29.1379 47.291 29.46 46.9635 29.8531 46.7437C30.2462 46.5238 30.6939 46.4208 31.1436 46.4467C31.5256 46.4353 31.9064 46.4977 32.2647 46.6307C32.5462 46.7401 32.7968 46.9165 32.9947 47.1446C33.1834 47.3738 33.3163 47.6436 33.383 47.9329C33.46 48.2631 33.4972 48.6012 33.494 48.9402V53.4308H32.3699V48.8088C32.3794 48.625 32.3514 48.4412 32.2876 48.2685C32.2239 48.0959 32.1257 47.938 31.999 47.8044C31.864 47.6774 31.7046 47.579 31.5304 47.5153C31.3563 47.4516 31.1711 47.4238 30.9859 47.4336C30.6806 47.4263 30.3768 47.4799 30.0924 47.5913C29.8509 47.6901 29.636 47.8441 29.4647 48.0409C29.2928 48.2404 29.1637 48.4729 29.0851 48.7242C28.9999 49.0002 28.9585 49.2879 28.9625 49.5767V53.4366H27.8384V46.6044L28.8954 46.6015ZM37.5728 47.0803H36.0955V51.822C36.0955 52.9198 36.6093 53.0249 37.5553 52.9899V53.4279C36.5247 53.4921 35.5349 53.3461 35.5874 51.8132V47.0833H34.3319V46.6453H35.5874V44.5285H36.0896V46.6424H37.5699L37.5728 47.0803ZM38.6999 50.1052C38.6707 51.7052 39.5174 53.1563 41.1963 53.1563C41.7816 53.1865 42.3569 52.9955 42.808 52.6212C43.2591 52.2469 43.553 51.7167 43.6313 51.1359H44.1335C43.8707 52.7242 42.8109 53.5972 41.2138 53.5972C39.2283 53.5972 38.1889 52.0381 38.2152 50.1607C38.186 48.2979 39.1641 46.4876 41.2109 46.4876C43.3423 46.4876 44.2912 48.1665 44.1978 50.1081L38.6999 50.1052ZM43.681 49.6672C43.6518 48.2424 42.7554 46.9227 41.1992 46.9227C39.6897 46.9227 38.805 48.3241 38.6999 49.6672H43.681ZM45.9817 44V53.4308H45.4854V44H45.9817ZM48.2007 44V53.4308H47.6985V44H48.2007ZM49.9175 45.3606V44H50.4197V45.3606H49.9175ZM49.9175 53.4337V46.6424H50.4197V53.4337H49.9175ZM57.6315 46.6424V53.0658C57.6315 53.5914 57.6315 56.1024 54.7118 56.0148C53.2519 56.0148 52.1366 55.4688 52.0548 53.8979H52.5599C52.665 55.1009 53.6169 55.5768 54.7264 55.5768C57.103 55.5768 57.1439 53.6352 57.1439 53.1826V51.6351H57.1147C56.9113 52.1115 56.5677 52.5147 56.1296 52.7911C55.6915 53.0675 55.1797 53.2041 54.6621 53.1826C52.665 53.1826 51.7424 51.7227 51.7424 49.8249C51.7424 48.0322 52.7585 46.4847 54.6621 46.4847C55.1834 46.4639 55.6984 46.604 56.1372 46.8861C56.576 47.1682 56.9173 47.5785 57.1147 48.0614H57.1439V46.6365L57.6315 46.6424ZM52.2183 49.8249C52.2183 51.4308 53.0504 52.7446 54.6505 52.7446C56.3001 52.7446 57.1176 51.3607 57.1176 49.8249C57.1176 48.2891 56.3118 46.9052 54.6475 46.9052C52.9833 46.9052 52.2125 48.3884 52.2125 49.8249H52.2183ZM59.3133 50.1052C59.2841 51.7052 60.1308 53.1563 61.8097 53.1563C62.395 53.1865 62.9704 52.9955 63.4214 52.6212C63.8725 52.2469 64.1664 51.7167 64.2448 51.1359H64.7557C64.4929 52.7242 63.4331 53.5972 61.836 53.5972C59.8505 53.5972 58.8111 52.0381 58.8374 50.1607C58.8082 48.2979 59.7892 46.4876 61.836 46.4876C63.9674 46.4876 64.9134 48.1665 64.8229 50.1081L59.3133 50.1052ZM64.2944 49.6672C64.2652 48.2424 63.3688 46.9227 61.8126 46.9227C60.3031 46.9227 59.4184 48.3241 59.3133 49.6672H64.2944ZM65.9732 46.6424H66.4754V48.1022H66.5046C66.6924 47.6142 67.0275 47.1968 67.4633 46.908C67.8992 46.6192 68.4142 46.4733 68.9368 46.4905C71.331 46.4905 71.3543 48.4059 71.3543 49.2351V53.4395H70.858V49.1475C70.858 48.4468 70.7762 46.9285 68.9251 46.9285C67.4068 46.9285 66.4813 48.0964 66.4813 49.7665V53.4395H65.9849L65.9732 46.6424ZM77.9471 48.7388C77.8537 47.5358 76.8756 46.9139 75.6493 46.9139C73.9471 46.9139 73.0215 48.4205 73.0215 49.968C73.0215 51.8074 73.8828 53.1563 75.6493 53.1563C76.2372 53.1663 76.8072 52.9542 77.2456 52.5624C77.684 52.1705 77.9585 51.6278 78.0143 51.0424H78.5194C78.2946 52.6687 77.1179 53.5943 75.6522 53.5943C73.4478 53.5943 72.5368 51.8629 72.5368 49.9738C72.5368 48.0847 73.6463 46.4847 75.6551 46.4847C77.115 46.4847 78.3121 47.1971 78.4581 48.7446L77.9471 48.7388ZM79.8888 50.1052C79.8596 51.7052 80.7063 53.1563 82.3852 53.1563C82.97 53.1857 83.5446 52.9944 83.9951 52.6202C84.4455 52.246 84.739 51.7162 84.8173 51.1359H85.3224C85.0596 52.7242 83.9998 53.5972 82.4027 53.5972C80.4172 53.5972 79.3778 52.0381 79.4012 50.1607C79.372 48.2979 80.353 46.4876 82.4027 46.4876C84.5341 46.4876 85.4801 48.1665 85.3896 50.1081L79.8888 50.1052ZM84.8699 49.6672C84.8407 48.2424 83.9414 46.9227 82.3822 46.9227C80.8756 46.9227 79.988 48.3241 79.8858 49.6672H84.8699ZM88.7911 48.0964C88.7905 48.381 88.7056 48.659 88.5471 48.8953C88.3885 49.1316 88.1635 49.3157 87.9005 49.4242C87.6374 49.5327 87.3481 49.5608 87.069 49.5049C86.79 49.449 86.5338 49.3117 86.3328 49.1103C86.1318 48.9089 85.995 48.6524 85.9397 48.3732C85.8843 48.0941 85.913 47.8048 86.0221 47.542C86.1311 47.2791 86.3156 47.0545 86.5522 46.8964C86.7889 46.7384 87.0671 46.6541 87.3516 46.6541C87.5407 46.6544 87.7278 46.692 87.9023 46.7647C88.0768 46.8374 88.2352 46.9438 88.3686 47.0777C88.502 47.2117 88.6077 47.3705 88.6797 47.5453C88.7517 47.7201 88.7885 47.9074 88.7882 48.0964H88.7911ZM86.0553 48.0964C86.0553 48.4398 86.1917 48.7692 86.4345 49.012C86.6774 49.2549 87.0068 49.3913 87.3502 49.3913C87.6936 49.3913 88.023 49.2549 88.2658 49.012C88.5087 48.7692 88.6451 48.4398 88.6451 48.0964C88.6451 47.753 88.5087 47.4236 88.2658 47.1808C88.023 46.9379 87.6936 46.8015 87.3502 46.8015C87.0068 46.8015 86.6774 46.9379 86.4345 47.1808C86.1917 47.4236 86.0553 47.753 86.0553 48.0964ZM86.8261 47.2438H87.4626C87.848 47.2438 88.0173 47.4044 88.0173 47.711C88.0174 47.8285 87.9717 47.9415 87.89 48.026C87.8083 48.1104 87.6969 48.1598 87.5794 48.1636L88.0874 48.9461H87.9268L87.413 48.1548H86.975V48.9431H86.829L86.8261 47.2438ZM86.9721 48.0322H87.3312C87.5881 48.0322 87.8714 48.003 87.8714 47.711C87.8714 47.419 87.6436 47.3694 87.4392 47.3694H86.9721V48.0322Z" fill="#050404"/>
<path d="M59.8213 54.8702H85.0858M11.076 54.8702H49.9291" stroke="#050404" stroke-width="0.81"/>
</svg>
