<svg width="44" height="28" viewBox="0 0 44 28" fill="none" xmlns="http://www.w3.org/2000/svg">
<path opacity="0.07" d="M40.5263 0H3.47368C1.50526 0 0 1.51667 0 3.5V24.5C0 26.4833 1.62105 28 3.47368 28H40.5263C42.4947 28 44 26.4833 44 24.5V3.5C44 1.51667 42.3789 0 40.5263 0Z" fill="black"/>
<path d="M40.5266 1.16602C41.8003 1.16602 42.8424 2.21602 42.8424 3.49935V24.4993C42.8424 25.7827 41.8003 26.8327 40.5266 26.8327H3.47399C2.20031 26.8327 1.1582 25.7827 1.1582 24.4993V3.49935C1.1582 2.21602 2.20031 1.16602 3.47399 1.16602H40.5266Z" fill="white"/>
<path d="M4.13332 8.35289H2.31543V14.7696H4.13332C5.09438 14.7696 5.78911 14.5362 6.4028 14.0346C7.13227 13.4279 7.56069 12.5179 7.56069 11.5729C7.54911 9.67122 6.14806 8.35289 4.13332 8.35289ZM5.59227 13.1829C5.19859 13.5329 4.70069 13.6962 3.89017 13.6962H3.55438V9.44956H3.89017C4.68911 9.44956 5.17543 9.58956 5.59227 9.96289C6.02069 10.3479 6.27543 10.9429 6.27543 11.5612C6.27543 12.1796 6.02069 12.7979 5.59227 13.1829ZM8.12806 8.35289H9.36701V14.7696H8.12806V8.35289ZM12.4007 10.8146C11.6596 10.5346 11.4396 10.3479 11.4396 10.0096C11.4396 9.60122 11.8333 9.29789 12.366 9.29789C12.7365 9.29789 13.0491 9.44956 13.3617 9.82289L14.0102 8.97122C13.4775 8.50456 12.8407 8.25956 12.1344 8.25956C11.0112 8.25956 10.1428 9.05289 10.1428 10.1029C10.1428 10.9896 10.5481 11.4446 11.706 11.8646C12.1923 12.0396 12.4354 12.1562 12.5628 12.2262C12.806 12.3896 12.9333 12.6229 12.9333 12.8912C12.9333 13.4162 12.5281 13.8012 11.9723 13.8012C11.3817 13.8012 10.907 13.4979 10.6175 12.9496L9.81859 13.7312C10.386 14.5829 11.0807 14.9562 12.0186 14.9562C13.3039 14.9562 14.2186 14.0929 14.2186 12.8446C14.2417 11.8062 13.8133 11.3396 12.4007 10.8146ZM14.6239 11.5729C14.6239 13.4629 16.0944 14.9212 17.9817 14.9212C18.5144 14.9212 18.9775 14.8162 19.5333 14.5479V13.0779C19.0354 13.5796 18.5954 13.7779 18.0396 13.7779C16.7891 13.7779 15.8975 12.8679 15.8975 11.5612C15.8975 10.3246 16.8123 9.35622 17.9817 9.35622C18.5723 9.35622 19.0239 9.56622 19.5333 10.0796V8.60956C18.9891 8.32956 18.5375 8.21289 18.0049 8.21289C16.1407 8.21289 14.6239 9.70622 14.6239 11.5729ZM29.3986 12.6696L27.6965 8.35289H26.3417L29.0396 14.9329H29.7112L32.4554 8.35289H31.1123L29.3986 12.6696ZM33.0228 14.7696H36.5428V13.6846H34.2617V11.9579H36.4617V10.8729H34.2617V9.44956H36.5428V8.35289H33.0228V14.7696ZM41.4639 10.2546C41.4639 9.05289 40.6417 8.36456 39.206 8.36456H37.3649V14.7812H38.6039V12.2029H38.766L40.4796 14.7812H42.0081L40.0049 12.0746C40.9428 11.8762 41.4639 11.2346 41.4639 10.2546ZM38.9628 11.3162H38.6039V9.36789H38.986C39.7617 9.36789 40.1786 9.69456 40.1786 10.3246C40.1786 10.9662 39.7617 11.3162 38.9628 11.3162Z" fill="#231F20"/>
<path d="M23.3433 15.0031C24.2433 15.0031 25.1066 14.6428 25.743 14.0015C26.3795 13.3602 26.737 12.4905 26.737 11.5836C26.737 10.6767 26.3795 9.80689 25.743 9.16561C25.1066 8.52433 24.2433 8.16406 23.3433 8.16406C22.4432 8.16406 21.5799 8.52433 20.9435 9.16561C20.307 9.80689 19.9495 10.6767 19.9495 11.5836C19.9495 12.4905 20.307 13.3602 20.9435 14.0015C21.5799 14.6428 22.4432 15.0031 23.3433 15.0031Z" fill="url(#paint0_linear_473_7761)"/>
<path opacity="0.65" d="M23.3433 15.0031C24.2433 15.0031 25.1066 14.6428 25.743 14.0015C26.3795 13.3602 26.737 12.4905 26.737 11.5836C26.737 10.6767 26.3795 9.80689 25.743 9.16561C25.1066 8.52433 24.2433 8.16406 23.3433 8.16406C22.4432 8.16406 21.5799 8.52433 20.9435 9.16561C20.307 9.80689 19.9495 10.6767 19.9495 11.5836C19.9495 12.4905 20.307 13.3602 20.9435 14.0015C21.5799 14.6428 22.4432 15.0031 23.3433 15.0031Z" fill="url(#paint1_linear_473_7761)"/>
<path d="M42.3439 8.75703C42.3439 8.64036 42.2628 8.58203 42.1355 8.58203H41.9502V9.14203H42.0891V8.92036L42.2513 9.14203H42.4134L42.2281 8.9087C42.2976 8.89703 42.3439 8.8387 42.3439 8.75703ZM42.1123 8.8387H42.0891V8.68703H42.1123C42.1818 8.68703 42.2165 8.71036 42.2165 8.75703C42.2165 8.81536 42.1818 8.8387 42.1123 8.8387Z" fill="#231F20"/>
<path d="M42.1589 8.37207C41.8926 8.37207 41.6726 8.59374 41.6726 8.86207C41.6726 9.1304 41.8926 9.35207 42.1589 9.35207C42.4252 9.35207 42.6452 9.1304 42.6452 8.86207C42.6452 8.59374 42.4252 8.37207 42.1589 8.37207ZM42.1589 9.2704C41.9505 9.2704 41.7652 9.0954 41.7652 8.86207C41.7652 8.6404 41.9389 8.45374 42.1589 8.45374C42.3673 8.45374 42.541 8.6404 42.541 8.86207C42.541 9.08374 42.3673 9.2704 42.1589 9.2704Z" fill="#231F20"/>
<path d="M42.8424 15.1484C42.8424 15.1484 31.3677 23.1856 10.3936 26.8338H40.5254C41.1364 26.8338 41.7227 26.5905 42.1564 26.157C42.5902 25.7234 42.8364 25.1347 42.8412 24.5191L42.869 20.9958L42.8424 15.1484Z" fill="#F48120"/>
<defs>
<linearGradient id="paint0_linear_473_7761" x1="25.0766" y1="14.3206" x2="22.7067" y2="10.6373" gradientUnits="userSpaceOnUse">
<stop stop-color="#F89F20"/>
<stop offset="0.25" stop-color="#F79A20"/>
<stop offset="0.533" stop-color="#F68D20"/>
<stop offset="0.62" stop-color="#F58720"/>
<stop offset="0.723" stop-color="#F48120"/>
<stop offset="1" stop-color="#F37521"/>
</linearGradient>
<linearGradient id="paint1_linear_473_7761" x1="24.7073" y1="14.2704" x2="21.2387" y2="7.54129" gradientUnits="userSpaceOnUse">
<stop stop-color="#F58720"/>
<stop offset="0.359" stop-color="#E16F27"/>
<stop offset="0.703" stop-color="#D4602C"/>
<stop offset="0.982" stop-color="#D05B2E"/>
</linearGradient>
</defs>
</svg>
