<svg width="44" height="28" viewBox="0 0 44 28" fill="none" xmlns="http://www.w3.org/2000/svg">
<path opacity="0.07" d="M40.5263 0H3.47368C1.50526 0 0 1.51667 0 3.5V24.5C0 26.4833 1.62105 28 3.47368 28H40.5263C42.4947 28 44 26.4833 44 24.5V3.5C44 1.51667 42.3789 0 40.5263 0Z" fill="black"/>
<path d="M40.5266 1.16602C41.8003 1.16602 42.8424 2.21602 42.8424 3.49935V24.4993C42.8424 25.7827 41.8003 26.8327 40.5266 26.8327H3.47399C2.20031 26.8327 1.1582 25.7827 1.1582 24.4993V3.49935C1.1582 2.21602 2.20031 1.16602 3.47399 1.16602H40.5266Z" fill="white"/>
<path d="M17.368 22.1673C21.8444 22.1673 25.4732 18.511 25.4732 14.0007C25.4732 9.49033 21.8444 5.83398 17.368 5.83398C12.8915 5.83398 9.2627 9.49033 9.2627 14.0007C9.2627 18.511 12.8915 22.1673 17.368 22.1673Z" fill="#EB001B"/>
<path d="M26.6316 22.1663C31.108 22.1663 34.7369 18.51 34.7369 13.9997C34.7369 9.48935 31.108 5.83301 26.6316 5.83301C22.1552 5.83301 18.5264 9.48935 18.5264 13.9997C18.5264 18.51 22.1552 22.1663 26.6316 22.1663Z" fill="#F79E1B"/>
<path d="M25.4737 13.9996C25.4737 11.1996 24.0843 8.74961 22.0001 7.34961C19.9158 8.86628 18.5264 11.3163 18.5264 13.9996C18.5264 16.6829 19.9158 19.2496 22.0001 20.6496C24.0843 19.2496 25.4737 16.7996 25.4737 13.9996Z" fill="#FF5F00"/>
</svg>
