<svg width="44" height="28" viewBox="0 0 44 28" fill="none" xmlns="http://www.w3.org/2000/svg">
<path opacity="0.07" d="M40.5263 0H3.47368C1.50526 0 0 1.51667 0 3.5V24.5C0 26.4833 1.62105 28 3.47368 28H40.5263C42.4947 28 44 26.4833 44 24.5V3.5C44 1.51667 42.3789 0 40.5263 0Z" fill="black"/>
<path d="M40.5266 1.16602C41.8003 1.16602 42.8424 2.21602 42.8424 3.49935V24.4993C42.8424 25.7827 41.8003 26.8327 40.5266 26.8327H3.47399C2.20031 26.8327 1.1582 25.7827 1.1582 24.4993V3.49935C1.1582 2.21602 2.20031 1.16602 3.47399 1.16602H40.5266Z" fill="white"/>
<path d="M13.895 14.0007V18.3173C13.895 18.6673 13.6634 18.6673 13.3161 18.5507C11.1161 17.6173 9.84239 14.7007 10.6529 12.2507C11.1161 10.9673 12.0424 9.91732 13.3161 9.45065C13.7792 9.21732 13.895 9.33398 13.895 9.68398V14.0007ZM16.2108 14.0007V9.68398C16.2108 9.33398 16.2108 9.33399 16.5582 9.45065C18.9898 10.384 20.2634 13.3007 19.3371 15.7507C18.874 17.034 17.9477 18.084 16.674 18.5507C16.2108 18.784 16.2108 18.6673 16.2108 18.3173V14.0007ZM24.5477 5.83398H15.0529C19.4529 5.83398 22.9266 9.45065 22.9266 14.0007C22.9266 18.5507 19.4529 22.1673 15.0529 22.1673H24.5477C28.9477 22.1673 32.4213 18.5507 32.4213 14.0007C32.4213 9.45065 28.9477 5.83398 24.5477 5.83398Z" fill="#3086C8"/>
</svg>
