<svg width="44" height="28" viewBox="0 0 44 28" fill="none" xmlns="http://www.w3.org/2000/svg">
<path opacity="0.07" d="M40.5263 0H3.47368C1.50526 0 0 1.51667 0 3.5V24.5C0 26.4833 1.62105 28 3.47368 28H40.5263C42.4947 28 44 26.4833 44 24.5V3.5C44 1.51667 42.3789 0 40.5263 0Z" fill="black"/>
<path d="M40.5266 1.16602C41.8003 1.16602 42.8424 2.21602 42.8424 3.49935V24.4993C42.8424 25.7827 41.8003 26.8327 40.5266 26.8327H3.47399C2.20031 26.8327 1.1582 25.7827 1.1582 24.4993V3.49935C1.1582 2.21602 2.20031 1.16602 3.47399 1.16602H40.5266Z" fill="#006FCF"/>
<path d="M25.4875 23.2591V13.4346L42.8421 13.4497V16.1634L40.8366 18.3241L42.8421 20.5022V23.2731H39.6393L37.9372 21.3807L36.2467 23.2801L25.4875 23.2567V23.2591Z" fill="white"/>
<path d="M26.6465 22.1806V14.5156H33.0983V16.2808H28.7353V17.4801H32.9941V19.2161H28.7353V20.3945H33.0983V22.1806H26.6465Z" fill="#006FCF"/>
<path d="M33.0664 22.1808L36.6362 18.3436L33.0664 14.5146H35.8291L38.0106 16.9448L40.199 14.5158H42.8425V14.5753L39.3491 18.3436L42.8425 22.0735V22.182H40.1713L37.9516 19.7285L35.7539 22.1831H33.0664V22.1808Z" fill="#006FCF"/>
<path d="M26.2958 4.71289H30.4804L31.9498 8.07406V4.71289H37.114L38.0056 7.23172L38.8983 4.71289H42.8421V14.5374H22L26.2958 4.71289Z" fill="white"/>
<path d="M27.0893 5.78125L23.7129 13.4416H26.0287L26.6655 11.9074H30.116L30.7529 13.4416H33.1266L29.764 5.78125H27.0893ZM27.3788 10.1878L28.3919 7.74942L29.4028 10.1878H27.3788Z" fill="#006FCF"/>
<path d="M33.0938 13.4398V5.77832L36.3486 5.78999L38.0252 10.4998L39.7111 5.77949H42.8421V13.4387L40.8273 13.4573V8.19565L38.9238 13.4387H37.0827L35.1421 8.17815V13.4398H33.0949H33.0938Z" fill="#006FCF"/>
</svg>
