<svg width="44" height="28" viewBox="0 0 44 28" fill="none" xmlns="http://www.w3.org/2000/svg">
<path opacity="0.07" d="M40.5263 0H3.47368C1.50526 0 0 1.51667 0 3.5V24.5C0 26.4833 1.62105 28 3.47368 28H40.5263C42.4947 28 44 26.4833 44 24.5V3.5C44 1.51667 42.3789 0 40.5263 0Z" fill="black"/>
<path d="M40.5266 1.16602C41.8003 1.16602 42.8424 2.21602 42.8424 3.49935V24.4993C42.8424 25.7827 41.8003 26.8327 40.5266 26.8327H3.47399C2.20031 26.8327 1.1582 25.7827 1.1582 24.4993V3.49935C1.1582 2.21602 2.20031 1.16602 3.47399 1.16602H40.5266Z" fill="white"/>
<path d="M27.6741 9.68398C27.9057 8.51732 27.6741 7.70065 26.9794 7.00065C26.2846 6.18398 25.0109 5.83398 23.3899 5.83398H18.6425C18.2951 5.83398 18.0636 6.06732 17.9478 6.41732L16.2109 18.2007C16.2109 18.434 16.3267 18.6673 16.5583 18.6673H19.6846L20.1478 14.7007L22.232 12.134L27.6741 9.68398Z" fill="#003087"/>
<path d="M27.6733 9.68359L27.4418 9.91693C26.8628 13.1836 24.8944 14.3503 22.1154 14.3503H20.8418C20.4944 14.3503 20.2628 14.5836 20.147 14.9336L19.4523 19.4836L19.2207 20.6503C19.2207 20.8836 19.3365 21.1169 19.5681 21.1169H21.9997C22.347 21.1169 22.5786 20.8836 22.5786 20.6503V20.5336L23.0418 17.7336V17.6169C23.0418 17.3836 23.3891 17.1503 23.6207 17.1503H23.9681C26.3997 17.1503 28.2523 16.2169 28.7154 13.4169C28.947 12.2503 28.8312 11.3169 28.2523 10.6169C28.1365 10.0336 27.9049 9.80026 27.6733 9.68359Z" fill="#3086C8"/>
<path d="M26.979 9.44961C26.8632 9.33294 26.7475 9.33294 26.6317 9.33294C26.5159 9.33294 26.4001 9.33294 26.2843 9.21628C25.9369 9.09961 25.4738 9.09961 25.0106 9.09961H21.5369C21.4211 9.09961 21.3054 9.09961 21.3054 9.21628C21.0738 9.33294 20.958 9.44961 20.958 9.68294L20.1475 14.8163V14.9329C20.1475 14.5829 20.4948 14.3496 20.8422 14.3496H22.3475C25.2422 14.3496 27.0948 13.1829 27.6738 9.91628V9.68294C27.558 9.56628 27.3264 9.44961 27.0948 9.44961H26.979Z" fill="#012169"/>
</svg>
