<svg width="44" height="28" viewBox="0 0 44 28" fill="none" xmlns="http://www.w3.org/2000/svg">
<path opacity="0.07" d="M40.5263 0H3.47368C1.50526 0 0 1.51667 0 3.5V24.5C0 26.4833 1.62105 28 3.47368 28H40.5263C42.4947 28 44 26.4833 44 24.5V3.5C44 1.51667 42.3789 0 40.5263 0Z" fill="black"/>
<path d="M40.5266 1.16602C41.8003 1.16602 42.8424 2.21602 42.8424 3.49935V24.4993C42.8424 25.7827 41.8003 26.8327 40.5266 26.8327H3.47399C2.20031 26.8327 1.1582 25.7827 1.1582 24.4993V3.49935C1.1582 2.21602 2.20031 1.16602 3.47399 1.16602H40.5266Z" fill="white"/>
<path d="M32.768 11.784H32.4206C31.9575 12.9507 31.6101 13.534 31.2627 15.284H33.4627C33.1154 13.534 33.1154 12.7173 32.768 11.784ZM36.1259 18.6673H34.1575C34.0417 18.6673 34.0417 18.6673 33.9259 18.5507L33.6943 17.5007L33.5785 17.2673H30.7996C30.6838 17.2673 30.568 17.2673 30.568 17.5007L30.2206 18.5507C30.2206 18.6673 30.1049 18.6673 30.1049 18.6673H27.6733L27.9049 18.084L31.2627 10.1507C31.2627 9.56732 31.6101 9.33398 32.1891 9.33398H33.9259C34.0417 9.33398 34.1575 9.33398 34.1575 9.56732L35.7785 17.1507C35.8943 17.6173 36.0101 17.9673 36.0101 18.434C36.1259 18.5507 36.1259 18.5507 36.1259 18.6673ZM20.6101 18.3173L21.0733 16.2173C21.1891 16.2173 21.3049 16.334 21.3049 16.334C22.1154 16.684 22.9259 16.9173 23.7364 16.8007C23.968 16.8007 24.3154 16.684 24.547 16.5673C25.1259 16.334 25.1259 15.7507 24.6627 15.284C24.4312 15.0507 24.0838 14.934 23.7364 14.7007C23.2733 14.4673 22.8101 14.234 22.4627 13.884C21.0733 12.7173 21.5364 11.084 22.347 10.2673C23.0417 9.80065 23.3891 9.33398 24.3154 9.33398C25.7049 9.33398 27.2101 9.33398 27.9049 9.56732H28.0206C27.9049 10.2673 27.7891 10.8507 27.5575 11.5507C26.9785 11.3173 26.3996 11.084 25.8206 11.084C25.4733 11.084 25.1259 11.084 24.7785 11.2007C24.547 11.2007 24.4312 11.3173 24.3154 11.434C24.0838 11.6673 24.0838 12.0173 24.3154 12.2507L24.8943 12.7173C25.3575 12.9507 25.8206 13.184 26.168 13.4173C26.747 13.7673 27.3259 14.3507 27.4417 15.0507C27.6733 16.1007 27.3259 17.034 26.3996 17.734C25.8206 18.2007 25.5891 18.434 24.7785 18.434C23.1575 18.434 21.8838 18.5507 20.8417 18.2007C20.7259 18.434 20.7259 18.434 20.6101 18.3173ZM16.5575 18.6673C16.6733 17.8507 16.6733 17.8507 16.7891 17.5007C17.368 14.934 17.947 12.2507 18.4101 9.68398C18.5259 9.45065 18.5259 9.33398 18.7575 9.33398H20.8417C20.6101 10.734 20.3785 11.784 20.0312 13.0673C19.6838 14.8173 19.3364 16.5673 18.8733 18.3173C18.8733 18.5507 18.7575 18.5507 18.5259 18.5507M5.78906 9.56732C5.78906 9.45065 6.02064 9.33398 6.13643 9.33398H10.0733C10.6522 9.33398 11.1154 9.68398 11.2312 10.2673L12.2733 15.4007C12.2733 15.5173 12.2733 15.5173 12.3891 15.634C12.3891 15.5173 12.5049 15.5173 12.5049 15.5173L14.9364 9.56732C14.8206 9.45065 14.9364 9.33398 15.0522 9.33398H17.4838C17.4838 9.45065 17.4838 9.45065 17.368 9.56732L13.7785 18.084C13.6627 18.3173 13.6627 18.434 13.547 18.5507C13.4312 18.6673 13.1996 18.5507 12.968 18.5507H11.2312C11.1154 18.5507 10.9996 18.5507 10.9996 18.3173L9.14696 11.084C8.91538 10.8507 8.56801 10.5007 8.10485 10.384C7.41012 10.034 6.13643 9.80065 5.90485 9.80065L5.78906 9.56732Z" fill="#142688"/>
</svg>
