<svg width="131" height="39" viewBox="0 0 131 39" fill="none" xmlns="http://www.w3.org/2000/svg">
<g clip-path="url(#clip0_385_2277)">
<path d="M18.2211 11.96V20.03C18.2211 22.03 18.7768 23.595 19.8735 24.73C20.4276 25.2991 21.0931 25.7459 21.8277 26.042C22.5624 26.3381 23.3501 26.477 24.1409 26.45C24.9345 26.4774 25.7251 26.3373 26.4618 26.0385C27.1984 25.7397 27.8649 25.2888 28.4182 24.715C29.5099 23.565 30.0706 21.9 30.0706 19.765V11.965H29.1278V19.835C29.1278 21.66 28.6614 23.085 27.7384 24.085C27.2794 24.5787 26.721 24.968 26.1005 25.2267C25.4801 25.4854 24.812 25.6075 24.1409 25.585C23.4723 25.6054 22.807 25.4822 22.1893 25.2235C21.5716 24.9649 21.0156 24.5768 20.5583 24.085C19.6403 23.085 19.1689 21.715 19.1689 19.975V11.96H18.2211ZM55.824 26.265H56.7768V11.965H55.7843L50.2665 18.725L44.7287 11.955H43.7363V26.255H44.6791V13.255L50.2466 20.125L55.824 13.28V26.28V26.265ZM85.4181 26.265H90.0627V25.5H86.3709V19.45H89.5168V18.685H86.3709V12.725H89.7798V11.96H85.4281V26.26L85.4181 26.265ZM126.117 26.265H130.752V25.5H127.06V19.45H130.206V18.685H127.06V12.725H130.469V11.96H126.117V26.26V26.265ZM113.702 26.265H114.814L111.653 21.395C110.869 20.165 110.239 19.435 109.782 19.215L109.599 19.125L109.787 19.055C111.564 18.395 112.467 17.235 112.467 15.605C112.486 15.099 112.388 14.5955 112.181 14.1339C111.975 13.6724 111.665 13.2654 111.276 12.945C110.482 12.295 109.291 11.945 107.802 11.945H104.205V26.245H105.148V19.32H107.167C107.899 19.2715 108.629 19.4457 109.261 19.82C109.757 20.155 110.392 21 111.246 22.32L113.727 26.25L113.702 26.265ZM107.599 18.565H105.118V12.72H107.549C108.561 12.6613 109.564 12.9351 110.407 13.5C110.733 13.7505 110.994 14.0771 111.167 14.4517C111.34 14.8262 111.42 15.2374 111.4 15.65C111.42 16.0647 111.34 16.4782 111.167 16.8552C110.995 17.2322 110.734 17.5615 110.407 17.815C109.57 18.3674 108.578 18.6306 107.579 18.565H107.599ZM0.248291 26.265H4.88291V25.5H1.19109V11.96H0.248291V26.26V26.265ZM71.1074 0.334961L70.3928 26.475H71.7822L71.1024 0.334961M48.7282 32.125H50.9413C51.4061 32.0896 51.8732 32.1488 52.3148 32.2991C52.7564 32.4495 53.1634 32.6878 53.5117 33C54.0794 33.6294 54.3939 34.4494 54.3939 35.3C54.3939 36.1505 54.0794 36.9705 53.5117 37.6C53.1806 37.9121 52.7898 38.1528 52.3632 38.3076C51.9366 38.4623 51.4832 38.5278 51.0306 38.5H48.7233L48.7282 32.125ZM49.2244 32.535V38.1H51.0108C51.7663 38.1267 52.5021 37.8538 53.0601 37.34C53.3301 37.0846 53.5428 36.774 53.684 36.4291C53.8252 36.0842 53.8916 35.7129 53.8789 35.34C53.8897 34.9682 53.8234 34.5983 53.6841 34.2539C53.5448 33.9095 53.3357 33.5982 53.0701 33.34C52.7892 33.0774 52.4597 32.8733 52.1003 32.7394C51.741 32.6055 51.3589 32.5446 50.9761 32.56L49.2244 32.535ZM59.7143 32.115V32.525H58.2257V35.09H59.6151V35.5H58.2257V38.1H59.8632V38.5H57.7097V32.115H59.7143ZM77.31 32.125V38.5H76.8138V32.125H77.31ZM82.8676 32.115V32.525H81.379V35.09H82.7783V35.5H81.3889V38.1H83.0165V38.5H80.8927V32.115H82.8676ZM71.0975 38.515L68.6958 32.125H68.1996L70.6062 38.515H71.0925" fill="#8D734A"/>
<path d="M71.5438 38.5151L73.9405 32.1251H73.4542L71.0575 38.5151H71.5438ZM86.3805 8.57007H87.1745L88.1967 10.6901H87.8692L86.3805 8.57007ZM86.4748 31.5601C86.6319 31.5601 86.7874 31.5912 86.9324 31.6518C87.0775 31.7124 87.2094 31.8011 87.3204 31.913C87.4315 32.0249 87.5196 32.1577 87.5796 32.3039C87.6397 32.4501 87.6707 32.6068 87.6707 32.7651C87.6707 32.9233 87.6397 33.08 87.5796 33.2262C87.5196 33.3724 87.4315 33.5052 87.3204 33.6171C87.2094 33.729 87.0775 33.8178 86.9324 33.8783C86.7874 33.9389 86.6319 33.9701 86.4748 33.9701C86.2658 33.9703 86.0605 33.9151 85.8794 33.8101C85.7416 33.7322 85.6206 33.6275 85.5234 33.502C85.4262 33.3765 85.3547 33.2329 85.3132 33.0793C85.2716 32.9257 85.2608 32.7654 85.2813 32.6076C85.3018 32.4498 85.3533 32.2976 85.4328 32.1601C85.539 31.9767 85.6911 31.8248 85.8741 31.7195C86.057 31.6142 86.2641 31.5592 86.4748 31.5601ZM86.4748 31.7601C86.2455 31.7591 86.0229 31.8382 85.8449 31.984C85.6669 32.1297 85.5444 32.3331 85.4984 32.5595C85.4524 32.7859 85.4857 33.0213 85.5925 33.2258C85.6993 33.4304 85.8731 33.5913 86.0844 33.6812C86.2957 33.7712 86.5313 33.7846 86.7513 33.7192C86.9713 33.6539 87.1621 33.5138 87.2911 33.3227C87.4202 33.1317 87.4796 32.9015 87.4592 32.6713C87.4388 32.4411 87.34 32.2251 87.1794 32.0601C87.0882 31.9633 86.978 31.8867 86.8559 31.8351C86.7337 31.7835 86.6023 31.7579 86.4698 31.7601H86.4748ZM86.2019 33.4101H85.9935V32.1101H86.4401C86.5529 32.1082 86.6652 32.1251 86.7725 32.1601C86.8365 32.1826 86.892 32.2245 86.9313 32.2801C86.9766 32.3473 86.9964 32.4286 86.9873 32.5093C86.9782 32.59 86.9408 32.6648 86.8817 32.7201C86.8108 32.7893 86.7173 32.8302 86.6187 32.8351C86.6717 32.8579 86.7191 32.892 86.7576 32.9351C86.8193 33.0064 86.8741 33.0834 86.9214 33.1651L87.0703 33.4151H86.8222L86.708 33.2151C86.6558 33.1094 86.589 33.0118 86.5095 32.9251C86.4583 32.8814 86.393 32.8583 86.3259 32.8601H86.2019V33.4101ZM86.2019 32.2901V32.6801H86.45C86.5357 32.687 86.6216 32.6697 86.6981 32.6301C86.7218 32.6134 86.7407 32.5908 86.7529 32.5645C86.7651 32.5381 86.7701 32.509 86.7676 32.4801C86.7702 32.4506 86.7646 32.4209 86.7514 32.3945C86.7383 32.368 86.7181 32.3457 86.6931 32.3301C86.6143 32.2992 86.5293 32.2872 86.445 32.2951L86.2019 32.2901Z" fill="#8D734A"/>
</g>
<defs>
<clipPath id="clip0_385_2277">
<rect width="131" height="39" fill="white"/>
</clipPath>
</defs>
</svg>
