<svg width="81" height="8" viewBox="0 0 81 8" fill="none" xmlns="http://www.w3.org/2000/svg">
<g clip-path="url(#clip0_473_6652)">
<path d="M9.26376 6.77522H8.13783V1.36834H8.11531L4.59677 5.679L1.10356 1.36834H1.07823V6.77522H-0.0477034V0.162228H1.35971L4.59677 4.15832L7.86479 0.162228H9.26376V6.77522ZM23.6194 3.45911C23.6194 4.54341 23.1639 5.42029 22.2528 6.08974C21.4553 6.67494 20.4635 6.96708 19.2775 6.96616C18.0915 6.96525 17.0918 6.6699 16.2783 6.08013C15.3682 5.41159 14.9131 4.53792 14.9131 3.45911C14.9131 2.39953 15.3748 1.52952 16.298 0.849078C17.1096 0.251061 18.1023 -0.047948 19.2761 -0.047948C20.4499 -0.047948 21.4388 0.250603 22.243 0.847704C23.1587 1.53364 23.6171 2.40365 23.618 3.45773L23.6194 3.45911ZM22.4498 3.45911C22.4554 3.08826 22.3659 2.72194 22.1894 2.39349C22.0129 2.06503 21.7551 1.78488 21.4393 1.57851C20.8595 1.16365 20.1389 0.956684 19.2775 0.9576C18.3392 0.9576 17.5717 1.19342 16.975 1.66506C16.6938 1.87573 16.4671 2.1477 16.3128 2.45923C16.1586 2.77075 16.0813 3.11317 16.0869 3.45911C16.0765 3.80669 16.1497 4.15182 16.3008 4.46675C16.4518 4.78168 16.6765 5.05762 16.9567 5.27239C17.5366 5.73029 18.3102 5.95924 19.2775 5.95924C20.2449 5.95924 21.0138 5.73029 21.5843 5.27239C21.863 5.05669 22.0863 4.78043 22.2363 4.46562C22.3864 4.15081 22.459 3.80615 22.4484 3.45911H22.4498ZM35.9244 1.14854H32.6874V6.78071H31.5615V1.14854H28.3244V0.162228H35.9244V1.14854ZM42.1086 6.78071H40.9827V0.162228H42.1086V6.78071ZM55.6198 0.167723L51.9718 6.77522H50.6812L47.0318 0.162228H48.2858L51.323 5.67214L54.3672 0.162228L55.6198 0.167723ZM67.6349 6.78071H60.5444V0.162228H67.3746V1.14854H61.6661V2.84781H65.635V3.83413H61.6661V5.7889H67.6363L67.6349 6.78071ZM79.0153 1.72C78.0704 1.23457 77.0205 0.976031 75.9528 0.965842C75.2603 0.965842 74.7297 1.04506 74.361 1.20349C73.9922 1.36193 73.8083 1.58126 73.8093 1.86149C73.8093 2.15272 74.0063 2.36702 74.399 2.50026C74.8449 2.62337 75.3051 2.6903 75.7684 2.69945C76.7067 2.76081 77.3245 2.8098 77.622 2.84644C78.4664 2.95633 79.0932 3.1601 79.5023 3.45773C79.7024 3.60485 79.8627 3.79758 79.9689 4.01909C80.0751 4.2406 80.1241 4.48413 80.1117 4.72841C80.1117 5.42716 79.7931 5.96886 79.156 6.35349C78.519 6.73813 77.6051 6.93045 76.4144 6.93045C74.6861 6.93045 73.342 6.55909 72.3822 5.81637L72.9972 5.021C74.0253 5.6449 75.2123 5.97428 76.4228 5.9716C77.2157 5.9716 77.8303 5.86491 78.2666 5.65153C78.6841 5.44365 78.8929 5.16066 78.8929 4.80258C78.8929 4.38223 78.6184 4.102 78.0695 3.96188C77.7824 3.88862 77.0088 3.81261 75.7487 3.73385C74.6331 3.65967 73.8501 3.51314 73.3997 3.29426C72.8761 3.04059 72.6144 2.61153 72.6144 2.00711C72.6144 1.38619 72.9123 0.896241 73.5081 0.537248C74.1039 0.178255 74.9451 -0.00170014 76.0316 -0.00261594C77.4915 -0.00261594 78.7141 0.323409 79.6993 0.975458L79.0153 1.72Z" fill="#141414"/>
</g>
<defs>
<clipPath id="clip0_473_6652">
<rect width="80.837" height="7.3746" fill="white" transform="scale(1.00202)"/>
</clipPath>
</defs>
</svg>
