<svg width="81" height="8" viewBox="0 0 81 8" fill="none" xmlns="http://www.w3.org/2000/svg">
<g clip-path="url(#clip0_473_12116)">
<path d="M9.26402 6.77523H8.13809V1.36834H8.11557L4.59702 5.67901L1.10381 1.36834H1.07848V6.77523H-0.0474588V0.162228H1.35996L4.59702 4.15833L7.86505 0.162228H9.26402V6.77523ZM23.6197 3.45911C23.6197 4.54342 23.1642 5.4203 22.2531 6.08975C21.4555 6.67495 20.4638 6.96709 19.2778 6.96617C18.0918 6.96526 17.0921 6.66991 16.2786 6.08013C15.3685 5.4116 14.9134 4.53793 14.9134 3.45911C14.9134 2.39953 15.375 1.52952 16.2983 0.849079C17.1099 0.251061 18.1026 -0.0479481 19.2764 -0.0479481C20.4502 -0.0479481 21.4391 0.250603 22.2432 0.847705C23.159 1.53364 23.6173 2.40365 23.6183 3.45774L23.6197 3.45911ZM22.4501 3.45911C22.4557 3.08827 22.3662 2.72195 22.1897 2.39349C22.0132 2.06504 21.7553 1.78488 21.4396 1.57851C20.8597 1.16366 20.1391 0.956686 19.2778 0.957601C18.3395 0.957601 17.572 1.19342 16.9753 1.66506C16.6941 1.87573 16.4673 2.14771 16.3131 2.45923C16.1589 2.77075 16.0815 3.11318 16.0872 3.45911C16.0767 3.8067 16.15 4.15183 16.301 4.46676C16.4521 4.78169 16.6768 5.05763 16.957 5.2724C17.5368 5.7303 18.3104 5.95925 19.2778 5.95925C20.2452 5.95925 21.0141 5.7303 21.5846 5.2724C21.8633 5.0567 22.0866 4.78044 22.2366 4.46563C22.3866 4.15082 22.4593 3.80616 22.4487 3.45911H22.4501ZM35.9247 1.14855H32.6877V6.78072H31.5617V1.14855H28.3247V0.162228H35.9247V1.14855ZM42.1089 6.78072H40.983V0.162228H42.1089V6.78072ZM55.6202 0.167723L51.9721 6.77523H50.6815L47.0321 0.162228H48.2861L51.3233 5.67214L54.3676 0.162228L55.6202 0.167723ZM67.6353 6.78072H60.5447V0.162228H67.3749V1.14855H61.6664V2.84781H65.6353V3.83413H61.6664V5.78891H67.6367L67.6353 6.78072ZM79.0157 1.72001C78.0708 1.23457 77.0209 0.976033 75.9531 0.965844C75.2607 0.965844 74.7301 1.04506 74.3613 1.20349C73.9926 1.36193 73.8087 1.58126 73.8096 1.8615C73.8096 2.15272 74.0067 2.36702 74.3993 2.50027C74.8452 2.62337 75.3054 2.69031 75.7687 2.69945C76.707 2.76081 77.3249 2.80981 77.6223 2.84644C78.4668 2.95634 79.0935 3.1601 79.5026 3.45774C79.7028 3.60485 79.863 3.79759 79.9693 4.0191C80.0755 4.2406 80.1245 4.48414 80.112 4.72841C80.112 5.42717 79.7935 5.96886 79.1564 6.3535C78.5193 6.73814 77.6054 6.93046 76.4148 6.93046C74.6865 6.93046 73.3424 6.5591 72.3825 5.81638L72.9975 5.02101C74.0256 5.64491 75.2126 5.97429 76.4232 5.97161C77.2161 5.97161 77.8306 5.86492 78.2669 5.65154C78.6845 5.44365 78.8932 5.16067 78.8932 4.80259C78.8932 4.38224 78.6188 4.102 78.0699 3.96189C77.7828 3.88862 77.0092 3.81261 75.749 3.73385C74.6334 3.65967 73.8504 3.51314 73.4001 3.29427C72.8765 3.04059 72.6147 2.61154 72.6147 2.00711C72.6147 1.3862 72.9126 0.896243 73.5084 0.537249C74.1042 0.178255 74.9454 -0.00170015 76.0319 -0.00261595C77.4919 -0.00261595 78.7145 0.323409 79.6997 0.975459L79.0157 1.72001Z" fill="#141414"/>
</g>
<defs>
<clipPath id="clip0_473_12116">
<rect width="80.837" height="7.3746" fill="white" transform="scale(1.00202)"/>
</clipPath>
</defs>
</svg>
