<svg width="20" height="20" viewBox="0 0 20 20" fill="none" xmlns="http://www.w3.org/2000/svg">
<path fill-rule="evenodd" clip-rule="evenodd" d="M18.7495 9.32531C18.7485 8.59745 18.459 7.89965 17.9445 7.38483C17.4299 6.87001 16.7323 6.58015 16.0044 6.57878C14.5147 6.57878 13.258 7.83592 13.258 9.32531C13.2514 9.97884 13.477 10.6135 13.8945 11.1163C14.312 11.6191 14.8943 11.9575 15.5379 12.0712V14.9567C15.5364 16.0425 15.1045 17.0833 14.3368 17.8511C13.5691 18.6188 12.5284 19.0509 11.4427 19.0526C9.20915 19.0526 7.39397 17.1911 7.39397 14.9567L7.34756 11.652C8.41772 11.5124 9.488 10.8606 10.4188 9.79027C10.4861 9.7159 10.5341 9.62608 10.5585 9.52876C10.5828 9.43144 10.5828 9.32962 10.5585 9.2323C11.7683 7.64982 12.514 5.46189 12.514 3.78627C12.514 1.17986 11.35 0.900935 9.44191 0.435157C9.376 0.32088 9.28085 0.226215 9.16624 0.160891C9.05163 0.0955683 8.92169 0.0619439 8.78978 0.0634744C8.37137 0.0634744 8.04514 0.388871 8.04514 0.761887C8.04399 0.859981 8.06247 0.957315 8.09949 1.04816C8.13651 1.13901 8.19132 1.22154 8.2607 1.2909C8.33008 1.36025 8.41262 1.41503 8.50349 1.45202C8.59435 1.48901 8.69169 1.50745 8.78978 1.50627C8.97594 1.50627 9.11626 1.45973 9.20921 1.36595H9.25556C11.1173 1.785 11.6287 1.87814 11.6287 3.78627C11.6287 5.22938 10.9312 7.23046 9.86013 8.67357C9.66587 8.68149 9.48238 8.76491 9.3487 8.90608C8.83638 9.51141 7.95188 10.3029 6.92826 10.3029C5.85791 10.3029 5.02013 9.51166 4.4614 8.90608C4.32172 8.76639 4.13594 8.67357 3.99638 8.67357C2.87867 7.23046 2.18121 5.22938 2.18121 3.78627C2.18121 1.87814 2.69276 1.78513 4.55435 1.36595H4.60089C4.69391 1.45973 4.83422 1.50627 5.01994 1.50627C5.1181 1.5075 5.21553 1.48908 5.30646 1.45209C5.3974 1.4151 5.48002 1.36029 5.54945 1.29088C5.61888 1.22148 5.67372 1.13888 5.71075 1.04795C5.74777 0.957024 5.76622 0.859609 5.76502 0.761443C5.76502 0.388554 5.4388 0.06303 5.02019 0.06303C4.88827 0.0616329 4.75835 0.0953632 4.64378 0.160759C4.5292 0.226155 4.43408 0.320861 4.36819 0.435157C2.46032 0.900935 1.25073 1.17986 1.25073 3.78627C1.25073 5.46189 2.04121 7.64982 3.25187 9.2323C3.25187 9.46481 3.25188 9.6509 3.39156 9.79027C4.32235 10.8606 5.3927 11.5125 6.46375 11.652V14.9567C6.46518 16.277 6.99024 17.5428 7.92375 18.4764C8.85726 19.41 10.123 19.9352 11.4432 19.9368C14.2369 19.9368 16.47 17.7025 16.47 14.9567V12.0712C17.1137 11.9578 17.6963 11.6196 18.1139 11.1167C18.5314 10.6138 18.7569 9.97894 18.75 9.32531H18.7495ZM16.0044 11.1873C14.9797 11.1873 14.1895 10.3492 14.1895 9.32557C14.19 8.84435 14.3813 8.38297 14.7216 8.04269C15.0618 7.70241 15.5232 7.51104 16.0044 7.51059C17.0276 7.51059 17.866 8.34868 17.866 9.32557C17.8645 9.81883 17.6678 10.2914 17.3191 10.6402C16.9703 10.989 16.4977 11.1857 16.0044 11.1873Z" fill="#141414"/>
<path fill-rule="evenodd" clip-rule="evenodd" d="M16.0045 7.97528C15.2589 7.97528 14.6077 8.58061 14.6077 9.32531C14.6151 9.69081 14.7654 10.0388 15.0265 10.2947C15.2876 10.5506 15.6386 10.6939 16.0042 10.6939C16.3698 10.6939 16.7208 10.5506 16.9819 10.2947C17.243 10.0388 17.3934 9.69081 17.4007 9.32531C17.4007 8.58061 16.7483 7.97528 16.0039 7.97528H16.0045Z" fill="#141414"/>
</svg>
