<svg width="83" height="31" viewBox="0 0 83 31" fill="none" xmlns="http://www.w3.org/2000/svg">
<path d="M76.5549 7.23465H76.0143V8.63282H75.583V7.23465H75.0538V6.87651H76.5635L76.5549 7.23465ZM78.9129 8.63282H78.5046V7.31487L78.0157 8.63282H77.8317L77.3313 7.3292V8.63568H76.9086V6.87651H77.5211L77.9295 7.94233L78.3091 6.87651H78.9129V8.63282ZM14.769 8.59557C15.9384 8.59557 16.8711 8.91073 17.567 9.54106C17.9134 9.86447 18.1854 10.2589 18.3641 10.6971C18.5429 11.1354 18.6241 11.607 18.6022 12.0795C18.6022 13.1874 18.2418 14.0469 17.521 14.6581C16.8001 15.2694 15.762 15.5692 14.4067 15.5578H8.00836V19.5976H5.85163V8.59557H14.769ZM14.444 13.6296C15.7477 13.6296 16.3995 13.1291 16.3995 12.1282C16.3995 11.0682 15.7055 10.5381 14.3175 10.5381H7.99111V13.6324L14.444 13.6296ZM33.8373 19.5976H31.37L28.4685 15.5578H23.0048V19.5976H20.8481V8.59557H29.7626C30.9358 8.59557 31.8685 8.91073 32.5605 9.54106C32.9081 9.86395 33.1811 10.2581 33.3608 10.6964C33.5406 11.1347 33.6227 11.6066 33.6015 12.0795C33.6015 13.9017 32.6871 15.0163 30.8582 15.4231L33.8373 19.5976ZM29.4462 13.6324C30.7499 13.6324 31.4017 13.132 31.4017 12.1311C31.4017 11.071 30.7067 10.541 29.3168 10.541H23.0048V13.6353L29.4462 13.6324ZM39.0394 19.5976H36.8826V8.59557H39.0394V19.5976ZM58.2889 19.5976H56.1321L56.0746 10.5553L50.539 18.0504L45.0178 10.4865L44.9603 10.5553V19.5976H42.8036V8.59557H46.0387L50.5362 14.8128L55.0509 8.59557H58.2889V19.5976ZM73.9323 19.5976H62.056V8.59557H73.5182V10.5267H64.2069V12.9047H70.6829V14.8358H64.2069V17.6579H73.9323V19.5976ZM9.21613 23.8666H8.7704L8.48284 23.3136H6.80922L6.52166 23.8666H6.07593L7.38722 21.394H7.90484L9.21613 23.8666ZM8.28155 22.944L7.64891 21.7464L7.01051 22.944H8.28155ZM12.1838 23.8666H11.5713L10.1335 22.1189V23.8666H9.73087V21.775H10.352L11.7898 23.5285V21.775H12.201L12.1838 23.8666ZM15.1543 22.1361H14.1478V23.8551H13.7366V22.1361H12.7302V21.775H15.1572L15.1543 22.1361ZM16.1033 23.8666H15.7007V21.775H16.1033V23.8666ZM18.1852 22.9612H16.7762V22.5887H18.1852V22.9612ZM21.3427 23.8666H20.8912L20.6497 23.4168H19.2377L18.9789 23.8666H18.5361L19.6863 21.7665H20.1982L21.3427 23.8666ZM20.4426 23.0472L19.9394 22.116L19.4361 23.0443L20.4426 23.0472ZM24.48 22.7205V22.7778C24.4857 22.9356 24.4549 23.0925 24.3901 23.2366C24.3253 23.3807 24.2282 23.508 24.1062 23.6087C23.8218 23.8308 23.4663 23.9427 23.1055 23.9239C22.7682 23.933 22.4371 23.8324 22.1622 23.6374C22.0264 23.5441 21.9154 23.4194 21.8387 23.2739C21.7619 23.1284 21.7219 22.9665 21.7219 22.8022C21.7219 22.6378 21.7619 22.476 21.8387 22.3305C21.9154 22.185 22.0264 22.0603 22.1622 21.967C22.4447 21.7698 22.7838 21.6693 23.1285 21.6805C23.3439 21.6757 23.5579 21.7167 23.7562 21.8006C23.9545 21.8846 24.1327 22.0097 24.2787 22.1676L23.8905 22.3624C23.7856 22.263 23.6619 22.1852 23.5267 22.1336C23.3915 22.082 23.2473 22.0575 23.1026 22.0616C22.8549 22.0513 22.6113 22.1262 22.4124 22.2736C22.329 22.3363 22.2614 22.4175 22.2148 22.5107C22.1683 22.604 22.144 22.7067 22.144 22.8108C22.144 22.9149 22.1683 23.0176 22.2148 23.1108C22.2614 23.204 22.329 23.2852 22.4124 23.348C22.6138 23.4942 22.8595 23.567 23.1083 23.5543C23.2834 23.5726 23.4598 23.5371 23.614 23.4526C23.7682 23.3681 23.8928 23.2386 23.971 23.0815H23.0048V22.7205H24.48ZM25.5929 23.8666H25.1702V21.775H25.5929V23.8666ZM28.8596 23.8666H28.2471L26.8093 22.1189V23.8666H26.3981V21.775H27.0134L28.4513 23.5285V21.775H28.8625L28.8596 23.8666ZM32.3104 22.7205V22.7778C32.316 22.9356 32.2853 23.0925 32.2205 23.2366C32.1556 23.3807 32.0585 23.508 31.9365 23.6087C31.6521 23.8308 31.2967 23.9427 30.9358 23.9239C30.5985 23.933 30.2674 23.8324 29.9926 23.6374C29.8568 23.5441 29.7457 23.4194 29.669 23.2739C29.5923 23.1284 29.5522 22.9665 29.5522 22.8022C29.5522 22.6378 29.5923 22.476 29.669 22.3305C29.7457 22.185 29.8568 22.0603 29.9926 21.967C30.2751 21.7698 30.6141 21.6693 30.9588 21.6805C31.1743 21.6757 31.3883 21.7167 31.5866 21.8006C31.7849 21.8846 31.963 22.0097 32.1091 22.1676L31.7209 22.3624C31.6163 22.2633 31.4931 22.1858 31.3584 22.1341C31.2237 22.0825 31.0801 22.0579 30.9358 22.0616C30.6882 22.0513 30.4445 22.1262 30.2457 22.2736C30.1628 22.3367 30.0956 22.418 30.0494 22.5112C30.0032 22.6043 29.9791 22.7069 29.9791 22.8108C29.9791 22.9147 30.0032 23.0172 30.0494 23.1104C30.0956 23.2036 30.1628 23.2849 30.2457 23.348C30.447 23.4942 30.6927 23.567 30.9416 23.5543C31.1166 23.5726 31.293 23.5371 31.4472 23.4526C31.6014 23.3681 31.726 23.2386 31.8043 23.0815H30.8553V22.7205H32.3104ZM36.5864 23.8666H35.9739L34.5361 22.1189V23.8666H34.1249V21.775H34.7374L36.1752 23.5285V21.775H36.5864V23.8666ZM39.833 23.1789C39.8309 23.2903 39.7989 23.399 39.7402 23.4937C39.6815 23.5885 39.5984 23.6658 39.4995 23.7176C39.2226 23.8553 38.9174 23.927 38.608 23.927C38.2986 23.927 37.9934 23.8553 37.7166 23.7176C37.617 23.6651 37.5335 23.5868 37.4748 23.491C37.4161 23.3952 37.3844 23.2854 37.383 23.1732V21.775H37.7942V23.093C37.7942 23.4024 38.0664 23.5571 38.6109 23.5571C39.1553 23.5571 39.4257 23.4024 39.4218 23.093V21.775H39.8302L39.833 23.1789ZM42.7806 22.1361H41.7741V23.8551H41.3629V22.1361H40.3564V21.775H42.7834L42.7806 22.1361ZM45.8086 23.8666H45.337L44.7849 23.093H43.7381V23.8666H43.3269V21.775H45.0293C45.2233 21.7652 45.4137 21.8298 45.5613 21.9555C45.6284 22.0172 45.6812 22.0928 45.716 22.1769C45.7508 22.261 45.7667 22.3517 45.7626 22.4426C45.7726 22.5955 45.7238 22.7463 45.626 22.8645C45.5282 22.9827 45.3888 23.0593 45.2364 23.0787L45.8086 23.8666ZM44.9689 22.7205C45.2191 22.7205 45.3428 22.626 45.3428 22.434C45.3428 22.2421 45.2105 22.1303 44.9402 22.1303H43.7381V22.7205H44.9689ZM48.9804 23.8666H48.5261L48.2845 23.4168H46.8726L46.631 23.8666H46.1767L47.3269 21.7665H47.8388L48.9804 23.8666ZM48.0804 23.0472L47.58 22.116L47.0768 23.0443L48.0804 23.0472ZM52.0056 22.2707L51.6318 22.3996C51.5181 22.2886 51.3831 22.2017 51.2348 22.1441C51.0866 22.0865 50.9281 22.0594 50.7691 22.0644C50.5127 22.0523 50.2597 22.1259 50.0502 22.2736C49.9668 22.3363 49.8992 22.4175 49.8526 22.5107C49.806 22.604 49.7818 22.7067 49.7818 22.8108C49.7818 22.9149 49.806 23.0176 49.8526 23.1108C49.8992 23.204 49.9668 23.2852 50.0502 23.348C50.2608 23.4926 50.5137 23.5632 50.7691 23.5485C50.9286 23.5549 51.0876 23.5281 51.2361 23.4699C51.3846 23.4117 51.5194 23.3234 51.6318 23.2105L51.9883 23.3996C51.6998 23.6933 51.316 23.8755 50.9053 23.9138C50.4946 23.9521 50.0836 23.844 49.7454 23.6087C49.6191 23.511 49.5178 23.3851 49.4497 23.241C49.3816 23.097 49.3486 22.9389 49.3533 22.7798C49.3581 22.6206 49.4005 22.4648 49.4771 22.3251C49.5538 22.1853 49.6624 22.0656 49.7942 21.9756C50.1351 21.7499 50.5464 21.6546 50.9523 21.7073C51.3581 21.7599 51.7312 21.957 52.0027 22.2621L52.0056 22.2707ZM54.9531 23.8666H52.6814V21.775H54.8669V22.1475H53.0897V22.5973H54.3262V22.9698H53.0897V23.4941H54.9474L54.9531 23.8666ZM58.0071 23.1789C58.0049 23.2899 57.9732 23.3983 57.9151 23.493C57.8569 23.5876 57.7745 23.6652 57.6764 23.7176C57.3995 23.8553 57.0943 23.927 56.7849 23.927C56.4755 23.927 56.1703 23.8553 55.8935 23.7176C55.7934 23.6655 55.7093 23.5874 55.65 23.4915C55.5908 23.3957 55.5587 23.2857 55.557 23.1732V21.775H55.9682V23.093C55.9682 23.4024 56.2405 23.5571 56.7849 23.5571C57.3294 23.5571 57.5997 23.4024 57.5958 23.093V21.775H58.0042L58.0071 23.1789ZM60.9632 22.1361H59.9567V23.8551H59.5254V22.1361H58.5189V21.775H60.9632V22.1361ZM61.9122 23.8666H61.4981V21.775H61.9093L61.9122 23.8666ZM65.2479 22.2707L64.8741 22.3996C64.7606 22.2884 64.6256 22.2013 64.4773 22.1437C64.329 22.086 64.1705 22.0591 64.0114 22.0644C63.755 22.0523 63.502 22.1259 63.2925 22.2736C63.2091 22.3363 63.1415 22.4175 63.0949 22.5107C63.0483 22.604 63.0241 22.7067 63.0241 22.8108C63.0241 22.9149 63.0483 23.0176 63.0949 23.1108C63.1415 23.204 63.2091 23.2852 63.2925 23.348C63.5054 23.4945 63.7618 23.5651 64.02 23.5485C64.1795 23.5549 64.3385 23.5281 64.4871 23.4699C64.6356 23.4117 64.7703 23.3234 64.8827 23.2105L65.2364 23.3996C64.9479 23.6933 64.5641 23.8755 64.1534 23.9138C63.7427 23.9521 63.3316 23.844 62.9934 23.6087C62.8673 23.5108 62.7663 23.3847 62.6984 23.2405C62.6305 23.0963 62.5978 22.9382 62.6028 22.7791C62.6078 22.6199 62.6505 22.4642 62.7274 22.3245C62.8043 22.1849 62.9132 22.0654 63.0452 21.9756C63.3861 21.7499 63.7973 21.6546 64.2032 21.7073C64.6091 21.7599 64.9821 21.957 65.2537 22.2621L65.2479 22.2707ZM68.4197 23.8666H67.9683L67.7238 23.4168H66.3148L66.0675 23.8666H65.616L66.7662 21.7665H67.2781L68.4197 23.8666ZM67.5197 23.0472L67.0164 22.116L66.5132 23.0443L67.5197 23.0472ZM70.9618 23.8666H68.9201V21.775H69.3342V23.4941H70.9676L70.9618 23.8666ZM73.4147 22.285C73.1406 22.1386 72.8344 22.0618 72.5233 22.0616C72.0555 22.0616 71.8207 22.1446 71.8187 22.3108C71.8187 22.4082 71.905 22.4713 72.0833 22.5028L72.8022 22.5687C73.0576 22.5788 73.3082 22.6413 73.5384 22.7521C73.6164 22.7974 73.6803 22.8635 73.723 22.9429C73.7656 23.0223 73.7853 23.112 73.7799 23.2019C73.7831 23.3081 73.7565 23.4132 73.7032 23.5053C73.6499 23.5974 73.5719 23.6729 73.478 23.7233C73.2062 23.8609 72.9023 23.9232 72.598 23.9038C72.1427 23.9274 71.6922 23.8016 71.3155 23.5457L71.5398 23.2592C71.854 23.4685 72.226 23.5747 72.6038 23.5629C72.7932 23.5714 72.9823 23.5402 73.1588 23.4712C73.2911 23.4139 73.3601 23.3279 73.3601 23.2305C73.3601 23.1331 73.2738 23.0414 73.1157 22.9956C72.9797 22.9644 72.841 22.9471 72.7016 22.944L72.1552 22.9211C71.9527 22.9137 71.7551 22.8566 71.5801 22.7549C71.5189 22.7132 71.4696 22.6565 71.4369 22.5902C71.4041 22.524 71.3891 22.4504 71.3932 22.3767C71.3926 22.2788 71.4191 22.1826 71.4698 22.0987C71.5206 22.0148 71.5935 21.9464 71.6807 21.9011C71.936 21.7696 72.2219 21.7083 72.5089 21.7235C72.9148 21.7059 73.3163 21.8129 73.6591 22.03L73.4147 22.285Z" fill="#141414"/>
</svg>
