<svg width="83" height="31" viewBox="0 0 83 31" fill="none" xmlns="http://www.w3.org/2000/svg">
<path d="M76.555 7.23463H76.0144V8.6328H75.5831V7.23463H75.054V6.8765H76.5637L76.555 7.23463ZM78.9131 8.6328H78.5047V7.31486L78.0159 8.6328H77.8318L77.3315 7.32918V8.63567H76.9087V6.8765H77.5212L77.9296 7.94231L78.3092 6.8765H78.9131V8.6328ZM14.7691 8.59556C15.9385 8.59556 16.8712 8.91072 17.5671 9.54104C17.9136 9.86446 18.1855 10.2589 18.3643 10.6971C18.543 11.1354 18.6242 11.607 18.6023 12.0795C18.6023 13.1874 18.2419 14.0469 17.5211 14.6581C16.8003 15.2693 15.7622 15.5692 14.4068 15.5578H8.00848V19.5976H5.85176V8.59556H14.7691ZM14.4442 13.6295C15.7478 13.6295 16.3996 13.1291 16.3996 12.1282C16.3996 11.0681 15.7056 10.5381 14.3176 10.5381H7.99123V13.6324L14.4442 13.6295ZM33.8375 19.5976H31.3702L28.4686 15.5578H23.0049V19.5976H20.8482V8.59556H29.7627C30.9359 8.59556 31.8686 8.91072 32.5607 9.54104C32.9082 9.86394 33.1812 10.2581 33.361 10.6964C33.5407 11.1347 33.6228 11.6066 33.6017 12.0795C33.6017 13.9017 32.6872 15.0163 30.8583 15.4231L33.8375 19.5976ZM29.4464 13.6324C30.75 13.6324 31.4018 13.132 31.4018 12.1311C31.4018 11.071 30.7068 10.541 29.317 10.541H23.0049V13.6353L29.4464 13.6324ZM39.0395 19.5976H36.8828V8.59556H39.0395V19.5976ZM58.289 19.5976H56.1323L56.0748 10.5553L50.5392 18.0504L45.0179 10.4865L44.9604 10.5553V19.5976H42.8037V8.59556H46.0388L50.5363 14.8128L55.051 8.59556H58.289V19.5976ZM73.9325 19.5976H62.0561V8.59556H73.5184V10.5266H64.2071V12.9047H70.683V14.8358H64.2071V17.6579H73.9325V19.5976ZM9.21625 23.8666H8.77053L8.48296 23.3136H6.80934L6.52178 23.8666H6.07605L7.38735 21.394H7.90496L9.21625 23.8666ZM8.28167 22.944L7.64903 21.7464L7.01064 22.944H8.28167ZM12.1839 23.8666H11.5714L10.1336 22.1188V23.8666H9.73099V21.775H10.3521L11.7899 23.5285V21.775H12.2012L12.1839 23.8666ZM15.1544 22.136H14.148V23.8551H13.7368V22.136H12.7303V21.775H15.1573L15.1544 22.136ZM16.1034 23.8666H15.7008V21.775H16.1034V23.8666ZM18.1854 22.9612H16.7763V22.5887H18.1854V22.9612ZM21.3428 23.8666H20.8913L20.6498 23.4167H19.2378L18.979 23.8666H18.5362L19.6864 21.7664H20.1983L21.3428 23.8666ZM20.4427 23.0471L19.9395 22.116L19.4363 23.0443L20.4427 23.0471ZM24.4801 22.7205V22.7778C24.4858 22.9356 24.455 23.0925 24.3902 23.2366C24.3254 23.3806 24.2283 23.5079 24.1063 23.6087C23.8219 23.8308 23.4664 23.9427 23.1056 23.9239C22.7683 23.933 22.4372 23.8324 22.1624 23.6374C22.0265 23.5441 21.9155 23.4194 21.8388 23.2739C21.7621 23.1284 21.722 22.9665 21.722 22.8022C21.722 22.6378 21.7621 22.476 21.8388 22.3305C21.9155 22.185 22.0265 22.0602 22.1624 21.967C22.4448 21.7698 22.7839 21.6693 23.1286 21.6805C23.344 21.6757 23.558 21.7167 23.7563 21.8006C23.9547 21.8846 24.1328 22.0097 24.2788 22.1676L23.8906 22.3624C23.7857 22.263 23.662 22.1852 23.5268 22.1336C23.3916 22.0819 23.2475 22.0575 23.1027 22.0615C22.8551 22.0513 22.6114 22.1262 22.4125 22.2736C22.3292 22.3363 22.2615 22.4175 22.215 22.5107C22.1684 22.6039 22.1442 22.7066 22.1442 22.8108C22.1442 22.9149 22.1684 23.0176 22.215 23.1108C22.2615 23.204 22.3292 23.2852 22.4125 23.348C22.6139 23.4942 22.8596 23.567 23.1085 23.5543C23.2835 23.5725 23.4599 23.5371 23.6141 23.4525C23.7683 23.3681 23.8929 23.2386 23.9711 23.0815H23.0049V22.7205H24.4801ZM25.593 23.8666H25.1703V21.775H25.593V23.8666ZM28.8597 23.8666H28.2472L26.8094 22.1188V23.8666H26.3982V21.775H27.0136L28.4514 23.5285V21.775H28.8626L28.8597 23.8666ZM32.3105 22.7205V22.7778C32.3162 22.9356 32.2854 23.0925 32.2206 23.2366C32.1558 23.3806 32.0586 23.5079 31.9367 23.6087C31.6523 23.8308 31.2968 23.9427 30.9359 23.9239C30.5986 23.933 30.2675 23.8324 29.9927 23.6374C29.8569 23.5441 29.7459 23.4194 29.6691 23.2739C29.5924 23.1284 29.5523 22.9665 29.5523 22.8022C29.5523 22.6378 29.5924 22.476 29.6691 22.3305C29.7459 22.185 29.8569 22.0602 29.9927 21.967C30.2752 21.7698 30.6142 21.6693 30.9589 21.6805C31.1744 21.6757 31.3884 21.7167 31.5867 21.8006C31.785 21.8846 31.9631 22.0097 32.1092 22.1676L31.721 22.3624C31.6164 22.2633 31.4932 22.1858 31.3585 22.1341C31.2238 22.0825 31.0802 22.0578 30.9359 22.0615C30.6883 22.0513 30.4446 22.1262 30.2458 22.2736C30.1629 22.3367 30.0958 22.418 30.0495 22.5111C30.0033 22.6043 29.9793 22.7068 29.9793 22.8108C29.9793 22.9147 30.0033 23.0172 30.0495 23.1104C30.0958 23.2036 30.1629 23.2849 30.2458 23.348C30.4472 23.4942 30.6928 23.567 30.9417 23.5543C31.1167 23.5725 31.2932 23.5371 31.4474 23.4525C31.6016 23.3681 31.7261 23.2386 31.8044 23.0815H30.8554V22.7205H32.3105ZM36.5866 23.8666H35.9741L34.5362 22.1188V23.8666H34.125V21.775H34.7375L36.1753 23.5285V21.775H36.5866V23.8666ZM39.8332 23.1789C39.8311 23.2902 39.799 23.399 39.7403 23.4937C39.6816 23.5885 39.5985 23.6658 39.4996 23.7176C39.2227 23.8553 38.9176 23.927 38.6081 23.927C38.2987 23.927 37.9935 23.8553 37.7167 23.7176C37.6171 23.6651 37.5336 23.5868 37.4749 23.491C37.4162 23.3952 37.3845 23.2854 37.3831 23.1732V21.775H37.7943V23.093C37.7943 23.4024 38.0666 23.5571 38.611 23.5571C39.1555 23.5571 39.4258 23.4024 39.4219 23.093V21.775H39.8303L39.8332 23.1789ZM42.7807 22.136H41.7742V23.8551H41.363V22.136H40.3565V21.775H42.7836L42.7807 22.136ZM45.8087 23.8666H45.3371L44.785 23.093H43.7383V23.8666H43.3271V21.775H45.0294C45.2234 21.7652 45.4138 21.8298 45.5614 21.9555C45.6286 22.0172 45.6814 22.0928 45.7161 22.1769C45.7509 22.261 45.7668 22.3517 45.7627 22.4426C45.7727 22.5954 45.7239 22.7463 45.6261 22.8645C45.5283 22.9827 45.389 23.0593 45.2365 23.0787L45.8087 23.8666ZM44.969 22.7205C45.2192 22.7205 45.3429 22.626 45.3429 22.434C45.3429 22.242 45.2106 22.1303 44.9403 22.1303H43.7383V22.7205H44.969ZM48.9806 23.8666H48.5262L48.2847 23.4167H46.8727L46.6312 23.8666H46.1768L47.3271 21.7664H47.8389L48.9806 23.8666ZM48.0805 23.0471L47.5801 22.116L47.0769 23.0443L48.0805 23.0471ZM52.0057 22.2707L51.6319 22.3996C51.5182 22.2886 51.3832 22.2017 51.235 22.1441C51.0867 22.0865 50.9283 22.0594 50.7692 22.0644C50.5129 22.0523 50.2598 22.1259 50.0503 22.2736C49.9669 22.3363 49.8993 22.4175 49.8527 22.5107C49.8061 22.6039 49.7819 22.7066 49.7819 22.8108C49.7819 22.9149 49.8061 23.0176 49.8527 23.1108C49.8993 23.204 49.9669 23.2852 50.0503 23.348C50.2609 23.4926 50.5139 23.5632 50.7692 23.5485C50.9287 23.5549 51.0877 23.5281 51.2362 23.4699C51.3848 23.4117 51.5195 23.3234 51.6319 23.2105L51.9885 23.3995C51.6999 23.6933 51.3162 23.8755 50.9055 23.9138C50.4947 23.9521 50.0837 23.844 49.7455 23.6087C49.6193 23.511 49.518 23.385 49.4498 23.241C49.3817 23.097 49.3487 22.9389 49.3535 22.7798C49.3582 22.6206 49.4006 22.4648 49.4773 22.3251C49.5539 22.1853 49.6625 22.0656 49.7944 21.9756C50.1353 21.7499 50.5465 21.6546 50.9524 21.7073C51.3583 21.7599 51.7313 21.957 52.0029 22.2621L52.0057 22.2707ZM54.9533 23.8666H52.6815V21.775H54.867V22.1475H53.0898V22.5973H54.3264V22.9698H53.0898V23.4941H54.9475L54.9533 23.8666ZM58.0072 23.1789C58.0051 23.2899 57.9733 23.3983 57.9152 23.493C57.8571 23.5876 57.7747 23.6652 57.6765 23.7176C57.3996 23.8553 57.0945 23.927 56.785 23.927C56.4756 23.927 56.1704 23.8553 55.8936 23.7176C55.7935 23.6654 55.7094 23.5873 55.6502 23.4915C55.5909 23.3957 55.5588 23.2857 55.5571 23.1732V21.775H55.9684V23.093C55.9684 23.4024 56.2406 23.5571 56.785 23.5571C57.3295 23.5571 57.5998 23.4024 57.596 23.093V21.775H58.0043L58.0072 23.1789ZM60.9633 22.136H59.9569V23.8551H59.5255V22.136H58.519V21.775H60.9633V22.136ZM61.9123 23.8666H61.4982V21.775H61.9094L61.9123 23.8666ZM65.248 22.2707L64.8742 22.3996C64.7608 22.2884 64.6258 22.2013 64.4775 22.1436C64.3291 22.086 64.1706 22.0591 64.0115 22.0644C63.7552 22.0523 63.5021 22.1259 63.2926 22.2736C63.2092 22.3363 63.1416 22.4175 63.095 22.5107C63.0484 22.6039 63.0242 22.7066 63.0242 22.8108C63.0242 22.9149 63.0484 23.0176 63.095 23.1108C63.1416 23.204 63.2092 23.2852 63.2926 23.348C63.5056 23.4945 63.7619 23.5651 64.0201 23.5485C64.1796 23.5549 64.3387 23.5281 64.4872 23.4699C64.6357 23.4117 64.7704 23.3234 64.8828 23.2105L65.2365 23.3995C64.948 23.6933 64.5642 23.8755 64.1535 23.9138C63.7428 23.9521 63.3318 23.844 62.9935 23.6087C62.8675 23.5108 62.7664 23.3846 62.6985 23.2405C62.6306 23.0963 62.5979 22.9382 62.6029 22.779C62.608 22.6199 62.6507 22.4641 62.7275 22.3245C62.8044 22.1849 62.9133 22.0654 63.0453 21.9756C63.3862 21.7499 63.7975 21.6546 64.2033 21.7073C64.6092 21.7599 64.9823 21.957 65.2538 22.2621L65.248 22.2707ZM68.4199 23.8666H67.9684L67.724 23.4167H66.3149L66.0676 23.8666H65.6161L66.7664 21.7664H67.2782L68.4199 23.8666ZM67.5198 23.0471L67.0166 22.116L66.5133 23.0443L67.5198 23.0471ZM70.9619 23.8666H68.9202V21.775H69.3343V23.4941H70.9677L70.9619 23.8666ZM73.4148 22.285C73.1407 22.1385 72.8345 22.0618 72.5234 22.0615C72.0556 22.0615 71.8208 22.1446 71.8189 22.3108C71.8189 22.4082 71.9051 22.4713 72.0834 22.5028L72.8023 22.5687C73.0577 22.5788 73.3083 22.6413 73.5385 22.752C73.6166 22.7974 73.6805 22.8635 73.7231 22.9429C73.7657 23.0223 73.7855 23.112 73.78 23.2019C73.7832 23.3081 73.7567 23.4132 73.7033 23.5053C73.65 23.5974 73.572 23.6729 73.4781 23.7233C73.2063 23.8609 72.9024 23.9232 72.5982 23.9038C72.1429 23.9274 71.6923 23.8016 71.3156 23.5457L71.5399 23.2592C71.8541 23.4685 72.2261 23.5747 72.6039 23.5629C72.7933 23.5714 72.9824 23.5402 73.1589 23.4712C73.2912 23.4139 73.3602 23.3279 73.3602 23.2305C73.3602 23.1331 73.2739 23.0414 73.1158 22.9956C72.9799 22.9644 72.8411 22.9471 72.7017 22.944L72.1553 22.9211C71.9528 22.9137 71.7552 22.8566 71.5802 22.7549C71.519 22.7132 71.4697 22.6564 71.437 22.5902C71.4042 22.524 71.3892 22.4504 71.3933 22.3767C71.3927 22.2788 71.4192 22.1825 71.47 22.0986C71.5207 22.0147 71.5937 21.9464 71.6808 21.9011C71.9361 21.7696 72.222 21.7082 72.509 21.7235C72.9149 21.7059 73.3164 21.8129 73.6593 22.03L73.4148 22.285Z" fill="#141414"/>
</svg>
