<svg width="20" height="20" viewBox="0 0 20 20" fill="none" xmlns="http://www.w3.org/2000/svg">
<path d="M9.16699 1.6665C13.3092 1.6665 16.667 5.02437 16.667 9.1665C16.667 10.9373 16.0519 12.5637 15.0256 13.8467L18.5062 17.3273L17.3278 18.5057L13.8472 15.0251C12.5642 16.0514 10.9378 16.6665 9.16699 16.6665C5.02486 16.6665 1.66699 13.3087 1.66699 9.1665C1.66699 5.02437 5.02486 1.6665 9.16699 1.6665ZM9.16699 3.33317C5.94533 3.33317 3.33366 5.94484 3.33366 9.1665C3.33366 12.3882 5.94533 14.9998 9.16699 14.9998C12.3887 14.9998 15.0003 12.3882 15.0003 9.1665C15.0003 5.94484 12.3887 3.33317 9.16699 3.33317Z" fill="#141414"/>
</svg>
