<svg width="148" height="20" viewBox="0 0 148 20" fill="none" xmlns="http://www.w3.org/2000/svg">
<g clip-path="url(#clip0_385_1479)">
<path d="M9.88793 5.8C9.56897 3.52 8.25323 2.12 6.21983 2.12C3.50862 2.12 2.75108 3.92 2.75108 5.24C2.75108 6.68 3.6681 7.6 5.54203 8.32L7.97414 9.24C11.0442 10.4 12.4397 12.16 12.4397 14.52C12.4397 17.64 9.96767 19.88 6.29957 19.88C2.79095 19.84 0.318966 18 0 14.16H2.43211C2.63147 16.28 3.70797 17.72 6.37931 17.72C8.49246 17.72 10.0075 16.36 10.0075 14.68C10.0075 13.2 8.77155 12.24 7.01724 11.52L4.58513 10.56C1.71444 9.44 0.318966 7.76 0.318966 5.28C0.318966 2 3.07004 0 6.21983 0C9.36961 0 11.8815 1.88 12.1606 5.8H9.88793Z" fill="black"/>
<path d="M28.0686 0.319824H30.5007V19.5598H28.0686V10.8398H18.061V19.5598H15.6289V0.319824H18.061V8.55982H28.0686V0.319824Z" fill="black"/>
<path d="M44.0967 0C50.5956 0 54.2637 5.16 54.2637 9.92C54.2637 14.68 50.5956 19.84 44.0967 19.84C37.5978 19.84 33.9297 14.68 33.9297 9.92C33.9297 5.16 37.5579 0 44.0967 0ZM44.0967 17.56C48.2831 17.56 51.712 14.12 51.712 9.92C51.712 5.72 48.2831 2.28 44.0967 2.28C39.9103 2.28 36.4814 5.72 36.4814 9.92C36.4415 14.12 39.7907 17.52 43.9771 17.56H44.0967Z" fill="black"/>
<path d="M57.6934 0.319824H62.9962C67.063 0.319824 69.4951 3.43982 69.4951 6.67982C69.4951 9.91982 67.063 12.9998 62.9962 12.9998H60.1255V19.5598H57.6934V0.319824ZM62.4778 10.8398C65.3884 10.8398 67.063 9.43982 67.063 6.63982C67.063 3.83982 65.3884 2.39982 62.4778 2.39982H60.0856V10.8398H62.4778Z" fill="black"/>
<path d="M99.9557 4.36016C98.6001 3.12016 96.8458 2.40016 95.0118 2.40016C90.8253 2.40016 87.3964 5.84016 87.3964 10.0402C87.3964 14.2402 90.8253 17.6802 95.0118 17.6802C96.9255 17.6802 98.7596 16.9601 100.115 15.6402L101.67 17.4002C99.8361 19.0401 97.4837 19.9601 95.0118 20.0002C88.5128 20.0002 84.8447 14.8402 84.8447 10.0802C84.8447 5.32016 88.5128 0.160156 95.0118 0.160156C97.4439 0.160156 99.7564 1.04016 101.59 2.60016L99.9557 4.36016Z" fill="black"/>
<path d="M113.95 0.120117C120.449 0.120117 124.117 5.28012 124.117 10.0401C124.117 14.8001 120.449 19.9601 113.95 19.9601C107.452 19.9601 103.783 14.8001 103.783 10.0401C103.783 5.28012 107.452 0.120117 113.95 0.120117ZM113.95 17.6801C118.137 17.6801 121.566 14.2401 121.566 10.0401C121.566 5.84012 118.137 2.40012 113.95 2.40012C109.764 2.40012 106.335 5.84012 106.335 10.0401C106.295 14.2401 109.684 17.6401 113.871 17.6801C113.897 17.6801 113.924 17.6801 113.95 17.6801Z" fill="black"/>
<path d="M145.568 0.399902H148V19.6399H145.568V5.3999H145.528L137.793 19.8399L130.058 5.3999H129.978V19.6399H127.586V0.399902H130.018L137.833 14.9199L145.568 0.399902Z" fill="black"/>
<path d="M80.8577 9.63984C80.8577 11.7198 79.1432 13.4398 77.0699 13.4398C74.9967 13.4398 73.2822 11.7198 73.2822 9.63984C73.2822 7.55984 74.9967 5.83984 77.0699 5.83984C79.1432 5.87984 80.8178 7.55984 80.8577 9.63984Z" fill="#098AA7"/>
</g>
<defs>
<clipPath id="clip0_385_1479">
<rect width="148" height="20" fill="white"/>
</clipPath>
</defs>
</svg>
