<svg width="127" height="17" viewBox="0 0 127 17" fill="none" xmlns="http://www.w3.org/2000/svg">
<g clip-path="url(#clip0_473_6810)">
<path d="M8.48046 4.93C8.2069 2.992 7.07845 1.802 5.33448 1.802C3.0092 1.802 2.35948 3.332 2.35948 4.454C2.35948 5.678 3.14598 6.46 4.75316 7.072L6.83908 7.854C9.47213 8.84 10.669 10.336 10.669 12.342C10.669 14.994 8.54885 16.898 5.40287 16.898C2.39368 16.864 0.273563 15.3 0 12.036H2.08592C2.2569 13.838 3.18017 15.062 5.47126 15.062C7.28362 15.062 8.58305 13.906 8.58305 12.478C8.58305 11.22 7.52299 10.404 6.01839 9.792L3.93247 8.976C1.4704 8.024 0.273563 6.596 0.273563 4.488C0.273563 1.7 2.63305 0 5.33448 0C8.03592 0 10.1902 1.598 10.4296 4.93H8.48046Z" fill="#141414"/>
<path d="M24.0738 0.272002H26.1598V16.626H24.0738V9.214H15.4908V16.626H13.4049V0.272002H15.4908V7.276H24.0738V0.272002Z" fill="#141414"/>
<path d="M37.8201 0C43.3939 0 46.5399 4.386 46.5399 8.432C46.5399 12.478 43.3939 16.864 37.8201 16.864C32.2462 16.864 29.1003 12.478 29.1003 8.432C29.1003 4.386 32.212 0 37.8201 0ZM37.8201 14.926C41.4106 14.926 44.3514 12.002 44.3514 8.432C44.3514 4.862 41.4106 1.938 37.8201 1.938C34.2296 1.938 31.2888 4.862 31.2888 8.432C31.2546 12.002 34.127 14.892 37.7175 14.926H37.8201Z" fill="#141414"/>
<path d="M49.4809 0.272002H54.0289C57.5168 0.272002 59.6028 2.924 59.6028 5.678C59.6028 8.432 57.5168 11.05 54.0289 11.05H51.5668V16.626H49.4809V0.272002ZM53.5844 9.214C56.0806 9.214 57.5168 8.024 57.5168 5.644C57.5168 3.264 56.0806 2.04 53.5844 2.04H51.5326V9.214H53.5844Z" fill="#141414"/>
<path d="M85.7279 3.706C84.5653 2.652 83.0607 2.04 81.4877 2.04C77.8971 2.04 74.9563 4.964 74.9563 8.534C74.9563 12.104 77.8971 15.028 81.4877 15.028C83.129 15.028 84.702 14.416 85.8647 13.294L87.1983 14.79C85.6253 16.184 83.6078 16.966 81.4877 17C75.9138 17 72.7678 12.614 72.7678 8.568C72.7678 4.522 75.9138 0.136001 81.4877 0.136001C83.5736 0.136001 85.5569 0.884001 87.1299 2.21L85.7279 3.706Z" fill="#141414"/>
<path d="M97.7303 0.101997C103.304 0.101997 106.45 4.488 106.45 8.534C106.45 12.58 103.304 16.966 97.7303 16.966C92.1564 16.966 89.0105 12.58 89.0105 8.534C89.0105 4.488 92.1564 0.101997 97.7303 0.101997ZM97.7303 15.028C101.321 15.028 104.262 12.104 104.262 8.534C104.262 4.964 101.321 2.04 97.7303 2.04C94.1398 2.04 91.199 4.964 91.199 8.534C91.1648 12.104 94.0714 14.994 97.6619 15.028C97.6847 15.028 97.7075 15.028 97.7303 15.028Z" fill="#141414"/>
<path d="M124.847 0.340003H126.933V16.694H124.847V4.59H124.813L118.179 16.864L111.545 4.59H111.477V16.694H109.425V0.340003H111.511L118.214 12.682L124.847 0.340003Z" fill="#141414"/>
<path d="M69.3482 8.194C69.3482 9.962 67.8778 11.424 66.0997 11.424C64.3215 11.424 62.8511 9.962 62.8511 8.194C62.8511 6.426 64.3215 4.964 66.0997 4.964C67.8778 4.998 69.3141 6.426 69.3482 8.194Z" fill="#098AA7"/>
</g>
<defs>
<clipPath id="clip0_473_6810">
<rect width="126.934" height="17.0001" fill="white"/>
</clipPath>
</defs>
</svg>
