<svg width="178" height="24" viewBox="0 0 178 24" fill="none" xmlns="http://www.w3.org/2000/svg">
<g clip-path="url(#clip0_385_2153)">
<path d="M11.8922 6.96C11.5086 4.224 9.92619 2.544 7.4806 2.544C4.21983 2.544 3.30873 4.704 3.30873 6.288C3.30873 8.016 4.41164 9.12 6.66541 9.984L9.59052 11.088C13.2829 12.48 14.9612 14.592 14.9612 17.424C14.9612 21.168 11.9881 23.856 7.57651 23.856C3.35668 23.808 0.383621 21.6 0 16.992H2.92511C3.16487 19.536 4.45959 21.264 7.67241 21.264C10.2139 21.264 12.0361 19.632 12.0361 17.616C12.0361 15.84 10.5496 14.688 8.43966 13.824L5.51455 12.672C2.06196 11.328 0.383621 9.312 0.383621 6.336C0.383621 2.4 3.69235 0 7.4806 0C11.2689 0 14.2899 2.256 14.6255 6.96H11.8922Z" fill="#141414"/>
<path d="M33.7591 0.383789H36.6842V23.4718H33.7591V13.0078H21.723V23.4718H18.7979V0.383789H21.723V10.2718H33.7591V0.383789Z" fill="#141414"/>
<path d="M53.0355 0C60.8518 0 65.2634 6.192 65.2634 11.904C65.2634 17.616 60.8518 23.808 53.0355 23.808C45.2193 23.808 40.8076 17.616 40.8076 11.904C40.8076 6.192 45.1713 0 53.0355 0ZM53.0355 21.072C58.0705 21.072 62.1945 16.944 62.1945 11.904C62.1945 6.864 58.0705 2.736 53.0355 2.736C48.0005 2.736 43.8766 6.864 43.8766 11.904C43.8286 16.944 47.8566 21.024 52.8917 21.072H53.0355Z" fill="#141414"/>
<path d="M69.3877 0.383789H75.7654C80.6566 0.383789 83.5817 4.12779 83.5817 8.01579C83.5817 11.9038 80.6566 15.5998 75.7654 15.5998H72.3128V23.4718H69.3877V0.383789ZM75.142 13.0078C78.6425 13.0078 80.6566 11.3278 80.6566 7.96779C80.6566 4.60779 78.6425 2.87979 75.142 2.87979H72.2649V13.0078H75.142Z" fill="#141414"/>
<path d="M120.217 5.23189C118.587 3.74389 116.477 2.87989 114.271 2.87989C109.236 2.87989 105.112 7.00789 105.112 12.0479C105.112 17.0879 109.236 21.2159 114.271 21.2159C116.573 21.2159 118.779 20.3519 120.409 18.7679L122.279 20.8799C120.073 22.8479 117.244 23.9519 114.271 23.9999C106.455 23.9999 102.043 17.8079 102.043 12.0959C102.043 6.38389 106.455 0.191895 114.271 0.191895C117.196 0.191895 119.977 1.24789 122.183 3.11989L120.217 5.23189Z" fill="#141414"/>
<path d="M137.048 0.144043C144.864 0.144043 149.276 6.33604 149.276 12.048C149.276 17.76 144.864 23.952 137.048 23.952C129.232 23.952 124.82 17.76 124.82 12.048C124.82 6.33604 129.232 0.144043 137.048 0.144043ZM137.048 21.216C142.083 21.216 146.207 17.088 146.207 12.048C146.207 7.00804 142.083 2.88004 137.048 2.88004C132.013 2.88004 127.889 7.00804 127.889 12.048C127.841 17.088 131.917 21.168 136.952 21.216C136.984 21.216 137.016 21.216 137.048 21.216Z" fill="#141414"/>
<path d="M175.075 0.47998H178V23.568H175.075V6.47998H175.027L165.724 23.808L156.421 6.47998H156.325V23.568H153.448V0.47998H156.373L165.772 17.904L175.075 0.47998Z" fill="#141414"/>
<path d="M97.248 11.5678C97.248 14.0638 95.186 16.1278 92.6925 16.1278C90.1989 16.1278 88.137 14.0638 88.137 11.5678C88.137 9.07181 90.1989 7.00781 92.6925 7.00781C95.186 7.05581 97.2 9.07181 97.248 11.5678Z" fill="#098AA7"/>
</g>
<defs>
<clipPath id="clip0_385_2153">
<rect width="178" height="24" fill="white"/>
</clipPath>
</defs>
</svg>
