<svg width="56" height="31" viewBox="0 0 56 31" fill="none" xmlns="http://www.w3.org/2000/svg">
<g clip-path="url(#clip0_473_5831)">
<path d="M5.26825 4.55969C5.26825 4.99202 5.26825 5.5297 4.81374 5.91807C4.5846 6.11775 4.21836 6.2469 3.8803 6.2469C3.54223 6.2469 3.16284 6.10401 2.92432 5.88326C2.52896 5.50954 2.52896 4.98561 2.52896 4.70441V0H0.337158V4.56335C0.337158 5.4381 0.432005 6.43192 1.13631 7.17844C1.71854 7.78755 2.70551 8.13745 3.84367 8.13745C4.98183 8.13745 5.85612 7.82236 6.53789 7.14455C7.38963 6.30277 7.45912 5.47749 7.45912 4.56427V0H5.26731V4.55969H5.26825ZM11.3619 0H9.17012V7.95976H13.8749V6.12874H11.361V0H11.3619ZM13.4608 1.83102H15.1765V7.95976H17.3683V1.83102H19.084V0H13.4608V1.83102ZM20.0343 7.95976H22.2261V0H20.0343V7.95976ZM30.382 0L28.6898 4.10995L27.0915 0H24.9476L23.5652 7.95976H25.7467L26.4144 3.57136L28.2062 7.92861L28.2184 7.95976H29.1199L31.0055 3.57319L31.5793 7.95976H33.773L32.5503 0H30.382ZM39.816 0H37.4626L34.3308 7.95976H36.6494L37.1931 6.63985H40.0479L40.5438 7.95976H42.8877L39.8282 0.0320589L39.816 0ZM37.8092 4.98561L38.6215 2.64073L39.4563 4.98561H37.8092ZM42.6905 1.83102H44.4062V7.95976H46.598V1.83102H48.3137V0H42.6905V1.83102ZM53.9453 1.83102V0H49.264V7.95976H53.9453V6.12874H51.4558V4.87203H53.812V3.04101H51.4558V1.83102H53.9453Z" fill="#010101"/>
<path d="M38.488 16.5534C38.4261 15.5898 38.2824 14.6591 37.9903 13.8174C37.9406 13.6589 37.888 13.5169 37.8326 13.3933C37.8091 13.3438 37.7875 13.2962 37.7631 13.2485C37.132 11.8609 36.0089 10.78 34.0547 10.2955C33.1823 10.0637 32.215 9.97029 31.183 9.98312C30.1509 9.97029 29.1837 10.0637 28.3103 10.2955C26.358 10.78 25.2348 11.8609 24.6028 13.2485C24.5794 13.2962 24.5568 13.3438 24.5334 13.3933C24.4779 13.516 24.4254 13.658 24.3756 13.8174C24.0835 14.6591 23.9389 15.5898 23.8779 16.5534C23.8159 17.5188 23.7492 19.1016 23.7558 20.8126C23.7483 22.7865 23.8243 24.6239 23.9211 25.6297C23.9474 25.8971 23.9896 26.1582 24.0488 26.4128C22.288 26.3432 20.9536 25.005 20.8531 23.3846L20.8503 23.3498C20.8409 23.2161 20.8324 23.0805 20.824 22.9459V22.9441C20.7686 22.0162 20.7414 20.775 20.7226 19.0503V16.1485C20.7076 15.4624 20.7038 14.8304 20.7226 14.2744C20.7301 14.0867 20.7376 13.9071 20.7507 13.7377C20.8343 12.5689 21.0268 11.2371 21.564 10.1636H15.0111C15.5492 11.2371 15.7417 12.5698 15.8253 13.7377C15.8384 13.9071 15.8469 14.0867 15.8535 14.2744C15.8722 14.8304 15.8675 15.4624 15.8535 16.1485V19.0503C15.8535 22.1353 15.0167 26.1838 17.1654 28.7989C17.4818 29.1836 17.8603 29.5152 18.2875 29.7973C19.3074 30.4715 20.5986 30.858 21.9359 30.9679C22.0486 30.978 22.1631 30.9844 22.2777 30.9908H23.1576C23.1576 30.9908 30.751 31.0027 31.182 31.0009C31.6628 31.0027 32.138 30.9826 32.5991 30.934C32.6479 30.9304 32.6949 30.9258 32.7428 30.9212C33.8988 30.8113 34.8829 30.4953 35.6943 30.0236C36.4099 29.6196 37.0221 29.0728 37.4945 28.3519C38.0288 27.5578 38.3472 26.6299 38.4439 25.6315C38.5406 24.6258 38.6167 22.7883 38.6092 20.8144C38.6167 19.1034 38.5481 17.5206 38.4871 16.5552L38.488 16.5534ZM31.0909 26.1948C28.4305 26.1609 26.7599 23.0283 27.8483 20.1265C28.639 18.018 30.0964 16.088 32.3822 14.4897C31.7304 17.6324 32.8818 18.4256 33.9025 19.8307C35.7488 22.3725 34.2096 26.2342 31.0909 26.1948Z" fill="#010101"/>
<path d="M51.5112 22.0519C51.8446 24.3602 50.3176 25.8211 49.3072 26.52C48.6019 27.0073 47.6131 27.0888 46.8327 26.6968C46.0956 26.3277 45.6758 25.6178 45.7753 24.7458C46.1312 21.6233 51.1713 21.0773 53.0767 18.6903C54.8262 16.4984 54.9773 11.6896 51.8296 10.3688C51.1694 10.0912 50.4961 9.95566 49.8397 9.952L46.027 9.95108C43.0041 9.95108 40.4733 12.2703 40.3841 15.217C40.3822 15.2866 40.3813 15.3571 40.3813 15.4276V15.4258C40.3446 19.599 39.6657 26.3451 41.6819 28.798C44.964 32.7889 55.2046 31.2601 53.7143 24.9656C53.4889 24.0158 52.4653 22.4146 51.5121 22.0519H51.5112ZM45.2363 15.3031C45.2363 14.0967 47.0703 12.982 48.1841 14.0052C50.0528 15.7217 47.5013 18.7077 45.2363 19.0494V15.3022V15.3031Z" fill="#010101"/>
<path d="M2.80123 18.8983C2.46785 16.5909 3.99573 15.129 5.00618 14.4302C5.71049 13.9429 6.69934 13.8613 7.48065 14.2543C8.21783 14.6243 8.63665 15.3342 8.53711 16.2053C8.18214 19.3278 3.14211 19.8738 1.23579 22.2617C-0.513715 24.4536 -0.664907 29.2615 2.48382 30.5832C3.14493 30.8608 3.81731 30.9963 4.47372 31H14.8843L14.7763 30.7884H14.7867C14.2495 29.7149 14.057 28.3822 13.9725 27.2143C13.703 23.4854 14.9519 14.9752 12.6315 12.1531C9.35035 8.16128 -0.890285 9.69095 0.599091 15.9855C0.82447 16.9353 1.84712 18.5355 2.80123 18.8983ZM9.0752 25.6471C9.0752 26.8534 7.24119 27.9682 6.12838 26.945C4.25868 25.2276 6.81109 22.2415 9.0752 21.8999V25.6462V25.6471Z" fill="#010101"/>
<path d="M53.8692 29.9411H53.4879V29.7433H54.4711V29.9411H54.0899V30.978H53.8682V29.9411H53.8692Z" fill="#010101"/>
<path d="M54.6186 29.7433H54.8881L55.3135 30.5612L55.7314 29.7433H55.999V30.978H55.7774V30.1188C55.7643 30.1481 55.7511 30.1747 55.7398 30.1967L55.3182 31H55.2994L54.8778 30.2077C54.8665 30.1857 54.8533 30.1591 54.8402 30.1298V30.978H54.6167V29.7433H54.6186Z" fill="#010101"/>
</g>
<defs>
<clipPath id="clip0_473_5831">
<rect width="56" height="31" fill="white"/>
</clipPath>
</defs>
</svg>
