<svg width="56" height="31" viewBox="0 0 56 31" fill="none" xmlns="http://www.w3.org/2000/svg">
<g clip-path="url(#clip0_473_12040)">
<path d="M5.26801 4.55969C5.26801 4.99202 5.26801 5.5297 4.8135 5.91807C4.58436 6.11775 4.21812 6.2469 3.88005 6.2469C3.54199 6.2469 3.1626 6.10401 2.92407 5.88326C2.52872 5.50954 2.52872 4.98561 2.52872 4.70441V0H0.336914V4.56335C0.336914 5.4381 0.431761 6.43192 1.13607 7.17844C1.7183 7.78755 2.70527 8.13745 3.84343 8.13745C4.98159 8.13745 5.85587 7.82236 6.53764 7.14455C7.38939 6.30277 7.45888 5.47749 7.45888 4.56427V0H5.26707V4.55969H5.26801ZM11.3617 0H9.16988V7.95976H13.8747V6.12874H11.3607V0H11.3617ZM13.4605 1.83102H15.1762V7.95976H17.368V1.83102H19.0837V0H13.4605V1.83102ZM20.0341 7.95976H22.2259V0H20.0341V7.95976ZM30.3818 0L28.6895 4.10995L27.0912 0H24.9473L23.565 7.95976H25.7465L26.4142 3.57136L28.2059 7.92861L28.2181 7.95976H29.1196L31.0053 3.57319L31.5791 7.95976H33.7728L32.5501 0H30.3818ZM39.8157 0H37.4624L34.3306 7.95976H36.6492L37.1929 6.63985H40.0477L40.5435 7.95976H42.8875L39.8279 0.0320589L39.8157 0ZM37.8089 4.98561L38.6212 2.64073L39.4561 4.98561H37.8089ZM42.6902 1.83102H44.4059V7.95976H46.5977V1.83102H48.3134V0H42.6902V1.83102ZM53.9451 1.83102V0H49.2638V7.95976H53.9451V6.12874H51.4556V4.87203H53.8117V3.04101H51.4556V1.83102H53.9451Z" fill="#010101"/>
<path d="M38.4882 16.5534C38.4262 15.5898 38.2825 14.6591 37.9905 13.8174C37.9407 13.6589 37.8881 13.5169 37.8327 13.3933C37.8092 13.3438 37.7876 13.2962 37.7632 13.2485C37.1321 11.8609 36.009 10.78 34.0548 10.2955C33.1824 10.0637 32.2151 9.97029 31.1831 9.98312C30.151 9.97029 29.1838 10.0637 28.3104 10.2955C26.3581 10.78 25.235 11.8609 24.603 13.2485C24.5795 13.2962 24.557 13.3438 24.5335 13.3933C24.4781 13.516 24.4255 13.658 24.3757 13.8174C24.0837 14.6591 23.939 15.5898 23.878 16.5534C23.816 17.5188 23.7493 19.1016 23.7559 20.8126C23.7484 22.7865 23.8245 24.6239 23.9212 25.6297C23.9475 25.8971 23.9897 26.1582 24.0489 26.4128C22.2881 26.3432 20.9537 25.005 20.8532 23.3846L20.8504 23.3498C20.841 23.2161 20.8326 23.0805 20.8241 22.9459V22.9441C20.7687 22.0162 20.7415 20.775 20.7227 19.0503V16.1485C20.7077 15.4624 20.7039 14.8304 20.7227 14.2744C20.7302 14.0867 20.7377 13.9071 20.7509 13.7377C20.8344 12.5689 21.027 11.2371 21.5641 10.1636H15.0112C15.5493 11.2371 15.7418 12.5698 15.8254 13.7377C15.8386 13.9071 15.847 14.0867 15.8536 14.2744C15.8724 14.8304 15.8677 15.4624 15.8536 16.1485V19.0503C15.8536 22.1353 15.0169 26.1838 17.1655 28.7989C17.4819 29.1836 17.8604 29.5152 18.2877 29.7973C19.3075 30.4715 20.5987 30.858 21.936 30.9679C22.0487 30.978 22.1632 30.9844 22.2778 30.9908H23.1577C23.1577 30.9908 30.7511 31.0027 31.1821 31.0009C31.663 31.0027 32.1381 30.9826 32.5992 30.934C32.648 30.9304 32.695 30.9258 32.7429 30.9212C33.8989 30.8113 34.883 30.4953 35.6944 30.0236C36.41 29.6196 37.0223 29.0728 37.4946 28.3519C38.029 27.5578 38.3473 26.6299 38.444 25.6315C38.5408 24.6258 38.6168 22.7883 38.6093 20.8144C38.6168 19.1034 38.5483 17.5206 38.4872 16.5552L38.4882 16.5534ZM31.0911 26.1948C28.4306 26.1609 26.76 23.0283 27.8484 20.1265C28.6391 18.018 30.0966 16.088 32.3823 14.4897C31.7306 17.6324 32.8819 18.4256 33.9026 19.8307C35.7489 22.3725 34.2097 26.2342 31.0911 26.1948Z" fill="#010101"/>
<path d="M51.5111 22.0519C51.8445 24.3602 50.3175 25.8211 49.3071 26.52C48.6018 27.0073 47.613 27.0888 46.8326 26.6968C46.0954 26.3277 45.6757 25.6178 45.7752 24.7458C46.1311 21.6233 51.1711 21.0773 53.0765 18.6903C54.826 16.4984 54.9772 11.6896 51.8294 10.3688C51.1693 10.0912 50.4959 9.95566 49.8395 9.952L46.0269 9.95108C43.004 9.95108 40.4732 12.2703 40.384 15.217C40.3821 15.2866 40.3811 15.3571 40.3811 15.4276V15.4258C40.3445 19.599 39.6656 26.3451 41.6818 28.798C44.9638 32.7889 55.2045 31.2601 53.7142 24.9656C53.4888 24.0158 52.4652 22.4146 51.512 22.0519H51.5111ZM45.2362 15.3031C45.2362 14.0967 47.0702 12.982 48.1839 14.0052C50.0527 15.7217 47.5012 18.7077 45.2362 19.0494V15.3022V15.3031Z" fill="#010101"/>
<path d="M2.80111 18.8983C2.46773 16.5909 3.99561 15.129 5.00606 14.4302C5.71037 13.9429 6.69922 13.8613 7.48053 14.2543C8.2177 14.6243 8.63653 15.3342 8.53699 16.2053C8.18202 19.3278 3.14199 19.8738 1.23566 22.2617C-0.513837 24.4536 -0.665029 29.2615 2.4837 30.5832C3.14481 30.8608 3.81719 30.9963 4.4736 31H14.8842L14.7762 30.7884H14.7865C14.2494 29.7149 14.0569 28.3822 13.9724 27.2143C13.7029 23.4854 14.9518 14.9752 12.6314 12.1531C9.35023 8.16128 -0.890407 9.69095 0.598969 15.9855C0.824348 16.9353 1.847 18.5355 2.80111 18.8983ZM9.07508 25.6471C9.07508 26.8534 7.24106 27.9682 6.12826 26.945C4.25855 25.2276 6.81097 22.2415 9.07508 21.8999V25.6462V25.6471Z" fill="#010101"/>
<path d="M53.8691 29.9411H53.4878V29.7433H54.471V29.9411H54.0897V30.978H53.8681V29.9411H53.8691Z" fill="#010101"/>
<path d="M54.6186 29.7433H54.8881L55.3135 30.5612L55.7314 29.7433H55.999V30.978H55.7774V30.1188C55.7643 30.1481 55.7511 30.1747 55.7398 30.1967L55.3182 31H55.2994L54.8778 30.2077C54.8665 30.1857 54.8533 30.1591 54.8402 30.1298V30.978H54.6167V29.7433H54.6186Z" fill="#010101"/>
</g>
<defs>
<clipPath id="clip0_473_12040">
<rect width="56" height="31" fill="white"/>
</clipPath>
</defs>
</svg>
