<svg width="18" height="18" viewBox="0 0 18 18" fill="none" xmlns="http://www.w3.org/2000/svg">
<path fill-rule="evenodd" clip-rule="evenodd" d="M0 2.25H18V15.75H0V2.25Z" fill="#F7FCFF"/>
<path fill-rule="evenodd" clip-rule="evenodd" d="M0 10.4996V11.6246H18V10.4996H0ZM0 12.5629V13.6879H18V12.5629H0ZM0 6.37537V7.50037H18V6.37537H0ZM0 14.625V15.75H18V14.625H0ZM0 8.4375V9.5625H18V8.4375H0ZM0 2.25V3.375H18V2.25H0ZM0 4.31269V5.43769H18V4.31269H0Z" fill="#E31D1C"/>
<path d="M0 2.25H11.25V9.5625H0V2.25Z" fill="#2E42A5"/>
<path fill-rule="evenodd" clip-rule="evenodd" d="M0.969312 3.90316L0.560937 4.18947L0.69875 3.67985L0.335938 3.35697H0.810125L0.96875 2.94128L1.15494 3.35753H1.55881L1.24156 3.67985L1.36419 4.18947L0.969312 3.90316ZM3.21931 3.90316L2.81094 4.18947L2.94875 3.67985L2.58594 3.35697H3.06012L3.21875 2.94128L3.40494 3.35753H3.80881L3.49156 3.67985L3.61419 4.18947L3.21931 3.90316ZM5.06094 4.18947L5.46931 3.9026L5.86419 4.18947L5.74156 3.67985L6.05881 3.35697H5.65494L5.46875 2.94128L5.31012 3.35753H4.83594L5.19875 3.67985L5.06094 4.18947ZM7.71931 3.9026L7.31094 4.18947L7.44875 3.67985L7.08594 3.35697H7.55956L7.71875 2.94128L7.90494 3.35753H8.30881L7.99156 3.67985L8.11419 4.18947L7.71931 3.9026ZM0.560937 6.44003L0.969312 6.15316L1.36419 6.44003L1.24156 5.93041L1.55881 5.60753H1.15494L0.96875 5.19185L0.810125 5.6081H0.335938L0.69875 5.93041L0.560937 6.44003ZM3.21931 6.15316L2.81094 6.44003L2.94875 5.93041L2.58594 5.60753H3.06012L3.21875 5.19185L3.40494 5.6081H3.80881L3.49156 5.93041L3.61419 6.44003L3.21931 6.15316ZM5.06094 6.44003L5.46931 6.15316L5.86419 6.44003L5.74156 5.93041L6.05881 5.60753H5.65494L5.46875 5.19185L5.31012 5.6081H4.83594L5.19875 5.93041L5.06094 6.44003ZM7.71931 6.15316L7.31094 6.44003L7.44875 5.93041L7.08594 5.60753H7.55956L7.71875 5.19185L7.90494 5.6081H8.30881L7.99156 5.93041L8.11419 6.44003L7.71931 6.15316ZM0.560937 8.69003L0.969312 8.40316L1.36419 8.69003L1.24156 8.18041L1.55881 7.85753H1.15494L0.96875 7.44185L0.810125 7.8581H0.335938L0.69875 8.18041L0.560937 8.69003ZM3.21931 8.40316L2.81094 8.69003L2.94875 8.18041L2.58594 7.85753H3.06012L3.21875 7.44185L3.40494 7.8581H3.80881L3.49156 8.18041L3.61419 8.69003L3.21931 8.40316ZM5.06094 8.69003L5.46931 8.40316L5.86419 8.69003L5.74156 8.18041L6.05881 7.85753H5.65494L5.46875 7.44185L5.31012 7.8581H4.83594L5.19875 8.18041L5.06094 8.69003ZM7.71931 8.40316L7.31094 8.69003L7.44875 8.18041L7.08594 7.85753H7.55956L7.71875 7.44185L7.90494 7.8581H8.30881L7.99156 8.18041L8.11419 8.69003L7.71931 8.40316ZM9.56094 4.19003L9.96931 3.90316L10.3642 4.19003L10.2416 3.68041L10.5588 3.35753H10.1549L9.96875 2.94185L9.81012 3.3581H9.33594L9.69875 3.68041L9.56094 4.19003ZM9.96931 6.15316L9.56094 6.44003L9.69875 5.93041L9.33594 5.60753H9.81012L9.96875 5.19185L10.1549 5.6081H10.5588L10.2416 5.93041L10.3642 6.44003L9.96931 6.15316ZM9.56094 8.69003L9.96931 8.40316L10.3642 8.69003L10.2416 8.18041L10.5588 7.85753H10.1549L9.96875 7.44185L9.81012 7.8581H9.33594L9.69875 8.18041L9.56094 8.69003ZM2.09431 5.0276L1.68594 5.31447L1.82375 4.80485L1.46094 4.48197H1.93512L2.09375 4.06628L2.27994 4.48253H2.68381L2.36656 4.80485L2.48919 5.31447L2.09431 5.0276ZM3.93594 5.31447L4.34431 5.0276L4.73919 5.31447L4.61656 4.80485L4.93381 4.48197H4.52994L4.34375 4.06628L4.18512 4.48253H3.71094L4.07375 4.80485L3.93594 5.31447ZM6.59431 5.0276L6.18594 5.31447L6.32375 4.80485L5.96094 4.48197H6.43456L6.59375 4.06628L6.77994 4.48253H7.18381L6.86656 4.80485L6.98919 5.31447L6.59431 5.0276ZM1.68594 7.56447L2.09431 7.2776L2.48919 7.56447L2.36656 7.05485L2.68381 6.73197H2.27994L2.09375 6.31628L1.93512 6.73253H1.46094L1.82375 7.05485L1.68594 7.56447ZM4.34431 7.2776L3.93594 7.56447L4.07375 7.05485L3.71094 6.73197H4.18512L4.34375 6.31628L4.52994 6.73253H4.93381L4.61656 7.05485L4.73919 7.56447L4.34431 7.2776ZM6.18594 7.56447L6.59431 7.2776L6.98919 7.56447L6.86656 7.05485L7.18381 6.73197H6.77994L6.59375 6.31628L6.43456 6.73253H5.96094L6.32375 7.05485L6.18594 7.56447ZM8.84431 5.0276L8.43594 5.31447L8.57375 4.80485L8.21094 4.48197H8.68456L8.84375 4.06628L9.02994 4.48253H9.43381L9.11656 4.80485L9.23919 5.31447L8.84431 5.0276ZM8.43594 7.56447L8.84431 7.2776L9.23919 7.56447L9.11656 7.05485L9.43381 6.73197H9.02994L8.84375 6.31628L8.68456 6.73253H8.21094L8.57375 7.05485L8.43594 7.56447Z" fill="#F7FCFF"/>
</svg>
